<?xml version="1.0" encoding="UTF-8" standalone="no"?>
<!DOCTYPE svg PUBLIC "-//W3C//DTD SVG 1.1//EN"
 "http://www.w3.org/Graphics/SVG/1.1/DTD/svg11.dtd">
<!-- Generated by graphviz version 7.0.1 (20221109.1506)
 -->
<!-- Title: G Pages: 1 -->
<svg width="1554pt" height="1491pt"
 viewBox="0.00 0.00 1554.00 1491.00" xmlns="http://www.w3.org/2000/svg" xmlns:xlink="http://www.w3.org/1999/xlink">
<g id="graph0" class="graph" transform="scale(1 1) rotate(0) translate(4 1487)">
<title>G</title>
<polygon fill="white" stroke="none" points="-4,4 -4,-1487 1550,-1487 1550,4 -4,4"/>
<g id="clust2" class="cluster">
<title>cluster_3f897f4c</title>
<polygon fill="none" stroke="black" stroke-dasharray="1,5" points="539.5,-743 539.5,-818 638.5,-818 638.5,-743 539.5,-743"/>
<text text-anchor="middle" x="589" y="-802.8" font-family="Times,serif" font-size="14.00">File: animate</text>
</g>
<g id="clust3" class="cluster">
<title>cluster_348a59cf</title>
<polygon fill="none" stroke="black" stroke-dasharray="1,5" points="84,-1184 84,-1421 506,-1421 506,-1184 84,-1184"/>
<text text-anchor="middle" x="295" y="-1405.8" font-family="Times,serif" font-size="14.00">File: fs&#45;animate</text>
</g>
<g id="clust4" class="cluster">
<title>cluster_5096b6d8</title>
<polygon fill="none" stroke="black" stroke-dasharray="1,5" points="705,-1018 705,-1147 1087,-1147 1087,-1018 705,-1018"/>
<text text-anchor="middle" x="896" y="-1131.8" font-family="Times,serif" font-size="14.00">File: fs&#45;fly</text>
</g>
<g id="clust5" class="cluster">
<title>cluster_ccbd29d9</title>
<polygon fill="none" stroke="black" stroke-dasharray="1,5" points="526,-1292 526,-1475 855,-1475 855,-1292 526,-1292"/>
<text text-anchor="middle" x="690.5" y="-1459.8" font-family="Times,serif" font-size="14.00">File: fs&#45;init</text>
</g>
<g id="clust6" class="cluster">
<title>cluster_5ee3a42f</title>
<polygon fill="none" stroke="black" stroke-dasharray="1,5" points="679.5,-1155 679.5,-1284 864.5,-1284 864.5,-1155 679.5,-1155"/>
<text text-anchor="middle" x="772" y="-1268.8" font-family="Times,serif" font-size="14.00">File: fs&#45;place&#45;objects</text>
</g>
<g id="clust7" class="cluster">
<title>cluster_cdf9374b</title>
<polygon fill="none" stroke="black" stroke-dasharray="1,5" points="1134,-346 1134,-691 1538,-691 1538,-346 1134,-346"/>
<text text-anchor="middle" x="1336" y="-675.8" font-family="Times,serif" font-size="14.00">File: helpers</text>
</g>
<g id="clust8" class="cluster">
<title>cluster_dffe33a4</title>
<polygon fill="none" stroke="black" stroke-dasharray="1,5" points="552,-91 552,-382 872,-382 872,-91 552,-91"/>
<text text-anchor="middle" x="712" y="-366.8" font-family="Times,serif" font-size="14.00">File: init</text>
</g>
<g id="clust9" class="cluster">
<title>cluster_94f37fba</title>
<polygon fill="none" stroke="black" stroke-dasharray="1,5" points="676,-581 676,-926 1114,-926 1114,-581 676,-581"/>
<text text-anchor="middle" x="895" y="-910.8" font-family="Times,serif" font-size="14.00">File: interactions</text>
</g>
<g id="clust10" class="cluster">
<title>cluster_d5bc0dee</title>
<polygon fill="none" stroke="black" stroke-dasharray="1,5" points="712.5,-8 712.5,-83 831.5,-83 831.5,-8 712.5,-8"/>
<text text-anchor="middle" x="772" y="-67.8" font-family="Times,serif" font-size="14.00">File: place&#45;lights</text>
</g>
<g id="clust11" class="cluster">
<title>cluster_4619a032</title>
<polygon fill="none" stroke="black" stroke-dasharray="1,5" points="940,-279 940,-354 1066,-354 1066,-279 940,-279"/>
<text text-anchor="middle" x="1003" y="-338.8" font-family="Times,serif" font-size="14.00">File: place&#45;objects</text>
</g>
<g id="clust12" class="cluster">
<title>cluster_f7d436d1</title>
<polygon fill="none" stroke="black" stroke-dasharray="1,5" points="679,-390 679,-573 1077.5,-573 1077.5,-390 679,-390"/>
<text text-anchor="middle" x="878.25" y="-557.8" font-family="Times,serif" font-size="14.00">File: walk</text>
</g>
<!-- Legend -->
<g id="node1" class="node">
<title>Legend</title>
<polygon fill="none" stroke="black" points="1.5,-1157 1.5,-1174 266.5,-1174 266.5,-1157 1.5,-1157"/>
<text text-anchor="start" x="81.5" y="-1161.8" font-family="Times,serif" font-size="14.00">Code2flow Legend</text>
<polygon fill="none" stroke="black" points="1.5,-1069 1.5,-1157 266.5,-1157 266.5,-1069 1.5,-1069"/>
<polygon fill="none" stroke="black" points="3.5,-1134 3.5,-1155 214.5,-1155 214.5,-1134 3.5,-1134"/>
<text text-anchor="start" x="63" y="-1140.8" font-family="Times,serif" font-size="14.00">Regular function</text>
<polygon fill="#cccccc" stroke="none" points="214.5,-1134 214.5,-1155 264.5,-1155 264.5,-1134 214.5,-1134"/>
<polygon fill="none" stroke="black" points="214.5,-1134 214.5,-1155 264.5,-1155 264.5,-1134 214.5,-1134"/>
<polygon fill="none" stroke="black" points="3.5,-1113 3.5,-1134 214.5,-1134 214.5,-1113 3.5,-1113"/>
<text text-anchor="start" x="15" y="-1119.8" font-family="Times,serif" font-size="14.00">Trunk function (nothing calls this)</text>
<polygon fill="#966f33" stroke="none" points="214.5,-1113 214.5,-1134 264.5,-1134 264.5,-1113 214.5,-1113"/>
<polygon fill="none" stroke="black" points="214.5,-1113 214.5,-1134 264.5,-1134 264.5,-1113 214.5,-1113"/>
<polygon fill="none" stroke="black" points="3.5,-1092 3.5,-1113 214.5,-1113 214.5,-1092 3.5,-1092"/>
<text text-anchor="start" x="6.5" y="-1098.8" font-family="Times,serif" font-size="14.00">Leaf function (this calls nothing else)</text>
<polygon fill="#6db33f" stroke="none" points="214.5,-1092 214.5,-1113 264.5,-1113 264.5,-1092 214.5,-1092"/>
<polygon fill="none" stroke="black" points="214.5,-1092 214.5,-1113 264.5,-1113 264.5,-1092 214.5,-1092"/>
<polygon fill="none" stroke="black" points="3.5,-1071 3.5,-1092 214.5,-1092 214.5,-1071 3.5,-1071"/>
<text text-anchor="start" x="73" y="-1077.8" font-family="Times,serif" font-size="14.00">Function call</text>
<polygon fill="none" stroke="black" points="214.5,-1071 214.5,-1092 264.5,-1092 264.5,-1071 214.5,-1071"/>
<text text-anchor="start" x="232" y="-1077.8" font-family="Times,serif" font-size="14.00">→</text>
<polygon fill="none" stroke="black" points="2.5,-1070 2.5,-1156 265.5,-1156 265.5,-1070 2.5,-1070"/>
<polygon fill="none" stroke="black" points="0,-1068.5 0,-1175.5 267,-1175.5 267,-1068.5 0,-1068.5"/>
</g>
<!-- node_62deb2a2 -->
<g id="node2" class="node">
<title>node_62deb2a2</title>
<path fill="#966f33" stroke="black" d="M618.5,-787C618.5,-787 559.5,-787 559.5,-787 553.5,-787 547.5,-781 547.5,-775 547.5,-775 547.5,-763 547.5,-763 547.5,-757 553.5,-751 559.5,-751 559.5,-751 618.5,-751 618.5,-751 624.5,-751 630.5,-757 630.5,-763 630.5,-763 630.5,-775 630.5,-775 630.5,-781 624.5,-787 618.5,-787"/>
<text text-anchor="middle" x="589" y="-765.3" font-family="Times,serif" font-size="14.00">6: animate()</text>
</g>
<!-- node_2715fece -->
<g id="node32" class="node">
<title>node_2715fece</title>
<path fill="#6db33f" stroke="black" d="M846,-760C846,-760 698,-760 698,-760 692,-760 686,-754 686,-748 686,-748 686,-736 686,-736 686,-730 692,-724 698,-724 698,-724 846,-724 846,-724 852,-724 858,-730 858,-736 858,-736 858,-748 858,-748 858,-754 852,-760 846,-760"/>
<text text-anchor="middle" x="772" y="-738.3" font-family="Times,serif" font-size="14.00">280: handleAnimateChairs()</text>
</g>
<!-- node_62deb2a2&#45;&gt;node_2715fece -->
<g id="edge1" class="edge">
<title>node_62deb2a2&#45;&gt;node_2715fece</title>
<path fill="none" stroke="#56b4e9" stroke-width="2" d="M630.98,-755.5C630.98,-755.5 672.76,-755.5 672.76,-755.5"/>
<polygon fill="#56b4e9" stroke="#56b4e9" stroke-width="2" points="672.76,-759 682.76,-755.5 672.76,-752 672.76,-759"/>
</g>
<!-- node_bfa8b036 -->
<g id="node33" class="node">
<title>node_bfa8b036</title>
<path fill="#6db33f" stroke="black" d="M848,-868C848,-868 696,-868 696,-868 690,-868 684,-862 684,-856 684,-856 684,-844 684,-844 684,-838 690,-832 696,-832 696,-832 848,-832 848,-832 854,-832 860,-838 860,-844 860,-844 860,-856 860,-856 860,-862 854,-868 848,-868"/>
<text text-anchor="middle" x="772" y="-846.3" font-family="Times,serif" font-size="14.00">490: handleAnimateClosets()</text>
</g>
<!-- node_62deb2a2&#45;&gt;node_bfa8b036 -->
<g id="edge2" class="edge">
<title>node_62deb2a2&#45;&gt;node_bfa8b036</title>
<path fill="none" stroke="#56b4e9" stroke-width="2" d="M630.98,-784C660.96,-784 696,-784 696,-784 696,-784 696,-818.59 696,-818.59"/>
<polygon fill="#56b4e9" stroke="#56b4e9" stroke-width="2" points="692.5,-818.59 696,-828.59 699.5,-818.59 692.5,-818.59"/>
</g>
<!-- node_68108592 -->
<g id="node34" class="node">
<title>node_68108592</title>
<path fill="#6db33f" stroke="black" d="M826,-814C826,-814 718,-814 718,-814 712,-814 706,-808 706,-802 706,-802 706,-790 706,-790 706,-784 712,-778 718,-778 718,-778 826,-778 826,-778 832,-778 838,-784 838,-790 838,-790 838,-802 838,-802 838,-808 832,-814 826,-814"/>
<text text-anchor="middle" x="772" y="-792.3" font-family="Times,serif" font-size="14.00">560: handleInfoDiv()</text>
</g>
<!-- node_62deb2a2&#45;&gt;node_68108592 -->
<g id="edge3" class="edge">
<title>node_62deb2a2&#45;&gt;node_68108592</title>
<path fill="none" stroke="#56b4e9" stroke-width="2" d="M630.98,-781C630.98,-781 692.79,-781 692.79,-781"/>
<polygon fill="#56b4e9" stroke="#56b4e9" stroke-width="2" points="692.79,-784.5 702.79,-781 692.79,-777.5 692.79,-784.5"/>
</g>
<!-- node_eacd0782 -->
<g id="node46" class="node">
<title>node_eacd0782</title>
<path fill="#cccccc" stroke="black" d="M827.5,-542C827.5,-542 716.5,-542 716.5,-542 710.5,-542 704.5,-536 704.5,-530 704.5,-530 704.5,-518 704.5,-518 704.5,-512 710.5,-506 716.5,-506 716.5,-506 827.5,-506 827.5,-506 833.5,-506 839.5,-512 839.5,-518 839.5,-518 839.5,-530 839.5,-530 839.5,-536 833.5,-542 827.5,-542"/>
<text text-anchor="middle" x="772" y="-520.3" font-family="Times,serif" font-size="14.00">149: handleWalking()</text>
</g>
<!-- node_62deb2a2&#45;&gt;node_eacd0782 -->
<g id="edge4" class="edge">
<title>node_62deb2a2&#45;&gt;node_eacd0782</title>
<path fill="none" stroke="#56b4e9" stroke-width="2" d="M625,-750.59C625,-693.61 625,-524 625,-524 625,-524 691.07,-524 691.07,-524"/>
<polygon fill="#56b4e9" stroke="#56b4e9" stroke-width="2" points="691.07,-527.5 701.07,-524 691.07,-520.5 691.07,-527.5"/>
</g>
<!-- node_0cafea00 -->
<g id="node3" class="node">
<title>node_0cafea00</title>
<path fill="#966f33" stroke="black" d="M163,-1282C163,-1282 104,-1282 104,-1282 98,-1282 92,-1276 92,-1270 92,-1270 92,-1258 92,-1258 92,-1252 98,-1246 104,-1246 104,-1246 163,-1246 163,-1246 169,-1246 175,-1252 175,-1258 175,-1258 175,-1270 175,-1270 175,-1276 169,-1282 163,-1282"/>
<text text-anchor="middle" x="133.5" y="-1260.3" font-family="Times,serif" font-size="14.00">4: animate()</text>
</g>
<!-- node_5dc1df71 -->
<g id="node4" class="node">
<title>node_5dc1df71</title>
<path fill="#cccccc" stroke="black" d="M481.5,-1282C481.5,-1282 319.5,-1282 319.5,-1282 313.5,-1282 307.5,-1276 307.5,-1270 307.5,-1270 307.5,-1258 307.5,-1258 307.5,-1252 313.5,-1246 319.5,-1246 319.5,-1246 481.5,-1246 481.5,-1246 487.5,-1246 493.5,-1252 493.5,-1258 493.5,-1258 493.5,-1270 493.5,-1270 493.5,-1276 487.5,-1282 481.5,-1282"/>
<text text-anchor="middle" x="400.5" y="-1260.3" font-family="Times,serif" font-size="14.00">104: handleObstacleCollision()</text>
</g>
<!-- node_0cafea00&#45;&gt;node_5dc1df71 -->
<g id="edge5" class="edge">
<title>node_0cafea00&#45;&gt;node_5dc1df71</title>
<path fill="none" stroke="#000000" stroke-width="2" d="M175.22,-1270C175.22,-1270 294.09,-1270 294.09,-1270"/>
<polygon fill="#000000" stroke="#000000" stroke-width="2" points="294.09,-1273.5 304.09,-1270 294.09,-1266.5 294.09,-1273.5"/>
</g>
<!-- node_f83af9a1 -->
<g id="node5" class="node">
<title>node_f83af9a1</title>
<path fill="#6db33f" stroke="black" d="M486,-1336C486,-1336 315,-1336 315,-1336 309,-1336 303,-1330 303,-1324 303,-1324 303,-1312 303,-1312 303,-1306 309,-1300 315,-1300 315,-1300 486,-1300 486,-1300 492,-1300 498,-1306 498,-1312 498,-1312 498,-1324 498,-1324 498,-1330 492,-1336 486,-1336"/>
<text text-anchor="middle" x="400.5" y="-1314.3" font-family="Times,serif" font-size="14.00">118: handlePlaneOutOfBounds()</text>
</g>
<!-- node_0cafea00&#45;&gt;node_f83af9a1 -->
<g id="edge6" class="edge">
<title>node_0cafea00&#45;&gt;node_f83af9a1</title>
<path fill="none" stroke="#000000" stroke-width="2" d="M148,-1282.28C148,-1297.95 148,-1318 148,-1318 148,-1318 289.49,-1318 289.49,-1318"/>
<polygon fill="#000000" stroke="#000000" stroke-width="2" points="289.49,-1321.5 299.49,-1318 289.49,-1314.5 289.49,-1321.5"/>
</g>
<!-- node_a0f3b85b -->
<g id="node6" class="node">
<title>node_a0f3b85b</title>
<path fill="#cccccc" stroke="black" d="M445,-1390C445,-1390 356,-1390 356,-1390 350,-1390 344,-1384 344,-1378 344,-1378 344,-1366 344,-1366 344,-1360 350,-1354 356,-1354 356,-1354 445,-1354 445,-1354 451,-1354 457,-1360 457,-1366 457,-1366 457,-1378 457,-1378 457,-1384 451,-1390 445,-1390"/>
<text text-anchor="middle" x="400.5" y="-1368.3" font-family="Times,serif" font-size="14.00">28: handleScore()</text>
</g>
<!-- node_0cafea00&#45;&gt;node_a0f3b85b -->
<g id="edge7" class="edge">
<title>node_0cafea00&#45;&gt;node_a0f3b85b</title>
<path fill="none" stroke="#000000" stroke-width="2" d="M120,-1282.32C120,-1313.13 120,-1372 120,-1372 120,-1372 330.71,-1372 330.71,-1372"/>
<polygon fill="#000000" stroke="#000000" stroke-width="2" points="330.71,-1375.5 340.71,-1372 330.71,-1368.5 330.71,-1375.5"/>
</g>
<!-- node_852dd0ab -->
<g id="node7" class="node">
<title>node_852dd0ab</title>
<path fill="#cccccc" stroke="black" d="M444.5,-1228C444.5,-1228 356.5,-1228 356.5,-1228 350.5,-1228 344.5,-1222 344.5,-1216 344.5,-1216 344.5,-1204 344.5,-1204 344.5,-1198 350.5,-1192 356.5,-1192 356.5,-1192 444.5,-1192 444.5,-1192 450.5,-1192 456.5,-1198 456.5,-1204 456.5,-1204 456.5,-1216 456.5,-1216 456.5,-1222 450.5,-1228 444.5,-1228"/>
<text text-anchor="middle" x="400.5" y="-1206.3" font-family="Times,serif" font-size="14.00">90: handleTime()</text>
</g>
<!-- node_0cafea00&#45;&gt;node_852dd0ab -->
<g id="edge8" class="edge">
<title>node_0cafea00&#45;&gt;node_852dd0ab</title>
<path fill="none" stroke="#000000" stroke-width="2" d="M134,-1245.72C134,-1230.05 134,-1210 134,-1210 134,-1210 331.28,-1210 331.28,-1210"/>
<polygon fill="#000000" stroke="#000000" stroke-width="2" points="331.28,-1213.5 341.28,-1210 331.28,-1206.5 331.28,-1213.5"/>
</g>
<!-- node_9abb6887 -->
<g id="node10" class="node">
<title>node_9abb6887</title>
<path fill="#cccccc" stroke="black" d="M819,-1062C819,-1062 725,-1062 725,-1062 719,-1062 713,-1056 713,-1050 713,-1050 713,-1038 713,-1038 713,-1032 719,-1026 725,-1026 725,-1026 819,-1026 819,-1026 825,-1026 831,-1032 831,-1038 831,-1038 831,-1050 831,-1050 831,-1056 825,-1062 819,-1062"/>
<text text-anchor="middle" x="772" y="-1040.3" font-family="Times,serif" font-size="14.00">54: handleFlying()</text>
</g>
<!-- node_0cafea00&#45;&gt;node_9abb6887 -->
<g id="edge9" class="edge">
<title>node_0cafea00&#45;&gt;node_9abb6887</title>
<path fill="none" stroke="#000000" stroke-width="2" d="M175.3,-1258C220.14,-1258 285,-1258 285,-1258 285,-1258 285,-1044 285,-1044 285,-1044 699.74,-1044 699.74,-1044"/>
<polygon fill="#000000" stroke="#000000" stroke-width="2" points="699.74,-1047.5 709.74,-1044 699.74,-1040.5 699.74,-1047.5"/>
</g>
<!-- node_88b6c624 -->
<g id="node12" class="node">
<title>node_88b6c624</title>
<path fill="#6db33f" stroke="black" d="M632,-1390C632,-1390 546,-1390 546,-1390 540,-1390 534,-1384 534,-1378 534,-1378 534,-1366 534,-1366 534,-1360 540,-1354 546,-1354 546,-1354 632,-1354 632,-1354 638,-1354 644,-1360 644,-1366 644,-1366 644,-1378 644,-1378 644,-1384 638,-1390 632,-1390"/>
<text text-anchor="middle" x="589" y="-1368.3" font-family="Times,serif" font-size="14.00">201: gameOver()</text>
</g>
<!-- node_5dc1df71&#45;&gt;node_88b6c624 -->
<g id="edge10" class="edge">
<title>node_5dc1df71&#45;&gt;node_88b6c624</title>
<path fill="none" stroke="#e69f00" stroke-width="2" d="M493.65,-1267.5C518.7,-1267.5 539,-1267.5 539,-1267.5 539,-1267.5 539,-1340.77 539,-1340.77"/>
<polygon fill="#e69f00" stroke="#e69f00" stroke-width="2" points="535.5,-1340.77 539,-1350.77 542.5,-1340.77 535.5,-1340.77"/>
</g>
<!-- node_a0f3b85b&#45;&gt;node_88b6c624 -->
<g id="edge11" class="edge">
<title>node_a0f3b85b&#45;&gt;node_88b6c624</title>
<path fill="none" stroke="#009e73" stroke-width="2" d="M457.31,-1372C457.31,-1372 520.57,-1372 520.57,-1372"/>
<polygon fill="#009e73" stroke="#009e73" stroke-width="2" points="520.57,-1375.5 530.57,-1372 520.57,-1368.5 520.57,-1375.5"/>
</g>
<!-- node_852dd0ab&#45;&gt;node_88b6c624 -->
<g id="edge13" class="edge">
<title>node_852dd0ab&#45;&gt;node_88b6c624</title>
<path fill="none" stroke="#009e73" stroke-width="2" d="M456.82,-1222.5C496.65,-1222.5 543,-1222.5 543,-1222.5 543,-1222.5 543,-1340.64 543,-1340.64"/>
<polygon fill="#009e73" stroke="#009e73" stroke-width="2" points="539.5,-1340.64 543,-1350.64 546.5,-1340.64 539.5,-1340.64"/>
</g>
<!-- node_9c312785 -->
<g id="node8" class="node">
<title>node_9c312785</title>
<path fill="#6db33f" stroke="black" d="M1045,-1062C1045,-1062 961,-1062 961,-1062 955,-1062 949,-1056 949,-1050 949,-1050 949,-1038 949,-1038 949,-1032 955,-1026 961,-1026 961,-1026 1045,-1026 1045,-1026 1051,-1026 1057,-1032 1057,-1038 1057,-1038 1057,-1050 1057,-1050 1057,-1056 1051,-1062 1045,-1062"/>
<text text-anchor="middle" x="1003" y="-1040.3" font-family="Times,serif" font-size="14.00">146: calcSpeed()</text>
</g>
<!-- node_1c4cac36 -->
<g id="node9" class="node">
<title>node_1c4cac36</title>
<path fill="#cccccc" stroke="black" d="M1067,-1116C1067,-1116 939,-1116 939,-1116 933,-1116 927,-1110 927,-1104 927,-1104 927,-1092 927,-1092 927,-1086 933,-1080 939,-1080 939,-1080 1067,-1080 1067,-1080 1073,-1080 1079,-1086 1079,-1092 1079,-1092 1079,-1104 1079,-1104 1079,-1110 1073,-1116 1067,-1116"/>
<text text-anchor="middle" x="1003" y="-1094.3" font-family="Times,serif" font-size="14.00">123: createModelPlane()</text>
</g>
<!-- node_c0fee64e -->
<g id="node22" class="node">
<title>node_c0fee64e</title>
<path fill="#6db33f" stroke="black" d="M1345.5,-390C1345.5,-390 1173.5,-390 1173.5,-390 1167.5,-390 1161.5,-384 1161.5,-378 1161.5,-378 1161.5,-366 1161.5,-366 1161.5,-360 1167.5,-354 1173.5,-354 1173.5,-354 1345.5,-354 1345.5,-354 1351.5,-354 1357.5,-360 1357.5,-366 1357.5,-366 1357.5,-378 1357.5,-378 1357.5,-384 1351.5,-390 1345.5,-390"/>
<text text-anchor="middle" x="1259.5" y="-368.3" font-family="Times,serif" font-size="14.00">9: getMashFromBlenderModel()</text>
</g>
<!-- node_1c4cac36&#45;&gt;node_c0fee64e -->
<g id="edge14" class="edge">
<title>node_1c4cac36&#45;&gt;node_c0fee64e</title>
<path fill="none" stroke="#d55e00" stroke-width="2" d="M1079.25,-1098C1099.09,-1098 1115,-1098 1115,-1098 1115,-1098 1115,-378 1115,-378 1115,-378 1148.09,-378 1148.09,-378"/>
<polygon fill="#d55e00" stroke="#d55e00" stroke-width="2" points="1148.09,-381.5 1158.09,-378 1148.09,-374.5 1148.09,-381.5"/>
</g>
<!-- node_9abb6887&#45;&gt;node_9c312785 -->
<g id="edge15" class="edge">
<title>node_9abb6887&#45;&gt;node_9c312785</title>
<path fill="none" stroke="#cc79a7" stroke-width="2" d="M831.49,-1054.8C831.49,-1054.8 935.83,-1054.8 935.83,-1054.8"/>
<polygon fill="#cc79a7" stroke="#cc79a7" stroke-width="2" points="935.83,-1058.3 945.83,-1054.8 935.83,-1051.3 935.83,-1058.3"/>
</g>
<!-- node_0a946fdb -->
<g id="node20" class="node">
<title>node_0a946fdb</title>
<path fill="#6db33f" stroke="black" d="M1298.5,-552C1298.5,-552 1220.5,-552 1220.5,-552 1214.5,-552 1208.5,-546 1208.5,-540 1208.5,-540 1208.5,-528 1208.5,-528 1208.5,-522 1214.5,-516 1220.5,-516 1220.5,-516 1298.5,-516 1298.5,-516 1304.5,-516 1310.5,-522 1310.5,-528 1310.5,-528 1310.5,-540 1310.5,-540 1310.5,-546 1304.5,-552 1298.5,-552"/>
<text text-anchor="middle" x="1259.5" y="-530.3" font-family="Times,serif" font-size="14.00">82: degToRad()</text>
</g>
<!-- node_9abb6887&#45;&gt;node_0a946fdb -->
<g id="edge16" class="edge">
<title>node_9abb6887&#45;&gt;node_0a946fdb</title>
<path fill="none" stroke="#cc79a7" stroke-width="2" d="M831.34,-1033.2C853.32,-1033.2 873,-1033.2 873,-1033.2 873,-1033.2 873,-544.5 873,-544.5 873,-544.5 1195.15,-544.5 1195.15,-544.5"/>
<polygon fill="#cc79a7" stroke="#cc79a7" stroke-width="2" points="1195.15,-548 1205.15,-544.5 1195.15,-541 1195.15,-548"/>
</g>
<!-- node_f36730f0 -->
<g id="node24" class="node">
<title>node_f36730f0</title>
<path fill="#cccccc" stroke="black" d="M1365,-606C1365,-606 1154,-606 1154,-606 1148,-606 1142,-600 1142,-594 1142,-594 1142,-582 1142,-582 1142,-576 1148,-570 1154,-570 1154,-570 1365,-570 1365,-570 1371,-570 1377,-576 1377,-582 1377,-582 1377,-594 1377,-594 1377,-600 1371,-606 1365,-606"/>
<text text-anchor="middle" x="1259.5" y="-584.3" font-family="Times,serif" font-size="14.00">131: turnVectorAroundHorizontalAxis()</text>
</g>
<!-- node_9abb6887&#45;&gt;node_f36730f0 -->
<g id="edge20" class="edge">
<title>node_9abb6887&#45;&gt;node_f36730f0</title>
<path fill="none" stroke="#cc79a7" stroke-width="2" d="M831.19,-1040.4C857.22,-1040.4 882,-1040.4 882,-1040.4 882,-1040.4 882,-579.5 882,-579.5 882,-579.5 1128.58,-579.5 1128.58,-579.5"/>
<polygon fill="#cc79a7" stroke="#cc79a7" stroke-width="2" points="1128.58,-583 1138.58,-579.5 1128.58,-576 1128.58,-583"/>
</g>
<!-- node_a4c326bf -->
<g id="node25" class="node">
<title>node_a4c326bf</title>
<path fill="#6db33f" stroke="black" d="M1357,-660C1357,-660 1162,-660 1162,-660 1156,-660 1150,-654 1150,-648 1150,-648 1150,-636 1150,-636 1150,-630 1156,-624 1162,-624 1162,-624 1357,-624 1357,-624 1363,-624 1369,-630 1369,-636 1369,-636 1369,-648 1369,-648 1369,-654 1363,-660 1357,-660"/>
<text text-anchor="middle" x="1259.5" y="-638.3" font-family="Times,serif" font-size="14.00">118: turnVectorAroundVerticalAxis()</text>
</g>
<!-- node_9abb6887&#45;&gt;node_a4c326bf -->
<g id="edge21" class="edge">
<title>node_9abb6887&#45;&gt;node_a4c326bf</title>
<path fill="none" stroke="#cc79a7" stroke-width="2" d="M831.5,-1047.6C866.91,-1047.6 905,-1047.6 905,-1047.6 905,-1047.6 905,-634 905,-634 905,-634 1136.73,-634 1136.73,-634"/>
<polygon fill="#cc79a7" stroke="#cc79a7" stroke-width="2" points="1136.73,-637.5 1146.73,-634 1136.73,-630.5 1136.73,-637.5"/>
</g>
<!-- node_79998189 -->
<g id="node11" class="node">
<title>node_79998189</title>
<path fill="#cccccc" stroke="black" d="M810,-1116C810,-1116 734,-1116 734,-1116 728,-1116 722,-1110 722,-1104 722,-1104 722,-1092 722,-1092 722,-1086 728,-1080 734,-1080 734,-1080 810,-1080 810,-1080 816,-1080 822,-1086 822,-1092 822,-1092 822,-1104 822,-1104 822,-1110 816,-1116 810,-1116"/>
<text text-anchor="middle" x="772" y="-1094.3" font-family="Times,serif" font-size="14.00">15: initFlying()</text>
</g>
<!-- node_79998189&#45;&gt;node_1c4cac36 -->
<g id="edge22" class="edge">
<title>node_79998189&#45;&gt;node_1c4cac36</title>
<path fill="none" stroke="#e69f00" stroke-width="2" d="M822.41,-1098C822.41,-1098 913.76,-1098 913.76,-1098"/>
<polygon fill="#e69f00" stroke="#e69f00" stroke-width="2" points="913.76,-1101.5 923.76,-1098 913.76,-1094.5 913.76,-1101.5"/>
</g>
<!-- node_e670bbba -->
<g id="node13" class="node">
<title>node_e670bbba</title>
<path fill="#966f33" stroke="black" d="M606,-1336C606,-1336 572,-1336 572,-1336 566,-1336 560,-1330 560,-1324 560,-1324 560,-1312 560,-1312 560,-1306 566,-1300 572,-1300 572,-1300 606,-1300 606,-1300 612,-1300 618,-1306 618,-1312 618,-1312 618,-1324 618,-1324 618,-1330 612,-1336 606,-1336"/>
<text text-anchor="middle" x="589" y="-1314.3" font-family="Times,serif" font-size="14.00">4: init()</text>
</g>
<!-- node_e670bbba&#45;&gt;node_79998189 -->
<g id="edge23" class="edge">
<title>node_e670bbba&#45;&gt;node_79998189</title>
<path fill="none" stroke="#56b4e9" stroke-width="2" d="M580,-1299.62C580,-1246.75 580,-1098 580,-1098 580,-1098 708.53,-1098 708.53,-1098"/>
<polygon fill="#56b4e9" stroke="#56b4e9" stroke-width="2" points="708.53,-1101.5 718.53,-1098 708.53,-1094.5 708.53,-1101.5"/>
</g>
<!-- node_42074694 -->
<g id="node14" class="node">
<title>node_42074694</title>
<path fill="#6db33f" stroke="black" d="M830,-1336C830,-1336 714,-1336 714,-1336 708,-1336 702,-1330 702,-1324 702,-1324 702,-1312 702,-1312 702,-1306 708,-1300 714,-1300 714,-1300 830,-1300 830,-1300 836,-1300 842,-1306 842,-1312 842,-1312 842,-1324 842,-1324 842,-1330 836,-1336 830,-1336"/>
<text text-anchor="middle" x="772" y="-1314.3" font-family="Times,serif" font-size="14.00">251: initDevControls()</text>
</g>
<!-- node_e670bbba&#45;&gt;node_42074694 -->
<g id="edge24" class="edge">
<title>node_e670bbba&#45;&gt;node_42074694</title>
<path fill="none" stroke="#56b4e9" stroke-width="2" d="M618.4,-1314.4C618.4,-1314.4 688.55,-1314.4 688.55,-1314.4"/>
<polygon fill="#56b4e9" stroke="#56b4e9" stroke-width="2" points="688.55,-1317.9 698.55,-1314.4 688.55,-1310.9 688.55,-1317.9"/>
</g>
<!-- node_63197635 -->
<g id="node15" class="node">
<title>node_63197635</title>
<path fill="#cccccc" stroke="black" d="M835,-1390C835,-1390 709,-1390 709,-1390 703,-1390 697,-1384 697,-1378 697,-1378 697,-1366 697,-1366 697,-1360 703,-1354 709,-1354 709,-1354 835,-1354 835,-1354 841,-1354 847,-1360 847,-1366 847,-1366 847,-1378 847,-1378 847,-1384 841,-1390 835,-1390"/>
<text text-anchor="middle" x="772" y="-1368.3" font-family="Times,serif" font-size="14.00">139: initOceanAndSky()</text>
</g>
<!-- node_e670bbba&#45;&gt;node_63197635 -->
<g id="edge25" class="edge">
<title>node_e670bbba&#45;&gt;node_63197635</title>
<path fill="none" stroke="#56b4e9" stroke-width="2" d="M618.25,-1321.6C649.62,-1321.6 695,-1321.6 695,-1321.6 695,-1321.6 695,-1372 695,-1372 695,-1372 695.16,-1372 695.16,-1372"/>
<polygon fill="#56b4e9" stroke="#56b4e9" stroke-width="2" points="683.58,-1375.5 693.58,-1372 683.58,-1368.5 683.58,-1375.5"/>
</g>
<!-- node_588dc6db -->
<g id="node16" class="node">
<title>node_588dc6db</title>
<path fill="#6db33f" stroke="black" d="M809,-1444C809,-1444 735,-1444 735,-1444 729,-1444 723,-1438 723,-1432 723,-1432 723,-1420 723,-1420 723,-1414 729,-1408 735,-1408 735,-1408 809,-1408 809,-1408 815,-1408 821,-1414 821,-1420 821,-1420 821,-1432 821,-1432 821,-1438 815,-1444 809,-1444"/>
<text text-anchor="middle" x="772" y="-1422.3" font-family="Times,serif" font-size="14.00">186: initStats()</text>
</g>
<!-- node_e670bbba&#45;&gt;node_588dc6db -->
<g id="edge26" class="edge">
<title>node_e670bbba&#45;&gt;node_588dc6db</title>
<path fill="none" stroke="#56b4e9" stroke-width="2" d="M618.25,-1328.8C649.01,-1328.8 693,-1328.8 693,-1328.8 693,-1328.8 693,-1426 693,-1426 693,-1426 709.84,-1426 709.84,-1426"/>
<polygon fill="#56b4e9" stroke="#56b4e9" stroke-width="2" points="709.84,-1429.5 719.84,-1426 709.84,-1422.5 709.84,-1429.5"/>
</g>
<!-- node_a0b89f59 -->
<g id="node17" class="node">
<title>node_a0b89f59</title>
<path fill="#6db33f" stroke="black" d="M844.5,-1199C844.5,-1199 699.5,-1199 699.5,-1199 693.5,-1199 687.5,-1193 687.5,-1187 687.5,-1187 687.5,-1175 687.5,-1175 687.5,-1169 693.5,-1163 699.5,-1163 699.5,-1163 844.5,-1163 844.5,-1163 850.5,-1163 856.5,-1169 856.5,-1175 856.5,-1175 856.5,-1187 856.5,-1187 856.5,-1193 850.5,-1199 844.5,-1199"/>
<text text-anchor="middle" x="772" y="-1177.3" font-family="Times,serif" font-size="14.00">57: placeObstaclesObjects()</text>
</g>
<!-- node_e670bbba&#45;&gt;node_a0b89f59 -->
<g id="edge27" class="edge">
<title>node_e670bbba&#45;&gt;node_a0b89f59</title>
<path fill="none" stroke="#56b4e9" stroke-width="2" d="M618.48,-1307.2C648.3,-1307.2 690,-1307.2 690,-1307.2 690,-1307.2 690,-1212.38 690,-1212.38"/>
<polygon fill="#56b4e9" stroke="#56b4e9" stroke-width="2" points="693.5,-1212.38 690,-1202.38 686.5,-1212.38 693.5,-1212.38"/>
</g>
<!-- node_06e544fb -->
<g id="node18" class="node">
<title>node_06e544fb</title>
<path fill="#6db33f" stroke="black" d="M830,-1253C830,-1253 714,-1253 714,-1253 708,-1253 702,-1247 702,-1241 702,-1241 702,-1229 702,-1229 702,-1223 708,-1217 714,-1217 714,-1217 830,-1217 830,-1217 836,-1217 842,-1223 842,-1229 842,-1229 842,-1241 842,-1241 842,-1247 836,-1253 830,-1253"/>
<text text-anchor="middle" x="772" y="-1231.3" font-family="Times,serif" font-size="14.00">4: placeTorusObjects()</text>
</g>
<!-- node_e670bbba&#45;&gt;node_06e544fb -->
<g id="edge28" class="edge">
<title>node_e670bbba&#45;&gt;node_06e544fb</title>
<path fill="none" stroke="#56b4e9" stroke-width="2" d="M599,-1299.64C599,-1279.35 599,-1249.5 599,-1249.5 599,-1249.5 688.61,-1249.5 688.61,-1249.5"/>
<polygon fill="#56b4e9" stroke="#56b4e9" stroke-width="2" points="688.61,-1253 698.61,-1249.5 688.61,-1246 688.61,-1253"/>
</g>
<!-- node_63197635&#45;&gt;node_0a946fdb -->
<g id="edge29" class="edge">
<title>node_63197635&#45;&gt;node_0a946fdb</title>
<path fill="none" stroke="#0072b2" stroke-width="2" d="M847.24,-1372C953.04,-1372 1133,-1372 1133,-1372 1133,-1372 1133,-549.5 1133,-549.5 1133,-549.5 1195.02,-549.5 1195.02,-549.5"/>
<polygon fill="#0072b2" stroke="#0072b2" stroke-width="2" points="1195.02,-553 1205.02,-549.5 1195.02,-546 1195.02,-553"/>
</g>
<!-- node_cd9235d2 -->
<g id="node19" class="node">
<title>node_cd9235d2</title>
<path fill="#6db33f" stroke="black" d="M1311.5,-498C1311.5,-498 1207.5,-498 1207.5,-498 1201.5,-498 1195.5,-492 1195.5,-486 1195.5,-486 1195.5,-474 1195.5,-474 1195.5,-468 1201.5,-462 1207.5,-462 1207.5,-462 1311.5,-462 1311.5,-462 1317.5,-462 1323.5,-468 1323.5,-474 1323.5,-474 1323.5,-486 1323.5,-486 1323.5,-492 1317.5,-498 1311.5,-498"/>
<text text-anchor="middle" x="1259.5" y="-476.3" font-family="Times,serif" font-size="14.00">93: checkCollision()</text>
</g>
<!-- node_9e95ade3 -->
<g id="node21" class="node">
<title>node_9e95ade3</title>
<path fill="#6db33f" stroke="black" d="M1321.5,-444C1321.5,-444 1197.5,-444 1197.5,-444 1191.5,-444 1185.5,-438 1185.5,-432 1185.5,-432 1185.5,-420 1185.5,-420 1185.5,-414 1191.5,-408 1197.5,-408 1197.5,-408 1321.5,-408 1321.5,-408 1327.5,-408 1333.5,-414 1333.5,-420 1333.5,-420 1333.5,-432 1333.5,-432 1333.5,-438 1327.5,-444 1321.5,-444"/>
<text text-anchor="middle" x="1259.5" y="-422.3" font-family="Times,serif" font-size="14.00">70: getCameraLookAt()</text>
</g>
<!-- node_61e66c7f -->
<g id="node23" class="node">
<title>node_61e66c7f</title>
<path fill="#6db33f" stroke="black" d="M1518,-606C1518,-606 1425,-606 1425,-606 1419,-606 1413,-600 1413,-594 1413,-594 1413,-582 1413,-582 1413,-576 1419,-570 1425,-570 1425,-570 1518,-570 1518,-570 1524,-570 1530,-576 1530,-582 1530,-582 1530,-594 1530,-594 1530,-600 1524,-606 1518,-606"/>
<text text-anchor="middle" x="1471.5" y="-584.3" font-family="Times,serif" font-size="14.00">193: showVector()</text>
</g>
<!-- node_f36730f0&#45;&gt;node_61e66c7f -->
<g id="edge31" class="edge">
<title>node_f36730f0&#45;&gt;node_61e66c7f</title>
<path fill="none" stroke="#000000" stroke-width="2" d="M1377.28,-588C1377.28,-588 1399.56,-588 1399.56,-588"/>
<polygon fill="#000000" stroke="#000000" stroke-width="2" points="1399.56,-591.5 1409.56,-588 1399.56,-584.5 1399.56,-591.5"/>
</g>
<!-- node_31237510 -->
<g id="node26" class="node">
<title>node_31237510</title>
<path fill="#966f33" stroke="black" d="M606,-270C606,-270 572,-270 572,-270 566,-270 560,-264 560,-258 560,-258 560,-246 560,-246 560,-240 566,-234 572,-234 572,-234 606,-234 606,-234 612,-234 618,-240 618,-246 618,-246 618,-258 618,-258 618,-264 612,-270 606,-270"/>
<text text-anchor="middle" x="589" y="-248.3" font-family="Times,serif" font-size="14.00">3: init()</text>
</g>
<!-- node_42911096 -->
<g id="node27" class="node">
<title>node_42911096</title>
<path fill="#6db33f" stroke="black" d="M830,-243C830,-243 714,-243 714,-243 708,-243 702,-237 702,-231 702,-231 702,-219 702,-219 702,-213 708,-207 714,-207 714,-207 830,-207 830,-207 836,-207 842,-213 842,-219 842,-219 842,-231 842,-231 842,-237 836,-243 830,-243"/>
<text text-anchor="middle" x="772" y="-221.3" font-family="Times,serif" font-size="14.00">107: initDevControls()</text>
</g>
<!-- node_31237510&#45;&gt;node_42911096 -->
<g id="edge34" class="edge">
<title>node_31237510&#45;&gt;node_42911096</title>
<path fill="none" stroke="#000000" stroke-width="2" d="M618.4,-240C618.4,-240 688.55,-240 688.55,-240"/>
<polygon fill="#000000" stroke="#000000" stroke-width="2" points="688.55,-243.5 698.55,-240 688.55,-236.5 688.55,-243.5"/>
</g>
<!-- node_0fb84d7b -->
<g id="node28" class="node">
<title>node_0fb84d7b</title>
<path fill="#6db33f" stroke="black" d="M827,-297C827,-297 717,-297 717,-297 711,-297 705,-291 705,-285 705,-285 705,-273 705,-273 705,-267 711,-261 717,-261 717,-261 827,-261 827,-261 833,-261 839,-267 839,-273 839,-273 839,-285 839,-285 839,-291 833,-297 827,-297"/>
<text text-anchor="middle" x="772" y="-275.3" font-family="Times,serif" font-size="14.00">169: initStartScreen()</text>
</g>
<!-- node_31237510&#45;&gt;node_0fb84d7b -->
<g id="edge35" class="edge">
<title>node_31237510&#45;&gt;node_0fb84d7b</title>
<path fill="none" stroke="#000000" stroke-width="2" d="M618.4,-264C618.4,-264 691.66,-264 691.66,-264"/>
<polygon fill="#000000" stroke="#000000" stroke-width="2" points="691.66,-267.5 701.66,-264 691.66,-260.5 691.66,-267.5"/>
</g>
<!-- node_56c54a71 -->
<g id="node29" class="node">
<title>node_56c54a71</title>
<path fill="#6db33f" stroke="black" d="M805.5,-351C805.5,-351 738.5,-351 738.5,-351 732.5,-351 726.5,-345 726.5,-339 726.5,-339 726.5,-327 726.5,-327 726.5,-321 732.5,-315 738.5,-315 738.5,-315 805.5,-315 805.5,-315 811.5,-315 817.5,-321 817.5,-327 817.5,-327 817.5,-339 817.5,-339 817.5,-345 811.5,-351 805.5,-351"/>
<text text-anchor="middle" x="772" y="-329.3" font-family="Times,serif" font-size="14.00">90: initStats()</text>
</g>
<!-- node_31237510&#45;&gt;node_56c54a71 -->
<g id="edge36" class="edge">
<title>node_31237510&#45;&gt;node_56c54a71</title>
<path fill="none" stroke="#000000" stroke-width="2" d="M595,-270.38C595,-294.28 595,-333 595,-333 595,-333 713.39,-333 713.39,-333"/>
<polygon fill="#000000" stroke="#000000" stroke-width="2" points="713.39,-336.5 723.39,-333 713.39,-329.5 713.39,-336.5"/>
</g>
<!-- node_2f6bb29e -->
<g id="node30" class="node">
<title>node_2f6bb29e</title>
<path fill="#6db33f" stroke="black" d="M852,-135C852,-135 692,-135 692,-135 686,-135 680,-129 680,-123 680,-123 680,-111 680,-111 680,-105 686,-99 692,-99 692,-99 852,-99 852,-99 858,-99 864,-105 864,-111 864,-111 864,-123 864,-123 864,-129 858,-135 852,-135"/>
<text text-anchor="middle" x="772" y="-113.3" font-family="Times,serif" font-size="14.00">186: putStartScreenOnReady()</text>
</g>
<!-- node_31237510&#45;&gt;node_2f6bb29e -->
<g id="edge37" class="edge">
<title>node_31237510&#45;&gt;node_2f6bb29e</title>
<path fill="none" stroke="#000000" stroke-width="2" d="M618.23,-237C650.21,-237 697,-237 697,-237 697,-237 697,-148.51 697,-148.51"/>
<polygon fill="#000000" stroke="#000000" stroke-width="2" points="700.5,-148.51 697,-138.51 693.5,-148.51 700.5,-148.51"/>
</g>
<!-- node_25fea90d -->
<g id="node31" class="node">
<title>node_25fea90d</title>
<path fill="#6db33f" stroke="black" d="M814.5,-189C814.5,-189 729.5,-189 729.5,-189 723.5,-189 717.5,-183 717.5,-177 717.5,-177 717.5,-165 717.5,-165 717.5,-159 723.5,-153 729.5,-153 729.5,-153 814.5,-153 814.5,-153 820.5,-153 826.5,-159 826.5,-165 826.5,-165 826.5,-177 826.5,-177 826.5,-183 820.5,-189 814.5,-189"/>
<text text-anchor="middle" x="772" y="-167.3" font-family="Times,serif" font-size="14.00">175: startScene()</text>
</g>
<!-- node_31237510&#45;&gt;node_25fea90d -->
<g id="edge38" class="edge">
<title>node_31237510&#45;&gt;node_25fea90d</title>
<path fill="none" stroke="#000000" stroke-width="2" d="M599,-233.62C599,-209.72 599,-171 599,-171 599,-171 704.23,-171 704.23,-171"/>
<polygon fill="#000000" stroke="#000000" stroke-width="2" points="704.23,-174.5 714.23,-171 704.23,-167.5 704.23,-174.5"/>
</g>
<!-- node_e031db97 -->
<g id="node37" class="node">
<title>node_e031db97</title>
<path fill="#cccccc" stroke="black" d="M824,-706C824,-706 720,-706 720,-706 714,-706 708,-700 708,-694 708,-694 708,-682 708,-682 708,-676 714,-670 720,-670 720,-670 824,-670 824,-670 830,-670 836,-676 836,-682 836,-682 836,-694 836,-694 836,-700 830,-706 824,-706"/>
<text text-anchor="middle" x="772" y="-684.3" font-family="Times,serif" font-size="14.00">18: initInteractions()</text>
</g>
<!-- node_31237510&#45;&gt;node_e031db97 -->
<g id="edge41" class="edge">
<title>node_31237510&#45;&gt;node_e031db97</title>
<path fill="none" stroke="#000000" stroke-width="2" d="M572,-270.46C572,-353.44 572,-688 572,-688 572,-688 694.59,-688 694.59,-688"/>
<polygon fill="#000000" stroke="#000000" stroke-width="2" points="694.59,-691.5 704.59,-688 694.59,-684.5 694.59,-691.5"/>
</g>
<!-- node_81349dd2 -->
<g id="node42" class="node">
<title>node_81349dd2</title>
<path fill="#cccccc" stroke="black" d="M811.5,-52C811.5,-52 732.5,-52 732.5,-52 726.5,-52 720.5,-46 720.5,-40 720.5,-40 720.5,-28 720.5,-28 720.5,-22 726.5,-16 732.5,-16 732.5,-16 811.5,-16 811.5,-16 817.5,-16 823.5,-22 823.5,-28 823.5,-28 823.5,-40 823.5,-40 823.5,-46 817.5,-52 811.5,-52"/>
<text text-anchor="middle" x="772" y="-30.3" font-family="Times,serif" font-size="14.00">6: placeLights()</text>
</g>
<!-- node_31237510&#45;&gt;node_81349dd2 -->
<g id="edge42" class="edge">
<title>node_31237510&#45;&gt;node_81349dd2</title>
<path fill="none" stroke="#000000" stroke-width="2" d="M580,-233.79C580,-181.39 580,-34 580,-34 580,-34 707.01,-34 707.01,-34"/>
<polygon fill="#000000" stroke="#000000" stroke-width="2" points="707.01,-37.5 717.01,-34 707.01,-30.5 707.01,-37.5"/>
</g>
<!-- node_342a29e4 -->
<g id="node43" class="node">
<title>node_342a29e4</title>
<path fill="#cccccc" stroke="black" d="M1046,-323C1046,-323 960,-323 960,-323 954,-323 948,-317 948,-311 948,-311 948,-299 948,-299 948,-293 954,-287 960,-287 960,-287 1046,-287 1046,-287 1052,-287 1058,-293 1058,-299 1058,-299 1058,-311 1058,-311 1058,-317 1052,-323 1046,-323"/>
<text text-anchor="middle" x="1003" y="-301.3" font-family="Times,serif" font-size="14.00">6: placeObjects()</text>
</g>
<!-- node_31237510&#45;&gt;node_342a29e4 -->
<g id="edge43" class="edge">
<title>node_31237510&#45;&gt;node_342a29e4</title>
<path fill="none" stroke="#000000" stroke-width="2" d="M607,-270.28C607,-285.95 607,-306 607,-306 607,-306 934.49,-306 934.49,-306"/>
<polygon fill="#000000" stroke="#000000" stroke-width="2" points="934.49,-309.5 944.49,-306 934.49,-302.5 934.49,-309.5"/>
</g>
<!-- node_e17e2c19 -->
<g id="node47" class="node">
<title>node_e17e2c19</title>
<path fill="#6db33f" stroke="black" d="M845,-434C845,-434 699,-434 699,-434 693,-434 687,-428 687,-422 687,-422 687,-410 687,-410 687,-404 693,-398 699,-398 699,-398 845,-398 845,-398 851,-398 857,-404 857,-410 857,-410 857,-422 857,-422 857,-428 851,-434 845,-434"/>
<text text-anchor="middle" x="772" y="-412.3" font-family="Times,serif" font-size="14.00">215: initMouseClickMove()</text>
</g>
<!-- node_31237510&#45;&gt;node_e17e2c19 -->
<g id="edge44" class="edge">
<title>node_31237510&#45;&gt;node_e17e2c19</title>
<path fill="none" stroke="#000000" stroke-width="2" d="M618.24,-267C648.69,-267 692,-267 692,-267 692,-267 692,-384.7 692,-384.7"/>
<polygon fill="#000000" stroke="#000000" stroke-width="2" points="688.5,-384.7 692,-394.7 695.5,-384.7 688.5,-384.7"/>
</g>
<!-- node_031d8494 -->
<g id="node48" class="node">
<title>node_031d8494</title>
<path fill="#cccccc" stroke="black" d="M806.5,-488C806.5,-488 737.5,-488 737.5,-488 731.5,-488 725.5,-482 725.5,-476 725.5,-476 725.5,-464 725.5,-464 725.5,-458 731.5,-452 737.5,-452 737.5,-452 806.5,-452 806.5,-452 812.5,-452 818.5,-458 818.5,-464 818.5,-464 818.5,-476 818.5,-476 818.5,-482 812.5,-488 806.5,-488"/>
<text text-anchor="middle" x="772" y="-466.3" font-family="Times,serif" font-size="14.00">15: initWalk()</text>
</g>
<!-- node_31237510&#45;&gt;node_031d8494 -->
<g id="edge45" class="edge">
<title>node_31237510&#45;&gt;node_031d8494</title>
<path fill="none" stroke="#000000" stroke-width="2" d="M584,-270.21C584,-322.61 584,-470 584,-470 584,-470 712.02,-470 712.02,-470"/>
<polygon fill="#000000" stroke="#000000" stroke-width="2" points="712.02,-473.5 722.02,-470 712.02,-466.5 712.02,-473.5"/>
</g>
<!-- node_671750cd -->
<g id="node35" class="node">
<title>node_671750cd</title>
<path fill="#6db33f" stroke="black" d="M1094,-625C1094,-625 912,-625 912,-625 906,-625 900,-619 900,-613 900,-613 900,-601 900,-601 900,-595 906,-589 912,-589 912,-589 1094,-589 1094,-589 1100,-589 1106,-595 1106,-601 1106,-601 1106,-613 1106,-613 1106,-619 1100,-625 1094,-625"/>
<text text-anchor="middle" x="1003" y="-603.3" font-family="Times,serif" font-size="14.00">105: initAdjustBlackboardHeight()</text>
</g>
<!-- node_2f65497a -->
<g id="node36" class="node">
<title>node_2f65497a</title>
<path fill="#6db33f" stroke="black" d="M1044.5,-679C1044.5,-679 961.5,-679 961.5,-679 955.5,-679 949.5,-673 949.5,-667 949.5,-667 949.5,-655 949.5,-655 949.5,-649 955.5,-643 961.5,-643 961.5,-643 1044.5,-643 1044.5,-643 1050.5,-643 1056.5,-649 1056.5,-655 1056.5,-655 1056.5,-667 1056.5,-667 1056.5,-673 1050.5,-679 1044.5,-679"/>
<text text-anchor="middle" x="1003" y="-657.3" font-family="Times,serif" font-size="14.00">33: initInfoDiv()</text>
</g>
<!-- node_e031db97&#45;&gt;node_671750cd -->
<g id="edge46" class="edge">
<title>node_e031db97&#45;&gt;node_671750cd</title>
<path fill="none" stroke="#cc79a7" stroke-width="2" d="M836.35,-673C869.48,-673 903,-673 903,-673 903,-673 903,-638.41 903,-638.41"/>
<polygon fill="#cc79a7" stroke="#cc79a7" stroke-width="2" points="906.5,-638.41 903,-628.41 899.5,-638.41 906.5,-638.41"/>
</g>
<!-- node_e031db97&#45;&gt;node_2f65497a -->
<g id="edge47" class="edge">
<title>node_e031db97&#45;&gt;node_2f65497a</title>
<path fill="none" stroke="#cc79a7" stroke-width="2" d="M836.35,-676C836.35,-676 936.12,-676 936.12,-676"/>
<polygon fill="#cc79a7" stroke="#cc79a7" stroke-width="2" points="936.12,-679.5 946.12,-676 936.12,-672.5 936.12,-679.5"/>
</g>
<!-- node_c0d6b535 -->
<g id="node38" class="node">
<title>node_c0d6b535</title>
<path fill="#6db33f" stroke="black" d="M1058.5,-733C1058.5,-733 947.5,-733 947.5,-733 941.5,-733 935.5,-727 935.5,-721 935.5,-721 935.5,-709 935.5,-709 935.5,-703 941.5,-697 947.5,-697 947.5,-697 1058.5,-697 1058.5,-697 1064.5,-697 1070.5,-703 1070.5,-709 1070.5,-709 1070.5,-721 1070.5,-721 1070.5,-727 1064.5,-733 1058.5,-733"/>
<text text-anchor="middle" x="1003" y="-711.3" font-family="Times,serif" font-size="14.00">248: initOpenCloset()</text>
</g>
<!-- node_e031db97&#45;&gt;node_c0d6b535 -->
<g id="edge48" class="edge">
<title>node_e031db97&#45;&gt;node_c0d6b535</title>
<path fill="none" stroke="#cc79a7" stroke-width="2" d="M836.35,-698.8C836.35,-698.8 922.35,-698.8 922.35,-698.8"/>
<polygon fill="#cc79a7" stroke="#cc79a7" stroke-width="2" points="922.35,-702.3 932.35,-698.8 922.35,-695.3 922.35,-702.3"/>
</g>
<!-- node_dcb8b0f9 -->
<g id="node39" class="node">
<title>node_dcb8b0f9</title>
<path fill="#6db33f" stroke="black" d="M1074,-787C1074,-787 932,-787 932,-787 926,-787 920,-781 920,-775 920,-775 920,-763 920,-763 920,-757 926,-751 932,-751 932,-751 1074,-751 1074,-751 1080,-751 1086,-757 1086,-763 1086,-763 1086,-775 1086,-775 1086,-781 1080,-787 1074,-787"/>
<text text-anchor="middle" x="1003" y="-765.3" font-family="Times,serif" font-size="14.00">209: initPutChairOnTable()</text>
</g>
<!-- node_e031db97&#45;&gt;node_dcb8b0f9 -->
<g id="edge49" class="edge">
<title>node_e031db97&#45;&gt;node_dcb8b0f9</title>
<path fill="none" stroke="#cc79a7" stroke-width="2" d="M836.35,-700.6C879.32,-700.6 928,-700.6 928,-700.6 928,-700.6 928,-737.64 928,-737.64"/>
<polygon fill="#cc79a7" stroke="#cc79a7" stroke-width="2" points="924.5,-737.64 928,-747.64 931.5,-737.64 924.5,-737.64"/>
</g>
<!-- node_e6cff87f -->
<g id="node40" class="node">
<title>node_e6cff87f</title>
<path fill="#cccccc" stroke="black" d="M1060,-841C1060,-841 946,-841 946,-841 940,-841 934,-835 934,-829 934,-829 934,-817 934,-817 934,-811 940,-805 946,-805 946,-805 1060,-805 1060,-805 1066,-805 1072,-811 1072,-817 1072,-817 1072,-829 1072,-829 1072,-835 1066,-841 1060,-841"/>
<text text-anchor="middle" x="1003" y="-819.3" font-family="Times,serif" font-size="14.00">155: initSwitchLight()</text>
</g>
<!-- node_e031db97&#45;&gt;node_e6cff87f -->
<g id="edge50" class="edge">
<title>node_e031db97&#45;&gt;node_e6cff87f</title>
<path fill="none" stroke="#cc79a7" stroke-width="2" d="M836.38,-704.2C864.41,-704.2 891,-704.2 891,-704.2 891,-704.2 891,-809.5 891,-809.5 891,-809.5 920.63,-809.5 920.63,-809.5"/>
<polygon fill="#cc79a7" stroke="#cc79a7" stroke-width="2" points="920.63,-813 930.63,-809.5 920.63,-806 920.63,-813"/>
</g>
<!-- node_87e97bf6 -->
<g id="node41" class="node">
<title>node_87e97bf6</title>
<path fill="#6db33f" stroke="black" d="M1086.5,-895C1086.5,-895 919.5,-895 919.5,-895 913.5,-895 907.5,-889 907.5,-883 907.5,-883 907.5,-871 907.5,-871 907.5,-865 913.5,-859 919.5,-859 919.5,-859 1086.5,-859 1086.5,-859 1092.5,-859 1098.5,-865 1098.5,-871 1098.5,-871 1098.5,-883 1098.5,-883 1098.5,-889 1092.5,-895 1086.5,-895"/>
<text text-anchor="middle" x="1003" y="-873.3" font-family="Times,serif" font-size="14.00">92: initTriggerFlightSimulator()</text>
</g>
<!-- node_e031db97&#45;&gt;node_87e97bf6 -->
<g id="edge51" class="edge">
<title>node_e031db97&#45;&gt;node_87e97bf6</title>
<path fill="none" stroke="#cc79a7" stroke-width="2" d="M836.35,-702.4C873.92,-702.4 914,-702.4 914,-702.4 914,-702.4 914,-845.62 914,-845.62"/>
<polygon fill="#cc79a7" stroke="#cc79a7" stroke-width="2" points="910.5,-845.62 914,-855.62 917.5,-845.62 910.5,-845.62"/>
</g>
<!-- node_e6cff87f&#45;&gt;node_0a946fdb -->
<g id="edge52" class="edge">
<title>node_e6cff87f&#45;&gt;node_0a946fdb</title>
<path fill="none" stroke="#cc79a7" stroke-width="2" d="M1072.33,-823C1099.37,-823 1124,-823 1124,-823 1124,-823 1124,-547 1124,-547 1124,-547 1195.25,-547 1195.25,-547"/>
<polygon fill="#cc79a7" stroke="#cc79a7" stroke-width="2" points="1195.25,-550.5 1205.25,-547 1195.25,-543.5 1195.25,-550.5"/>
</g>
<!-- node_81349dd2&#45;&gt;node_c0fee64e -->
<g id="edge58" class="edge">
<title>node_81349dd2&#45;&gt;node_c0fee64e</title>
<path fill="none" stroke="#56b4e9" stroke-width="2" d="M823.76,-34C949.36,-34 1260,-34 1260,-34 1260,-34 1260,-340.8 1260,-340.8"/>
<polygon fill="#56b4e9" stroke="#56b4e9" stroke-width="2" points="1256.5,-340.8 1260,-350.8 1263.5,-340.8 1256.5,-340.8"/>
</g>
<!-- node_342a29e4&#45;&gt;node_0a946fdb -->
<g id="edge59" class="edge">
<title>node_342a29e4&#45;&gt;node_0a946fdb</title>
<path fill="none" stroke="#f0e442" stroke-width="2" d="M1058.48,-305C1100.84,-305 1152,-305 1152,-305 1152,-305 1152,-535.5 1152,-535.5 1152,-535.5 1195.24,-535.5 1195.24,-535.5"/>
<polygon fill="#f0e442" stroke="#f0e442" stroke-width="2" points="1195.24,-539 1205.24,-535.5 1195.24,-532 1195.24,-539"/>
</g>
<!-- node_342a29e4&#45;&gt;node_c0fee64e -->
<g id="edge67" class="edge">
<title>node_342a29e4&#45;&gt;node_c0fee64e</title>
<path fill="none" stroke="#f0e442" stroke-width="2" d="M1003,-323.3C1003,-341.27 1003,-366 1003,-366 1003,-366 1148.04,-366 1148.04,-366"/>
<polygon fill="#f0e442" stroke="#f0e442" stroke-width="2" points="1148.04,-369.5 1158.04,-366 1148.04,-362.5 1148.04,-369.5"/>
</g>
<!-- node_749aa30b -->
<g id="node44" class="node">
<title>node_749aa30b</title>
<path fill="#6db33f" stroke="black" d="M1051,-460C1051,-460 955,-460 955,-460 949,-460 943,-454 943,-448 943,-448 943,-436 943,-436 943,-430 949,-424 955,-424 955,-424 1051,-424 1051,-424 1057,-424 1063,-430 1063,-436 1063,-436 1063,-448 1063,-448 1063,-454 1057,-460 1051,-460"/>
<text text-anchor="middle" x="1003" y="-438.3" font-family="Times,serif" font-size="14.00">135: createPlayer()</text>
</g>
<!-- node_53e24833 -->
<g id="node45" class="node">
<title>node_53e24833</title>
<path fill="#cccccc" stroke="black" d="M1057.5,-514C1057.5,-514 948.5,-514 948.5,-514 942.5,-514 936.5,-508 936.5,-502 936.5,-502 936.5,-490 936.5,-490 936.5,-484 942.5,-478 948.5,-478 948.5,-478 1057.5,-478 1057.5,-478 1063.5,-478 1069.5,-484 1069.5,-490 1069.5,-490 1069.5,-502 1069.5,-502 1069.5,-508 1063.5,-514 1057.5,-514"/>
<text text-anchor="middle" x="1003" y="-492.3" font-family="Times,serif" font-size="14.00">93: getNewPosition()</text>
</g>
<!-- node_53e24833&#45;&gt;node_0a946fdb -->
<g id="edge76" class="edge">
<title>node_53e24833&#45;&gt;node_0a946fdb</title>
<path fill="none" stroke="#009e73" stroke-width="2" d="M1069.85,-506C1146,-506 1260,-506 1260,-506 1260,-506 1260,-506.98 1260,-506.98"/>
<polygon fill="#009e73" stroke="#009e73" stroke-width="2" points="1256.5,-502.77 1260,-512.77 1263.5,-502.77 1256.5,-502.77"/>
</g>
<!-- node_eacd0782&#45;&gt;node_cd9235d2 -->
<g id="edge78" class="edge">
<title>node_eacd0782&#45;&gt;node_cd9235d2</title>
<path fill="none" stroke="#56b4e9" stroke-width="2" d="M839.66,-529C960.75,-529 1202,-529 1202,-529 1202,-529 1202,-511.27 1202,-511.27"/>
<polygon fill="#56b4e9" stroke="#56b4e9" stroke-width="2" points="1205.5,-511.27 1202,-501.27 1198.5,-511.27 1205.5,-511.27"/>
</g>
<!-- node_eacd0782&#45;&gt;node_9e95ade3 -->
<g id="edge79" class="edge">
<title>node_eacd0782&#45;&gt;node_9e95ade3</title>
<path fill="none" stroke="#56b4e9" stroke-width="2" d="M839.79,-522.5C958.37,-522.5 1191,-522.5 1191,-522.5 1191,-522.5 1191,-457.18 1191,-457.18"/>
<polygon fill="#56b4e9" stroke="#56b4e9" stroke-width="2" points="1194.5,-457.18 1191,-447.18 1187.5,-457.18 1194.5,-457.18"/>
</g>
<!-- node_eacd0782&#45;&gt;node_53e24833 -->
<g id="edge80" class="edge">
<title>node_eacd0782&#45;&gt;node_53e24833</title>
<path fill="none" stroke="#56b4e9" stroke-width="2" d="M839.75,-510C839.75,-510 923.02,-510 923.02,-510"/>
<polygon fill="#56b4e9" stroke="#56b4e9" stroke-width="2" points="923.02,-513.5 933.02,-510 923.02,-506.5 923.02,-513.5"/>
</g>
<!-- node_031d8494&#45;&gt;node_749aa30b -->
<g id="edge81" class="edge">
<title>node_031d8494&#45;&gt;node_749aa30b</title>
<path fill="none" stroke="#f0e442" stroke-width="2" d="M818.75,-456C818.75,-456 929.68,-456 929.68,-456"/>
<polygon fill="#f0e442" stroke="#f0e442" stroke-width="2" points="929.68,-459.5 939.68,-456 929.68,-452.5 929.68,-459.5"/>
</g>
</g>
</svg>
