<?xml version="1.0" encoding="UTF-8" standalone="no"?>
<!DOCTYPE svg PUBLIC "-//W3C//DTD SVG 1.1//EN"
 "http://www.w3.org/Graphics/SVG/1.1/DTD/svg11.dtd">
<!-- Generated by graphviz version 7.0.1 (20221109.1506)
 -->
<!-- Title: G Pages: 1 -->
<svg width="1551pt" height="1457pt"
 viewBox="0.00 0.00 1551.00 1457.00" xmlns="http://www.w3.org/2000/svg" xmlns:xlink="http://www.w3.org/1999/xlink">
<g id="graph0" class="graph" transform="scale(1 1) rotate(0) translate(4 1453)">
<title>G</title>
<polygon fill="white" stroke="none" points="-4,4 -4,-1453 1547,-1453 1547,4 -4,4"/>
<g id="clust2" class="cluster">
<title>cluster_901cecf1</title>
<polygon fill="none" stroke="black" stroke-dasharray="1,5" points="539.5,-689 539.5,-764 638.5,-764 638.5,-689 539.5,-689"/>
<text text-anchor="middle" x="589" y="-748.8" font-family="Times,serif" font-size="14.00">File: animate</text>
</g>
<g id="clust3" class="cluster">
<title>cluster_beae1cc1</title>
<polygon fill="none" stroke="black" stroke-dasharray="1,5" points="84,-1130 84,-1367 506,-1367 506,-1130 84,-1130"/>
<text text-anchor="middle" x="295" y="-1351.8" font-family="Times,serif" font-size="14.00">File: fs&#45;animate</text>
</g>
<g id="clust4" class="cluster">
<title>cluster_c7b4ef4a</title>
<polygon fill="none" stroke="black" stroke-dasharray="1,5" points="706.5,-964 706.5,-1093 1087,-1093 1087,-964 706.5,-964"/>
<text text-anchor="middle" x="896.75" y="-1077.8" font-family="Times,serif" font-size="14.00">File: fs&#45;fly</text>
</g>
<g id="clust5" class="cluster">
<title>cluster_789e8eaf</title>
<polygon fill="none" stroke="black" stroke-dasharray="1,5" points="526,-1238 526,-1441 1361.5,-1441 1361.5,-1238 526,-1238"/>
<text text-anchor="middle" x="943.75" y="-1425.8" font-family="Times,serif" font-size="14.00">File: fs&#45;init</text>
</g>
<g id="clust6" class="cluster">
<title>cluster_21043a5d</title>
<polygon fill="none" stroke="black" stroke-dasharray="1,5" points="681,-1101 681,-1230 866,-1230 866,-1101 681,-1101"/>
<text text-anchor="middle" x="773.5" y="-1214.8" font-family="Times,serif" font-size="14.00">File: fs&#45;place&#45;objects</text>
</g>
<g id="clust7" class="cluster">
<title>cluster_d7af7052</title>
<polygon fill="none" stroke="black" stroke-dasharray="1,5" points="1131,-225 1131,-570 1535,-570 1535,-225 1131,-225"/>
<text text-anchor="middle" x="1333" y="-554.8" font-family="Times,serif" font-size="14.00">File: helpers</text>
</g>
<g id="clust8" class="cluster">
<title>cluster_6e119c27</title>
<polygon fill="none" stroke="black" stroke-dasharray="1,5" points="552,-91 552,-328 873.5,-328 873.5,-91 552,-91"/>
<text text-anchor="middle" x="712.75" y="-312.8" font-family="Times,serif" font-size="14.00">File: init</text>
</g>
<g id="clust9" class="cluster">
<title>cluster_515dcf37</title>
<polygon fill="none" stroke="black" stroke-dasharray="1,5" points="672,-527 672,-872 1111,-872 1111,-527 672,-527"/>
<text text-anchor="middle" x="891.5" y="-856.8" font-family="Times,serif" font-size="14.00">File: interactions</text>
</g>
<g id="clust10" class="cluster">
<title>cluster_17494710</title>
<polygon fill="none" stroke="black" stroke-dasharray="1,5" points="714,-8 714,-83 833,-83 833,-8 714,-8"/>
<text text-anchor="middle" x="773.5" y="-67.8" font-family="Times,serif" font-size="14.00">File: place&#45;lights</text>
</g>
<g id="clust11" class="cluster">
<title>cluster_8c446e43</title>
<polygon fill="none" stroke="black" stroke-dasharray="1,5" points="940,-225 940,-300 1066,-300 1066,-225 940,-225"/>
<text text-anchor="middle" x="1003" y="-284.8" font-family="Times,serif" font-size="14.00">File: place&#45;objects</text>
</g>
<g id="clust12" class="cluster">
<title>cluster_f89f407d</title>
<polygon fill="none" stroke="black" stroke-dasharray="1,5" points="680.5,-336 680.5,-519 1077.5,-519 1077.5,-336 680.5,-336"/>
<text text-anchor="middle" x="879" y="-503.8" font-family="Times,serif" font-size="14.00">File: walk</text>
</g>
<!-- Legend -->
<g id="node1" class="node">
<title>Legend</title>
<polygon fill="none" stroke="black" points="1.5,-1103 1.5,-1120 266.5,-1120 266.5,-1103 1.5,-1103"/>
<text text-anchor="start" x="81.5" y="-1107.8" font-family="Times,serif" font-size="14.00">Code2flow Legend</text>
<polygon fill="none" stroke="black" points="1.5,-1015 1.5,-1103 266.5,-1103 266.5,-1015 1.5,-1015"/>
<polygon fill="none" stroke="black" points="3.5,-1080 3.5,-1101 214.5,-1101 214.5,-1080 3.5,-1080"/>
<text text-anchor="start" x="63" y="-1086.8" font-family="Times,serif" font-size="14.00">Regular function</text>
<polygon fill="#cccccc" stroke="none" points="214.5,-1080 214.5,-1101 264.5,-1101 264.5,-1080 214.5,-1080"/>
<polygon fill="none" stroke="black" points="214.5,-1080 214.5,-1101 264.5,-1101 264.5,-1080 214.5,-1080"/>
<polygon fill="none" stroke="black" points="3.5,-1059 3.5,-1080 214.5,-1080 214.5,-1059 3.5,-1059"/>
<text text-anchor="start" x="15" y="-1065.8" font-family="Times,serif" font-size="14.00">Trunk function (nothing calls this)</text>
<polygon fill="#966f33" stroke="none" points="214.5,-1059 214.5,-1080 264.5,-1080 264.5,-1059 214.5,-1059"/>
<polygon fill="none" stroke="black" points="214.5,-1059 214.5,-1080 264.5,-1080 264.5,-1059 214.5,-1059"/>
<polygon fill="none" stroke="black" points="3.5,-1038 3.5,-1059 214.5,-1059 214.5,-1038 3.5,-1038"/>
<text text-anchor="start" x="6.5" y="-1044.8" font-family="Times,serif" font-size="14.00">Leaf function (this calls nothing else)</text>
<polygon fill="#6db33f" stroke="none" points="214.5,-1038 214.5,-1059 264.5,-1059 264.5,-1038 214.5,-1038"/>
<polygon fill="none" stroke="black" points="214.5,-1038 214.5,-1059 264.5,-1059 264.5,-1038 214.5,-1038"/>
<polygon fill="none" stroke="black" points="3.5,-1017 3.5,-1038 214.5,-1038 214.5,-1017 3.5,-1017"/>
<text text-anchor="start" x="73" y="-1023.8" font-family="Times,serif" font-size="14.00">Function call</text>
<polygon fill="none" stroke="black" points="214.5,-1017 214.5,-1038 264.5,-1038 264.5,-1017 214.5,-1017"/>
<text text-anchor="start" x="232" y="-1023.8" font-family="Times,serif" font-size="14.00">→</text>
<polygon fill="none" stroke="black" points="2.5,-1016 2.5,-1102 265.5,-1102 265.5,-1016 2.5,-1016"/>
<polygon fill="none" stroke="black" points="0,-1014.5 0,-1121.5 267,-1121.5 267,-1014.5 0,-1014.5"/>
</g>
<!-- node_2ea08ed6 -->
<g id="node2" class="node">
<title>node_2ea08ed6</title>
<path fill="#966f33" stroke="black" d="M618.5,-733C618.5,-733 559.5,-733 559.5,-733 553.5,-733 547.5,-727 547.5,-721 547.5,-721 547.5,-709 547.5,-709 547.5,-703 553.5,-697 559.5,-697 559.5,-697 618.5,-697 618.5,-697 624.5,-697 630.5,-703 630.5,-709 630.5,-709 630.5,-721 630.5,-721 630.5,-727 624.5,-733 618.5,-733"/>
<text text-anchor="middle" x="589" y="-711.3" font-family="Times,serif" font-size="14.00">4: animate()</text>
</g>
<!-- node_8e7ba9a0 -->
<g id="node33" class="node">
<title>node_8e7ba9a0</title>
<path fill="#6db33f" stroke="black" d="M847.5,-841C847.5,-841 699.5,-841 699.5,-841 693.5,-841 687.5,-835 687.5,-829 687.5,-829 687.5,-817 687.5,-817 687.5,-811 693.5,-805 699.5,-805 699.5,-805 847.5,-805 847.5,-805 853.5,-805 859.5,-811 859.5,-817 859.5,-817 859.5,-829 859.5,-829 859.5,-835 853.5,-841 847.5,-841"/>
<text text-anchor="middle" x="773.5" y="-819.3" font-family="Times,serif" font-size="14.00">259: handleAnimateChairs()</text>
</g>
<!-- node_2ea08ed6&#45;&gt;node_8e7ba9a0 -->
<g id="edge1" class="edge">
<title>node_2ea08ed6&#45;&gt;node_8e7ba9a0</title>
<path fill="none" stroke="#d55e00" stroke-width="2" d="M623,-733.32C623,-764.13 623,-823 623,-823 623,-823 674.24,-823 674.24,-823"/>
<polygon fill="#d55e00" stroke="#d55e00" stroke-width="2" points="674.24,-826.5 684.24,-823 674.23,-819.5 674.24,-826.5"/>
</g>
<!-- node_1353a346 -->
<g id="node34" class="node">
<title>node_1353a346</title>
<path fill="#6db33f" stroke="black" d="M849.5,-787C849.5,-787 697.5,-787 697.5,-787 691.5,-787 685.5,-781 685.5,-775 685.5,-775 685.5,-763 685.5,-763 685.5,-757 691.5,-751 697.5,-751 697.5,-751 849.5,-751 849.5,-751 855.5,-751 861.5,-757 861.5,-763 861.5,-763 861.5,-775 861.5,-775 861.5,-781 855.5,-787 849.5,-787"/>
<text text-anchor="middle" x="773.5" y="-765.3" font-family="Times,serif" font-size="14.00">468: handleAnimateClosets()</text>
</g>
<!-- node_2ea08ed6&#45;&gt;node_1353a346 -->
<g id="edge2" class="edge">
<title>node_2ea08ed6&#45;&gt;node_1353a346</title>
<path fill="none" stroke="#d55e00" stroke-width="2" d="M627,-733.28C627,-748.95 627,-769 627,-769 627,-769 672.29,-769 672.29,-769"/>
<polygon fill="#d55e00" stroke="#d55e00" stroke-width="2" points="672.29,-772.5 682.29,-769 672.29,-765.5 672.29,-772.5"/>
</g>
<!-- node_17558543 -->
<g id="node35" class="node">
<title>node_17558543</title>
<path fill="#6db33f" stroke="black" d="M855,-733C855,-733 692,-733 692,-733 686,-733 680,-727 680,-721 680,-721 680,-709 680,-709 680,-703 686,-697 692,-697 692,-697 855,-697 855,-697 861,-697 867,-703 867,-709 867,-709 867,-721 867,-721 867,-727 861,-733 855,-733"/>
<text text-anchor="middle" x="773.5" y="-711.3" font-family="Times,serif" font-size="14.00">568: handleBlackboardInertia()</text>
</g>
<!-- node_2ea08ed6&#45;&gt;node_17558543 -->
<g id="edge3" class="edge">
<title>node_2ea08ed6&#45;&gt;node_17558543</title>
<path fill="none" stroke="#d55e00" stroke-width="2" d="M630.87,-715C630.87,-715 666.83,-715 666.83,-715"/>
<polygon fill="#d55e00" stroke="#d55e00" stroke-width="2" points="666.83,-718.5 676.83,-715 666.83,-711.5 666.83,-718.5"/>
</g>
<!-- node_8e7f5d8c -->
<g id="node36" class="node">
<title>node_8e7f5d8c</title>
<path fill="#6db33f" stroke="black" d="M827.5,-679C827.5,-679 719.5,-679 719.5,-679 713.5,-679 707.5,-673 707.5,-667 707.5,-667 707.5,-655 707.5,-655 707.5,-649 713.5,-643 719.5,-643 719.5,-643 827.5,-643 827.5,-643 833.5,-643 839.5,-649 839.5,-655 839.5,-655 839.5,-667 839.5,-667 839.5,-673 833.5,-679 827.5,-679"/>
<text text-anchor="middle" x="773.5" y="-657.3" font-family="Times,serif" font-size="14.00">535: handleInfoDiv()</text>
</g>
<!-- node_2ea08ed6&#45;&gt;node_8e7f5d8c -->
<g id="edge4" class="edge">
<title>node_2ea08ed6&#45;&gt;node_8e7f5d8c</title>
<path fill="none" stroke="#d55e00" stroke-width="2" d="M627,-696.72C627,-681.05 627,-661 627,-661 627,-661 694.08,-661 694.08,-661"/>
<polygon fill="#d55e00" stroke="#d55e00" stroke-width="2" points="694.08,-664.5 704.08,-661 694.08,-657.5 694.08,-664.5"/>
</g>
<!-- node_916ca46d -->
<g id="node48" class="node">
<title>node_916ca46d</title>
<path fill="#cccccc" stroke="black" d="M829.5,-488C829.5,-488 717.5,-488 717.5,-488 711.5,-488 705.5,-482 705.5,-476 705.5,-476 705.5,-464 705.5,-464 705.5,-458 711.5,-452 717.5,-452 717.5,-452 829.5,-452 829.5,-452 835.5,-452 841.5,-458 841.5,-464 841.5,-464 841.5,-476 841.5,-476 841.5,-482 835.5,-488 829.5,-488"/>
<text text-anchor="middle" x="773.5" y="-466.3" font-family="Times,serif" font-size="14.00">148: handleWalking()</text>
</g>
<!-- node_2ea08ed6&#45;&gt;node_916ca46d -->
<g id="edge5" class="edge">
<title>node_2ea08ed6&#45;&gt;node_916ca46d</title>
<path fill="none" stroke="#d55e00" stroke-width="2" d="M623,-696.59C623,-639.61 623,-470 623,-470 623,-470 692.27,-470 692.27,-470"/>
<polygon fill="#d55e00" stroke="#d55e00" stroke-width="2" points="692.27,-473.5 702.27,-470 692.27,-466.5 692.27,-473.5"/>
</g>
<!-- node_be987d19 -->
<g id="node3" class="node">
<title>node_be987d19</title>
<path fill="#966f33" stroke="black" d="M163,-1228C163,-1228 104,-1228 104,-1228 98,-1228 92,-1222 92,-1216 92,-1216 92,-1204 92,-1204 92,-1198 98,-1192 104,-1192 104,-1192 163,-1192 163,-1192 169,-1192 175,-1198 175,-1204 175,-1204 175,-1216 175,-1216 175,-1222 169,-1228 163,-1228"/>
<text text-anchor="middle" x="133.5" y="-1206.3" font-family="Times,serif" font-size="14.00">4: animate()</text>
</g>
<!-- node_db447a36 -->
<g id="node4" class="node">
<title>node_db447a36</title>
<path fill="#cccccc" stroke="black" d="M481.5,-1228C481.5,-1228 319.5,-1228 319.5,-1228 313.5,-1228 307.5,-1222 307.5,-1216 307.5,-1216 307.5,-1204 307.5,-1204 307.5,-1198 313.5,-1192 319.5,-1192 319.5,-1192 481.5,-1192 481.5,-1192 487.5,-1192 493.5,-1198 493.5,-1204 493.5,-1204 493.5,-1216 493.5,-1216 493.5,-1222 487.5,-1228 481.5,-1228"/>
<text text-anchor="middle" x="400.5" y="-1206.3" font-family="Times,serif" font-size="14.00">110: handleObstacleCollision()</text>
</g>
<!-- node_be987d19&#45;&gt;node_db447a36 -->
<g id="edge6" class="edge">
<title>node_be987d19&#45;&gt;node_db447a36</title>
<path fill="none" stroke="#e69f00" stroke-width="2" d="M175.22,-1216C175.22,-1216 294.09,-1216 294.09,-1216"/>
<polygon fill="#e69f00" stroke="#e69f00" stroke-width="2" points="294.09,-1219.5 304.09,-1216 294.09,-1212.5 294.09,-1219.5"/>
</g>
<!-- node_66123e2b -->
<g id="node5" class="node">
<title>node_66123e2b</title>
<path fill="#6db33f" stroke="black" d="M486,-1282C486,-1282 315,-1282 315,-1282 309,-1282 303,-1276 303,-1270 303,-1270 303,-1258 303,-1258 303,-1252 309,-1246 315,-1246 315,-1246 486,-1246 486,-1246 492,-1246 498,-1252 498,-1258 498,-1258 498,-1270 498,-1270 498,-1276 492,-1282 486,-1282"/>
<text text-anchor="middle" x="400.5" y="-1260.3" font-family="Times,serif" font-size="14.00">124: handlePlaneOutOfBounds()</text>
</g>
<!-- node_be987d19&#45;&gt;node_66123e2b -->
<g id="edge7" class="edge">
<title>node_be987d19&#45;&gt;node_66123e2b</title>
<path fill="none" stroke="#e69f00" stroke-width="2" d="M148,-1228.28C148,-1243.95 148,-1264 148,-1264 148,-1264 289.49,-1264 289.49,-1264"/>
<polygon fill="#e69f00" stroke="#e69f00" stroke-width="2" points="289.49,-1267.5 299.49,-1264 289.49,-1260.5 289.49,-1267.5"/>
</g>
<!-- node_60d88f21 -->
<g id="node6" class="node">
<title>node_60d88f21</title>
<path fill="#cccccc" stroke="black" d="M445,-1336C445,-1336 356,-1336 356,-1336 350,-1336 344,-1330 344,-1324 344,-1324 344,-1312 344,-1312 344,-1306 350,-1300 356,-1300 356,-1300 445,-1300 445,-1300 451,-1300 457,-1306 457,-1312 457,-1312 457,-1324 457,-1324 457,-1330 451,-1336 445,-1336"/>
<text text-anchor="middle" x="400.5" y="-1314.3" font-family="Times,serif" font-size="14.00">28: handleScore()</text>
</g>
<!-- node_be987d19&#45;&gt;node_60d88f21 -->
<g id="edge8" class="edge">
<title>node_be987d19&#45;&gt;node_60d88f21</title>
<path fill="none" stroke="#e69f00" stroke-width="2" d="M120,-1228.32C120,-1259.13 120,-1318 120,-1318 120,-1318 330.71,-1318 330.71,-1318"/>
<polygon fill="#e69f00" stroke="#e69f00" stroke-width="2" points="330.71,-1321.5 340.71,-1318 330.71,-1314.5 330.71,-1321.5"/>
</g>
<!-- node_1947ce35 -->
<g id="node7" class="node">
<title>node_1947ce35</title>
<path fill="#cccccc" stroke="black" d="M444.5,-1174C444.5,-1174 356.5,-1174 356.5,-1174 350.5,-1174 344.5,-1168 344.5,-1162 344.5,-1162 344.5,-1150 344.5,-1150 344.5,-1144 350.5,-1138 356.5,-1138 356.5,-1138 444.5,-1138 444.5,-1138 450.5,-1138 456.5,-1144 456.5,-1150 456.5,-1150 456.5,-1162 456.5,-1162 456.5,-1168 450.5,-1174 444.5,-1174"/>
<text text-anchor="middle" x="400.5" y="-1152.3" font-family="Times,serif" font-size="14.00">90: handleTime()</text>
</g>
<!-- node_be987d19&#45;&gt;node_1947ce35 -->
<g id="edge9" class="edge">
<title>node_be987d19&#45;&gt;node_1947ce35</title>
<path fill="none" stroke="#e69f00" stroke-width="2" d="M134,-1191.72C134,-1176.05 134,-1156 134,-1156 134,-1156 331.28,-1156 331.28,-1156"/>
<polygon fill="#e69f00" stroke="#e69f00" stroke-width="2" points="331.28,-1159.5 341.28,-1156 331.28,-1152.5 331.28,-1159.5"/>
</g>
<!-- node_ad1f87fd -->
<g id="node10" class="node">
<title>node_ad1f87fd</title>
<path fill="#cccccc" stroke="black" d="M820.5,-1008C820.5,-1008 726.5,-1008 726.5,-1008 720.5,-1008 714.5,-1002 714.5,-996 714.5,-996 714.5,-984 714.5,-984 714.5,-978 720.5,-972 726.5,-972 726.5,-972 820.5,-972 820.5,-972 826.5,-972 832.5,-978 832.5,-984 832.5,-984 832.5,-996 832.5,-996 832.5,-1002 826.5,-1008 820.5,-1008"/>
<text text-anchor="middle" x="773.5" y="-986.3" font-family="Times,serif" font-size="14.00">51: handleFlying()</text>
</g>
<!-- node_be987d19&#45;&gt;node_ad1f87fd -->
<g id="edge10" class="edge">
<title>node_be987d19&#45;&gt;node_ad1f87fd</title>
<path fill="none" stroke="#e69f00" stroke-width="2" d="M175.3,-1204C220.14,-1204 285,-1204 285,-1204 285,-1204 285,-990 285,-990 285,-990 701.06,-990 701.06,-990"/>
<polygon fill="#e69f00" stroke="#e69f00" stroke-width="2" points="701.06,-993.5 711.06,-990 701.06,-986.5 701.06,-993.5"/>
</g>
<!-- node_ab0a7552 -->
<g id="node12" class="node">
<title>node_ab0a7552</title>
<path fill="#6db33f" stroke="black" d="M632,-1336C632,-1336 546,-1336 546,-1336 540,-1336 534,-1330 534,-1324 534,-1324 534,-1312 534,-1312 534,-1306 540,-1300 546,-1300 546,-1300 632,-1300 632,-1300 638,-1300 644,-1306 644,-1312 644,-1312 644,-1324 644,-1324 644,-1330 638,-1336 632,-1336"/>
<text text-anchor="middle" x="589" y="-1314.3" font-family="Times,serif" font-size="14.00">135: gameOver()</text>
</g>
<!-- node_db447a36&#45;&gt;node_ab0a7552 -->
<g id="edge11" class="edge">
<title>node_db447a36&#45;&gt;node_ab0a7552</title>
<path fill="none" stroke="#d55e00" stroke-width="2" d="M493.65,-1213.5C518.7,-1213.5 539,-1213.5 539,-1213.5 539,-1213.5 539,-1286.77 539,-1286.77"/>
<polygon fill="#d55e00" stroke="#d55e00" stroke-width="2" points="535.5,-1286.77 539,-1296.77 542.5,-1286.77 535.5,-1286.77"/>
</g>
<!-- node_60d88f21&#45;&gt;node_ab0a7552 -->
<g id="edge12" class="edge">
<title>node_60d88f21&#45;&gt;node_ab0a7552</title>
<path fill="none" stroke="#e69f00" stroke-width="2" d="M457.31,-1318C457.31,-1318 520.57,-1318 520.57,-1318"/>
<polygon fill="#e69f00" stroke="#e69f00" stroke-width="2" points="520.57,-1321.5 530.57,-1318 520.57,-1314.5 520.57,-1321.5"/>
</g>
<!-- node_1947ce35&#45;&gt;node_ab0a7552 -->
<g id="edge14" class="edge">
<title>node_1947ce35&#45;&gt;node_ab0a7552</title>
<path fill="none" stroke="#0072b2" stroke-width="2" d="M456.82,-1168.5C496.65,-1168.5 543,-1168.5 543,-1168.5 543,-1168.5 543,-1286.64 543,-1286.64"/>
<polygon fill="#0072b2" stroke="#0072b2" stroke-width="2" points="539.5,-1286.64 543,-1296.64 546.5,-1286.64 539.5,-1286.64"/>
</g>
<!-- node_ac69fa8d -->
<g id="node8" class="node">
<title>node_ac69fa8d</title>
<path fill="#6db33f" stroke="black" d="M1045,-1008C1045,-1008 961,-1008 961,-1008 955,-1008 949,-1002 949,-996 949,-996 949,-984 949,-984 949,-978 955,-972 961,-972 961,-972 1045,-972 1045,-972 1051,-972 1057,-978 1057,-984 1057,-984 1057,-996 1057,-996 1057,-1002 1051,-1008 1045,-1008"/>
<text text-anchor="middle" x="1003" y="-986.3" font-family="Times,serif" font-size="14.00">134: calcSpeed()</text>
</g>
<!-- node_e0293cea -->
<g id="node9" class="node">
<title>node_e0293cea</title>
<path fill="#cccccc" stroke="black" d="M1067,-1062C1067,-1062 939,-1062 939,-1062 933,-1062 927,-1056 927,-1050 927,-1050 927,-1038 927,-1038 927,-1032 933,-1026 939,-1026 939,-1026 1067,-1026 1067,-1026 1073,-1026 1079,-1032 1079,-1038 1079,-1038 1079,-1050 1079,-1050 1079,-1056 1073,-1062 1067,-1062"/>
<text text-anchor="middle" x="1003" y="-1040.3" font-family="Times,serif" font-size="14.00">111: createModelPlane()</text>
</g>
<!-- node_0afdf1c5 -->
<g id="node24" class="node">
<title>node_0afdf1c5</title>
<path fill="#6db33f" stroke="black" d="M1342.5,-269C1342.5,-269 1170.5,-269 1170.5,-269 1164.5,-269 1158.5,-263 1158.5,-257 1158.5,-257 1158.5,-245 1158.5,-245 1158.5,-239 1164.5,-233 1170.5,-233 1170.5,-233 1342.5,-233 1342.5,-233 1348.5,-233 1354.5,-239 1354.5,-245 1354.5,-245 1354.5,-257 1354.5,-257 1354.5,-263 1348.5,-269 1342.5,-269"/>
<text text-anchor="middle" x="1256.5" y="-247.3" font-family="Times,serif" font-size="14.00">7: getMeshFromBlenderModel()</text>
</g>
<!-- node_e0293cea&#45;&gt;node_0afdf1c5 -->
<g id="edge15" class="edge">
<title>node_e0293cea&#45;&gt;node_0afdf1c5</title>
<path fill="none" stroke="#56b4e9" stroke-width="2" d="M1079.3,-1044C1097.61,-1044 1112,-1044 1112,-1044 1112,-1044 1112,-251 1112,-251 1112,-251 1145.09,-251 1145.09,-251"/>
<polygon fill="#56b4e9" stroke="#56b4e9" stroke-width="2" points="1145.09,-254.5 1155.09,-251 1145.09,-247.5 1145.09,-254.5"/>
</g>
<!-- node_ad1f87fd&#45;&gt;node_ac69fa8d -->
<g id="edge16" class="edge">
<title>node_ad1f87fd&#45;&gt;node_ac69fa8d</title>
<path fill="none" stroke="#0072b2" stroke-width="2" d="M832.9,-1000.8C832.9,-1000.8 935.54,-1000.8 935.54,-1000.8"/>
<polygon fill="#0072b2" stroke="#0072b2" stroke-width="2" points="935.54,-1004.3 945.54,-1000.8 935.54,-997.3 935.54,-1004.3"/>
</g>
<!-- node_afa8d1fc -->
<g id="node22" class="node">
<title>node_afa8d1fc</title>
<path fill="#6db33f" stroke="black" d="M1296,-431C1296,-431 1217,-431 1217,-431 1211,-431 1205,-425 1205,-419 1205,-419 1205,-407 1205,-407 1205,-401 1211,-395 1217,-395 1217,-395 1296,-395 1296,-395 1302,-395 1308,-401 1308,-407 1308,-407 1308,-419 1308,-419 1308,-425 1302,-431 1296,-431"/>
<text text-anchor="middle" x="1256.5" y="-409.3" font-family="Times,serif" font-size="14.00">77: degToRad()</text>
</g>
<!-- node_ad1f87fd&#45;&gt;node_afa8d1fc -->
<g id="edge17" class="edge">
<title>node_ad1f87fd&#45;&gt;node_afa8d1fc</title>
<path fill="none" stroke="#0072b2" stroke-width="2" d="M832.73,-979.2C856.77,-979.2 879,-979.2 879,-979.2 879,-979.2 879,-423.5 879,-423.5 879,-423.5 1191.77,-423.5 1191.77,-423.5"/>
<polygon fill="#0072b2" stroke="#0072b2" stroke-width="2" points="1191.77,-427 1201.77,-423.5 1191.77,-420 1191.77,-427"/>
</g>
<!-- node_b2cba8d3 -->
<g id="node26" class="node">
<title>node_b2cba8d3</title>
<path fill="#cccccc" stroke="black" d="M1362,-539C1362,-539 1151,-539 1151,-539 1145,-539 1139,-533 1139,-527 1139,-527 1139,-515 1139,-515 1139,-509 1145,-503 1151,-503 1151,-503 1362,-503 1362,-503 1368,-503 1374,-509 1374,-515 1374,-515 1374,-527 1374,-527 1374,-533 1368,-539 1362,-539"/>
<text text-anchor="middle" x="1256.5" y="-517.3" font-family="Times,serif" font-size="14.00">127: turnVectorAroundHorizontalAxis()</text>
</g>
<!-- node_ad1f87fd&#45;&gt;node_b2cba8d3 -->
<g id="edge21" class="edge">
<title>node_ad1f87fd&#45;&gt;node_b2cba8d3</title>
<path fill="none" stroke="#0072b2" stroke-width="2" d="M832.94,-993.6C862.08,-993.6 891,-993.6 891,-993.6 891,-993.6 891,-519 891,-519 891,-519 1125.56,-519 1125.56,-519"/>
<polygon fill="#0072b2" stroke="#0072b2" stroke-width="2" points="1125.56,-522.5 1135.56,-519 1125.56,-515.5 1125.56,-522.5"/>
</g>
<!-- node_ecdad708 -->
<g id="node27" class="node">
<title>node_ecdad708</title>
<path fill="#6db33f" stroke="black" d="M1354,-485C1354,-485 1159,-485 1159,-485 1153,-485 1147,-479 1147,-473 1147,-473 1147,-461 1147,-461 1147,-455 1153,-449 1159,-449 1159,-449 1354,-449 1354,-449 1360,-449 1366,-455 1366,-461 1366,-461 1366,-473 1366,-473 1366,-479 1360,-485 1354,-485"/>
<text text-anchor="middle" x="1256.5" y="-463.3" font-family="Times,serif" font-size="14.00">114: turnVectorAroundVerticalAxis()</text>
</g>
<!-- node_ad1f87fd&#45;&gt;node_ecdad708 -->
<g id="edge22" class="edge">
<title>node_ad1f87fd&#45;&gt;node_ecdad708</title>
<path fill="none" stroke="#0072b2" stroke-width="2" d="M832.84,-986.4C859.47,-986.4 885,-986.4 885,-986.4 885,-986.4 885,-480 885,-480 885,-480 1133.52,-480 1133.52,-480"/>
<polygon fill="#0072b2" stroke="#0072b2" stroke-width="2" points="1133.52,-483.5 1143.52,-480 1133.52,-476.5 1133.52,-483.5"/>
</g>
<!-- node_04e7a912 -->
<g id="node11" class="node">
<title>node_04e7a912</title>
<path fill="#cccccc" stroke="black" d="M808,-1062C808,-1062 739,-1062 739,-1062 733,-1062 727,-1056 727,-1050 727,-1050 727,-1038 727,-1038 727,-1032 733,-1026 739,-1026 739,-1026 808,-1026 808,-1026 814,-1026 820,-1032 820,-1038 820,-1038 820,-1050 820,-1050 820,-1056 814,-1062 808,-1062"/>
<text text-anchor="middle" x="773.5" y="-1040.3" font-family="Times,serif" font-size="14.00">4: initFlying()</text>
</g>
<!-- node_04e7a912&#45;&gt;node_e0293cea -->
<g id="edge23" class="edge">
<title>node_04e7a912&#45;&gt;node_e0293cea</title>
<path fill="none" stroke="#56b4e9" stroke-width="2" d="M820.5,-1044C820.5,-1044 913.68,-1044 913.68,-1044"/>
<polygon fill="#56b4e9" stroke="#56b4e9" stroke-width="2" points="913.68,-1047.5 923.68,-1044 913.68,-1040.5 913.68,-1047.5"/>
</g>
<!-- node_47e11cd8 -->
<g id="node13" class="node">
<title>node_47e11cd8</title>
<path fill="#966f33" stroke="black" d="M606,-1282C606,-1282 572,-1282 572,-1282 566,-1282 560,-1276 560,-1270 560,-1270 560,-1258 560,-1258 560,-1252 566,-1246 572,-1246 572,-1246 606,-1246 606,-1246 612,-1246 618,-1252 618,-1258 618,-1258 618,-1270 618,-1270 618,-1276 612,-1282 606,-1282"/>
<text text-anchor="middle" x="589" y="-1260.3" font-family="Times,serif" font-size="14.00">4: init()</text>
</g>
<!-- node_47e11cd8&#45;&gt;node_04e7a912 -->
<g id="edge24" class="edge">
<title>node_47e11cd8&#45;&gt;node_04e7a912</title>
<path fill="none" stroke="#000000" stroke-width="2" d="M580,-1245.62C580,-1192.75 580,-1044 580,-1044 580,-1044 713.63,-1044 713.63,-1044"/>
<polygon fill="#000000" stroke="#000000" stroke-width="2" points="713.63,-1047.5 723.63,-1044 713.63,-1040.5 713.63,-1047.5"/>
</g>
<!-- node_04dab5f2 -->
<g id="node14" class="node">
<title>node_04dab5f2</title>
<path fill="#cccccc" stroke="black" d="M831.5,-1410C831.5,-1410 715.5,-1410 715.5,-1410 709.5,-1410 703.5,-1404 703.5,-1398 703.5,-1398 703.5,-1386 703.5,-1386 703.5,-1380 709.5,-1374 715.5,-1374 715.5,-1374 831.5,-1374 831.5,-1374 837.5,-1374 843.5,-1380 843.5,-1386 843.5,-1386 843.5,-1398 843.5,-1398 843.5,-1404 837.5,-1410 831.5,-1410"/>
<text text-anchor="middle" x="773.5" y="-1388.3" font-family="Times,serif" font-size="14.00">198: initDevControls()</text>
</g>
<!-- node_47e11cd8&#45;&gt;node_04dab5f2 -->
<g id="edge25" class="edge">
<title>node_47e11cd8&#45;&gt;node_04dab5f2</title>
<path fill="none" stroke="#000000" stroke-width="2" d="M618.25,-1270C649.32,-1270 694,-1270 694,-1270 694,-1270 694,-1392 694,-1392 694,-1392 694.91,-1392 694.91,-1392"/>
<polygon fill="#000000" stroke="#000000" stroke-width="2" points="690.09,-1395.5 700.09,-1392 690.09,-1388.5 690.09,-1395.5"/>
</g>
<!-- node_2d110384 -->
<g id="node15" class="node">
<title>node_2d110384</title>
<path fill="#cccccc" stroke="black" d="M833,-1336C833,-1336 714,-1336 714,-1336 708,-1336 702,-1330 702,-1324 702,-1324 702,-1312 702,-1312 702,-1306 708,-1300 714,-1300 714,-1300 833,-1300 833,-1300 839,-1300 845,-1306 845,-1312 845,-1312 845,-1324 845,-1324 845,-1330 839,-1336 833,-1336"/>
<text text-anchor="middle" x="773.5" y="-1314.3" font-family="Times,serif" font-size="14.00">71: initOceanAndSky()</text>
</g>
<!-- node_47e11cd8&#45;&gt;node_2d110384 -->
<g id="edge26" class="edge">
<title>node_47e11cd8&#45;&gt;node_2d110384</title>
<path fill="none" stroke="#000000" stroke-width="2" d="M618.31,-1264C655.25,-1264 714,-1264 714,-1264 714,-1264 714,-1286.69 714,-1286.69"/>
<polygon fill="#000000" stroke="#000000" stroke-width="2" points="710.5,-1286.69 714,-1296.69 717.5,-1286.69 710.5,-1286.69"/>
</g>
<!-- node_b0fe974b -->
<g id="node16" class="node">
<title>node_b0fe974b</title>
<path fill="#6db33f" stroke="black" d="M810.5,-1282C810.5,-1282 736.5,-1282 736.5,-1282 730.5,-1282 724.5,-1276 724.5,-1270 724.5,-1270 724.5,-1258 724.5,-1258 724.5,-1252 730.5,-1246 736.5,-1246 736.5,-1246 810.5,-1246 810.5,-1246 816.5,-1246 822.5,-1252 822.5,-1258 822.5,-1258 822.5,-1270 822.5,-1270 822.5,-1276 816.5,-1282 810.5,-1282"/>
<text text-anchor="middle" x="773.5" y="-1260.3" font-family="Times,serif" font-size="14.00">120: initStats()</text>
</g>
<!-- node_47e11cd8&#45;&gt;node_b0fe974b -->
<g id="edge27" class="edge">
<title>node_47e11cd8&#45;&gt;node_b0fe974b</title>
<path fill="none" stroke="#000000" stroke-width="2" d="M618.23,-1258C618.23,-1258 711.25,-1258 711.25,-1258"/>
<polygon fill="#000000" stroke="#000000" stroke-width="2" points="711.25,-1261.5 721.25,-1258 711.25,-1254.5 711.25,-1261.5"/>
</g>
<!-- node_af265d2b -->
<g id="node18" class="node">
<title>node_af265d2b</title>
<path fill="#6db33f" stroke="black" d="M1341.5,-1391C1341.5,-1391 1171.5,-1391 1171.5,-1391 1165.5,-1391 1159.5,-1385 1159.5,-1379 1159.5,-1379 1159.5,-1367 1159.5,-1367 1159.5,-1361 1165.5,-1355 1171.5,-1355 1171.5,-1355 1341.5,-1355 1341.5,-1355 1347.5,-1355 1353.5,-1361 1353.5,-1367 1353.5,-1367 1353.5,-1379 1353.5,-1379 1353.5,-1385 1347.5,-1391 1341.5,-1391"/>
<text text-anchor="middle" x="1256.5" y="-1369.3" font-family="Times,serif" font-size="14.00">180: showInvertedControlsDiv()</text>
</g>
<!-- node_47e11cd8&#45;&gt;node_af265d2b -->
<g id="edge28" class="edge">
<title>node_47e11cd8&#45;&gt;node_af265d2b</title>
<path fill="none" stroke="#000000" stroke-width="2" d="M618.27,-1276C638.58,-1276 662,-1276 662,-1276 662,-1276 662,-1364.5 662,-1364.5 662,-1364.5 1146.3,-1364.5 1146.3,-1364.5"/>
<polygon fill="#000000" stroke="#000000" stroke-width="2" points="1146.3,-1368 1156.3,-1364.5 1146.3,-1361 1146.3,-1368"/>
</g>
<!-- node_185e1255 -->
<g id="node19" class="node">
<title>node_185e1255</title>
<path fill="#6db33f" stroke="black" d="M846,-1199C846,-1199 701,-1199 701,-1199 695,-1199 689,-1193 689,-1187 689,-1187 689,-1175 689,-1175 689,-1169 695,-1163 701,-1163 701,-1163 846,-1163 846,-1163 852,-1163 858,-1169 858,-1175 858,-1175 858,-1187 858,-1187 858,-1193 852,-1199 846,-1199"/>
<text text-anchor="middle" x="773.5" y="-1177.3" font-family="Times,serif" font-size="14.00">57: placeObstaclesObjects()</text>
</g>
<!-- node_47e11cd8&#45;&gt;node_185e1255 -->
<g id="edge29" class="edge">
<title>node_47e11cd8&#45;&gt;node_185e1255</title>
<path fill="none" stroke="#000000" stroke-width="2" d="M618.5,-1252C650.78,-1252 698,-1252 698,-1252 698,-1252 698,-1212.31 698,-1212.31"/>
<polygon fill="#000000" stroke="#000000" stroke-width="2" points="701.5,-1212.31 698,-1202.31 694.5,-1212.31 701.5,-1212.31"/>
</g>
<!-- node_dc7f5b5b -->
<g id="node20" class="node">
<title>node_dc7f5b5b</title>
<path fill="#6db33f" stroke="black" d="M832,-1145C832,-1145 715,-1145 715,-1145 709,-1145 703,-1139 703,-1133 703,-1133 703,-1121 703,-1121 703,-1115 709,-1109 715,-1109 715,-1109 832,-1109 832,-1109 838,-1109 844,-1115 844,-1121 844,-1121 844,-1133 844,-1133 844,-1139 838,-1145 832,-1145"/>
<text text-anchor="middle" x="773.5" y="-1123.3" font-family="Times,serif" font-size="14.00">4: placeTorusObjects()</text>
</g>
<!-- node_47e11cd8&#45;&gt;node_dc7f5b5b -->
<g id="edge30" class="edge">
<title>node_47e11cd8&#45;&gt;node_dc7f5b5b</title>
<path fill="none" stroke="#000000" stroke-width="2" d="M599,-1245.66C599,-1211.49 599,-1141.5 599,-1141.5 599,-1141.5 689.5,-1141.5 689.5,-1141.5"/>
<polygon fill="#000000" stroke="#000000" stroke-width="2" points="689.5,-1145 699.5,-1141.5 689.5,-1138 689.5,-1145"/>
</g>
<!-- node_8a742c81 -->
<g id="node17" class="node">
<title>node_8a742c81</title>
<path fill="#cccccc" stroke="black" d="M1056.5,-1410C1056.5,-1410 949.5,-1410 949.5,-1410 943.5,-1410 937.5,-1404 937.5,-1398 937.5,-1398 937.5,-1386 937.5,-1386 937.5,-1380 943.5,-1374 949.5,-1374 949.5,-1374 1056.5,-1374 1056.5,-1374 1062.5,-1374 1068.5,-1380 1068.5,-1386 1068.5,-1386 1068.5,-1398 1068.5,-1398 1068.5,-1404 1062.5,-1410 1056.5,-1410"/>
<text text-anchor="middle" x="1003" y="-1388.3" font-family="Times,serif" font-size="14.00">170: invertControls()</text>
</g>
<!-- node_04dab5f2&#45;&gt;node_8a742c81 -->
<g id="edge31" class="edge">
<title>node_04dab5f2&#45;&gt;node_8a742c81</title>
<path fill="none" stroke="#56b4e9" stroke-width="2" d="M843.92,-1392C843.92,-1392 924,-1392 924,-1392"/>
<polygon fill="#56b4e9" stroke="#56b4e9" stroke-width="2" points="924,-1395.5 934,-1392 924,-1388.5 924,-1395.5"/>
</g>
<!-- node_2d110384&#45;&gt;node_afa8d1fc -->
<g id="edge32" class="edge">
<title>node_2d110384&#45;&gt;node_afa8d1fc</title>
<path fill="none" stroke="#f0e442" stroke-width="2" d="M845.21,-1318C949.32,-1318 1130,-1318 1130,-1318 1130,-1318 1130,-428.5 1130,-428.5 1130,-428.5 1191.66,-428.5 1191.66,-428.5"/>
<polygon fill="#f0e442" stroke="#f0e442" stroke-width="2" points="1191.66,-432 1201.66,-428.5 1191.66,-425 1191.66,-432"/>
</g>
<!-- node_8a742c81&#45;&gt;node_af265d2b -->
<g id="edge34" class="edge">
<title>node_8a742c81&#45;&gt;node_af265d2b</title>
<path fill="none" stroke="#e69f00" stroke-width="2" d="M1068.94,-1382.5C1068.94,-1382.5 1146.34,-1382.5 1146.34,-1382.5"/>
<polygon fill="#e69f00" stroke="#e69f00" stroke-width="2" points="1146.34,-1386 1156.34,-1382.5 1146.34,-1379 1146.34,-1386"/>
</g>
<!-- node_c7e97103 -->
<g id="node21" class="node">
<title>node_c7e97103</title>
<path fill="#6db33f" stroke="black" d="M1308.5,-377C1308.5,-377 1204.5,-377 1204.5,-377 1198.5,-377 1192.5,-371 1192.5,-365 1192.5,-365 1192.5,-353 1192.5,-353 1192.5,-347 1198.5,-341 1204.5,-341 1204.5,-341 1308.5,-341 1308.5,-341 1314.5,-341 1320.5,-347 1320.5,-353 1320.5,-353 1320.5,-365 1320.5,-365 1320.5,-371 1314.5,-377 1308.5,-377"/>
<text text-anchor="middle" x="1256.5" y="-355.3" font-family="Times,serif" font-size="14.00">88: checkCollision()</text>
</g>
<!-- node_926009b1 -->
<g id="node23" class="node">
<title>node_926009b1</title>
<path fill="#6db33f" stroke="black" d="M1318.5,-323C1318.5,-323 1194.5,-323 1194.5,-323 1188.5,-323 1182.5,-317 1182.5,-311 1182.5,-311 1182.5,-299 1182.5,-299 1182.5,-293 1188.5,-287 1194.5,-287 1194.5,-287 1318.5,-287 1318.5,-287 1324.5,-287 1330.5,-293 1330.5,-299 1330.5,-299 1330.5,-311 1330.5,-311 1330.5,-317 1324.5,-323 1318.5,-323"/>
<text text-anchor="middle" x="1256.5" y="-301.3" font-family="Times,serif" font-size="14.00">65: getCameraLookAt()</text>
</g>
<!-- node_85adfcd6 -->
<g id="node25" class="node">
<title>node_85adfcd6</title>
<path fill="#6db33f" stroke="black" d="M1515,-539C1515,-539 1422,-539 1422,-539 1416,-539 1410,-533 1410,-527 1410,-527 1410,-515 1410,-515 1410,-509 1416,-503 1422,-503 1422,-503 1515,-503 1515,-503 1521,-503 1527,-509 1527,-515 1527,-515 1527,-527 1527,-527 1527,-533 1521,-539 1515,-539"/>
<text text-anchor="middle" x="1468.5" y="-517.3" font-family="Times,serif" font-size="14.00">189: showVector()</text>
</g>
<!-- node_b2cba8d3&#45;&gt;node_85adfcd6 -->
<g id="edge35" class="edge">
<title>node_b2cba8d3&#45;&gt;node_85adfcd6</title>
<path fill="none" stroke="#009e73" stroke-width="2" d="M1374.28,-521C1374.28,-521 1396.56,-521 1396.56,-521"/>
<polygon fill="#009e73" stroke="#009e73" stroke-width="2" points="1396.56,-524.5 1406.56,-521 1396.56,-517.5 1396.56,-524.5"/>
</g>
<!-- node_119e3d38 -->
<g id="node28" class="node">
<title>node_119e3d38</title>
<path fill="#966f33" stroke="black" d="M606,-243C606,-243 572,-243 572,-243 566,-243 560,-237 560,-231 560,-231 560,-219 560,-219 560,-213 566,-207 572,-207 572,-207 606,-207 606,-207 612,-207 618,-213 618,-219 618,-219 618,-231 618,-231 618,-237 612,-243 606,-243"/>
<text text-anchor="middle" x="589" y="-221.3" font-family="Times,serif" font-size="14.00">4: init()</text>
</g>
<!-- node_849eb75b -->
<g id="node29" class="node">
<title>node_849eb75b</title>
<path fill="#6db33f" stroke="black" d="M831.5,-243C831.5,-243 715.5,-243 715.5,-243 709.5,-243 703.5,-237 703.5,-231 703.5,-231 703.5,-219 703.5,-219 703.5,-213 709.5,-207 715.5,-207 715.5,-207 831.5,-207 831.5,-207 837.5,-207 843.5,-213 843.5,-219 843.5,-219 843.5,-231 843.5,-231 843.5,-237 837.5,-243 831.5,-243"/>
<text text-anchor="middle" x="773.5" y="-221.3" font-family="Times,serif" font-size="14.00">108: initDevControls()</text>
</g>
<!-- node_119e3d38&#45;&gt;node_849eb75b -->
<g id="edge38" class="edge">
<title>node_119e3d38&#45;&gt;node_849eb75b</title>
<path fill="none" stroke="#000000" stroke-width="2" d="M618.23,-225C618.23,-225 690.36,-225 690.36,-225"/>
<polygon fill="#000000" stroke="#000000" stroke-width="2" points="690.36,-228.5 700.36,-225 690.36,-221.5 690.36,-228.5"/>
</g>
<!-- node_697535f7 -->
<g id="node30" class="node">
<title>node_697535f7</title>
<path fill="#6db33f" stroke="black" d="M807,-297C807,-297 740,-297 740,-297 734,-297 728,-291 728,-285 728,-285 728,-273 728,-273 728,-267 734,-261 740,-261 740,-261 807,-261 807,-261 813,-261 819,-267 819,-273 819,-273 819,-285 819,-285 819,-291 813,-297 807,-297"/>
<text text-anchor="middle" x="773.5" y="-275.3" font-family="Times,serif" font-size="14.00">91: initStats()</text>
</g>
<!-- node_119e3d38&#45;&gt;node_697535f7 -->
<g id="edge39" class="edge">
<title>node_119e3d38&#45;&gt;node_697535f7</title>
<path fill="none" stroke="#000000" stroke-width="2" d="M607,-243.28C607,-258.95 607,-279 607,-279 607,-279 714.54,-279 714.54,-279"/>
<polygon fill="#000000" stroke="#000000" stroke-width="2" points="714.54,-282.5 724.54,-279 714.54,-275.5 714.54,-282.5"/>
</g>
<!-- node_801feef8 -->
<g id="node31" class="node">
<title>node_801feef8</title>
<path fill="#6db33f" stroke="black" d="M853.5,-135C853.5,-135 693.5,-135 693.5,-135 687.5,-135 681.5,-129 681.5,-123 681.5,-123 681.5,-111 681.5,-111 681.5,-105 687.5,-99 693.5,-99 693.5,-99 853.5,-99 853.5,-99 859.5,-99 865.5,-105 865.5,-111 865.5,-111 865.5,-123 865.5,-123 865.5,-129 859.5,-135 853.5,-135"/>
<text text-anchor="middle" x="773.5" y="-113.3" font-family="Times,serif" font-size="14.00">188: putStartScreenOnReady()</text>
</g>
<!-- node_119e3d38&#45;&gt;node_801feef8 -->
<g id="edge40" class="edge">
<title>node_119e3d38&#45;&gt;node_801feef8</title>
<path fill="none" stroke="#000000" stroke-width="2" d="M618.32,-216C646.56,-216 685,-216 685,-216 685,-216 685,-148.19 685,-148.19"/>
<polygon fill="#000000" stroke="#000000" stroke-width="2" points="688.5,-148.19 685,-138.19 681.5,-148.19 688.5,-148.19"/>
</g>
<!-- node_63bfe93c -->
<g id="node32" class="node">
<title>node_63bfe93c</title>
<path fill="#6db33f" stroke="black" d="M816,-189C816,-189 731,-189 731,-189 725,-189 719,-183 719,-177 719,-177 719,-165 719,-165 719,-159 725,-153 731,-153 731,-153 816,-153 816,-153 822,-153 828,-159 828,-165 828,-165 828,-177 828,-177 828,-183 822,-189 816,-189"/>
<text text-anchor="middle" x="773.5" y="-167.3" font-family="Times,serif" font-size="14.00">178: startScene()</text>
</g>
<!-- node_119e3d38&#45;&gt;node_63bfe93c -->
<g id="edge41" class="edge">
<title>node_119e3d38&#45;&gt;node_63bfe93c</title>
<path fill="none" stroke="#000000" stroke-width="2" d="M599,-206.72C599,-191.05 599,-171 599,-171 599,-171 705.74,-171 705.74,-171"/>
<polygon fill="#000000" stroke="#000000" stroke-width="2" points="705.74,-174.5 715.74,-171 705.74,-167.5 705.74,-174.5"/>
</g>
<!-- node_988154b5 -->
<g id="node39" class="node">
<title>node_988154b5</title>
<path fill="#cccccc" stroke="black" d="M822.5,-625C822.5,-625 724.5,-625 724.5,-625 718.5,-625 712.5,-619 712.5,-613 712.5,-613 712.5,-601 712.5,-601 712.5,-595 718.5,-589 724.5,-589 724.5,-589 822.5,-589 822.5,-589 828.5,-589 834.5,-595 834.5,-601 834.5,-601 834.5,-613 834.5,-613 834.5,-619 828.5,-625 822.5,-625"/>
<text text-anchor="middle" x="773.5" y="-603.3" font-family="Times,serif" font-size="14.00">4: initInteractions()</text>
</g>
<!-- node_119e3d38&#45;&gt;node_988154b5 -->
<g id="edge46" class="edge">
<title>node_119e3d38&#45;&gt;node_988154b5</title>
<path fill="none" stroke="#000000" stroke-width="2" d="M572,-243.42C572,-319.73 572,-607 572,-607 572,-607 699.2,-607 699.2,-607"/>
<polygon fill="#000000" stroke="#000000" stroke-width="2" points="699.2,-610.5 709.2,-607 699.2,-603.5 699.2,-610.5"/>
</g>
<!-- node_bca83549 -->
<g id="node44" class="node">
<title>node_bca83549</title>
<path fill="#cccccc" stroke="black" d="M813,-52C813,-52 734,-52 734,-52 728,-52 722,-46 722,-40 722,-40 722,-28 722,-28 722,-22 728,-16 734,-16 734,-16 813,-16 813,-16 819,-16 825,-22 825,-28 825,-28 825,-40 825,-40 825,-46 819,-52 813,-52"/>
<text text-anchor="middle" x="773.5" y="-30.3" font-family="Times,serif" font-size="14.00">4: placeLights()</text>
</g>
<!-- node_119e3d38&#45;&gt;node_bca83549 -->
<g id="edge47" class="edge">
<title>node_119e3d38&#45;&gt;node_bca83549</title>
<path fill="none" stroke="#000000" stroke-width="2" d="M580,-206.69C580,-158.88 580,-34 580,-34 580,-34 708.62,-34 708.62,-34"/>
<polygon fill="#000000" stroke="#000000" stroke-width="2" points="708.62,-37.5 718.62,-34 708.62,-30.5 708.62,-37.5"/>
</g>
<!-- node_afbdb0a2 -->
<g id="node45" class="node">
<title>node_afbdb0a2</title>
<path fill="#cccccc" stroke="black" d="M1046,-269C1046,-269 960,-269 960,-269 954,-269 948,-263 948,-257 948,-257 948,-245 948,-245 948,-239 954,-233 960,-233 960,-233 1046,-233 1046,-233 1052,-233 1058,-239 1058,-245 1058,-245 1058,-257 1058,-257 1058,-263 1052,-269 1046,-269"/>
<text text-anchor="middle" x="1003" y="-247.3" font-family="Times,serif" font-size="14.00">4: placeObjects()</text>
</g>
<!-- node_119e3d38&#45;&gt;node_afbdb0a2 -->
<g id="edge48" class="edge">
<title>node_119e3d38&#45;&gt;node_afbdb0a2</title>
<path fill="none" stroke="#000000" stroke-width="2" d="M584,-243.46C584,-248.2 584,-252 584,-252 584,-252 934.77,-252 934.77,-252"/>
<polygon fill="#000000" stroke="#000000" stroke-width="2" points="934.77,-255.5 944.77,-252 934.77,-248.5 934.77,-255.5"/>
</g>
<!-- node_4391b65a -->
<g id="node49" class="node">
<title>node_4391b65a</title>
<path fill="#6db33f" stroke="black" d="M846.5,-434C846.5,-434 700.5,-434 700.5,-434 694.5,-434 688.5,-428 688.5,-422 688.5,-422 688.5,-410 688.5,-410 688.5,-404 694.5,-398 700.5,-398 700.5,-398 846.5,-398 846.5,-398 852.5,-398 858.5,-404 858.5,-410 858.5,-410 858.5,-422 858.5,-422 858.5,-428 852.5,-434 846.5,-434"/>
<text text-anchor="middle" x="773.5" y="-412.3" font-family="Times,serif" font-size="14.00">211: initMouseClickMove()</text>
</g>
<!-- node_119e3d38&#45;&gt;node_4391b65a -->
<g id="edge49" class="edge">
<title>node_119e3d38&#45;&gt;node_4391b65a</title>
<path fill="none" stroke="#000000" stroke-width="2" d="M618.24,-234C649.92,-234 696,-234 696,-234 696,-234 696,-384.52 696,-384.52"/>
<polygon fill="#000000" stroke="#000000" stroke-width="2" points="692.5,-384.52 696,-394.52 699.5,-384.52 692.5,-384.52"/>
</g>
<!-- node_7758fa53 -->
<g id="node50" class="node">
<title>node_7758fa53</title>
<path fill="#cccccc" stroke="black" d="M808.5,-380C808.5,-380 738.5,-380 738.5,-380 732.5,-380 726.5,-374 726.5,-368 726.5,-368 726.5,-356 726.5,-356 726.5,-350 732.5,-344 738.5,-344 738.5,-344 808.5,-344 808.5,-344 814.5,-344 820.5,-350 820.5,-356 820.5,-356 820.5,-368 820.5,-368 820.5,-374 814.5,-380 808.5,-380"/>
<text text-anchor="middle" x="773.5" y="-358.3" font-family="Times,serif" font-size="14.00">13: initWalk()</text>
</g>
<!-- node_119e3d38&#45;&gt;node_7758fa53 -->
<g id="edge50" class="edge">
<title>node_119e3d38&#45;&gt;node_7758fa53</title>
<path fill="none" stroke="#000000" stroke-width="2" d="M595,-243.48C595,-280.87 595,-362 595,-362 595,-362 713.11,-362 713.11,-362"/>
<polygon fill="#000000" stroke="#000000" stroke-width="2" points="713.11,-365.5 723.11,-362 713.11,-358.5 713.11,-365.5"/>
</g>
<!-- node_b72c28f1 -->
<g id="node37" class="node">
<title>node_b72c28f1</title>
<path fill="#6db33f" stroke="black" d="M1091,-571C1091,-571 915,-571 915,-571 909,-571 903,-565 903,-559 903,-559 903,-547 903,-547 903,-541 909,-535 915,-535 915,-535 1091,-535 1091,-535 1097,-535 1103,-541 1103,-547 1103,-547 1103,-559 1103,-559 1103,-565 1097,-571 1091,-571"/>
<text text-anchor="middle" x="1003" y="-549.3" font-family="Times,serif" font-size="14.00">83: initAdjustBlackboardHeight()</text>
</g>
<!-- node_90ffa93a -->
<g id="node38" class="node">
<title>node_90ffa93a</title>
<path fill="#6db33f" stroke="black" d="M1044.5,-625C1044.5,-625 961.5,-625 961.5,-625 955.5,-625 949.5,-619 949.5,-613 949.5,-613 949.5,-601 949.5,-601 949.5,-595 955.5,-589 961.5,-589 961.5,-589 1044.5,-589 1044.5,-589 1050.5,-589 1056.5,-595 1056.5,-601 1056.5,-601 1056.5,-613 1056.5,-613 1056.5,-619 1050.5,-625 1044.5,-625"/>
<text text-anchor="middle" x="1003" y="-603.3" font-family="Times,serif" font-size="14.00">19: initInfoDiv()</text>
</g>
<!-- node_988154b5&#45;&gt;node_b72c28f1 -->
<g id="edge51" class="edge">
<title>node_988154b5&#45;&gt;node_b72c28f1</title>
<path fill="none" stroke="#0072b2" stroke-width="2" d="M834.76,-594.14C873.38,-594.14 916,-594.14 916,-594.14 916,-594.14 916,-584.19 916,-584.19"/>
<polygon fill="#0072b2" stroke="#0072b2" stroke-width="2" points="919.5,-584.19 916,-574.19 912.5,-584.19 919.5,-584.19"/>
</g>
<!-- node_988154b5&#45;&gt;node_90ffa93a -->
<g id="edge52" class="edge">
<title>node_988154b5&#45;&gt;node_90ffa93a</title>
<path fill="none" stroke="#0072b2" stroke-width="2" d="M834.7,-599.29C834.7,-599.29 935.98,-599.29 935.98,-599.29"/>
<polygon fill="#0072b2" stroke="#0072b2" stroke-width="2" points="935.98,-602.79 945.98,-599.29 935.98,-595.79 935.98,-602.79"/>
</g>
<!-- node_73866786 -->
<g id="node40" class="node">
<title>node_73866786</title>
<path fill="#6db33f" stroke="black" d="M1058.5,-679C1058.5,-679 947.5,-679 947.5,-679 941.5,-679 935.5,-673 935.5,-667 935.5,-667 935.5,-655 935.5,-655 935.5,-649 941.5,-643 947.5,-643 947.5,-643 1058.5,-643 1058.5,-643 1064.5,-643 1070.5,-649 1070.5,-655 1070.5,-655 1070.5,-667 1070.5,-667 1070.5,-673 1064.5,-679 1058.5,-679"/>
<text text-anchor="middle" x="1003" y="-657.3" font-family="Times,serif" font-size="14.00">230: initOpenCloset()</text>
</g>
<!-- node_988154b5&#45;&gt;node_73866786 -->
<g id="edge53" class="edge">
<title>node_988154b5&#45;&gt;node_73866786</title>
<path fill="none" stroke="#0072b2" stroke-width="2" d="M834.69,-604.43C883.24,-604.43 943,-604.43 943,-604.43 943,-604.43 943,-629.76 943,-629.76"/>
<polygon fill="#0072b2" stroke="#0072b2" stroke-width="2" points="939.5,-629.76 943,-639.76 946.5,-629.76 939.5,-629.76"/>
</g>
<!-- node_96ea274c -->
<g id="node41" class="node">
<title>node_96ea274c</title>
<path fill="#6db33f" stroke="black" d="M1074.5,-733C1074.5,-733 931.5,-733 931.5,-733 925.5,-733 919.5,-727 919.5,-721 919.5,-721 919.5,-709 919.5,-709 919.5,-703 925.5,-697 931.5,-697 931.5,-697 1074.5,-697 1074.5,-697 1080.5,-697 1086.5,-703 1086.5,-709 1086.5,-709 1086.5,-721 1086.5,-721 1086.5,-727 1080.5,-733 1074.5,-733"/>
<text text-anchor="middle" x="1003" y="-711.3" font-family="Times,serif" font-size="14.00">192: initPutChairOnTable()</text>
</g>
<!-- node_988154b5&#45;&gt;node_96ea274c -->
<g id="edge54" class="edge">
<title>node_988154b5&#45;&gt;node_96ea274c</title>
<path fill="none" stroke="#0072b2" stroke-width="2" d="M834.56,-609.57C877.75,-609.57 928,-609.57 928,-609.57 928,-609.57 928,-683.61 928,-683.61"/>
<polygon fill="#0072b2" stroke="#0072b2" stroke-width="2" points="924.5,-683.61 928,-693.61 931.5,-683.61 924.5,-683.61"/>
</g>
<!-- node_4fa37e65 -->
<g id="node42" class="node">
<title>node_4fa37e65</title>
<path fill="#cccccc" stroke="black" d="M1060,-787C1060,-787 946,-787 946,-787 940,-787 934,-781 934,-775 934,-775 934,-763 934,-763 934,-757 940,-751 946,-751 946,-751 1060,-751 1060,-751 1066,-751 1072,-757 1072,-763 1072,-763 1072,-775 1072,-775 1072,-781 1066,-787 1060,-787"/>
<text text-anchor="middle" x="1003" y="-765.3" font-family="Times,serif" font-size="14.00">141: initSwitchLight()</text>
</g>
<!-- node_988154b5&#45;&gt;node_4fa37e65 -->
<g id="edge55" class="edge">
<title>node_988154b5&#45;&gt;node_4fa37e65</title>
<path fill="none" stroke="#0072b2" stroke-width="2" d="M834.89,-619.86C865.88,-619.86 897,-619.86 897,-619.86 897,-619.86 897,-769 897,-769 897,-769 920.75,-769 920.75,-769"/>
<polygon fill="#0072b2" stroke="#0072b2" stroke-width="2" points="920.75,-772.5 930.75,-769 920.75,-765.5 920.75,-772.5"/>
</g>
<!-- node_01254e87 -->
<g id="node43" class="node">
<title>node_01254e87</title>
<path fill="#6db33f" stroke="black" d="M1086.5,-841C1086.5,-841 919.5,-841 919.5,-841 913.5,-841 907.5,-835 907.5,-829 907.5,-829 907.5,-817 907.5,-817 907.5,-811 913.5,-805 919.5,-805 919.5,-805 1086.5,-805 1086.5,-805 1092.5,-805 1098.5,-811 1098.5,-817 1098.5,-817 1098.5,-829 1098.5,-829 1098.5,-835 1092.5,-841 1086.5,-841"/>
<text text-anchor="middle" x="1003" y="-819.3" font-family="Times,serif" font-size="14.00">71: initTriggerFlightSimulator()</text>
</g>
<!-- node_988154b5&#45;&gt;node_01254e87 -->
<g id="edge56" class="edge">
<title>node_988154b5&#45;&gt;node_01254e87</title>
<path fill="none" stroke="#0072b2" stroke-width="2" d="M834.65,-614.71C871.75,-614.71 912,-614.71 912,-614.71 912,-614.71 912,-791.49 912,-791.49"/>
<polygon fill="#0072b2" stroke="#0072b2" stroke-width="2" points="908.5,-791.49 912,-801.49 915.5,-791.49 908.5,-791.49"/>
</g>
<!-- node_4fa37e65&#45;&gt;node_afa8d1fc -->
<g id="edge57" class="edge">
<title>node_4fa37e65&#45;&gt;node_afa8d1fc</title>
<path fill="none" stroke="#0072b2" stroke-width="2" d="M1072.32,-769C1098.01,-769 1121,-769 1121,-769 1121,-769 1121,-426 1121,-426 1121,-426 1191.86,-426 1191.86,-426"/>
<polygon fill="#0072b2" stroke="#0072b2" stroke-width="2" points="1191.86,-429.5 1201.86,-426 1191.86,-422.5 1191.86,-429.5"/>
</g>
<!-- node_bca83549&#45;&gt;node_0afdf1c5 -->
<g id="edge63" class="edge">
<title>node_bca83549&#45;&gt;node_0afdf1c5</title>
<path fill="none" stroke="#e69f00" stroke-width="2" d="M825.24,-34C949.97,-34 1257,-34 1257,-34 1257,-34 1257,-219.84 1257,-219.84"/>
<polygon fill="#e69f00" stroke="#e69f00" stroke-width="2" points="1253.5,-219.84 1257,-229.84 1260.5,-219.84 1253.5,-219.84"/>
</g>
<!-- node_afbdb0a2&#45;&gt;node_afa8d1fc -->
<g id="edge64" class="edge">
<title>node_afbdb0a2&#45;&gt;node_afa8d1fc</title>
<path fill="none" stroke="#56b4e9" stroke-width="2" d="M1058.09,-260C1073.92,-260 1087,-260 1087,-260 1087,-260 1087,-408 1087,-408 1087,-408 1191.7,-408 1191.7,-408"/>
<polygon fill="#56b4e9" stroke="#56b4e9" stroke-width="2" points="1191.7,-411.5 1201.7,-408 1191.7,-404.5 1191.7,-411.5"/>
</g>
<!-- node_afbdb0a2&#45;&gt;node_0afdf1c5 -->
<g id="edge76" class="edge">
<title>node_afbdb0a2&#45;&gt;node_0afdf1c5</title>
<path fill="none" stroke="#56b4e9" stroke-width="2" d="M1058.32,-242C1058.32,-242 1145.1,-242 1145.1,-242"/>
<polygon fill="#56b4e9" stroke="#56b4e9" stroke-width="2" points="1145.1,-245.5 1155.1,-242 1145.1,-238.5 1145.1,-245.5"/>
</g>
<!-- node_8ec53a3a -->
<g id="node46" class="node">
<title>node_8ec53a3a</title>
<path fill="#6db33f" stroke="black" d="M1051,-421C1051,-421 955,-421 955,-421 949,-421 943,-415 943,-409 943,-409 943,-397 943,-397 943,-391 949,-385 955,-385 955,-385 1051,-385 1051,-385 1057,-385 1063,-391 1063,-397 1063,-397 1063,-409 1063,-409 1063,-415 1057,-421 1051,-421"/>
<text text-anchor="middle" x="1003" y="-399.3" font-family="Times,serif" font-size="14.00">129: createPlayer()</text>
</g>
<!-- node_a03f8bc4 -->
<g id="node47" class="node">
<title>node_a03f8bc4</title>
<path fill="#cccccc" stroke="black" d="M1057.5,-475C1057.5,-475 948.5,-475 948.5,-475 942.5,-475 936.5,-469 936.5,-463 936.5,-463 936.5,-451 936.5,-451 936.5,-445 942.5,-439 948.5,-439 948.5,-439 1057.5,-439 1057.5,-439 1063.5,-439 1069.5,-445 1069.5,-451 1069.5,-451 1069.5,-463 1069.5,-463 1069.5,-469 1063.5,-475 1057.5,-475"/>
<text text-anchor="middle" x="1003" y="-453.3" font-family="Times,serif" font-size="14.00">87: getNewPosition()</text>
</g>
<!-- node_a03f8bc4&#45;&gt;node_afa8d1fc -->
<g id="edge85" class="edge">
<title>node_a03f8bc4&#45;&gt;node_afa8d1fc</title>
<path fill="none" stroke="#f0e442" stroke-width="2" d="M1069.74,-444C1144.99,-444 1257,-444 1257,-444 1257,-444 1257,-442.74 1257,-442.74"/>
<polygon fill="#f0e442" stroke="#f0e442" stroke-width="2" points="1260.5,-444.42 1257,-434.42 1253.5,-444.42 1260.5,-444.42"/>
</g>
<!-- node_916ca46d&#45;&gt;node_c7e97103 -->
<g id="edge87" class="edge">
<title>node_916ca46d&#45;&gt;node_c7e97103</title>
<path fill="none" stroke="#0072b2" stroke-width="2" d="M841.79,-463.5C859.15,-463.5 873,-463.5 873,-463.5 873,-463.5 873,-360.5 873,-360.5 873,-360.5 1179.28,-360.5 1179.28,-360.5"/>
<polygon fill="#0072b2" stroke="#0072b2" stroke-width="2" points="1179.28,-364 1189.28,-360.5 1179.28,-357 1179.28,-364"/>
</g>
<!-- node_916ca46d&#45;&gt;node_926009b1 -->
<g id="edge88" class="edge">
<title>node_916ca46d&#45;&gt;node_926009b1</title>
<path fill="none" stroke="#0072b2" stroke-width="2" d="M841.92,-457.75C853.57,-457.75 862,-457.75 862,-457.75 862,-457.75 862,-310 862,-310 862,-310 1169.27,-310 1169.27,-310"/>
<polygon fill="#0072b2" stroke="#0072b2" stroke-width="2" points="1169.27,-313.5 1179.27,-310 1169.27,-306.5 1169.27,-313.5"/>
</g>
<!-- node_916ca46d&#45;&gt;node_a03f8bc4 -->
<g id="edge89" class="edge">
<title>node_916ca46d&#45;&gt;node_a03f8bc4</title>
<path fill="none" stroke="#0072b2" stroke-width="2" d="M841.74,-469.25C841.74,-469.25 923.18,-469.25 923.18,-469.25"/>
<polygon fill="#0072b2" stroke="#0072b2" stroke-width="2" points="923.18,-472.75 933.18,-469.25 923.18,-465.75 923.18,-472.75"/>
</g>
<!-- node_7758fa53&#45;&gt;node_8ec53a3a -->
<g id="edge90" class="edge">
<title>node_7758fa53&#45;&gt;node_8ec53a3a</title>
<path fill="none" stroke="#009e73" stroke-width="2" d="M774,-380.18C774,-386.25 774,-391.5 774,-391.5 774,-391.5 929.51,-391.5 929.51,-391.5"/>
<polygon fill="#009e73" stroke="#009e73" stroke-width="2" points="929.51,-395 939.51,-391.5 929.51,-388 929.51,-395"/>
</g>
</g>
</svg>
