<?xml version="1.0" encoding="UTF-8" standalone="no"?>
<!DOCTYPE svg PUBLIC "-//W3C//DTD SVG 1.1//EN"
 "http://www.w3.org/Graphics/SVG/1.1/DTD/svg11.dtd">
<!-- Generated by graphviz version 7.0.1 (20221109.1506)
 -->
<!-- Title: G Pages: 1 -->
<svg width="1551pt" height="1545pt"
 viewBox="0.00 0.00 1551.00 1545.00" xmlns="http://www.w3.org/2000/svg" xmlns:xlink="http://www.w3.org/1999/xlink">
<g id="graph0" class="graph" transform="scale(1 1) rotate(0) translate(4 1541)">
<title>G</title>
<polygon fill="white" stroke="none" points="-4,4 -4,-1541 1547,-1541 1547,4 -4,4"/>
<g id="clust2" class="cluster">
<title>cluster_7db478ce</title>
<polygon fill="none" stroke="black" stroke-dasharray="1,5" points="539.5,-743 539.5,-818 638.5,-818 638.5,-743 539.5,-743"/>
<text text-anchor="middle" x="589" y="-802.8" font-family="Times,serif" font-size="14.00">File: animate</text>
</g>
<g id="clust3" class="cluster">
<title>cluster_1f44c765</title>
<polygon fill="none" stroke="black" stroke-dasharray="1,5" points="84,-1292 84,-1529 506,-1529 506,-1292 84,-1292"/>
<text text-anchor="middle" x="295" y="-1513.8" font-family="Times,serif" font-size="14.00">File: fs&#45;animate</text>
</g>
<g id="clust4" class="cluster">
<title>cluster_bdecfbe7</title>
<polygon fill="none" stroke="black" stroke-dasharray="1,5" points="706.5,-1018 706.5,-1147 1087,-1147 1087,-1018 706.5,-1018"/>
<text text-anchor="middle" x="896.75" y="-1131.8" font-family="Times,serif" font-size="14.00">File: fs&#45;fly</text>
</g>
<g id="clust5" class="cluster">
<title>cluster_860758a9</title>
<polygon fill="none" stroke="black" stroke-dasharray="1,5" points="526,-1292 526,-1495 1361.5,-1495 1361.5,-1292 526,-1292"/>
<text text-anchor="middle" x="943.75" y="-1479.8" font-family="Times,serif" font-size="14.00">File: fs&#45;init</text>
</g>
<g id="clust6" class="cluster">
<title>cluster_a64fa57d</title>
<polygon fill="none" stroke="black" stroke-dasharray="1,5" points="681,-1155 681,-1284 866,-1284 866,-1155 681,-1155"/>
<text text-anchor="middle" x="773.5" y="-1268.8" font-family="Times,serif" font-size="14.00">File: fs&#45;place&#45;objects</text>
</g>
<g id="clust7" class="cluster">
<title>cluster_fcbd1812</title>
<polygon fill="none" stroke="black" stroke-dasharray="1,5" points="1131,-279 1131,-624 1535,-624 1535,-279 1131,-279"/>
<text text-anchor="middle" x="1333" y="-608.8" font-family="Times,serif" font-size="14.00">File: helpers</text>
</g>
<g id="clust8" class="cluster">
<title>cluster_593c3d89</title>
<polygon fill="none" stroke="black" stroke-dasharray="1,5" points="552,-91 552,-382 873.5,-382 873.5,-91 552,-91"/>
<text text-anchor="middle" x="712.75" y="-366.8" font-family="Times,serif" font-size="14.00">File: init</text>
</g>
<g id="clust9" class="cluster">
<title>cluster_da080234</title>
<polygon fill="none" stroke="black" stroke-dasharray="1,5" points="672,-581 672,-926 1111,-926 1111,-581 672,-581"/>
<text text-anchor="middle" x="891.5" y="-910.8" font-family="Times,serif" font-size="14.00">File: interactions</text>
</g>
<g id="clust10" class="cluster">
<title>cluster_4597a7ac</title>
<polygon fill="none" stroke="black" stroke-dasharray="1,5" points="714,-8 714,-83 833,-83 833,-8 714,-8"/>
<text text-anchor="middle" x="773.5" y="-67.8" font-family="Times,serif" font-size="14.00">File: place&#45;lights</text>
</g>
<g id="clust11" class="cluster">
<title>cluster_44f68cc3</title>
<polygon fill="none" stroke="black" stroke-dasharray="1,5" points="940,-279 940,-354 1066,-354 1066,-279 940,-279"/>
<text text-anchor="middle" x="1003" y="-338.8" font-family="Times,serif" font-size="14.00">File: place&#45;objects</text>
</g>
<g id="clust12" class="cluster">
<title>cluster_c5ad246d</title>
<polygon fill="none" stroke="black" stroke-dasharray="1,5" points="680.5,-390 680.5,-573 1077.5,-573 1077.5,-390 680.5,-390"/>
<text text-anchor="middle" x="879" y="-557.8" font-family="Times,serif" font-size="14.00">File: walk</text>
</g>
<!-- Legend -->
<g id="node1" class="node">
<title>Legend</title>
<polygon fill="none" stroke="black" points="1.5,-1265 1.5,-1282 266.5,-1282 266.5,-1265 1.5,-1265"/>
<text text-anchor="start" x="81.5" y="-1269.8" font-family="Times,serif" font-size="14.00">Code2flow Legend</text>
<polygon fill="none" stroke="black" points="1.5,-1177 1.5,-1265 266.5,-1265 266.5,-1177 1.5,-1177"/>
<polygon fill="none" stroke="black" points="3.5,-1242 3.5,-1263 214.5,-1263 214.5,-1242 3.5,-1242"/>
<text text-anchor="start" x="63" y="-1248.8" font-family="Times,serif" font-size="14.00">Regular function</text>
<polygon fill="#cccccc" stroke="none" points="214.5,-1242 214.5,-1263 264.5,-1263 264.5,-1242 214.5,-1242"/>
<polygon fill="none" stroke="black" points="214.5,-1242 214.5,-1263 264.5,-1263 264.5,-1242 214.5,-1242"/>
<polygon fill="none" stroke="black" points="3.5,-1221 3.5,-1242 214.5,-1242 214.5,-1221 3.5,-1221"/>
<text text-anchor="start" x="15" y="-1227.8" font-family="Times,serif" font-size="14.00">Trunk function (nothing calls this)</text>
<polygon fill="#966f33" stroke="none" points="214.5,-1221 214.5,-1242 264.5,-1242 264.5,-1221 214.5,-1221"/>
<polygon fill="none" stroke="black" points="214.5,-1221 214.5,-1242 264.5,-1242 264.5,-1221 214.5,-1221"/>
<polygon fill="none" stroke="black" points="3.5,-1200 3.5,-1221 214.5,-1221 214.5,-1200 3.5,-1200"/>
<text text-anchor="start" x="6.5" y="-1206.8" font-family="Times,serif" font-size="14.00">Leaf function (this calls nothing else)</text>
<polygon fill="#6db33f" stroke="none" points="214.5,-1200 214.5,-1221 264.5,-1221 264.5,-1200 214.5,-1200"/>
<polygon fill="none" stroke="black" points="214.5,-1200 214.5,-1221 264.5,-1221 264.5,-1200 214.5,-1200"/>
<polygon fill="none" stroke="black" points="3.5,-1179 3.5,-1200 214.5,-1200 214.5,-1179 3.5,-1179"/>
<text text-anchor="start" x="73" y="-1185.8" font-family="Times,serif" font-size="14.00">Function call</text>
<polygon fill="none" stroke="black" points="214.5,-1179 214.5,-1200 264.5,-1200 264.5,-1179 214.5,-1179"/>
<text text-anchor="start" x="232" y="-1185.8" font-family="Times,serif" font-size="14.00">→</text>
<polygon fill="none" stroke="black" points="2.5,-1178 2.5,-1264 265.5,-1264 265.5,-1178 2.5,-1178"/>
<polygon fill="none" stroke="black" points="0,-1176.5 0,-1283.5 267,-1283.5 267,-1176.5 0,-1176.5"/>
</g>
<!-- node_d15701b0 -->
<g id="node2" class="node">
<title>node_d15701b0</title>
<path fill="#966f33" stroke="black" d="M618.5,-787C618.5,-787 559.5,-787 559.5,-787 553.5,-787 547.5,-781 547.5,-775 547.5,-775 547.5,-763 547.5,-763 547.5,-757 553.5,-751 559.5,-751 559.5,-751 618.5,-751 618.5,-751 624.5,-751 630.5,-757 630.5,-763 630.5,-763 630.5,-775 630.5,-775 630.5,-781 624.5,-787 618.5,-787"/>
<text text-anchor="middle" x="589" y="-765.3" font-family="Times,serif" font-size="14.00">4: animate()</text>
</g>
<!-- node_25ac9ce6 -->
<g id="node34" class="node">
<title>node_25ac9ce6</title>
<path fill="#6db33f" stroke="black" d="M847.5,-895C847.5,-895 699.5,-895 699.5,-895 693.5,-895 687.5,-889 687.5,-883 687.5,-883 687.5,-871 687.5,-871 687.5,-865 693.5,-859 699.5,-859 699.5,-859 847.5,-859 847.5,-859 853.5,-859 859.5,-865 859.5,-871 859.5,-871 859.5,-883 859.5,-883 859.5,-889 853.5,-895 847.5,-895"/>
<text text-anchor="middle" x="773.5" y="-873.3" font-family="Times,serif" font-size="14.00">258: handleAnimateChairs()</text>
</g>
<!-- node_d15701b0&#45;&gt;node_25ac9ce6 -->
<g id="edge1" class="edge">
<title>node_d15701b0&#45;&gt;node_25ac9ce6</title>
<path fill="none" stroke="#000000" stroke-width="2" d="M623,-787.32C623,-818.13 623,-877 623,-877 623,-877 674.24,-877 674.24,-877"/>
<polygon fill="#000000" stroke="#000000" stroke-width="2" points="674.24,-880.5 684.24,-877 674.23,-873.5 674.24,-880.5"/>
</g>
<!-- node_900c924c -->
<g id="node35" class="node">
<title>node_900c924c</title>
<path fill="#6db33f" stroke="black" d="M849.5,-841C849.5,-841 697.5,-841 697.5,-841 691.5,-841 685.5,-835 685.5,-829 685.5,-829 685.5,-817 685.5,-817 685.5,-811 691.5,-805 697.5,-805 697.5,-805 849.5,-805 849.5,-805 855.5,-805 861.5,-811 861.5,-817 861.5,-817 861.5,-829 861.5,-829 861.5,-835 855.5,-841 849.5,-841"/>
<text text-anchor="middle" x="773.5" y="-819.3" font-family="Times,serif" font-size="14.00">468: handleAnimateClosets()</text>
</g>
<!-- node_d15701b0&#45;&gt;node_900c924c -->
<g id="edge2" class="edge">
<title>node_d15701b0&#45;&gt;node_900c924c</title>
<path fill="none" stroke="#000000" stroke-width="2" d="M627,-787.28C627,-802.95 627,-823 627,-823 627,-823 672.29,-823 672.29,-823"/>
<polygon fill="#000000" stroke="#000000" stroke-width="2" points="672.29,-826.5 682.29,-823 672.29,-819.5 672.29,-826.5"/>
</g>
<!-- node_c9f16eb3 -->
<g id="node36" class="node">
<title>node_c9f16eb3</title>
<path fill="#6db33f" stroke="black" d="M855,-787C855,-787 692,-787 692,-787 686,-787 680,-781 680,-775 680,-775 680,-763 680,-763 680,-757 686,-751 692,-751 692,-751 855,-751 855,-751 861,-751 867,-757 867,-763 867,-763 867,-775 867,-775 867,-781 861,-787 855,-787"/>
<text text-anchor="middle" x="773.5" y="-765.3" font-family="Times,serif" font-size="14.00">571: handleBlackboardInertia()</text>
</g>
<!-- node_d15701b0&#45;&gt;node_c9f16eb3 -->
<g id="edge3" class="edge">
<title>node_d15701b0&#45;&gt;node_c9f16eb3</title>
<path fill="none" stroke="#000000" stroke-width="2" d="M630.87,-769C630.87,-769 666.83,-769 666.83,-769"/>
<polygon fill="#000000" stroke="#000000" stroke-width="2" points="666.83,-772.5 676.83,-769 666.83,-765.5 666.83,-772.5"/>
</g>
<!-- node_320cace1 -->
<g id="node37" class="node">
<title>node_320cace1</title>
<path fill="#6db33f" stroke="black" d="M827.5,-733C827.5,-733 719.5,-733 719.5,-733 713.5,-733 707.5,-727 707.5,-721 707.5,-721 707.5,-709 707.5,-709 707.5,-703 713.5,-697 719.5,-697 719.5,-697 827.5,-697 827.5,-697 833.5,-697 839.5,-703 839.5,-709 839.5,-709 839.5,-721 839.5,-721 839.5,-727 833.5,-733 827.5,-733"/>
<text text-anchor="middle" x="773.5" y="-711.3" font-family="Times,serif" font-size="14.00">538: handleInfoDiv()</text>
</g>
<!-- node_d15701b0&#45;&gt;node_320cace1 -->
<g id="edge4" class="edge">
<title>node_d15701b0&#45;&gt;node_320cace1</title>
<path fill="none" stroke="#000000" stroke-width="2" d="M627,-750.72C627,-735.05 627,-715 627,-715 627,-715 694.08,-715 694.08,-715"/>
<polygon fill="#000000" stroke="#000000" stroke-width="2" points="694.08,-718.5 704.08,-715 694.08,-711.5 694.08,-718.5"/>
</g>
<!-- node_8d46a9b0 -->
<g id="node49" class="node">
<title>node_8d46a9b0</title>
<path fill="#cccccc" stroke="black" d="M829.5,-488C829.5,-488 717.5,-488 717.5,-488 711.5,-488 705.5,-482 705.5,-476 705.5,-476 705.5,-464 705.5,-464 705.5,-458 711.5,-452 717.5,-452 717.5,-452 829.5,-452 829.5,-452 835.5,-452 841.5,-458 841.5,-464 841.5,-464 841.5,-476 841.5,-476 841.5,-482 835.5,-488 829.5,-488"/>
<text text-anchor="middle" x="773.5" y="-466.3" font-family="Times,serif" font-size="14.00">148: handleWalking()</text>
</g>
<!-- node_d15701b0&#45;&gt;node_8d46a9b0 -->
<g id="edge5" class="edge">
<title>node_d15701b0&#45;&gt;node_8d46a9b0</title>
<path fill="none" stroke="#000000" stroke-width="2" d="M623,-750.75C623,-685.83 623,-470 623,-470 623,-470 692.27,-470 692.27,-470"/>
<polygon fill="#000000" stroke="#000000" stroke-width="2" points="692.27,-473.5 702.27,-470 692.27,-466.5 692.27,-473.5"/>
</g>
<!-- node_0a2d6b9f -->
<g id="node3" class="node">
<title>node_0a2d6b9f</title>
<path fill="#966f33" stroke="black" d="M163,-1390C163,-1390 104,-1390 104,-1390 98,-1390 92,-1384 92,-1378 92,-1378 92,-1366 92,-1366 92,-1360 98,-1354 104,-1354 104,-1354 163,-1354 163,-1354 169,-1354 175,-1360 175,-1366 175,-1366 175,-1378 175,-1378 175,-1384 169,-1390 163,-1390"/>
<text text-anchor="middle" x="133.5" y="-1368.3" font-family="Times,serif" font-size="14.00">4: animate()</text>
</g>
<!-- node_abed4168 -->
<g id="node4" class="node">
<title>node_abed4168</title>
<path fill="#cccccc" stroke="black" d="M481.5,-1444C481.5,-1444 319.5,-1444 319.5,-1444 313.5,-1444 307.5,-1438 307.5,-1432 307.5,-1432 307.5,-1420 307.5,-1420 307.5,-1414 313.5,-1408 319.5,-1408 319.5,-1408 481.5,-1408 481.5,-1408 487.5,-1408 493.5,-1414 493.5,-1420 493.5,-1420 493.5,-1432 493.5,-1432 493.5,-1438 487.5,-1444 481.5,-1444"/>
<text text-anchor="middle" x="400.5" y="-1422.3" font-family="Times,serif" font-size="14.00">110: handleObstacleCollision()</text>
</g>
<!-- node_0a2d6b9f&#45;&gt;node_abed4168 -->
<g id="edge6" class="edge">
<title>node_0a2d6b9f&#45;&gt;node_abed4168</title>
<path fill="none" stroke="#cc79a7" stroke-width="2" d="M175.27,-1381C231.89,-1381 326,-1381 326,-1381 326,-1381 326,-1394.67 326,-1394.67"/>
<polygon fill="#cc79a7" stroke="#cc79a7" stroke-width="2" points="322.5,-1394.67 326,-1404.67 329.5,-1394.67 322.5,-1394.67"/>
</g>
<!-- node_0640f229 -->
<g id="node5" class="node">
<title>node_0640f229</title>
<path fill="#6db33f" stroke="black" d="M486,-1498C486,-1498 315,-1498 315,-1498 309,-1498 303,-1492 303,-1486 303,-1486 303,-1474 303,-1474 303,-1468 309,-1462 315,-1462 315,-1462 486,-1462 486,-1462 492,-1462 498,-1468 498,-1474 498,-1474 498,-1486 498,-1486 498,-1492 492,-1498 486,-1498"/>
<text text-anchor="middle" x="400.5" y="-1476.3" font-family="Times,serif" font-size="14.00">124: handlePlaneOutOfBounds()</text>
</g>
<!-- node_0a2d6b9f&#45;&gt;node_0640f229 -->
<g id="edge7" class="edge">
<title>node_0a2d6b9f&#45;&gt;node_0640f229</title>
<path fill="none" stroke="#cc79a7" stroke-width="2" d="M134,-1390.32C134,-1421.13 134,-1480 134,-1480 134,-1480 289.75,-1480 289.75,-1480"/>
<polygon fill="#cc79a7" stroke="#cc79a7" stroke-width="2" points="289.75,-1483.5 299.75,-1480 289.75,-1476.5 289.75,-1483.5"/>
</g>
<!-- node_78707087 -->
<g id="node6" class="node">
<title>node_78707087</title>
<path fill="#cccccc" stroke="black" d="M445,-1336C445,-1336 356,-1336 356,-1336 350,-1336 344,-1330 344,-1324 344,-1324 344,-1312 344,-1312 344,-1306 350,-1300 356,-1300 356,-1300 445,-1300 445,-1300 451,-1300 457,-1306 457,-1312 457,-1312 457,-1324 457,-1324 457,-1330 451,-1336 445,-1336"/>
<text text-anchor="middle" x="400.5" y="-1314.3" font-family="Times,serif" font-size="14.00">28: handleScore()</text>
</g>
<!-- node_0a2d6b9f&#45;&gt;node_78707087 -->
<g id="edge8" class="edge">
<title>node_0a2d6b9f&#45;&gt;node_78707087</title>
<path fill="none" stroke="#cc79a7" stroke-width="2" d="M134,-1353.72C134,-1338.05 134,-1318 134,-1318 134,-1318 330.63,-1318 330.63,-1318"/>
<polygon fill="#cc79a7" stroke="#cc79a7" stroke-width="2" points="330.63,-1321.5 340.63,-1318 330.63,-1314.5 330.63,-1321.5"/>
</g>
<!-- node_44de62f8 -->
<g id="node7" class="node">
<title>node_44de62f8</title>
<path fill="#cccccc" stroke="black" d="M444.5,-1390C444.5,-1390 356.5,-1390 356.5,-1390 350.5,-1390 344.5,-1384 344.5,-1378 344.5,-1378 344.5,-1366 344.5,-1366 344.5,-1360 350.5,-1354 356.5,-1354 356.5,-1354 444.5,-1354 444.5,-1354 450.5,-1354 456.5,-1360 456.5,-1366 456.5,-1366 456.5,-1378 456.5,-1378 456.5,-1384 450.5,-1390 444.5,-1390"/>
<text text-anchor="middle" x="400.5" y="-1368.3" font-family="Times,serif" font-size="14.00">90: handleTime()</text>
</g>
<!-- node_0a2d6b9f&#45;&gt;node_44de62f8 -->
<g id="edge9" class="edge">
<title>node_0a2d6b9f&#45;&gt;node_44de62f8</title>
<path fill="none" stroke="#cc79a7" stroke-width="2" d="M175.22,-1372C175.22,-1372 331.18,-1372 331.18,-1372"/>
<polygon fill="#cc79a7" stroke="#cc79a7" stroke-width="2" points="331.18,-1375.5 341.18,-1372 331.18,-1368.5 331.18,-1375.5"/>
</g>
<!-- node_2d2e7a6f -->
<g id="node10" class="node">
<title>node_2d2e7a6f</title>
<path fill="#cccccc" stroke="black" d="M820.5,-1062C820.5,-1062 726.5,-1062 726.5,-1062 720.5,-1062 714.5,-1056 714.5,-1050 714.5,-1050 714.5,-1038 714.5,-1038 714.5,-1032 720.5,-1026 726.5,-1026 726.5,-1026 820.5,-1026 820.5,-1026 826.5,-1026 832.5,-1032 832.5,-1038 832.5,-1038 832.5,-1050 832.5,-1050 832.5,-1056 826.5,-1062 820.5,-1062"/>
<text text-anchor="middle" x="773.5" y="-1040.3" font-family="Times,serif" font-size="14.00">51: handleFlying()</text>
</g>
<!-- node_0a2d6b9f&#45;&gt;node_2d2e7a6f -->
<g id="edge10" class="edge">
<title>node_0a2d6b9f&#45;&gt;node_2d2e7a6f</title>
<path fill="none" stroke="#cc79a7" stroke-width="2" d="M175.3,-1363C220.14,-1363 285,-1363 285,-1363 285,-1363 285,-1044 285,-1044 285,-1044 701.06,-1044 701.06,-1044"/>
<polygon fill="#cc79a7" stroke="#cc79a7" stroke-width="2" points="701.06,-1047.5 711.06,-1044 701.06,-1040.5 701.06,-1047.5"/>
</g>
<!-- node_71bad3be -->
<g id="node12" class="node">
<title>node_71bad3be</title>
<path fill="#6db33f" stroke="black" d="M632,-1390C632,-1390 546,-1390 546,-1390 540,-1390 534,-1384 534,-1378 534,-1378 534,-1366 534,-1366 534,-1360 540,-1354 546,-1354 546,-1354 632,-1354 632,-1354 638,-1354 644,-1360 644,-1366 644,-1366 644,-1378 644,-1378 644,-1384 638,-1390 632,-1390"/>
<text text-anchor="middle" x="589" y="-1368.3" font-family="Times,serif" font-size="14.00">166: gameOver()</text>
</g>
<!-- node_abed4168&#45;&gt;node_71bad3be -->
<g id="edge11" class="edge">
<title>node_abed4168&#45;&gt;node_71bad3be</title>
<path fill="none" stroke="#000000" stroke-width="2" d="M476,-1407.58C476,-1394.04 476,-1378 476,-1378 476,-1378 520.8,-1378 520.8,-1378"/>
<polygon fill="#000000" stroke="#000000" stroke-width="2" points="520.8,-1381.5 530.8,-1378 520.8,-1374.5 520.8,-1381.5"/>
</g>
<!-- node_78707087&#45;&gt;node_71bad3be -->
<g id="edge12" class="edge">
<title>node_78707087&#45;&gt;node_71bad3be</title>
<path fill="none" stroke="#cc79a7" stroke-width="2" d="M457.24,-1318C496.24,-1318 541,-1318 541,-1318 541,-1318 541,-1340.69 541,-1340.69"/>
<polygon fill="#cc79a7" stroke="#cc79a7" stroke-width="2" points="537.5,-1340.69 541,-1350.69 544.5,-1340.69 537.5,-1340.69"/>
</g>
<!-- node_44de62f8&#45;&gt;node_71bad3be -->
<g id="edge14" class="edge">
<title>node_44de62f8&#45;&gt;node_71bad3be</title>
<path fill="none" stroke="#000000" stroke-width="2" d="M456.8,-1366C456.8,-1366 520.61,-1366 520.61,-1366"/>
<polygon fill="#000000" stroke="#000000" stroke-width="2" points="520.61,-1369.5 530.61,-1366 520.61,-1362.5 520.61,-1369.5"/>
</g>
<!-- node_3aef0b96 -->
<g id="node8" class="node">
<title>node_3aef0b96</title>
<path fill="#6db33f" stroke="black" d="M1045,-1062C1045,-1062 961,-1062 961,-1062 955,-1062 949,-1056 949,-1050 949,-1050 949,-1038 949,-1038 949,-1032 955,-1026 961,-1026 961,-1026 1045,-1026 1045,-1026 1051,-1026 1057,-1032 1057,-1038 1057,-1038 1057,-1050 1057,-1050 1057,-1056 1051,-1062 1045,-1062"/>
<text text-anchor="middle" x="1003" y="-1040.3" font-family="Times,serif" font-size="14.00">134: calcSpeed()</text>
</g>
<!-- node_a87519b9 -->
<g id="node9" class="node">
<title>node_a87519b9</title>
<path fill="#cccccc" stroke="black" d="M1067,-1116C1067,-1116 939,-1116 939,-1116 933,-1116 927,-1110 927,-1104 927,-1104 927,-1092 927,-1092 927,-1086 933,-1080 939,-1080 939,-1080 1067,-1080 1067,-1080 1073,-1080 1079,-1086 1079,-1092 1079,-1092 1079,-1104 1079,-1104 1079,-1110 1073,-1116 1067,-1116"/>
<text text-anchor="middle" x="1003" y="-1094.3" font-family="Times,serif" font-size="14.00">111: createModelPlane()</text>
</g>
<!-- node_e4185edf -->
<g id="node24" class="node">
<title>node_e4185edf</title>
<path fill="#6db33f" stroke="black" d="M1342.5,-323C1342.5,-323 1170.5,-323 1170.5,-323 1164.5,-323 1158.5,-317 1158.5,-311 1158.5,-311 1158.5,-299 1158.5,-299 1158.5,-293 1164.5,-287 1170.5,-287 1170.5,-287 1342.5,-287 1342.5,-287 1348.5,-287 1354.5,-293 1354.5,-299 1354.5,-299 1354.5,-311 1354.5,-311 1354.5,-317 1348.5,-323 1342.5,-323"/>
<text text-anchor="middle" x="1256.5" y="-301.3" font-family="Times,serif" font-size="14.00">7: getMashFromBlenderModel()</text>
</g>
<!-- node_a87519b9&#45;&gt;node_e4185edf -->
<g id="edge15" class="edge">
<title>node_a87519b9&#45;&gt;node_e4185edf</title>
<path fill="none" stroke="#e69f00" stroke-width="2" d="M1079.25,-1098C1099.09,-1098 1115,-1098 1115,-1098 1115,-1098 1115,-314 1115,-314 1115,-314 1145.2,-314 1145.2,-314"/>
<polygon fill="#e69f00" stroke="#e69f00" stroke-width="2" points="1145.2,-317.5 1155.2,-314 1145.2,-310.5 1145.2,-317.5"/>
</g>
<!-- node_2d2e7a6f&#45;&gt;node_3aef0b96 -->
<g id="edge16" class="edge">
<title>node_2d2e7a6f&#45;&gt;node_3aef0b96</title>
<path fill="none" stroke="#cc79a7" stroke-width="2" d="M832.9,-1053C832.9,-1053 935.54,-1053 935.54,-1053"/>
<polygon fill="#cc79a7" stroke="#cc79a7" stroke-width="2" points="935.54,-1056.5 945.54,-1053 935.54,-1049.5 935.54,-1056.5"/>
</g>
<!-- node_850e3eab -->
<g id="node22" class="node">
<title>node_850e3eab</title>
<path fill="#6db33f" stroke="black" d="M1296,-485C1296,-485 1217,-485 1217,-485 1211,-485 1205,-479 1205,-473 1205,-473 1205,-461 1205,-461 1205,-455 1211,-449 1217,-449 1217,-449 1296,-449 1296,-449 1302,-449 1308,-455 1308,-461 1308,-461 1308,-473 1308,-473 1308,-479 1302,-485 1296,-485"/>
<text text-anchor="middle" x="1256.5" y="-463.3" font-family="Times,serif" font-size="14.00">76: degToRad()</text>
</g>
<!-- node_2d2e7a6f&#45;&gt;node_850e3eab -->
<g id="edge17" class="edge">
<title>node_2d2e7a6f&#45;&gt;node_850e3eab</title>
<path fill="none" stroke="#cc79a7" stroke-width="2" d="M832.82,-1035C854.12,-1035 873,-1035 873,-1035 873,-1035 873,-495.5 873,-495.5 873,-495.5 1257,-495.5 1257,-495.5 1257,-495.5 1257,-494.47 1257,-494.47"/>
<polygon fill="#cc79a7" stroke="#cc79a7" stroke-width="2" points="1260.5,-498.24 1257,-488.24 1253.5,-498.24 1260.5,-498.24"/>
</g>
<!-- node_d84ff61a -->
<g id="node26" class="node">
<title>node_d84ff61a</title>
<path fill="#cccccc" stroke="black" d="M1362,-539C1362,-539 1151,-539 1151,-539 1145,-539 1139,-533 1139,-527 1139,-527 1139,-515 1139,-515 1139,-509 1145,-503 1151,-503 1151,-503 1362,-503 1362,-503 1368,-503 1374,-509 1374,-515 1374,-515 1374,-527 1374,-527 1374,-533 1368,-539 1362,-539"/>
<text text-anchor="middle" x="1256.5" y="-517.3" font-family="Times,serif" font-size="14.00">125: turnVectorAroundHorizontalAxis()</text>
</g>
<!-- node_2d2e7a6f&#45;&gt;node_d84ff61a -->
<g id="edge21" class="edge">
<title>node_2d2e7a6f&#45;&gt;node_d84ff61a</title>
<path fill="none" stroke="#cc79a7" stroke-width="2" d="M774,-1025.88C774,-1001.32 774,-960.5 774,-960.5 774,-960.5 1143,-960.5 1143,-960.5 1143,-960.5 1143,-552.35 1143,-552.35"/>
<polygon fill="#cc79a7" stroke="#cc79a7" stroke-width="2" points="1146.5,-552.35 1143,-542.35 1139.5,-552.35 1146.5,-552.35"/>
</g>
<!-- node_9c040cf6 -->
<g id="node27" class="node">
<title>node_9c040cf6</title>
<path fill="#6db33f" stroke="black" d="M1354,-593C1354,-593 1159,-593 1159,-593 1153,-593 1147,-587 1147,-581 1147,-581 1147,-569 1147,-569 1147,-563 1153,-557 1159,-557 1159,-557 1354,-557 1354,-557 1360,-557 1366,-563 1366,-569 1366,-569 1366,-581 1366,-581 1366,-587 1360,-593 1354,-593"/>
<text text-anchor="middle" x="1256.5" y="-571.3" font-family="Times,serif" font-size="14.00">112: turnVectorAroundVerticalAxis()</text>
</g>
<!-- node_2d2e7a6f&#45;&gt;node_9c040cf6 -->
<g id="edge22" class="edge">
<title>node_2d2e7a6f&#45;&gt;node_9c040cf6</title>
<path fill="none" stroke="#cc79a7" stroke-width="2" d="M832.77,-1044C856.36,-1044 878,-1044 878,-1044 878,-1044 878,-573 878,-573 878,-573 1133.49,-573 1133.49,-573"/>
<polygon fill="#cc79a7" stroke="#cc79a7" stroke-width="2" points="1133.49,-576.5 1143.49,-573 1133.49,-569.5 1133.49,-576.5"/>
</g>
<!-- node_174f66c4 -->
<g id="node11" class="node">
<title>node_174f66c4</title>
<path fill="#cccccc" stroke="black" d="M808,-1116C808,-1116 739,-1116 739,-1116 733,-1116 727,-1110 727,-1104 727,-1104 727,-1092 727,-1092 727,-1086 733,-1080 739,-1080 739,-1080 808,-1080 808,-1080 814,-1080 820,-1086 820,-1092 820,-1092 820,-1104 820,-1104 820,-1110 814,-1116 808,-1116"/>
<text text-anchor="middle" x="773.5" y="-1094.3" font-family="Times,serif" font-size="14.00">4: initFlying()</text>
</g>
<!-- node_174f66c4&#45;&gt;node_a87519b9 -->
<g id="edge23" class="edge">
<title>node_174f66c4&#45;&gt;node_a87519b9</title>
<path fill="none" stroke="#f0e442" stroke-width="2" d="M820.5,-1098C820.5,-1098 913.68,-1098 913.68,-1098"/>
<polygon fill="#f0e442" stroke="#f0e442" stroke-width="2" points="913.68,-1101.5 923.68,-1098 913.68,-1094.5 913.68,-1101.5"/>
</g>
<!-- node_ead20f61 -->
<g id="node13" class="node">
<title>node_ead20f61</title>
<path fill="#966f33" stroke="black" d="M606,-1336C606,-1336 572,-1336 572,-1336 566,-1336 560,-1330 560,-1324 560,-1324 560,-1312 560,-1312 560,-1306 566,-1300 572,-1300 572,-1300 606,-1300 606,-1300 612,-1300 618,-1306 618,-1312 618,-1312 618,-1324 618,-1324 618,-1330 612,-1336 606,-1336"/>
<text text-anchor="middle" x="589" y="-1314.3" font-family="Times,serif" font-size="14.00">4: init()</text>
</g>
<!-- node_ead20f61&#45;&gt;node_174f66c4 -->
<g id="edge24" class="edge">
<title>node_ead20f61&#45;&gt;node_174f66c4</title>
<path fill="none" stroke="#e69f00" stroke-width="2" d="M580,-1299.62C580,-1246.75 580,-1098 580,-1098 580,-1098 713.63,-1098 713.63,-1098"/>
<polygon fill="#e69f00" stroke="#e69f00" stroke-width="2" points="713.63,-1101.5 723.63,-1098 713.63,-1094.5 713.63,-1101.5"/>
</g>
<!-- node_635c7a44 -->
<g id="node14" class="node">
<title>node_635c7a44</title>
<path fill="#cccccc" stroke="black" d="M831.5,-1464C831.5,-1464 715.5,-1464 715.5,-1464 709.5,-1464 703.5,-1458 703.5,-1452 703.5,-1452 703.5,-1440 703.5,-1440 703.5,-1434 709.5,-1428 715.5,-1428 715.5,-1428 831.5,-1428 831.5,-1428 837.5,-1428 843.5,-1434 843.5,-1440 843.5,-1440 843.5,-1452 843.5,-1452 843.5,-1458 837.5,-1464 831.5,-1464"/>
<text text-anchor="middle" x="773.5" y="-1442.3" font-family="Times,serif" font-size="14.00">246: initDevControls()</text>
</g>
<!-- node_ead20f61&#45;&gt;node_635c7a44 -->
<g id="edge25" class="edge">
<title>node_ead20f61&#45;&gt;node_635c7a44</title>
<path fill="none" stroke="#e69f00" stroke-width="2" d="M618.25,-1324C649.01,-1324 693,-1324 693,-1324 693,-1324 693,-1436 693,-1436 693,-1436 694.02,-1436 694.02,-1436"/>
<polygon fill="#e69f00" stroke="#e69f00" stroke-width="2" points="690.17,-1439.5 700.17,-1436 690.17,-1432.5 690.17,-1439.5"/>
</g>
<!-- node_7faf09ce -->
<g id="node15" class="node">
<title>node_7faf09ce</title>
<path fill="#cccccc" stroke="black" d="M836.5,-1390C836.5,-1390 710.5,-1390 710.5,-1390 704.5,-1390 698.5,-1384 698.5,-1378 698.5,-1378 698.5,-1366 698.5,-1366 698.5,-1360 704.5,-1354 710.5,-1354 710.5,-1354 836.5,-1354 836.5,-1354 842.5,-1354 848.5,-1360 848.5,-1366 848.5,-1366 848.5,-1378 848.5,-1378 848.5,-1384 842.5,-1390 836.5,-1390"/>
<text text-anchor="middle" x="773.5" y="-1368.3" font-family="Times,serif" font-size="14.00">104: initOceanAndSky()</text>
</g>
<!-- node_ead20f61&#45;&gt;node_7faf09ce -->
<g id="edge26" class="edge">
<title>node_ead20f61&#45;&gt;node_7faf09ce</title>
<path fill="none" stroke="#e69f00" stroke-width="2" d="M618.46,-1318C654.85,-1318 712,-1318 712,-1318 712,-1318 712,-1340.69 712,-1340.69"/>
<polygon fill="#e69f00" stroke="#e69f00" stroke-width="2" points="708.5,-1340.69 712,-1350.69 715.5,-1340.69 708.5,-1340.69"/>
</g>
<!-- node_6be39e19 -->
<g id="node16" class="node">
<title>node_6be39e19</title>
<path fill="#6db33f" stroke="black" d="M810.5,-1336C810.5,-1336 736.5,-1336 736.5,-1336 730.5,-1336 724.5,-1330 724.5,-1324 724.5,-1324 724.5,-1312 724.5,-1312 724.5,-1306 730.5,-1300 736.5,-1300 736.5,-1300 810.5,-1300 810.5,-1300 816.5,-1300 822.5,-1306 822.5,-1312 822.5,-1312 822.5,-1324 822.5,-1324 822.5,-1330 816.5,-1336 810.5,-1336"/>
<text text-anchor="middle" x="773.5" y="-1314.3" font-family="Times,serif" font-size="14.00">151: initStats()</text>
</g>
<!-- node_ead20f61&#45;&gt;node_6be39e19 -->
<g id="edge27" class="edge">
<title>node_ead20f61&#45;&gt;node_6be39e19</title>
<path fill="none" stroke="#e69f00" stroke-width="2" d="M618.23,-1312C618.23,-1312 711.25,-1312 711.25,-1312"/>
<polygon fill="#e69f00" stroke="#e69f00" stroke-width="2" points="711.25,-1315.5 721.25,-1312 711.25,-1308.5 711.25,-1315.5"/>
</g>
<!-- node_48c62f2f -->
<g id="node18" class="node">
<title>node_48c62f2f</title>
<path fill="#6db33f" stroke="black" d="M1341.5,-1445C1341.5,-1445 1171.5,-1445 1171.5,-1445 1165.5,-1445 1159.5,-1439 1159.5,-1433 1159.5,-1433 1159.5,-1421 1159.5,-1421 1159.5,-1415 1165.5,-1409 1171.5,-1409 1171.5,-1409 1341.5,-1409 1341.5,-1409 1347.5,-1409 1353.5,-1415 1353.5,-1421 1353.5,-1421 1353.5,-1433 1353.5,-1433 1353.5,-1439 1347.5,-1445 1341.5,-1445"/>
<text text-anchor="middle" x="1256.5" y="-1423.3" font-family="Times,serif" font-size="14.00">228: showInvertedControlsDiv()</text>
</g>
<!-- node_ead20f61&#45;&gt;node_48c62f2f -->
<g id="edge28" class="edge">
<title>node_ead20f61&#45;&gt;node_48c62f2f</title>
<path fill="none" stroke="#e69f00" stroke-width="2" d="M618.27,-1330C638.58,-1330 662,-1330 662,-1330 662,-1330 662,-1418.5 662,-1418.5 662,-1418.5 1146.3,-1418.5 1146.3,-1418.5"/>
<polygon fill="#e69f00" stroke="#e69f00" stroke-width="2" points="1146.3,-1422 1156.3,-1418.5 1146.3,-1415 1146.3,-1422"/>
</g>
<!-- node_ae3eddca -->
<g id="node19" class="node">
<title>node_ae3eddca</title>
<path fill="#6db33f" stroke="black" d="M846,-1253C846,-1253 701,-1253 701,-1253 695,-1253 689,-1247 689,-1241 689,-1241 689,-1229 689,-1229 689,-1223 695,-1217 701,-1217 701,-1217 846,-1217 846,-1217 852,-1217 858,-1223 858,-1229 858,-1229 858,-1241 858,-1241 858,-1247 852,-1253 846,-1253"/>
<text text-anchor="middle" x="773.5" y="-1231.3" font-family="Times,serif" font-size="14.00">57: placeObstaclesObjects()</text>
</g>
<!-- node_ead20f61&#45;&gt;node_ae3eddca -->
<g id="edge29" class="edge">
<title>node_ead20f61&#45;&gt;node_ae3eddca</title>
<path fill="none" stroke="#e69f00" stroke-width="2" d="M618.24,-1306C649.92,-1306 696,-1306 696,-1306 696,-1306 696,-1266.31 696,-1266.31"/>
<polygon fill="#e69f00" stroke="#e69f00" stroke-width="2" points="699.5,-1266.31 696,-1256.31 692.5,-1266.31 699.5,-1266.31"/>
</g>
<!-- node_a3c24cce -->
<g id="node20" class="node">
<title>node_a3c24cce</title>
<path fill="#6db33f" stroke="black" d="M832,-1199C832,-1199 715,-1199 715,-1199 709,-1199 703,-1193 703,-1187 703,-1187 703,-1175 703,-1175 703,-1169 709,-1163 715,-1163 715,-1163 832,-1163 832,-1163 838,-1163 844,-1169 844,-1175 844,-1175 844,-1187 844,-1187 844,-1193 838,-1199 832,-1199"/>
<text text-anchor="middle" x="773.5" y="-1177.3" font-family="Times,serif" font-size="14.00">4: placeTorusObjects()</text>
</g>
<!-- node_ead20f61&#45;&gt;node_a3c24cce -->
<g id="edge30" class="edge">
<title>node_ead20f61&#45;&gt;node_a3c24cce</title>
<path fill="none" stroke="#e69f00" stroke-width="2" d="M599,-1299.61C599,-1263.71 599,-1187.75 599,-1187.75 599,-1187.75 689.5,-1187.75 689.5,-1187.75"/>
<polygon fill="#e69f00" stroke="#e69f00" stroke-width="2" points="689.5,-1191.25 699.5,-1187.75 689.5,-1184.25 689.5,-1191.25"/>
</g>
<!-- node_8ab2d75e -->
<g id="node17" class="node">
<title>node_8ab2d75e</title>
<path fill="#cccccc" stroke="black" d="M1056.5,-1464C1056.5,-1464 949.5,-1464 949.5,-1464 943.5,-1464 937.5,-1458 937.5,-1452 937.5,-1452 937.5,-1440 937.5,-1440 937.5,-1434 943.5,-1428 949.5,-1428 949.5,-1428 1056.5,-1428 1056.5,-1428 1062.5,-1428 1068.5,-1434 1068.5,-1440 1068.5,-1440 1068.5,-1452 1068.5,-1452 1068.5,-1458 1062.5,-1464 1056.5,-1464"/>
<text text-anchor="middle" x="1003" y="-1442.3" font-family="Times,serif" font-size="14.00">218: invertControls()</text>
</g>
<!-- node_635c7a44&#45;&gt;node_8ab2d75e -->
<g id="edge31" class="edge">
<title>node_635c7a44&#45;&gt;node_8ab2d75e</title>
<path fill="none" stroke="#f0e442" stroke-width="2" d="M843.92,-1446C843.92,-1446 924,-1446 924,-1446"/>
<polygon fill="#f0e442" stroke="#f0e442" stroke-width="2" points="924,-1449.5 934,-1446 924,-1442.5 924,-1449.5"/>
</g>
<!-- node_7faf09ce&#45;&gt;node_850e3eab -->
<g id="edge32" class="edge">
<title>node_7faf09ce&#45;&gt;node_850e3eab</title>
<path fill="none" stroke="#d55e00" stroke-width="2" d="M848.9,-1372C952.72,-1372 1127,-1372 1127,-1372 1127,-1372 1127,-477.8 1127,-477.8 1127,-477.8 1191.55,-477.8 1191.55,-477.8"/>
<polygon fill="#d55e00" stroke="#d55e00" stroke-width="2" points="1191.55,-481.3 1201.55,-477.8 1191.55,-474.3 1191.55,-481.3"/>
</g>
<!-- node_8ab2d75e&#45;&gt;node_48c62f2f -->
<g id="edge34" class="edge">
<title>node_8ab2d75e&#45;&gt;node_48c62f2f</title>
<path fill="none" stroke="#d55e00" stroke-width="2" d="M1068.94,-1436.5C1068.94,-1436.5 1146.34,-1436.5 1146.34,-1436.5"/>
<polygon fill="#d55e00" stroke="#d55e00" stroke-width="2" points="1146.34,-1440 1156.34,-1436.5 1146.34,-1433 1146.34,-1440"/>
</g>
<!-- node_42f76436 -->
<g id="node21" class="node">
<title>node_42f76436</title>
<path fill="#6db33f" stroke="black" d="M1308.5,-431C1308.5,-431 1204.5,-431 1204.5,-431 1198.5,-431 1192.5,-425 1192.5,-419 1192.5,-419 1192.5,-407 1192.5,-407 1192.5,-401 1198.5,-395 1204.5,-395 1204.5,-395 1308.5,-395 1308.5,-395 1314.5,-395 1320.5,-401 1320.5,-407 1320.5,-407 1320.5,-419 1320.5,-419 1320.5,-425 1314.5,-431 1308.5,-431"/>
<text text-anchor="middle" x="1256.5" y="-409.3" font-family="Times,serif" font-size="14.00">87: checkCollision()</text>
</g>
<!-- node_a7c8ea4e -->
<g id="node23" class="node">
<title>node_a7c8ea4e</title>
<path fill="#6db33f" stroke="black" d="M1318.5,-377C1318.5,-377 1194.5,-377 1194.5,-377 1188.5,-377 1182.5,-371 1182.5,-365 1182.5,-365 1182.5,-353 1182.5,-353 1182.5,-347 1188.5,-341 1194.5,-341 1194.5,-341 1318.5,-341 1318.5,-341 1324.5,-341 1330.5,-347 1330.5,-353 1330.5,-353 1330.5,-365 1330.5,-365 1330.5,-371 1324.5,-377 1318.5,-377"/>
<text text-anchor="middle" x="1256.5" y="-355.3" font-family="Times,serif" font-size="14.00">64: getCameraLookAt()</text>
</g>
<!-- node_f9b65b25 -->
<g id="node25" class="node">
<title>node_f9b65b25</title>
<path fill="#6db33f" stroke="black" d="M1515,-539C1515,-539 1422,-539 1422,-539 1416,-539 1410,-533 1410,-527 1410,-527 1410,-515 1410,-515 1410,-509 1416,-503 1422,-503 1422,-503 1515,-503 1515,-503 1521,-503 1527,-509 1527,-515 1527,-515 1527,-527 1527,-527 1527,-533 1521,-539 1515,-539"/>
<text text-anchor="middle" x="1468.5" y="-517.3" font-family="Times,serif" font-size="14.00">187: showVector()</text>
</g>
<!-- node_d84ff61a&#45;&gt;node_f9b65b25 -->
<g id="edge35" class="edge">
<title>node_d84ff61a&#45;&gt;node_f9b65b25</title>
<path fill="none" stroke="#56b4e9" stroke-width="2" d="M1374.28,-521C1374.28,-521 1396.56,-521 1396.56,-521"/>
<polygon fill="#56b4e9" stroke="#56b4e9" stroke-width="2" points="1396.56,-524.5 1406.56,-521 1396.56,-517.5 1396.56,-524.5"/>
</g>
<!-- node_47fb4adf -->
<g id="node28" class="node">
<title>node_47fb4adf</title>
<path fill="#966f33" stroke="black" d="M606,-270C606,-270 572,-270 572,-270 566,-270 560,-264 560,-258 560,-258 560,-246 560,-246 560,-240 566,-234 572,-234 572,-234 606,-234 606,-234 612,-234 618,-240 618,-246 618,-246 618,-258 618,-258 618,-264 612,-270 606,-270"/>
<text text-anchor="middle" x="589" y="-248.3" font-family="Times,serif" font-size="14.00">4: init()</text>
</g>
<!-- node_81f87d4f -->
<g id="node29" class="node">
<title>node_81f87d4f</title>
<path fill="#6db33f" stroke="black" d="M831.5,-351C831.5,-351 715.5,-351 715.5,-351 709.5,-351 703.5,-345 703.5,-339 703.5,-339 703.5,-327 703.5,-327 703.5,-321 709.5,-315 715.5,-315 715.5,-315 831.5,-315 831.5,-315 837.5,-315 843.5,-321 843.5,-327 843.5,-327 843.5,-339 843.5,-339 843.5,-345 837.5,-351 831.5,-351"/>
<text text-anchor="middle" x="773.5" y="-329.3" font-family="Times,serif" font-size="14.00">109: initDevControls()</text>
</g>
<!-- node_47fb4adf&#45;&gt;node_81f87d4f -->
<g id="edge38" class="edge">
<title>node_47fb4adf&#45;&gt;node_81f87d4f</title>
<path fill="none" stroke="#cc79a7" stroke-width="2" d="M618.46,-265.5C654.85,-265.5 712,-265.5 712,-265.5 712,-265.5 712,-301.53 712,-301.53"/>
<polygon fill="#cc79a7" stroke="#cc79a7" stroke-width="2" points="708.5,-301.53 712,-311.53 715.5,-301.53 708.5,-301.53"/>
</g>
<!-- node_5ed95aa2 -->
<g id="node30" class="node">
<title>node_5ed95aa2</title>
<path fill="#6db33f" stroke="black" d="M828.5,-135C828.5,-135 718.5,-135 718.5,-135 712.5,-135 706.5,-129 706.5,-123 706.5,-123 706.5,-111 706.5,-111 706.5,-105 712.5,-99 718.5,-99 718.5,-99 828.5,-99 828.5,-99 834.5,-99 840.5,-105 840.5,-111 840.5,-111 840.5,-123 840.5,-123 840.5,-129 834.5,-135 828.5,-135"/>
<text text-anchor="middle" x="773.5" y="-113.3" font-family="Times,serif" font-size="14.00">179: initStartScreen()</text>
</g>
<!-- node_47fb4adf&#45;&gt;node_5ed95aa2 -->
<g id="edge39" class="edge">
<title>node_47fb4adf&#45;&gt;node_5ed95aa2</title>
<path fill="none" stroke="#cc79a7" stroke-width="2" d="M589,-233.51C589,-196.54 589,-117 589,-117 589,-117 693.08,-117 693.08,-117"/>
<polygon fill="#cc79a7" stroke="#cc79a7" stroke-width="2" points="693.08,-120.5 703.08,-117 693.08,-113.5 693.08,-120.5"/>
</g>
<!-- node_2dd43242 -->
<g id="node31" class="node">
<title>node_2dd43242</title>
<path fill="#6db33f" stroke="black" d="M807,-189C807,-189 740,-189 740,-189 734,-189 728,-183 728,-177 728,-177 728,-165 728,-165 728,-159 734,-153 740,-153 740,-153 807,-153 807,-153 813,-153 819,-159 819,-165 819,-165 819,-177 819,-177 819,-183 813,-189 807,-189"/>
<text text-anchor="middle" x="773.5" y="-167.3" font-family="Times,serif" font-size="14.00">92: initStats()</text>
</g>
<!-- node_47fb4adf&#45;&gt;node_2dd43242 -->
<g id="edge40" class="edge">
<title>node_47fb4adf&#45;&gt;node_2dd43242</title>
<path fill="none" stroke="#cc79a7" stroke-width="2" d="M604,-233.62C604,-209.72 604,-171 604,-171 604,-171 714.6,-171 714.6,-171"/>
<polygon fill="#cc79a7" stroke="#cc79a7" stroke-width="2" points="714.6,-174.5 724.6,-171 714.6,-167.5 714.6,-174.5"/>
</g>
<!-- node_5e0024d4 -->
<g id="node32" class="node">
<title>node_5e0024d4</title>
<path fill="#6db33f" stroke="black" d="M853.5,-243C853.5,-243 693.5,-243 693.5,-243 687.5,-243 681.5,-237 681.5,-231 681.5,-231 681.5,-219 681.5,-219 681.5,-213 687.5,-207 693.5,-207 693.5,-207 853.5,-207 853.5,-207 859.5,-207 865.5,-213 865.5,-219 865.5,-219 865.5,-231 865.5,-231 865.5,-237 859.5,-243 853.5,-243"/>
<text text-anchor="middle" x="773.5" y="-221.3" font-family="Times,serif" font-size="14.00">195: putStartScreenOnReady()</text>
</g>
<!-- node_47fb4adf&#45;&gt;node_5e0024d4 -->
<g id="edge41" class="edge">
<title>node_47fb4adf&#45;&gt;node_5e0024d4</title>
<path fill="none" stroke="#cc79a7" stroke-width="2" d="M618.23,-238.5C618.23,-238.5 668.31,-238.5 668.31,-238.5"/>
<polygon fill="#cc79a7" stroke="#cc79a7" stroke-width="2" points="668.31,-242 678.31,-238.5 668.31,-235 668.31,-242"/>
</g>
<!-- node_e223be94 -->
<g id="node33" class="node">
<title>node_e223be94</title>
<path fill="#6db33f" stroke="black" d="M816,-297C816,-297 731,-297 731,-297 725,-297 719,-291 719,-285 719,-285 719,-273 719,-273 719,-267 725,-261 731,-261 731,-261 816,-261 816,-261 822,-261 828,-267 828,-273 828,-273 828,-285 828,-285 828,-291 822,-297 816,-297"/>
<text text-anchor="middle" x="773.5" y="-275.3" font-family="Times,serif" font-size="14.00">185: startScene()</text>
</g>
<!-- node_47fb4adf&#45;&gt;node_e223be94 -->
<g id="edge42" class="edge">
<title>node_47fb4adf&#45;&gt;node_e223be94</title>
<path fill="none" stroke="#cc79a7" stroke-width="2" d="M618.23,-263.25C618.23,-263.25 705.73,-263.25 705.73,-263.25"/>
<polygon fill="#cc79a7" stroke="#cc79a7" stroke-width="2" points="705.73,-266.75 715.73,-263.25 705.73,-259.75 705.73,-266.75"/>
</g>
<!-- node_889442a4 -->
<g id="node40" class="node">
<title>node_889442a4</title>
<path fill="#cccccc" stroke="black" d="M822.5,-679C822.5,-679 724.5,-679 724.5,-679 718.5,-679 712.5,-673 712.5,-667 712.5,-667 712.5,-655 712.5,-655 712.5,-649 718.5,-643 724.5,-643 724.5,-643 822.5,-643 822.5,-643 828.5,-643 834.5,-649 834.5,-655 834.5,-655 834.5,-667 834.5,-667 834.5,-673 828.5,-679 822.5,-679"/>
<text text-anchor="middle" x="773.5" y="-657.3" font-family="Times,serif" font-size="14.00">4: initInteractions()</text>
</g>
<!-- node_47fb4adf&#45;&gt;node_889442a4 -->
<g id="edge47" class="edge">
<title>node_47fb4adf&#45;&gt;node_889442a4</title>
<path fill="none" stroke="#cc79a7" stroke-width="2" d="M575,-270.37C575,-349.95 575,-661 575,-661 575,-661 699.03,-661 699.03,-661"/>
<polygon fill="#cc79a7" stroke="#cc79a7" stroke-width="2" points="699.03,-664.5 709.03,-661 699.03,-657.5 699.03,-664.5"/>
</g>
<!-- node_853b8ce0 -->
<g id="node45" class="node">
<title>node_853b8ce0</title>
<path fill="#cccccc" stroke="black" d="M813,-52C813,-52 734,-52 734,-52 728,-52 722,-46 722,-40 722,-40 722,-28 722,-28 722,-22 728,-16 734,-16 734,-16 813,-16 813,-16 819,-16 825,-22 825,-28 825,-28 825,-40 825,-40 825,-46 819,-52 813,-52"/>
<text text-anchor="middle" x="773.5" y="-30.3" font-family="Times,serif" font-size="14.00">4: placeLights()</text>
</g>
<!-- node_47fb4adf&#45;&gt;node_853b8ce0 -->
<g id="edge48" class="edge">
<title>node_47fb4adf&#45;&gt;node_853b8ce0</title>
<path fill="none" stroke="#cc79a7" stroke-width="2" d="M575,-233.79C575,-181.39 575,-34 575,-34 575,-34 708.58,-34 708.58,-34"/>
<polygon fill="#cc79a7" stroke="#cc79a7" stroke-width="2" points="708.58,-37.5 718.58,-34 708.58,-30.5 708.58,-37.5"/>
</g>
<!-- node_3e7d79f4 -->
<g id="node46" class="node">
<title>node_3e7d79f4</title>
<path fill="#cccccc" stroke="black" d="M1046,-323C1046,-323 960,-323 960,-323 954,-323 948,-317 948,-311 948,-311 948,-299 948,-299 948,-293 954,-287 960,-287 960,-287 1046,-287 1046,-287 1052,-287 1058,-293 1058,-299 1058,-299 1058,-311 1058,-311 1058,-317 1052,-323 1046,-323"/>
<text text-anchor="middle" x="1003" y="-301.3" font-family="Times,serif" font-size="14.00">4: placeObjects()</text>
</g>
<!-- node_47fb4adf&#45;&gt;node_3e7d79f4 -->
<g id="edge49" class="edge">
<title>node_47fb4adf&#45;&gt;node_3e7d79f4</title>
<path fill="none" stroke="#cc79a7" stroke-width="2" d="M604,-270.28C604,-285.95 604,-306 604,-306 604,-306 934.49,-306 934.49,-306"/>
<polygon fill="#cc79a7" stroke="#cc79a7" stroke-width="2" points="934.49,-309.5 944.49,-306 934.49,-302.5 934.49,-309.5"/>
</g>
<!-- node_d04b3946 -->
<g id="node50" class="node">
<title>node_d04b3946</title>
<path fill="#6db33f" stroke="black" d="M846.5,-434C846.5,-434 700.5,-434 700.5,-434 694.5,-434 688.5,-428 688.5,-422 688.5,-422 688.5,-410 688.5,-410 688.5,-404 694.5,-398 700.5,-398 700.5,-398 846.5,-398 846.5,-398 852.5,-398 858.5,-404 858.5,-410 858.5,-410 858.5,-422 858.5,-422 858.5,-428 852.5,-434 846.5,-434"/>
<text text-anchor="middle" x="773.5" y="-412.3" font-family="Times,serif" font-size="14.00">207: initMouseClickMove()</text>
</g>
<!-- node_47fb4adf&#45;&gt;node_d04b3946 -->
<g id="edge50" class="edge">
<title>node_47fb4adf&#45;&gt;node_d04b3946</title>
<path fill="none" stroke="#cc79a7" stroke-width="2" d="M618.24,-267.75C649.92,-267.75 696,-267.75 696,-267.75 696,-267.75 696,-384.5 696,-384.5"/>
<polygon fill="#cc79a7" stroke="#cc79a7" stroke-width="2" points="692.5,-384.5 696,-394.5 699.5,-384.5 692.5,-384.5"/>
</g>
<!-- node_23dcd221 -->
<g id="node51" class="node">
<title>node_23dcd221</title>
<path fill="#cccccc" stroke="black" d="M808.5,-542C808.5,-542 738.5,-542 738.5,-542 732.5,-542 726.5,-536 726.5,-530 726.5,-530 726.5,-518 726.5,-518 726.5,-512 732.5,-506 738.5,-506 738.5,-506 808.5,-506 808.5,-506 814.5,-506 820.5,-512 820.5,-518 820.5,-518 820.5,-530 820.5,-530 820.5,-536 814.5,-542 808.5,-542"/>
<text text-anchor="middle" x="773.5" y="-520.3" font-family="Times,serif" font-size="14.00">13: initWalk()</text>
</g>
<!-- node_47fb4adf&#45;&gt;node_23dcd221 -->
<g id="edge51" class="edge">
<title>node_47fb4adf&#45;&gt;node_23dcd221</title>
<path fill="none" stroke="#cc79a7" stroke-width="2" d="M589,-270.27C589,-331.25 589,-524 589,-524 589,-524 713.44,-524 713.44,-524"/>
<polygon fill="#cc79a7" stroke="#cc79a7" stroke-width="2" points="713.44,-527.5 723.44,-524 713.44,-520.5 713.44,-527.5"/>
</g>
<!-- node_a695772f -->
<g id="node38" class="node">
<title>node_a695772f</title>
<path fill="#6db33f" stroke="black" d="M1091,-733C1091,-733 915,-733 915,-733 909,-733 903,-727 903,-721 903,-721 903,-709 903,-709 903,-703 909,-697 915,-697 915,-697 1091,-697 1091,-697 1097,-697 1103,-703 1103,-709 1103,-709 1103,-721 1103,-721 1103,-727 1097,-733 1091,-733"/>
<text text-anchor="middle" x="1003" y="-711.3" font-family="Times,serif" font-size="14.00">83: initAdjustBlackboardHeight()</text>
</g>
<!-- node_7289c8ee -->
<g id="node39" class="node">
<title>node_7289c8ee</title>
<path fill="#6db33f" stroke="black" d="M1044.5,-787C1044.5,-787 961.5,-787 961.5,-787 955.5,-787 949.5,-781 949.5,-775 949.5,-775 949.5,-763 949.5,-763 949.5,-757 955.5,-751 961.5,-751 961.5,-751 1044.5,-751 1044.5,-751 1050.5,-751 1056.5,-757 1056.5,-763 1056.5,-763 1056.5,-775 1056.5,-775 1056.5,-781 1050.5,-787 1044.5,-787"/>
<text text-anchor="middle" x="1003" y="-765.3" font-family="Times,serif" font-size="14.00">19: initInfoDiv()</text>
</g>
<!-- node_889442a4&#45;&gt;node_a695772f -->
<g id="edge52" class="edge">
<title>node_889442a4&#45;&gt;node_a695772f</title>
<path fill="none" stroke="#f0e442" stroke-width="2" d="M834.89,-673C843.78,-673 850,-673 850,-673 850,-673 850,-715 850,-715 850,-715 889.63,-715 889.63,-715"/>
<polygon fill="#f0e442" stroke="#f0e442" stroke-width="2" points="889.63,-718.5 899.63,-715 889.63,-711.5 889.63,-718.5"/>
</g>
<!-- node_889442a4&#45;&gt;node_7289c8ee -->
<g id="edge53" class="edge">
<title>node_889442a4&#45;&gt;node_7289c8ee</title>
<path fill="none" stroke="#f0e442" stroke-width="2" d="M834.66,-655C866.14,-655 898,-655 898,-655 898,-655 898,-769 898,-769 898,-769 936.24,-769 936.24,-769"/>
<polygon fill="#f0e442" stroke="#f0e442" stroke-width="2" points="936.24,-772.5 946.24,-769 936.24,-765.5 936.24,-772.5"/>
</g>
<!-- node_c9f634f3 -->
<g id="node41" class="node">
<title>node_c9f634f3</title>
<path fill="#6db33f" stroke="black" d="M1058.5,-841C1058.5,-841 947.5,-841 947.5,-841 941.5,-841 935.5,-835 935.5,-829 935.5,-829 935.5,-817 935.5,-817 935.5,-811 941.5,-805 947.5,-805 947.5,-805 1058.5,-805 1058.5,-805 1064.5,-805 1070.5,-811 1070.5,-817 1070.5,-817 1070.5,-829 1070.5,-829 1070.5,-835 1064.5,-841 1058.5,-841"/>
<text text-anchor="middle" x="1003" y="-819.3" font-family="Times,serif" font-size="14.00">227: initOpenCloset()</text>
</g>
<!-- node_889442a4&#45;&gt;node_c9f634f3 -->
<g id="edge54" class="edge">
<title>node_889442a4&#45;&gt;node_c9f634f3</title>
<path fill="none" stroke="#f0e442" stroke-width="2" d="M834.65,-661C864.05,-661 893,-661 893,-661 893,-661 893,-823 893,-823 893,-823 922.19,-823 922.19,-823"/>
<polygon fill="#f0e442" stroke="#f0e442" stroke-width="2" points="922.19,-826.5 932.19,-823 922.19,-819.5 922.19,-826.5"/>
</g>
<!-- node_db93587e -->
<g id="node42" class="node">
<title>node_db93587e</title>
<path fill="#6db33f" stroke="black" d="M1074.5,-895C1074.5,-895 931.5,-895 931.5,-895 925.5,-895 919.5,-889 919.5,-883 919.5,-883 919.5,-871 919.5,-871 919.5,-865 925.5,-859 931.5,-859 931.5,-859 1074.5,-859 1074.5,-859 1080.5,-859 1086.5,-865 1086.5,-871 1086.5,-871 1086.5,-883 1086.5,-883 1086.5,-889 1080.5,-895 1074.5,-895"/>
<text text-anchor="middle" x="1003" y="-873.3" font-family="Times,serif" font-size="14.00">189: initPutChairOnTable()</text>
</g>
<!-- node_889442a4&#45;&gt;node_db93587e -->
<g id="edge55" class="edge">
<title>node_889442a4&#45;&gt;node_db93587e</title>
<path fill="none" stroke="#f0e442" stroke-width="2" d="M834.77,-667C862,-667 888,-667 888,-667 888,-667 888,-877 888,-877 888,-877 906.09,-877 906.09,-877"/>
<polygon fill="#f0e442" stroke="#f0e442" stroke-width="2" points="906.09,-880.5 916.09,-877 906.09,-873.5 906.09,-880.5"/>
</g>
<!-- node_e2ac81ff -->
<g id="node43" class="node">
<title>node_e2ac81ff</title>
<path fill="#cccccc" stroke="black" d="M1060,-625C1060,-625 946,-625 946,-625 940,-625 934,-619 934,-613 934,-613 934,-601 934,-601 934,-595 940,-589 946,-589 946,-589 1060,-589 1060,-589 1066,-589 1072,-595 1072,-601 1072,-601 1072,-613 1072,-613 1072,-619 1066,-625 1060,-625"/>
<text text-anchor="middle" x="1003" y="-603.3" font-family="Times,serif" font-size="14.00">138: initSwitchLight()</text>
</g>
<!-- node_889442a4&#45;&gt;node_e2ac81ff -->
<g id="edge56" class="edge">
<title>node_889442a4&#45;&gt;node_e2ac81ff</title>
<path fill="none" stroke="#f0e442" stroke-width="2" d="M828,-642.72C828,-627.05 828,-607 828,-607 828,-607 920.56,-607 920.56,-607"/>
<polygon fill="#f0e442" stroke="#f0e442" stroke-width="2" points="920.56,-610.5 930.56,-607 920.56,-603.5 920.56,-610.5"/>
</g>
<!-- node_c83e4b88 -->
<g id="node44" class="node">
<title>node_c83e4b88</title>
<path fill="#6db33f" stroke="black" d="M1086.5,-679C1086.5,-679 919.5,-679 919.5,-679 913.5,-679 907.5,-673 907.5,-667 907.5,-667 907.5,-655 907.5,-655 907.5,-649 913.5,-643 919.5,-643 919.5,-643 1086.5,-643 1086.5,-643 1092.5,-643 1098.5,-649 1098.5,-655 1098.5,-655 1098.5,-667 1098.5,-667 1098.5,-673 1092.5,-679 1086.5,-679"/>
<text text-anchor="middle" x="1003" y="-657.3" font-family="Times,serif" font-size="14.00">71: initTriggerFlightSimulator()</text>
</g>
<!-- node_889442a4&#45;&gt;node_c83e4b88 -->
<g id="edge57" class="edge">
<title>node_889442a4&#45;&gt;node_c83e4b88</title>
<path fill="none" stroke="#f0e442" stroke-width="2" d="M834.7,-649C834.7,-649 894.35,-649 894.35,-649"/>
<polygon fill="#f0e442" stroke="#f0e442" stroke-width="2" points="894.35,-652.5 904.35,-649 894.35,-645.5 894.35,-652.5"/>
</g>
<!-- node_e2ac81ff&#45;&gt;node_850e3eab -->
<g id="edge58" class="edge">
<title>node_e2ac81ff&#45;&gt;node_850e3eab</title>
<path fill="none" stroke="#cc79a7" stroke-width="2" d="M1072.29,-609C1080.48,-609 1086,-609 1086,-609 1086,-609 1086,-470.6 1086,-470.6 1086,-470.6 1191.85,-470.6 1191.85,-470.6"/>
<polygon fill="#cc79a7" stroke="#cc79a7" stroke-width="2" points="1191.85,-474.1 1201.85,-470.6 1191.85,-467.1 1191.85,-474.1"/>
</g>
<!-- node_853b8ce0&#45;&gt;node_e4185edf -->
<g id="edge64" class="edge">
<title>node_853b8ce0&#45;&gt;node_e4185edf</title>
<path fill="none" stroke="#000000" stroke-width="2" d="M825.24,-34C949.97,-34 1257,-34 1257,-34 1257,-34 1257,-273.77 1257,-273.77"/>
<polygon fill="#000000" stroke="#000000" stroke-width="2" points="1253.5,-273.77 1257,-283.77 1260.5,-273.77 1253.5,-273.77"/>
</g>
<!-- node_3e7d79f4&#45;&gt;node_850e3eab -->
<g id="edge65" class="edge">
<title>node_3e7d79f4&#45;&gt;node_850e3eab</title>
<path fill="none" stroke="#f0e442" stroke-width="2" d="M1058.2,-305C1099.54,-305 1149,-305 1149,-305 1149,-305 1149,-456.2 1149,-456.2 1149,-456.2 1191.61,-456.2 1191.61,-456.2"/>
<polygon fill="#f0e442" stroke="#f0e442" stroke-width="2" points="1191.61,-459.7 1201.61,-456.2 1191.61,-452.7 1191.61,-459.7"/>
</g>
<!-- node_3e7d79f4&#45;&gt;node_e4185edf -->
<g id="edge77" class="edge">
<title>node_3e7d79f4&#45;&gt;node_e4185edf</title>
<path fill="none" stroke="#f0e442" stroke-width="2" d="M1058.32,-296C1058.32,-296 1145.1,-296 1145.1,-296"/>
<polygon fill="#f0e442" stroke="#f0e442" stroke-width="2" points="1145.1,-299.5 1155.1,-296 1145.1,-292.5 1145.1,-299.5"/>
</g>
<!-- node_dbfa634a -->
<g id="node47" class="node">
<title>node_dbfa634a</title>
<path fill="#6db33f" stroke="black" d="M1051,-542C1051,-542 955,-542 955,-542 949,-542 943,-536 943,-530 943,-530 943,-518 943,-518 943,-512 949,-506 955,-506 955,-506 1051,-506 1051,-506 1057,-506 1063,-512 1063,-518 1063,-518 1063,-530 1063,-530 1063,-536 1057,-542 1051,-542"/>
<text text-anchor="middle" x="1003" y="-520.3" font-family="Times,serif" font-size="14.00">129: createPlayer()</text>
</g>
<!-- node_9f2d7311 -->
<g id="node48" class="node">
<title>node_9f2d7311</title>
<path fill="#cccccc" stroke="black" d="M1057.5,-485C1057.5,-485 948.5,-485 948.5,-485 942.5,-485 936.5,-479 936.5,-473 936.5,-473 936.5,-461 936.5,-461 936.5,-455 942.5,-449 948.5,-449 948.5,-449 1057.5,-449 1057.5,-449 1063.5,-449 1069.5,-455 1069.5,-461 1069.5,-461 1069.5,-473 1069.5,-473 1069.5,-479 1063.5,-485 1057.5,-485"/>
<text text-anchor="middle" x="1003" y="-463.3" font-family="Times,serif" font-size="14.00">87: getNewPosition()</text>
</g>
<!-- node_9f2d7311&#45;&gt;node_850e3eab -->
<g id="edge86" class="edge">
<title>node_9f2d7311&#45;&gt;node_850e3eab</title>
<path fill="none" stroke="#e69f00" stroke-width="2" d="M1069.94,-463.4C1069.94,-463.4 1191.85,-463.4 1191.85,-463.4"/>
<polygon fill="#e69f00" stroke="#e69f00" stroke-width="2" points="1191.85,-466.9 1201.85,-463.4 1191.85,-459.9 1191.85,-466.9"/>
</g>
<!-- node_8d46a9b0&#45;&gt;node_42f76436 -->
<g id="edge88" class="edge">
<title>node_8d46a9b0&#45;&gt;node_42f76436</title>
<path fill="none" stroke="#000000" stroke-width="2" d="M841.91,-468.5C864.05,-468.5 883,-468.5 883,-468.5 883,-468.5 883,-414.5 883,-414.5 883,-414.5 1179.27,-414.5 1179.27,-414.5"/>
<polygon fill="#000000" stroke="#000000" stroke-width="2" points="1179.27,-418 1189.27,-414.5 1179.27,-411 1179.27,-418"/>
</g>
<!-- node_8d46a9b0&#45;&gt;node_a7c8ea4e -->
<g id="edge89" class="edge">
<title>node_8d46a9b0&#45;&gt;node_a7c8ea4e</title>
<path fill="none" stroke="#000000" stroke-width="2" d="M841.92,-460.25C853.57,-460.25 862,-460.25 862,-460.25 862,-460.25 862,-364 862,-364 862,-364 1169.27,-364 1169.27,-364"/>
<polygon fill="#000000" stroke="#000000" stroke-width="2" points="1169.27,-367.5 1179.27,-364 1169.27,-360.5 1169.27,-367.5"/>
</g>
<!-- node_8d46a9b0&#45;&gt;node_9f2d7311 -->
<g id="edge90" class="edge">
<title>node_8d46a9b0&#45;&gt;node_9f2d7311</title>
<path fill="none" stroke="#000000" stroke-width="2" d="M841.74,-476.75C841.74,-476.75 923.18,-476.75 923.18,-476.75"/>
<polygon fill="#000000" stroke="#000000" stroke-width="2" points="923.18,-480.25 933.18,-476.75 923.18,-473.25 923.18,-480.25"/>
</g>
<!-- node_23dcd221&#45;&gt;node_dbfa634a -->
<g id="edge91" class="edge">
<title>node_23dcd221&#45;&gt;node_dbfa634a</title>
<path fill="none" stroke="#e69f00" stroke-width="2" d="M820.77,-524C820.77,-524 929.65,-524 929.65,-524"/>
<polygon fill="#e69f00" stroke="#e69f00" stroke-width="2" points="929.65,-527.5 939.65,-524 929.65,-520.5 929.65,-527.5"/>
</g>
</g>
</svg>
