<?xml version="1.0" encoding="UTF-8" standalone="no"?>
<!DOCTYPE svg PUBLIC "-//W3C//DTD SVG 1.1//EN"
 "http://www.w3.org/Graphics/SVG/1.1/DTD/svg11.dtd">
<!-- Generated by graphviz version 7.0.1 (20221109.1506)
 -->
<!-- Title: G Pages: 1 -->
<svg width="1604pt" height="609pt"
 viewBox="0.00 0.00 1604.00 609.00" xmlns="http://www.w3.org/2000/svg" xmlns:xlink="http://www.w3.org/1999/xlink">
<g id="graph0" class="graph" transform="scale(1 1) rotate(0) translate(4 605)">
<title>G</title>
<polygon fill="white" stroke="none" points="-4,4 -4,-605 1600,-605 1600,4 -4,4"/>
<g id="clust2" class="cluster">
<title>cluster_4f9a0411</title>
<polygon fill="none" stroke="black" stroke-dasharray="1,5" points="295,-156 295,-393 625,-393 625,-156 295,-156"/>
<text text-anchor="middle" x="460" y="-377.8" font-family="Times,serif" font-size="14.00">File: fs&#45;animate</text>
</g>
<g id="clust3" class="cluster">
<title>cluster_4ada6256</title>
<polygon fill="none" stroke="black" stroke-dasharray="1,5" points="816.5,-356 816.5,-485 1164,-485 1164,-356 816.5,-356"/>
<text text-anchor="middle" x="990.25" y="-469.8" font-family="Times,serif" font-size="14.00">File: fs&#45;fly</text>
</g>
<g id="clust4" class="cluster">
<title>cluster_627ca9ad</title>
<polygon fill="none" stroke="black" stroke-dasharray="1,5" points="645,-145 645,-348 1414.5,-348 1414.5,-145 645,-145"/>
<text text-anchor="middle" x="1029.75" y="-332.8" font-family="Times,serif" font-size="14.00">File: fs&#45;init</text>
</g>
<g id="clust5" class="cluster">
<title>cluster_bc851dde</title>
<polygon fill="none" stroke="black" stroke-dasharray="1,5" points="84,-187 84,-262 183,-262 183,-187 84,-187"/>
<text text-anchor="middle" x="133.5" y="-246.8" font-family="Times,serif" font-size="14.00">File: fs&#45;main</text>
</g>
<g id="clust6" class="cluster">
<title>cluster_4ef294f4</title>
<polygon fill="none" stroke="black" stroke-dasharray="1,5" points="791,-8 791,-137 976,-137 976,-8 791,-8"/>
<text text-anchor="middle" x="883.5" y="-121.8" font-family="Times,serif" font-size="14.00">File: fs&#45;place&#45;objects</text>
</g>
<g id="clust7" class="cluster">
<title>cluster_67533db1</title>
<polygon fill="none" stroke="black" stroke-dasharray="1,5" points="1184,-356 1184,-593 1588,-593 1588,-356 1184,-356"/>
<text text-anchor="middle" x="1386" y="-577.8" font-family="Times,serif" font-size="14.00">File: helpers</text>
</g>
<!-- Legend -->
<g id="node1" class="node">
<title>Legend</title>
<polygon fill="none" stroke="black" points="1.5,-158 1.5,-175 266.5,-175 266.5,-158 1.5,-158"/>
<text text-anchor="start" x="81.5" y="-162.8" font-family="Times,serif" font-size="14.00">Code2flow Legend</text>
<polygon fill="none" stroke="black" points="1.5,-70 1.5,-158 266.5,-158 266.5,-70 1.5,-70"/>
<polygon fill="none" stroke="black" points="3.5,-135 3.5,-156 214.5,-156 214.5,-135 3.5,-135"/>
<text text-anchor="start" x="63" y="-141.8" font-family="Times,serif" font-size="14.00">Regular function</text>
<polygon fill="#cccccc" stroke="none" points="214.5,-135 214.5,-156 264.5,-156 264.5,-135 214.5,-135"/>
<polygon fill="none" stroke="black" points="214.5,-135 214.5,-156 264.5,-156 264.5,-135 214.5,-135"/>
<polygon fill="none" stroke="black" points="3.5,-114 3.5,-135 214.5,-135 214.5,-114 3.5,-114"/>
<text text-anchor="start" x="15" y="-120.8" font-family="Times,serif" font-size="14.00">Trunk function (nothing calls this)</text>
<polygon fill="#966f33" stroke="none" points="214.5,-114 214.5,-135 264.5,-135 264.5,-114 214.5,-114"/>
<polygon fill="none" stroke="black" points="214.5,-114 214.5,-135 264.5,-135 264.5,-114 214.5,-114"/>
<polygon fill="none" stroke="black" points="3.5,-93 3.5,-114 214.5,-114 214.5,-93 3.5,-93"/>
<text text-anchor="start" x="6.5" y="-99.8" font-family="Times,serif" font-size="14.00">Leaf function (this calls nothing else)</text>
<polygon fill="#6db33f" stroke="none" points="214.5,-93 214.5,-114 264.5,-114 264.5,-93 214.5,-93"/>
<polygon fill="none" stroke="black" points="214.5,-93 214.5,-114 264.5,-114 264.5,-93 214.5,-93"/>
<polygon fill="none" stroke="black" points="3.5,-72 3.5,-93 214.5,-93 214.5,-72 3.5,-72"/>
<text text-anchor="start" x="73" y="-78.8" font-family="Times,serif" font-size="14.00">Function call</text>
<polygon fill="none" stroke="black" points="214.5,-72 214.5,-93 264.5,-93 264.5,-72 214.5,-72"/>
<text text-anchor="start" x="232" y="-78.8" font-family="Times,serif" font-size="14.00">→</text>
<polygon fill="none" stroke="black" points="2.5,-71 2.5,-157 265.5,-157 265.5,-71 2.5,-71"/>
<polygon fill="none" stroke="black" points="0,-69.5 0,-176.5 267,-176.5 267,-69.5 0,-69.5"/>
</g>
<!-- node_3260cd9e -->
<g id="node2" class="node">
<title>node_3260cd9e</title>
<path fill="#cccccc" stroke="black" d="M374,-281C374,-281 315,-281 315,-281 309,-281 303,-275 303,-269 303,-269 303,-257 303,-257 303,-251 309,-245 315,-245 315,-245 374,-245 374,-245 380,-245 386,-251 386,-257 386,-257 386,-269 386,-269 386,-275 380,-281 374,-281"/>
<text text-anchor="middle" x="344.5" y="-259.3" font-family="Times,serif" font-size="14.00">4: animate()</text>
</g>
<!-- node_82f98361 -->
<g id="node3" class="node">
<title>node_82f98361</title>
<path fill="#cccccc" stroke="black" d="M600.5,-200C600.5,-200 438.5,-200 438.5,-200 432.5,-200 426.5,-194 426.5,-188 426.5,-188 426.5,-176 426.5,-176 426.5,-170 432.5,-164 438.5,-164 438.5,-164 600.5,-164 600.5,-164 606.5,-164 612.5,-170 612.5,-176 612.5,-176 612.5,-188 612.5,-188 612.5,-194 606.5,-200 600.5,-200"/>
<text text-anchor="middle" x="519.5" y="-178.3" font-family="Times,serif" font-size="14.00">110: handleObstacleCollision()</text>
</g>
<!-- node_3260cd9e&#45;&gt;node_82f98361 -->
<g id="edge1" class="edge">
<title>node_3260cd9e&#45;&gt;node_82f98361</title>
<path fill="none" stroke="#d55e00" stroke-width="2" d="M359,-244.69C359,-221.85 359,-185.75 359,-185.75 359,-185.75 413.11,-185.75 413.11,-185.75"/>
<polygon fill="#d55e00" stroke="#d55e00" stroke-width="2" points="413.11,-189.25 423.11,-185.75 413.11,-182.25 413.11,-189.25"/>
</g>
<!-- node_7488b525 -->
<g id="node4" class="node">
<title>node_7488b525</title>
<path fill="#6db33f" stroke="black" d="M605,-254C605,-254 434,-254 434,-254 428,-254 422,-248 422,-242 422,-242 422,-230 422,-230 422,-224 428,-218 434,-218 434,-218 605,-218 605,-218 611,-218 617,-224 617,-230 617,-230 617,-242 617,-242 617,-248 611,-254 605,-254"/>
<text text-anchor="middle" x="519.5" y="-232.3" font-family="Times,serif" font-size="14.00">124: handlePlaneOutOfBounds()</text>
</g>
<!-- node_3260cd9e&#45;&gt;node_7488b525 -->
<g id="edge2" class="edge">
<title>node_3260cd9e&#45;&gt;node_7488b525</title>
<path fill="none" stroke="#d55e00" stroke-width="2" d="M386.42,-249.5C386.42,-249.5 408.71,-249.5 408.71,-249.5"/>
<polygon fill="#d55e00" stroke="#d55e00" stroke-width="2" points="408.71,-253 418.71,-249.5 408.71,-246 408.71,-253"/>
</g>
<!-- node_405a0016 -->
<g id="node5" class="node">
<title>node_405a0016</title>
<path fill="#cccccc" stroke="black" d="M564,-308C564,-308 475,-308 475,-308 469,-308 463,-302 463,-296 463,-296 463,-284 463,-284 463,-278 469,-272 475,-272 475,-272 564,-272 564,-272 570,-272 576,-278 576,-284 576,-284 576,-296 576,-296 576,-302 570,-308 564,-308"/>
<text text-anchor="middle" x="519.5" y="-286.3" font-family="Times,serif" font-size="14.00">28: handleScore()</text>
</g>
<!-- node_3260cd9e&#45;&gt;node_405a0016 -->
<g id="edge3" class="edge">
<title>node_3260cd9e&#45;&gt;node_405a0016</title>
<path fill="none" stroke="#d55e00" stroke-width="2" d="M386.42,-276.5C386.42,-276.5 449.68,-276.5 449.68,-276.5"/>
<polygon fill="#d55e00" stroke="#d55e00" stroke-width="2" points="449.68,-280 459.68,-276.5 449.68,-273 449.68,-280"/>
</g>
<!-- node_12b67a83 -->
<g id="node6" class="node">
<title>node_12b67a83</title>
<path fill="#cccccc" stroke="black" d="M563.5,-362C563.5,-362 475.5,-362 475.5,-362 469.5,-362 463.5,-356 463.5,-350 463.5,-350 463.5,-338 463.5,-338 463.5,-332 469.5,-326 475.5,-326 475.5,-326 563.5,-326 563.5,-326 569.5,-326 575.5,-332 575.5,-338 575.5,-338 575.5,-350 575.5,-350 575.5,-356 569.5,-362 563.5,-362"/>
<text text-anchor="middle" x="519.5" y="-340.3" font-family="Times,serif" font-size="14.00">90: handleTime()</text>
</g>
<!-- node_3260cd9e&#45;&gt;node_12b67a83 -->
<g id="edge4" class="edge">
<title>node_3260cd9e&#45;&gt;node_12b67a83</title>
<path fill="none" stroke="#d55e00" stroke-width="2" d="M359,-281.38C359,-305.28 359,-344 359,-344 359,-344 450.34,-344 450.34,-344"/>
<polygon fill="#d55e00" stroke="#d55e00" stroke-width="2" points="450.34,-347.5 460.34,-344 450.34,-340.5 450.34,-347.5"/>
</g>
<!-- node_550d3e15 -->
<g id="node9" class="node">
<title>node_550d3e15</title>
<path fill="#cccccc" stroke="black" d="M930.5,-400C930.5,-400 836.5,-400 836.5,-400 830.5,-400 824.5,-394 824.5,-388 824.5,-388 824.5,-376 824.5,-376 824.5,-370 830.5,-364 836.5,-364 836.5,-364 930.5,-364 930.5,-364 936.5,-364 942.5,-370 942.5,-376 942.5,-376 942.5,-388 942.5,-388 942.5,-394 936.5,-400 930.5,-400"/>
<text text-anchor="middle" x="883.5" y="-378.3" font-family="Times,serif" font-size="14.00">51: handleFlying()</text>
</g>
<!-- node_3260cd9e&#45;&gt;node_550d3e15 -->
<g id="edge5" class="edge">
<title>node_3260cd9e&#45;&gt;node_550d3e15</title>
<path fill="none" stroke="#d55e00" stroke-width="2" d="M331,-281.33C331,-314.71 331,-382 331,-382 331,-382 811.08,-382 811.08,-382"/>
<polygon fill="#d55e00" stroke="#d55e00" stroke-width="2" points="811.08,-385.5 821.08,-382 811.08,-378.5 811.08,-385.5"/>
</g>
<!-- node_e462f31b -->
<g id="node11" class="node">
<title>node_e462f31b</title>
<path fill="#6db33f" stroke="black" d="M751,-308C751,-308 665,-308 665,-308 659,-308 653,-302 653,-296 653,-296 653,-284 653,-284 653,-278 659,-272 665,-272 665,-272 751,-272 751,-272 757,-272 763,-278 763,-284 763,-284 763,-296 763,-296 763,-302 757,-308 751,-308"/>
<text text-anchor="middle" x="708" y="-286.3" font-family="Times,serif" font-size="14.00">135: gameOver()</text>
</g>
<!-- node_82f98361&#45;&gt;node_e462f31b -->
<g id="edge6" class="edge">
<title>node_82f98361&#45;&gt;node_e462f31b</title>
<path fill="none" stroke="#e69f00" stroke-width="2" d="M612.7,-185.5C641.59,-185.5 666,-185.5 666,-185.5 666,-185.5 666,-258.77 666,-258.77"/>
<polygon fill="#e69f00" stroke="#e69f00" stroke-width="2" points="662.5,-258.77 666,-268.77 669.5,-258.77 662.5,-258.77"/>
</g>
<!-- node_405a0016&#45;&gt;node_e462f31b -->
<g id="edge7" class="edge">
<title>node_405a0016&#45;&gt;node_e462f31b</title>
<path fill="none" stroke="#d55e00" stroke-width="2" d="M576.31,-290C576.31,-290 639.57,-290 639.57,-290"/>
<polygon fill="#d55e00" stroke="#d55e00" stroke-width="2" points="639.57,-293.5 649.57,-290 639.57,-286.5 639.57,-293.5"/>
</g>
<!-- node_12b67a83&#45;&gt;node_e462f31b -->
<g id="edge9" class="edge">
<title>node_12b67a83&#45;&gt;node_e462f31b</title>
<path fill="none" stroke="#009e73" stroke-width="2" d="M575.8,-344C631.35,-344 708,-344 708,-344 708,-344 708,-321.31 708,-321.31"/>
<polygon fill="#009e73" stroke="#009e73" stroke-width="2" points="711.5,-321.31 708,-311.31 704.5,-321.31 711.5,-321.31"/>
</g>
<!-- node_6343a1de -->
<g id="node7" class="node">
<title>node_6343a1de</title>
<path fill="#6db33f" stroke="black" d="M1122,-400C1122,-400 1038,-400 1038,-400 1032,-400 1026,-394 1026,-388 1026,-388 1026,-376 1026,-376 1026,-370 1032,-364 1038,-364 1038,-364 1122,-364 1122,-364 1128,-364 1134,-370 1134,-376 1134,-376 1134,-388 1134,-388 1134,-394 1128,-400 1122,-400"/>
<text text-anchor="middle" x="1080" y="-378.3" font-family="Times,serif" font-size="14.00">134: calcSpeed()</text>
</g>
<!-- node_43f357d7 -->
<g id="node8" class="node">
<title>node_43f357d7</title>
<path fill="#cccccc" stroke="black" d="M1144,-454C1144,-454 1016,-454 1016,-454 1010,-454 1004,-448 1004,-442 1004,-442 1004,-430 1004,-430 1004,-424 1010,-418 1016,-418 1016,-418 1144,-418 1144,-418 1150,-418 1156,-424 1156,-430 1156,-430 1156,-442 1156,-442 1156,-448 1150,-454 1144,-454"/>
<text text-anchor="middle" x="1080" y="-432.3" font-family="Times,serif" font-size="14.00">111: createModelPlane()</text>
</g>
<!-- node_f484367e -->
<g id="node22" class="node">
<title>node_f484367e</title>
<path fill="#6db33f" stroke="black" d="M1395.5,-454C1395.5,-454 1223.5,-454 1223.5,-454 1217.5,-454 1211.5,-448 1211.5,-442 1211.5,-442 1211.5,-430 1211.5,-430 1211.5,-424 1217.5,-418 1223.5,-418 1223.5,-418 1395.5,-418 1395.5,-418 1401.5,-418 1407.5,-424 1407.5,-430 1407.5,-430 1407.5,-442 1407.5,-442 1407.5,-448 1401.5,-454 1395.5,-454"/>
<text text-anchor="middle" x="1309.5" y="-432.3" font-family="Times,serif" font-size="14.00">7: getMashFromBlenderModel()</text>
</g>
<!-- node_43f357d7&#45;&gt;node_f484367e -->
<g id="edge10" class="edge">
<title>node_43f357d7&#45;&gt;node_f484367e</title>
<path fill="none" stroke="#cc79a7" stroke-width="2" d="M1156.42,-436C1156.42,-436 1198.34,-436 1198.34,-436"/>
<polygon fill="#cc79a7" stroke="#cc79a7" stroke-width="2" points="1198.34,-439.5 1208.34,-436 1198.34,-432.5 1198.34,-439.5"/>
</g>
<!-- node_550d3e15&#45;&gt;node_6343a1de -->
<g id="edge11" class="edge">
<title>node_550d3e15&#45;&gt;node_6343a1de</title>
<path fill="none" stroke="#0072b2" stroke-width="2" d="M942.99,-382C942.99,-382 1012.71,-382 1012.71,-382"/>
<polygon fill="#0072b2" stroke="#0072b2" stroke-width="2" points="1012.71,-385.5 1022.71,-382 1012.71,-378.5 1012.71,-385.5"/>
</g>
<!-- node_47745195 -->
<g id="node21" class="node">
<title>node_47745195</title>
<path fill="#6db33f" stroke="black" d="M1349,-400C1349,-400 1270,-400 1270,-400 1264,-400 1258,-394 1258,-388 1258,-388 1258,-376 1258,-376 1258,-370 1264,-364 1270,-364 1270,-364 1349,-364 1349,-364 1355,-364 1361,-370 1361,-376 1361,-376 1361,-388 1361,-388 1361,-394 1355,-400 1349,-400"/>
<text text-anchor="middle" x="1309.5" y="-378.3" font-family="Times,serif" font-size="14.00">77: degToRad()</text>
</g>
<!-- node_550d3e15&#45;&gt;node_47745195 -->
<g id="edge12" class="edge">
<title>node_550d3e15&#45;&gt;node_47745195</title>
<path fill="none" stroke="#0072b2" stroke-width="2" d="M940,-400.46C940,-405.2 940,-409 940,-409 940,-409 1310,-409 1310,-409 1310,-409 1310,-408.15 1310,-408.15"/>
<polygon fill="#0072b2" stroke="#0072b2" stroke-width="2" points="1313.5,-413.48 1310,-403.48 1306.5,-413.48 1313.5,-413.48"/>
</g>
<!-- node_85696316 -->
<g id="node24" class="node">
<title>node_85696316</title>
<path fill="#cccccc" stroke="black" d="M1415,-562C1415,-562 1204,-562 1204,-562 1198,-562 1192,-556 1192,-550 1192,-550 1192,-538 1192,-538 1192,-532 1198,-526 1204,-526 1204,-526 1415,-526 1415,-526 1421,-526 1427,-532 1427,-538 1427,-538 1427,-550 1427,-550 1427,-556 1421,-562 1415,-562"/>
<text text-anchor="middle" x="1309.5" y="-540.3" font-family="Times,serif" font-size="14.00">127: turnVectorAroundHorizontalAxis()</text>
</g>
<!-- node_550d3e15&#45;&gt;node_85696316 -->
<g id="edge16" class="edge">
<title>node_550d3e15&#45;&gt;node_85696316</title>
<path fill="none" stroke="#0072b2" stroke-width="2" d="M934,-400.27C934,-442.64 934,-544 934,-544 934,-544 1178.69,-544 1178.69,-544"/>
<polygon fill="#0072b2" stroke="#0072b2" stroke-width="2" points="1178.69,-547.5 1188.69,-544 1178.69,-540.5 1178.69,-547.5"/>
</g>
<!-- node_9c251123 -->
<g id="node25" class="node">
<title>node_9c251123</title>
<path fill="#6db33f" stroke="black" d="M1407,-508C1407,-508 1212,-508 1212,-508 1206,-508 1200,-502 1200,-496 1200,-496 1200,-484 1200,-484 1200,-478 1206,-472 1212,-472 1212,-472 1407,-472 1407,-472 1413,-472 1419,-478 1419,-484 1419,-484 1419,-496 1419,-496 1419,-502 1413,-508 1407,-508"/>
<text text-anchor="middle" x="1309.5" y="-486.3" font-family="Times,serif" font-size="14.00">114: turnVectorAroundVerticalAxis()</text>
</g>
<!-- node_550d3e15&#45;&gt;node_9c251123 -->
<g id="edge17" class="edge">
<title>node_550d3e15&#45;&gt;node_9c251123</title>
<path fill="none" stroke="#0072b2" stroke-width="2" d="M937,-400.32C937,-431.13 937,-490 937,-490 937,-490 1186.47,-490 1186.47,-490"/>
<polygon fill="#0072b2" stroke="#0072b2" stroke-width="2" points="1186.47,-493.5 1196.47,-490 1186.47,-486.5 1186.47,-493.5"/>
</g>
<!-- node_149f550a -->
<g id="node10" class="node">
<title>node_149f550a</title>
<path fill="#cccccc" stroke="black" d="M918,-454C918,-454 849,-454 849,-454 843,-454 837,-448 837,-442 837,-442 837,-430 837,-430 837,-424 843,-418 849,-418 849,-418 918,-418 918,-418 924,-418 930,-424 930,-430 930,-430 930,-442 930,-442 930,-448 924,-454 918,-454"/>
<text text-anchor="middle" x="883.5" y="-432.3" font-family="Times,serif" font-size="14.00">4: initFlying()</text>
</g>
<!-- node_149f550a&#45;&gt;node_43f357d7 -->
<g id="edge18" class="edge">
<title>node_149f550a&#45;&gt;node_43f357d7</title>
<path fill="none" stroke="#56b4e9" stroke-width="2" d="M930.07,-436C930.07,-436 990.79,-436 990.79,-436"/>
<polygon fill="#56b4e9" stroke="#56b4e9" stroke-width="2" points="990.79,-439.5 1000.79,-436 990.79,-432.5 990.79,-439.5"/>
</g>
<!-- node_59e9e8ee -->
<g id="node12" class="node">
<title>node_59e9e8ee</title>
<path fill="#cccccc" stroke="black" d="M725,-207C725,-207 691,-207 691,-207 685,-207 679,-201 679,-195 679,-195 679,-183 679,-183 679,-177 685,-171 691,-171 691,-171 725,-171 725,-171 731,-171 737,-177 737,-183 737,-183 737,-195 737,-195 737,-201 731,-207 725,-207"/>
<text text-anchor="middle" x="708" y="-185.3" font-family="Times,serif" font-size="14.00">4: init()</text>
</g>
<!-- node_59e9e8ee&#45;&gt;node_149f550a -->
<g id="edge19" class="edge">
<title>node_59e9e8ee&#45;&gt;node_149f550a</title>
<path fill="none" stroke="#d55e00" stroke-width="2" d="M737.32,-202.5C765.56,-202.5 804,-202.5 804,-202.5 804,-202.5 804,-436 804,-436 804,-436 823.77,-436 823.77,-436"/>
<polygon fill="#d55e00" stroke="#d55e00" stroke-width="2" points="823.77,-439.5 833.77,-436 823.77,-432.5 823.77,-439.5"/>
</g>
<!-- node_70c10bc0 -->
<g id="node13" class="node">
<title>node_70c10bc0</title>
<path fill="#cccccc" stroke="black" d="M941.5,-189C941.5,-189 825.5,-189 825.5,-189 819.5,-189 813.5,-183 813.5,-177 813.5,-177 813.5,-165 813.5,-165 813.5,-159 819.5,-153 825.5,-153 825.5,-153 941.5,-153 941.5,-153 947.5,-153 953.5,-159 953.5,-165 953.5,-165 953.5,-177 953.5,-177 953.5,-183 947.5,-189 941.5,-189"/>
<text text-anchor="middle" x="883.5" y="-167.3" font-family="Times,serif" font-size="14.00">198: initDevControls()</text>
</g>
<!-- node_59e9e8ee&#45;&gt;node_70c10bc0 -->
<g id="edge20" class="edge">
<title>node_59e9e8ee&#45;&gt;node_70c10bc0</title>
<path fill="none" stroke="#d55e00" stroke-width="2" d="M737.37,-183C737.37,-183 800.07,-183 800.07,-183"/>
<polygon fill="#d55e00" stroke="#d55e00" stroke-width="2" points="800.07,-186.5 810.07,-183 800.07,-179.5 800.07,-186.5"/>
</g>
<!-- node_efca8f90 -->
<g id="node14" class="node">
<title>node_efca8f90</title>
<path fill="#cccccc" stroke="black" d="M943,-317C943,-317 824,-317 824,-317 818,-317 812,-311 812,-305 812,-305 812,-293 812,-293 812,-287 818,-281 824,-281 824,-281 943,-281 943,-281 949,-281 955,-287 955,-293 955,-293 955,-305 955,-305 955,-311 949,-317 943,-317"/>
<text text-anchor="middle" x="883.5" y="-295.3" font-family="Times,serif" font-size="14.00">71: initOceanAndSky()</text>
</g>
<!-- node_59e9e8ee&#45;&gt;node_efca8f90 -->
<g id="edge21" class="edge">
<title>node_59e9e8ee&#45;&gt;node_efca8f90</title>
<path fill="none" stroke="#d55e00" stroke-width="2" d="M737.27,-198C771.64,-198 824,-198 824,-198 824,-198 824,-267.92 824,-267.92"/>
<polygon fill="#d55e00" stroke="#d55e00" stroke-width="2" points="820.5,-267.92 824,-277.92 827.5,-267.92 820.5,-267.92"/>
</g>
<!-- node_e01d3e26 -->
<g id="node15" class="node">
<title>node_e01d3e26</title>
<path fill="#6db33f" stroke="black" d="M920.5,-263C920.5,-263 846.5,-263 846.5,-263 840.5,-263 834.5,-257 834.5,-251 834.5,-251 834.5,-239 834.5,-239 834.5,-233 840.5,-227 846.5,-227 846.5,-227 920.5,-227 920.5,-227 926.5,-227 932.5,-233 932.5,-239 932.5,-239 932.5,-251 932.5,-251 932.5,-257 926.5,-263 920.5,-263"/>
<text text-anchor="middle" x="883.5" y="-241.3" font-family="Times,serif" font-size="14.00">120: initStats()</text>
</g>
<!-- node_59e9e8ee&#45;&gt;node_e01d3e26 -->
<g id="edge22" class="edge">
<title>node_59e9e8ee&#45;&gt;node_e01d3e26</title>
<path fill="none" stroke="#d55e00" stroke-width="2" d="M708,-207.3C708,-222.1 708,-240.5 708,-240.5 708,-240.5 821.12,-240.5 821.12,-240.5"/>
<polygon fill="#d55e00" stroke="#d55e00" stroke-width="2" points="821.12,-244 831.12,-240.5 821.12,-237 821.12,-244"/>
</g>
<!-- node_819f9ac9 -->
<g id="node17" class="node">
<title>node_819f9ac9</title>
<path fill="#6db33f" stroke="black" d="M1394.5,-207C1394.5,-207 1224.5,-207 1224.5,-207 1218.5,-207 1212.5,-201 1212.5,-195 1212.5,-195 1212.5,-183 1212.5,-183 1212.5,-177 1218.5,-171 1224.5,-171 1224.5,-171 1394.5,-171 1394.5,-171 1400.5,-171 1406.5,-177 1406.5,-183 1406.5,-183 1406.5,-195 1406.5,-195 1406.5,-201 1400.5,-207 1394.5,-207"/>
<text text-anchor="middle" x="1309.5" y="-185.3" font-family="Times,serif" font-size="14.00">180: showInvertedControlsDiv()</text>
</g>
<!-- node_59e9e8ee&#45;&gt;node_819f9ac9 -->
<g id="edge23" class="edge">
<title>node_59e9e8ee&#45;&gt;node_819f9ac9</title>
<path fill="none" stroke="#d55e00" stroke-width="2" d="M737.42,-193.5C737.42,-193.5 1199.05,-193.5 1199.05,-193.5"/>
<polygon fill="#d55e00" stroke="#d55e00" stroke-width="2" points="1199.05,-197 1209.05,-193.5 1199.05,-190 1199.05,-197"/>
</g>
<!-- node_d3163a43 -->
<g id="node19" class="node">
<title>node_d3163a43</title>
<path fill="#6db33f" stroke="black" d="M956,-106C956,-106 811,-106 811,-106 805,-106 799,-100 799,-94 799,-94 799,-82 799,-82 799,-76 805,-70 811,-70 811,-70 956,-70 956,-70 962,-70 968,-76 968,-82 968,-82 968,-94 968,-94 968,-100 962,-106 956,-106"/>
<text text-anchor="middle" x="883.5" y="-84.3" font-family="Times,serif" font-size="14.00">57: placeObstaclesObjects()</text>
</g>
<!-- node_59e9e8ee&#45;&gt;node_d3163a43 -->
<g id="edge24" class="edge">
<title>node_59e9e8ee&#45;&gt;node_d3163a43</title>
<path fill="none" stroke="#d55e00" stroke-width="2" d="M737.46,-177C766.96,-177 808,-177 808,-177 808,-177 808,-119.47 808,-119.47"/>
<polygon fill="#d55e00" stroke="#d55e00" stroke-width="2" points="811.5,-119.47 808,-109.47 804.5,-119.47 811.5,-119.47"/>
</g>
<!-- node_f7b35759 -->
<g id="node20" class="node">
<title>node_f7b35759</title>
<path fill="#6db33f" stroke="black" d="M942,-52C942,-52 825,-52 825,-52 819,-52 813,-46 813,-40 813,-40 813,-28 813,-28 813,-22 819,-16 825,-16 825,-16 942,-16 942,-16 948,-16 954,-22 954,-28 954,-28 954,-40 954,-40 954,-46 948,-52 942,-52"/>
<text text-anchor="middle" x="883.5" y="-30.3" font-family="Times,serif" font-size="14.00">4: placeTorusObjects()</text>
</g>
<!-- node_59e9e8ee&#45;&gt;node_f7b35759 -->
<g id="edge25" class="edge">
<title>node_59e9e8ee&#45;&gt;node_f7b35759</title>
<path fill="none" stroke="#d55e00" stroke-width="2" d="M708,-170.61C708,-129.55 708,-34 708,-34 708,-34 799.6,-34 799.6,-34"/>
<polygon fill="#d55e00" stroke="#d55e00" stroke-width="2" points="799.6,-37.5 809.6,-34 799.6,-30.5 799.6,-37.5"/>
</g>
<!-- node_ae60c151 -->
<g id="node16" class="node">
<title>node_ae60c151</title>
<path fill="#cccccc" stroke="black" d="M1133.5,-189C1133.5,-189 1026.5,-189 1026.5,-189 1020.5,-189 1014.5,-183 1014.5,-177 1014.5,-177 1014.5,-165 1014.5,-165 1014.5,-159 1020.5,-153 1026.5,-153 1026.5,-153 1133.5,-153 1133.5,-153 1139.5,-153 1145.5,-159 1145.5,-165 1145.5,-165 1145.5,-177 1145.5,-177 1145.5,-183 1139.5,-189 1133.5,-189"/>
<text text-anchor="middle" x="1080" y="-167.3" font-family="Times,serif" font-size="14.00">170: invertControls()</text>
</g>
<!-- node_70c10bc0&#45;&gt;node_ae60c151 -->
<g id="edge26" class="edge">
<title>node_70c10bc0&#45;&gt;node_ae60c151</title>
<path fill="none" stroke="#000000" stroke-width="2" d="M953.89,-171C953.89,-171 1001.01,-171 1001.01,-171"/>
<polygon fill="#000000" stroke="#000000" stroke-width="2" points="1001.01,-174.5 1011.01,-171 1001.01,-167.5 1001.01,-174.5"/>
</g>
<!-- node_efca8f90&#45;&gt;node_47745195 -->
<g id="edge27" class="edge">
<title>node_efca8f90&#45;&gt;node_47745195</title>
<path fill="none" stroke="#000000" stroke-width="2" d="M955.37,-299C1076.92,-299 1310,-299 1310,-299 1310,-299 1310,-350.55 1310,-350.55"/>
<polygon fill="#000000" stroke="#000000" stroke-width="2" points="1306.5,-350.55 1310,-360.55 1313.5,-350.55 1306.5,-350.55"/>
</g>
<!-- node_ae60c151&#45;&gt;node_819f9ac9 -->
<g id="edge29" class="edge">
<title>node_ae60c151&#45;&gt;node_819f9ac9</title>
<path fill="none" stroke="#e69f00" stroke-width="2" d="M1145.77,-180C1145.77,-180 1199.05,-180 1199.05,-180"/>
<polygon fill="#e69f00" stroke="#e69f00" stroke-width="2" points="1199.05,-183.5 1209.05,-180 1199.05,-176.5 1199.05,-183.5"/>
</g>
<!-- node_3b66be97 -->
<g id="node18" class="node">
<title>node_3b66be97</title>
<path fill="#966f33" stroke="black" d="M163,-231C163,-231 104,-231 104,-231 98,-231 92,-225 92,-219 92,-219 92,-207 92,-207 92,-201 98,-195 104,-195 104,-195 163,-195 163,-195 169,-195 175,-201 175,-207 175,-207 175,-219 175,-219 175,-225 169,-231 163,-231"/>
<text text-anchor="middle" x="133.5" y="-209.3" font-family="Times,serif" font-size="14.00">0: (global)()</text>
</g>
<!-- node_3b66be97&#45;&gt;node_3260cd9e -->
<g id="edge30" class="edge">
<title>node_3b66be97&#45;&gt;node_3260cd9e</title>
<path fill="none" stroke="#cc79a7" stroke-width="2" d="M175.38,-224.5C233.36,-224.5 331,-224.5 331,-224.5 331,-224.5 331,-231.62 331,-231.62"/>
<polygon fill="#cc79a7" stroke="#cc79a7" stroke-width="2" points="327.5,-231.62 331,-241.62 334.5,-231.62 327.5,-231.62"/>
</g>
<!-- node_3b66be97&#45;&gt;node_59e9e8ee -->
<g id="edge31" class="edge">
<title>node_3b66be97&#45;&gt;node_59e9e8ee</title>
<path fill="none" stroke="#cc79a7" stroke-width="2" d="M175.28,-203.5C175.28,-203.5 665.58,-203.5 665.58,-203.5"/>
<polygon fill="#cc79a7" stroke="#cc79a7" stroke-width="2" points="665.58,-207 675.58,-203.5 665.58,-200 665.58,-207"/>
</g>
<!-- node_ab32047d -->
<g id="node23" class="node">
<title>node_ab32047d</title>
<path fill="#6db33f" stroke="black" d="M1568,-562C1568,-562 1475,-562 1475,-562 1469,-562 1463,-556 1463,-550 1463,-550 1463,-538 1463,-538 1463,-532 1469,-526 1475,-526 1475,-526 1568,-526 1568,-526 1574,-526 1580,-532 1580,-538 1580,-538 1580,-550 1580,-550 1580,-556 1574,-562 1568,-562"/>
<text text-anchor="middle" x="1521.5" y="-540.3" font-family="Times,serif" font-size="14.00">189: showVector()</text>
</g>
<!-- node_85696316&#45;&gt;node_ab32047d -->
<g id="edge32" class="edge">
<title>node_85696316&#45;&gt;node_ab32047d</title>
<path fill="none" stroke="#d55e00" stroke-width="2" d="M1427.28,-544C1427.28,-544 1449.56,-544 1449.56,-544"/>
<polygon fill="#d55e00" stroke="#d55e00" stroke-width="2" points="1449.56,-547.5 1459.56,-544 1449.56,-540.5 1449.56,-547.5"/>
</g>
</g>
</svg>
