<?xml version="1.0" encoding="UTF-8" standalone="no"?>
<!DOCTYPE svg PUBLIC "-//W3C//DTD SVG 1.1//EN"
 "http://www.w3.org/Graphics/SVG/1.1/DTD/svg11.dtd">
<!-- Generated by graphviz version 7.0.1 (20221109.1506)
 -->
<!-- Title: G Pages: 1 -->
<svg width="1604pt" height="499pt"
 viewBox="0.00 0.00 1604.00 499.00" xmlns="http://www.w3.org/2000/svg" xmlns:xlink="http://www.w3.org/1999/xlink">
<g id="graph0" class="graph" transform="scale(1 1) rotate(0) translate(4 495)">
<title>G</title>
<polygon fill="white" stroke="none" points="-4,4 -4,-495 1600,-495 1600,4 -4,4"/>
<g id="clust2" class="cluster">
<title>cluster_7027e6fc</title>
<polygon fill="none" stroke="black" stroke-dasharray="1,5" points="295,-141 295,-378 625,-378 625,-141 295,-141"/>
<text text-anchor="middle" x="460" y="-362.8" font-family="Times,serif" font-size="14.00">File: fs&#45;animate</text>
</g>
<g id="clust3" class="cluster">
<title>cluster_1bbc105c</title>
<polygon fill="none" stroke="black" stroke-dasharray="1,5" points="816.5,-346 816.5,-475 1164,-475 1164,-346 816.5,-346"/>
<text text-anchor="middle" x="990.25" y="-459.8" font-family="Times,serif" font-size="14.00">File: fs&#45;fly</text>
</g>
<g id="clust4" class="cluster">
<title>cluster_a5bf78e5</title>
<polygon fill="none" stroke="black" stroke-dasharray="1,5" points="645,-145 645,-328 966.5,-328 966.5,-145 645,-145"/>
<text text-anchor="middle" x="805.75" y="-312.8" font-family="Times,serif" font-size="14.00">File: fs&#45;init</text>
</g>
<g id="clust5" class="cluster">
<title>cluster_9dfb2007</title>
<polygon fill="none" stroke="black" stroke-dasharray="1,5" points="84,-172 84,-247 183,-247 183,-172 84,-172"/>
<text text-anchor="middle" x="133.5" y="-231.8" font-family="Times,serif" font-size="14.00">File: fs&#45;main</text>
</g>
<g id="clust6" class="cluster">
<title>cluster_55dd08e3</title>
<polygon fill="none" stroke="black" stroke-dasharray="1,5" points="791,-8 791,-137 976,-137 976,-8 791,-8"/>
<text text-anchor="middle" x="883.5" y="-121.8" font-family="Times,serif" font-size="14.00">File: fs&#45;place&#45;objects</text>
</g>
<g id="clust7" class="cluster">
<title>cluster_e9cd0bd5</title>
<polygon fill="none" stroke="black" stroke-dasharray="1,5" points="1184,-246 1184,-483 1588,-483 1588,-246 1184,-246"/>
<text text-anchor="middle" x="1386" y="-467.8" font-family="Times,serif" font-size="14.00">File: helpers</text>
</g>
<!-- Legend -->
<g id="node1" class="node">
<title>Legend</title>
<polygon fill="none" stroke="black" points="1.5,-143 1.5,-160 266.5,-160 266.5,-143 1.5,-143"/>
<text text-anchor="start" x="81.5" y="-147.8" font-family="Times,serif" font-size="14.00">Code2flow Legend</text>
<polygon fill="none" stroke="black" points="1.5,-55 1.5,-143 266.5,-143 266.5,-55 1.5,-55"/>
<polygon fill="none" stroke="black" points="3.5,-120 3.5,-141 214.5,-141 214.5,-120 3.5,-120"/>
<text text-anchor="start" x="63" y="-126.8" font-family="Times,serif" font-size="14.00">Regular function</text>
<polygon fill="#cccccc" stroke="none" points="214.5,-120 214.5,-141 264.5,-141 264.5,-120 214.5,-120"/>
<polygon fill="none" stroke="black" points="214.5,-120 214.5,-141 264.5,-141 264.5,-120 214.5,-120"/>
<polygon fill="none" stroke="black" points="3.5,-99 3.5,-120 214.5,-120 214.5,-99 3.5,-99"/>
<text text-anchor="start" x="15" y="-105.8" font-family="Times,serif" font-size="14.00">Trunk function (nothing calls this)</text>
<polygon fill="#966f33" stroke="none" points="214.5,-99 214.5,-120 264.5,-120 264.5,-99 214.5,-99"/>
<polygon fill="none" stroke="black" points="214.5,-99 214.5,-120 264.5,-120 264.5,-99 214.5,-99"/>
<polygon fill="none" stroke="black" points="3.5,-78 3.5,-99 214.5,-99 214.5,-78 3.5,-78"/>
<text text-anchor="start" x="6.5" y="-84.8" font-family="Times,serif" font-size="14.00">Leaf function (this calls nothing else)</text>
<polygon fill="#6db33f" stroke="none" points="214.5,-78 214.5,-99 264.5,-99 264.5,-78 214.5,-78"/>
<polygon fill="none" stroke="black" points="214.5,-78 214.5,-99 264.5,-99 264.5,-78 214.5,-78"/>
<polygon fill="none" stroke="black" points="3.5,-57 3.5,-78 214.5,-78 214.5,-57 3.5,-57"/>
<text text-anchor="start" x="73" y="-63.8" font-family="Times,serif" font-size="14.00">Function call</text>
<polygon fill="none" stroke="black" points="214.5,-57 214.5,-78 264.5,-78 264.5,-57 214.5,-57"/>
<text text-anchor="start" x="232" y="-63.8" font-family="Times,serif" font-size="14.00">→</text>
<polygon fill="none" stroke="black" points="2.5,-56 2.5,-142 265.5,-142 265.5,-56 2.5,-56"/>
<polygon fill="none" stroke="black" points="0,-54.5 0,-161.5 267,-161.5 267,-54.5 0,-54.5"/>
</g>
<!-- node_6ecde593 -->
<g id="node2" class="node">
<title>node_6ecde593</title>
<path fill="#cccccc" stroke="black" d="M374,-266C374,-266 315,-266 315,-266 309,-266 303,-260 303,-254 303,-254 303,-242 303,-242 303,-236 309,-230 315,-230 315,-230 374,-230 374,-230 380,-230 386,-236 386,-242 386,-242 386,-254 386,-254 386,-260 380,-266 374,-266"/>
<text text-anchor="middle" x="344.5" y="-244.3" font-family="Times,serif" font-size="14.00">4: animate()</text>
</g>
<!-- node_4a8a27e3 -->
<g id="node3" class="node">
<title>node_4a8a27e3</title>
<path fill="#cccccc" stroke="black" d="M600.5,-185C600.5,-185 438.5,-185 438.5,-185 432.5,-185 426.5,-179 426.5,-173 426.5,-173 426.5,-161 426.5,-161 426.5,-155 432.5,-149 438.5,-149 438.5,-149 600.5,-149 600.5,-149 606.5,-149 612.5,-155 612.5,-161 612.5,-161 612.5,-173 612.5,-173 612.5,-179 606.5,-185 600.5,-185"/>
<text text-anchor="middle" x="519.5" y="-163.3" font-family="Times,serif" font-size="14.00">104: handleObstacleCollision()</text>
</g>
<!-- node_6ecde593&#45;&gt;node_4a8a27e3 -->
<g id="edge1" class="edge">
<title>node_6ecde593&#45;&gt;node_4a8a27e3</title>
<path fill="none" stroke="#009e73" stroke-width="2" d="M359,-229.69C359,-206.85 359,-170.75 359,-170.75 359,-170.75 413.11,-170.75 413.11,-170.75"/>
<polygon fill="#009e73" stroke="#009e73" stroke-width="2" points="413.11,-174.25 423.11,-170.75 413.11,-167.25 413.11,-174.25"/>
</g>
<!-- node_d5697265 -->
<g id="node4" class="node">
<title>node_d5697265</title>
<path fill="#6db33f" stroke="black" d="M605,-239C605,-239 434,-239 434,-239 428,-239 422,-233 422,-227 422,-227 422,-215 422,-215 422,-209 428,-203 434,-203 434,-203 605,-203 605,-203 611,-203 617,-209 617,-215 617,-215 617,-227 617,-227 617,-233 611,-239 605,-239"/>
<text text-anchor="middle" x="519.5" y="-217.3" font-family="Times,serif" font-size="14.00">118: handlePlaneOutOfBounds()</text>
</g>
<!-- node_6ecde593&#45;&gt;node_d5697265 -->
<g id="edge2" class="edge">
<title>node_6ecde593&#45;&gt;node_d5697265</title>
<path fill="none" stroke="#009e73" stroke-width="2" d="M386.42,-234.5C386.42,-234.5 408.71,-234.5 408.71,-234.5"/>
<polygon fill="#009e73" stroke="#009e73" stroke-width="2" points="408.71,-238 418.71,-234.5 408.71,-231 408.71,-238"/>
</g>
<!-- node_10d2dc91 -->
<g id="node5" class="node">
<title>node_10d2dc91</title>
<path fill="#cccccc" stroke="black" d="M564,-293C564,-293 475,-293 475,-293 469,-293 463,-287 463,-281 463,-281 463,-269 463,-269 463,-263 469,-257 475,-257 475,-257 564,-257 564,-257 570,-257 576,-263 576,-269 576,-269 576,-281 576,-281 576,-287 570,-293 564,-293"/>
<text text-anchor="middle" x="519.5" y="-271.3" font-family="Times,serif" font-size="14.00">28: handleScore()</text>
</g>
<!-- node_6ecde593&#45;&gt;node_10d2dc91 -->
<g id="edge3" class="edge">
<title>node_6ecde593&#45;&gt;node_10d2dc91</title>
<path fill="none" stroke="#009e73" stroke-width="2" d="M386.42,-261.5C386.42,-261.5 449.68,-261.5 449.68,-261.5"/>
<polygon fill="#009e73" stroke="#009e73" stroke-width="2" points="449.68,-265 459.68,-261.5 449.68,-258 449.68,-265"/>
</g>
<!-- node_6d86ba33 -->
<g id="node6" class="node">
<title>node_6d86ba33</title>
<path fill="#cccccc" stroke="black" d="M563.5,-347C563.5,-347 475.5,-347 475.5,-347 469.5,-347 463.5,-341 463.5,-335 463.5,-335 463.5,-323 463.5,-323 463.5,-317 469.5,-311 475.5,-311 475.5,-311 563.5,-311 563.5,-311 569.5,-311 575.5,-317 575.5,-323 575.5,-323 575.5,-335 575.5,-335 575.5,-341 569.5,-347 563.5,-347"/>
<text text-anchor="middle" x="519.5" y="-325.3" font-family="Times,serif" font-size="14.00">90: handleTime()</text>
</g>
<!-- node_6ecde593&#45;&gt;node_6d86ba33 -->
<g id="edge4" class="edge">
<title>node_6ecde593&#45;&gt;node_6d86ba33</title>
<path fill="none" stroke="#009e73" stroke-width="2" d="M359,-266.38C359,-290.28 359,-329 359,-329 359,-329 450.34,-329 450.34,-329"/>
<polygon fill="#009e73" stroke="#009e73" stroke-width="2" points="450.34,-332.5 460.34,-329 450.34,-325.5 450.34,-332.5"/>
</g>
<!-- node_adc93c5d -->
<g id="node9" class="node">
<title>node_adc93c5d</title>
<path fill="#cccccc" stroke="black" d="M930.5,-390C930.5,-390 836.5,-390 836.5,-390 830.5,-390 824.5,-384 824.5,-378 824.5,-378 824.5,-366 824.5,-366 824.5,-360 830.5,-354 836.5,-354 836.5,-354 930.5,-354 930.5,-354 936.5,-354 942.5,-360 942.5,-366 942.5,-366 942.5,-378 942.5,-378 942.5,-384 936.5,-390 930.5,-390"/>
<text text-anchor="middle" x="883.5" y="-368.3" font-family="Times,serif" font-size="14.00">54: handleFlying()</text>
</g>
<!-- node_6ecde593&#45;&gt;node_adc93c5d -->
<g id="edge5" class="edge">
<title>node_6ecde593&#45;&gt;node_adc93c5d</title>
<path fill="none" stroke="#009e73" stroke-width="2" d="M331,-266.3C331,-300.79 331,-372 331,-372 331,-372 811.08,-372 811.08,-372"/>
<polygon fill="#009e73" stroke="#009e73" stroke-width="2" points="811.08,-375.5 821.08,-372 811.08,-368.5 811.08,-375.5"/>
</g>
<!-- node_4787bd43 -->
<g id="node11" class="node">
<title>node_4787bd43</title>
<path fill="#6db33f" stroke="black" d="M751,-293C751,-293 665,-293 665,-293 659,-293 653,-287 653,-281 653,-281 653,-269 653,-269 653,-263 659,-257 665,-257 665,-257 751,-257 751,-257 757,-257 763,-263 763,-269 763,-269 763,-281 763,-281 763,-287 757,-293 751,-293"/>
<text text-anchor="middle" x="708" y="-271.3" font-family="Times,serif" font-size="14.00">201: gameOver()</text>
</g>
<!-- node_4a8a27e3&#45;&gt;node_4787bd43 -->
<g id="edge6" class="edge">
<title>node_4a8a27e3&#45;&gt;node_4787bd43</title>
<path fill="none" stroke="#009e73" stroke-width="2" d="M612.7,-169C641.59,-169 666,-169 666,-169 666,-169 666,-243.51 666,-243.51"/>
<polygon fill="#009e73" stroke="#009e73" stroke-width="2" points="662.5,-243.51 666,-253.51 669.5,-243.51 662.5,-243.51"/>
</g>
<!-- node_10d2dc91&#45;&gt;node_4787bd43 -->
<g id="edge7" class="edge">
<title>node_10d2dc91&#45;&gt;node_4787bd43</title>
<path fill="none" stroke="#e69f00" stroke-width="2" d="M576.31,-275C576.31,-275 639.57,-275 639.57,-275"/>
<polygon fill="#e69f00" stroke="#e69f00" stroke-width="2" points="639.57,-278.5 649.57,-275 639.57,-271.5 639.57,-278.5"/>
</g>
<!-- node_6d86ba33&#45;&gt;node_4787bd43 -->
<g id="edge9" class="edge">
<title>node_6d86ba33&#45;&gt;node_4787bd43</title>
<path fill="none" stroke="#009e73" stroke-width="2" d="M575.8,-335.75C631.35,-335.75 708,-335.75 708,-335.75 708,-335.75 708,-306.25 708,-306.25"/>
<polygon fill="#009e73" stroke="#009e73" stroke-width="2" points="711.5,-306.25 708,-296.25 704.5,-306.25 711.5,-306.25"/>
</g>
<!-- node_54d136c0 -->
<g id="node7" class="node">
<title>node_54d136c0</title>
<path fill="#6db33f" stroke="black" d="M1122,-390C1122,-390 1038,-390 1038,-390 1032,-390 1026,-384 1026,-378 1026,-378 1026,-366 1026,-366 1026,-360 1032,-354 1038,-354 1038,-354 1122,-354 1122,-354 1128,-354 1134,-360 1134,-366 1134,-366 1134,-378 1134,-378 1134,-384 1128,-390 1122,-390"/>
<text text-anchor="middle" x="1080" y="-368.3" font-family="Times,serif" font-size="14.00">146: calcSpeed()</text>
</g>
<!-- node_0cb94f34 -->
<g id="node8" class="node">
<title>node_0cb94f34</title>
<path fill="#cccccc" stroke="black" d="M1144,-444C1144,-444 1016,-444 1016,-444 1010,-444 1004,-438 1004,-432 1004,-432 1004,-420 1004,-420 1004,-414 1010,-408 1016,-408 1016,-408 1144,-408 1144,-408 1150,-408 1156,-414 1156,-420 1156,-420 1156,-432 1156,-432 1156,-438 1150,-444 1144,-444"/>
<text text-anchor="middle" x="1080" y="-422.3" font-family="Times,serif" font-size="14.00">123: createModelPlane()</text>
</g>
<!-- node_3212c969 -->
<g id="node20" class="node">
<title>node_3212c969</title>
<path fill="#6db33f" stroke="black" d="M1395.5,-398C1395.5,-398 1223.5,-398 1223.5,-398 1217.5,-398 1211.5,-392 1211.5,-386 1211.5,-386 1211.5,-374 1211.5,-374 1211.5,-368 1217.5,-362 1223.5,-362 1223.5,-362 1395.5,-362 1395.5,-362 1401.5,-362 1407.5,-368 1407.5,-374 1407.5,-374 1407.5,-386 1407.5,-386 1407.5,-392 1401.5,-398 1395.5,-398"/>
<text text-anchor="middle" x="1309.5" y="-376.3" font-family="Times,serif" font-size="14.00">9: getMashFromBlenderModel()</text>
</g>
<!-- node_0cb94f34&#45;&gt;node_3212c969 -->
<g id="edge10" class="edge">
<title>node_0cb94f34&#45;&gt;node_3212c969</title>
<path fill="none" stroke="#f0e442" stroke-width="2" d="M1145,-407.76C1145,-400.57 1145,-394 1145,-394 1145,-394 1198.41,-394 1198.41,-394"/>
<polygon fill="#f0e442" stroke="#f0e442" stroke-width="2" points="1198.41,-397.5 1208.41,-394 1198.41,-390.5 1198.41,-397.5"/>
</g>
<!-- node_adc93c5d&#45;&gt;node_54d136c0 -->
<g id="edge11" class="edge">
<title>node_adc93c5d&#45;&gt;node_54d136c0</title>
<path fill="none" stroke="#0072b2" stroke-width="2" d="M942.99,-378C942.99,-378 1012.71,-378 1012.71,-378"/>
<polygon fill="#0072b2" stroke="#0072b2" stroke-width="2" points="1012.71,-381.5 1022.71,-378 1012.71,-374.5 1012.71,-381.5"/>
</g>
<!-- node_95c541d4 -->
<g id="node19" class="node">
<title>node_95c541d4</title>
<path fill="#6db33f" stroke="black" d="M1348.5,-344C1348.5,-344 1270.5,-344 1270.5,-344 1264.5,-344 1258.5,-338 1258.5,-332 1258.5,-332 1258.5,-320 1258.5,-320 1258.5,-314 1264.5,-308 1270.5,-308 1270.5,-308 1348.5,-308 1348.5,-308 1354.5,-308 1360.5,-314 1360.5,-320 1360.5,-320 1360.5,-332 1360.5,-332 1360.5,-338 1354.5,-344 1348.5,-344"/>
<text text-anchor="middle" x="1309.5" y="-322.3" font-family="Times,serif" font-size="14.00">82: degToRad()</text>
</g>
<!-- node_adc93c5d&#45;&gt;node_95c541d4 -->
<g id="edge12" class="edge">
<title>node_adc93c5d&#45;&gt;node_95c541d4</title>
<path fill="none" stroke="#0072b2" stroke-width="2" d="M884,-353.64C884,-341.39 884,-327.5 884,-327.5 884,-327.5 1245.15,-327.5 1245.15,-327.5"/>
<polygon fill="#0072b2" stroke="#0072b2" stroke-width="2" points="1245.15,-331 1255.15,-327.5 1245.15,-324 1245.15,-331"/>
</g>
<!-- node_5872f10e -->
<g id="node22" class="node">
<title>node_5872f10e</title>
<path fill="#cccccc" stroke="black" d="M1415,-290C1415,-290 1204,-290 1204,-290 1198,-290 1192,-284 1192,-278 1192,-278 1192,-266 1192,-266 1192,-260 1198,-254 1204,-254 1204,-254 1415,-254 1415,-254 1421,-254 1427,-260 1427,-266 1427,-266 1427,-278 1427,-278 1427,-284 1421,-290 1415,-290"/>
<text text-anchor="middle" x="1309.5" y="-268.3" font-family="Times,serif" font-size="14.00">131: turnVectorAroundHorizontalAxis()</text>
</g>
<!-- node_adc93c5d&#45;&gt;node_5872f10e -->
<g id="edge16" class="edge">
<title>node_adc93c5d&#45;&gt;node_5872f10e</title>
<path fill="none" stroke="#0072b2" stroke-width="2" d="M942.85,-366C954.92,-366 964,-366 964,-366 964,-366 964,-275.5 964,-275.5 964,-275.5 1178.54,-275.5 1178.54,-275.5"/>
<polygon fill="#0072b2" stroke="#0072b2" stroke-width="2" points="1178.54,-279 1188.54,-275.5 1178.54,-272 1178.54,-279"/>
</g>
<!-- node_73c41007 -->
<g id="node23" class="node">
<title>node_73c41007</title>
<path fill="#6db33f" stroke="black" d="M1407,-452C1407,-452 1212,-452 1212,-452 1206,-452 1200,-446 1200,-440 1200,-440 1200,-428 1200,-428 1200,-422 1206,-416 1212,-416 1212,-416 1407,-416 1407,-416 1413,-416 1419,-422 1419,-428 1419,-428 1419,-440 1419,-440 1419,-446 1413,-452 1407,-452"/>
<text text-anchor="middle" x="1309.5" y="-430.3" font-family="Times,serif" font-size="14.00">118: turnVectorAroundVerticalAxis()</text>
</g>
<!-- node_adc93c5d&#45;&gt;node_73c41007 -->
<g id="edge17" class="edge">
<title>node_adc93c5d&#45;&gt;node_73c41007</title>
<path fill="none" stroke="#0072b2" stroke-width="2" d="M938,-390.4C938,-412.89 938,-448 938,-448 938,-448 1186.52,-448 1186.52,-448"/>
<polygon fill="#0072b2" stroke="#0072b2" stroke-width="2" points="1186.52,-451.5 1196.52,-448 1186.52,-444.5 1186.52,-451.5"/>
</g>
<!-- node_ca1fa29e -->
<g id="node10" class="node">
<title>node_ca1fa29e</title>
<path fill="#cccccc" stroke="black" d="M921.5,-444C921.5,-444 845.5,-444 845.5,-444 839.5,-444 833.5,-438 833.5,-432 833.5,-432 833.5,-420 833.5,-420 833.5,-414 839.5,-408 845.5,-408 845.5,-408 921.5,-408 921.5,-408 927.5,-408 933.5,-414 933.5,-420 933.5,-420 933.5,-432 933.5,-432 933.5,-438 927.5,-444 921.5,-444"/>
<text text-anchor="middle" x="883.5" y="-422.3" font-family="Times,serif" font-size="14.00">15: initFlying()</text>
</g>
<!-- node_ca1fa29e&#45;&gt;node_0cb94f34 -->
<g id="edge18" class="edge">
<title>node_ca1fa29e&#45;&gt;node_0cb94f34</title>
<path fill="none" stroke="#d55e00" stroke-width="2" d="M933.85,-426C933.85,-426 990.77,-426 990.77,-426"/>
<polygon fill="#d55e00" stroke="#d55e00" stroke-width="2" points="990.77,-429.5 1000.77,-426 990.77,-422.5 990.77,-429.5"/>
</g>
<!-- node_65b992e3 -->
<g id="node12" class="node">
<title>node_65b992e3</title>
<path fill="#cccccc" stroke="black" d="M725,-189C725,-189 691,-189 691,-189 685,-189 679,-183 679,-177 679,-177 679,-165 679,-165 679,-159 685,-153 691,-153 691,-153 725,-153 725,-153 731,-153 737,-159 737,-165 737,-165 737,-177 737,-177 737,-183 731,-189 725,-189"/>
<text text-anchor="middle" x="708" y="-167.3" font-family="Times,serif" font-size="14.00">4: init()</text>
</g>
<!-- node_65b992e3&#45;&gt;node_ca1fa29e -->
<g id="edge19" class="edge">
<title>node_65b992e3&#45;&gt;node_ca1fa29e</title>
<path fill="none" stroke="#009e73" stroke-width="2" d="M737.27,-183C757.58,-183 781,-183 781,-183 781,-183 781,-426 781,-426 781,-426 820.12,-426 820.12,-426"/>
<polygon fill="#009e73" stroke="#009e73" stroke-width="2" points="820.12,-429.5 830.12,-426 820.12,-422.5 820.12,-429.5"/>
</g>
<!-- node_8626bcd2 -->
<g id="node13" class="node">
<title>node_8626bcd2</title>
<path fill="#6db33f" stroke="black" d="M941.5,-243C941.5,-243 825.5,-243 825.5,-243 819.5,-243 813.5,-237 813.5,-231 813.5,-231 813.5,-219 813.5,-219 813.5,-213 819.5,-207 825.5,-207 825.5,-207 941.5,-207 941.5,-207 947.5,-207 953.5,-213 953.5,-219 953.5,-219 953.5,-231 953.5,-231 953.5,-237 947.5,-243 941.5,-243"/>
<text text-anchor="middle" x="883.5" y="-221.3" font-family="Times,serif" font-size="14.00">251: initDevControls()</text>
</g>
<!-- node_65b992e3&#45;&gt;node_8626bcd2 -->
<g id="edge20" class="edge">
<title>node_65b992e3&#45;&gt;node_8626bcd2</title>
<path fill="none" stroke="#009e73" stroke-width="2" d="M737.27,-171C771.64,-171 824,-171 824,-171 824,-171 824,-193.69 824,-193.69"/>
<polygon fill="#009e73" stroke="#009e73" stroke-width="2" points="820.5,-193.69 824,-203.69 827.5,-193.69 820.5,-193.69"/>
</g>
<!-- node_7ffcc04d -->
<g id="node14" class="node">
<title>node_7ffcc04d</title>
<path fill="#cccccc" stroke="black" d="M946.5,-297C946.5,-297 820.5,-297 820.5,-297 814.5,-297 808.5,-291 808.5,-285 808.5,-285 808.5,-273 808.5,-273 808.5,-267 814.5,-261 820.5,-261 820.5,-261 946.5,-261 946.5,-261 952.5,-261 958.5,-267 958.5,-273 958.5,-273 958.5,-285 958.5,-285 958.5,-291 952.5,-297 946.5,-297"/>
<text text-anchor="middle" x="883.5" y="-275.3" font-family="Times,serif" font-size="14.00">139: initOceanAndSky()</text>
</g>
<!-- node_65b992e3&#45;&gt;node_7ffcc04d -->
<g id="edge21" class="edge">
<title>node_65b992e3&#45;&gt;node_7ffcc04d</title>
<path fill="none" stroke="#009e73" stroke-width="2" d="M737.28,-177C765.19,-177 803,-177 803,-177 803,-177 803,-277 803,-277 803,-277 803.53,-277 803.53,-277"/>
<polygon fill="#009e73" stroke="#009e73" stroke-width="2" points="795.25,-280.5 805.25,-277 795.25,-273.5 795.25,-280.5"/>
</g>
<!-- node_9d9da669 -->
<g id="node15" class="node">
<title>node_9d9da669</title>
<path fill="#6db33f" stroke="black" d="M920.5,-189C920.5,-189 846.5,-189 846.5,-189 840.5,-189 834.5,-183 834.5,-177 834.5,-177 834.5,-165 834.5,-165 834.5,-159 840.5,-153 846.5,-153 846.5,-153 920.5,-153 920.5,-153 926.5,-153 932.5,-159 932.5,-165 932.5,-165 932.5,-177 932.5,-177 932.5,-183 926.5,-189 920.5,-189"/>
<text text-anchor="middle" x="883.5" y="-167.3" font-family="Times,serif" font-size="14.00">186: initStats()</text>
</g>
<!-- node_65b992e3&#45;&gt;node_9d9da669 -->
<g id="edge22" class="edge">
<title>node_65b992e3&#45;&gt;node_9d9da669</title>
<path fill="none" stroke="#009e73" stroke-width="2" d="M737.37,-165C737.37,-165 821.06,-165 821.06,-165"/>
<polygon fill="#009e73" stroke="#009e73" stroke-width="2" points="821.06,-168.5 831.06,-165 821.06,-161.5 821.06,-168.5"/>
</g>
<!-- node_aca1d725 -->
<g id="node17" class="node">
<title>node_aca1d725</title>
<path fill="#6db33f" stroke="black" d="M956,-106C956,-106 811,-106 811,-106 805,-106 799,-100 799,-94 799,-94 799,-82 799,-82 799,-76 805,-70 811,-70 811,-70 956,-70 956,-70 962,-70 968,-76 968,-82 968,-82 968,-94 968,-94 968,-100 962,-106 956,-106"/>
<text text-anchor="middle" x="883.5" y="-84.3" font-family="Times,serif" font-size="14.00">57: placeObstaclesObjects()</text>
</g>
<!-- node_65b992e3&#45;&gt;node_aca1d725 -->
<g id="edge23" class="edge">
<title>node_65b992e3&#45;&gt;node_aca1d725</title>
<path fill="none" stroke="#009e73" stroke-width="2" d="M737.4,-159C766.27,-159 806,-159 806,-159 806,-159 806,-119.31 806,-119.31"/>
<polygon fill="#009e73" stroke="#009e73" stroke-width="2" points="809.5,-119.31 806,-109.31 802.5,-119.31 809.5,-119.31"/>
</g>
<!-- node_deb5bbdf -->
<g id="node18" class="node">
<title>node_deb5bbdf</title>
<path fill="#6db33f" stroke="black" d="M941.5,-52C941.5,-52 825.5,-52 825.5,-52 819.5,-52 813.5,-46 813.5,-40 813.5,-40 813.5,-28 813.5,-28 813.5,-22 819.5,-16 825.5,-16 825.5,-16 941.5,-16 941.5,-16 947.5,-16 953.5,-22 953.5,-28 953.5,-28 953.5,-40 953.5,-40 953.5,-46 947.5,-52 941.5,-52"/>
<text text-anchor="middle" x="883.5" y="-30.3" font-family="Times,serif" font-size="14.00">4: placeTorusObjects()</text>
</g>
<!-- node_65b992e3&#45;&gt;node_deb5bbdf -->
<g id="edge24" class="edge">
<title>node_65b992e3&#45;&gt;node_deb5bbdf</title>
<path fill="none" stroke="#009e73" stroke-width="2" d="M708,-152.52C708,-115.13 708,-34 708,-34 708,-34 800.1,-34 800.1,-34"/>
<polygon fill="#009e73" stroke="#009e73" stroke-width="2" points="800.1,-37.5 810.1,-34 800.1,-30.5 800.1,-37.5"/>
</g>
<!-- node_7ffcc04d&#45;&gt;node_95c541d4 -->
<g id="edge25" class="edge">
<title>node_7ffcc04d&#45;&gt;node_95c541d4</title>
<path fill="none" stroke="#0072b2" stroke-width="2" d="M951,-297.24C951,-307.89 951,-319.25 951,-319.25 951,-319.25 1245.11,-319.25 1245.11,-319.25"/>
<polygon fill="#0072b2" stroke="#0072b2" stroke-width="2" points="1245.11,-322.75 1255.11,-319.25 1245.11,-315.75 1245.11,-322.75"/>
</g>
<!-- node_7997cb37 -->
<g id="node16" class="node">
<title>node_7997cb37</title>
<path fill="#966f33" stroke="black" d="M163,-216C163,-216 104,-216 104,-216 98,-216 92,-210 92,-204 92,-204 92,-192 92,-192 92,-186 98,-180 104,-180 104,-180 163,-180 163,-180 169,-180 175,-186 175,-192 175,-192 175,-204 175,-204 175,-210 169,-216 163,-216"/>
<text text-anchor="middle" x="133.5" y="-194.3" font-family="Times,serif" font-size="14.00">0: (global)()</text>
</g>
<!-- node_7997cb37&#45;&gt;node_6ecde593 -->
<g id="edge27" class="edge">
<title>node_7997cb37&#45;&gt;node_6ecde593</title>
<path fill="none" stroke="#cc79a7" stroke-width="2" d="M175.38,-209.5C233.36,-209.5 331,-209.5 331,-209.5 331,-209.5 331,-216.62 331,-216.62"/>
<polygon fill="#cc79a7" stroke="#cc79a7" stroke-width="2" points="327.5,-216.62 331,-226.62 334.5,-216.62 327.5,-216.62"/>
</g>
<!-- node_7997cb37&#45;&gt;node_65b992e3 -->
<g id="edge28" class="edge">
<title>node_7997cb37&#45;&gt;node_65b992e3</title>
<path fill="none" stroke="#cc79a7" stroke-width="2" d="M175.28,-196C307.48,-196 708,-196 708,-196 708,-196 708,-195.34 708,-195.34"/>
<polygon fill="#cc79a7" stroke="#cc79a7" stroke-width="2" points="711.5,-202.46 708,-192.46 704.5,-202.46 711.5,-202.46"/>
</g>
<!-- node_b1c03325 -->
<g id="node21" class="node">
<title>node_b1c03325</title>
<path fill="#6db33f" stroke="black" d="M1568,-290C1568,-290 1475,-290 1475,-290 1469,-290 1463,-284 1463,-278 1463,-278 1463,-266 1463,-266 1463,-260 1469,-254 1475,-254 1475,-254 1568,-254 1568,-254 1574,-254 1580,-260 1580,-266 1580,-266 1580,-278 1580,-278 1580,-284 1574,-290 1568,-290"/>
<text text-anchor="middle" x="1521.5" y="-268.3" font-family="Times,serif" font-size="14.00">193: showVector()</text>
</g>
<!-- node_5872f10e&#45;&gt;node_b1c03325 -->
<g id="edge29" class="edge">
<title>node_5872f10e&#45;&gt;node_b1c03325</title>
<path fill="none" stroke="#d55e00" stroke-width="2" d="M1427.28,-272C1427.28,-272 1449.56,-272 1449.56,-272"/>
<polygon fill="#d55e00" stroke="#d55e00" stroke-width="2" points="1449.56,-275.5 1459.56,-272 1449.56,-268.5 1449.56,-275.5"/>
</g>
</g>
</svg>
