<?xml version="1.0" encoding="UTF-8" standalone="no"?>
<!DOCTYPE svg PUBLIC "-//W3C//DTD SVG 1.1//EN"
 "http://www.w3.org/Graphics/SVG/1.1/DTD/svg11.dtd">
<!-- Generated by graphviz version 7.0.1 (20221109.1506)
 -->
<!-- Title: G Pages: 1 -->
<svg width="1293pt" height="951pt"
 viewBox="0.00 0.00 1293.00 951.00" xmlns="http://www.w3.org/2000/svg" xmlns:xlink="http://www.w3.org/1999/xlink">
<g id="graph0" class="graph" transform="scale(1 1) rotate(0) translate(4 947)">
<title>G</title>
<polygon fill="white" stroke="none" points="-4,4 -4,-947 1289,-947 1289,4 -4,4"/>
<g id="clust2" class="cluster">
<title>cluster_1d865d90</title>
<polygon fill="none" stroke="black" stroke-dasharray="1,5" points="295,-725 295,-800 394,-800 394,-725 295,-725"/>
<text text-anchor="middle" x="344.5" y="-784.8" font-family="Times,serif" font-size="14.00">File: animate</text>
</g>
<g id="clust3" class="cluster">
<title>cluster_95f64444</title>
<polygon fill="none" stroke="black" stroke-dasharray="1,5" points="873,-262 873,-553 1277,-553 1277,-262 873,-262"/>
<text text-anchor="middle" x="1075" y="-537.8" font-family="Times,serif" font-size="14.00">File: helpers</text>
</g>
<g id="clust4" class="cluster">
<title>cluster_f295dbea</title>
<polygon fill="none" stroke="black" stroke-dasharray="1,5" points="307.5,-91 307.5,-382 615.5,-382 615.5,-91 307.5,-91"/>
<text text-anchor="middle" x="461.5" y="-366.8" font-family="Times,serif" font-size="14.00">File: init</text>
</g>
<g id="clust5" class="cluster">
<title>cluster_74cb0e3d</title>
<polygon fill="none" stroke="black" stroke-dasharray="1,5" points="414,-590 414,-935 853,-935 853,-590 414,-590"/>
<text text-anchor="middle" x="633.5" y="-919.8" font-family="Times,serif" font-size="14.00">File: interactions</text>
</g>
<g id="clust6" class="cluster">
<title>cluster_a07b21c6</title>
<polygon fill="none" stroke="black" stroke-dasharray="1,5" points="84,-502 84,-577 183,-577 183,-502 84,-502"/>
<text text-anchor="middle" x="133.5" y="-561.8" font-family="Times,serif" font-size="14.00">File: main</text>
</g>
<g id="clust7" class="cluster">
<title>cluster_d8825df2</title>
<polygon fill="none" stroke="black" stroke-dasharray="1,5" points="456,-8 456,-83 575,-83 575,-8 456,-8"/>
<text text-anchor="middle" x="515.5" y="-67.8" font-family="Times,serif" font-size="14.00">File: place&#45;lights</text>
</g>
<g id="clust8" class="cluster">
<title>cluster_dcb995d4</title>
<polygon fill="none" stroke="black" stroke-dasharray="1,5" points="682,-316 682,-391 808,-391 808,-316 682,-316"/>
<text text-anchor="middle" x="745" y="-375.8" font-family="Times,serif" font-size="14.00">File: place&#45;objects</text>
</g>
<g id="clust9" class="cluster">
<title>cluster_f47f81e6</title>
<polygon fill="none" stroke="black" stroke-dasharray="1,5" points="422.5,-399 422.5,-582 819.5,-582 819.5,-399 422.5,-399"/>
<text text-anchor="middle" x="621" y="-566.8" font-family="Times,serif" font-size="14.00">File: walk</text>
</g>
<!-- Legend -->
<g id="node1" class="node">
<title>Legend</title>
<polygon fill="none" stroke="black" points="1.5,-473 1.5,-490 266.5,-490 266.5,-473 1.5,-473"/>
<text text-anchor="start" x="81.5" y="-477.8" font-family="Times,serif" font-size="14.00">Code2flow Legend</text>
<polygon fill="none" stroke="black" points="1.5,-385 1.5,-473 266.5,-473 266.5,-385 1.5,-385"/>
<polygon fill="none" stroke="black" points="3.5,-450 3.5,-471 214.5,-471 214.5,-450 3.5,-450"/>
<text text-anchor="start" x="63" y="-456.8" font-family="Times,serif" font-size="14.00">Regular function</text>
<polygon fill="#cccccc" stroke="none" points="214.5,-450 214.5,-471 264.5,-471 264.5,-450 214.5,-450"/>
<polygon fill="none" stroke="black" points="214.5,-450 214.5,-471 264.5,-471 264.5,-450 214.5,-450"/>
<polygon fill="none" stroke="black" points="3.5,-429 3.5,-450 214.5,-450 214.5,-429 3.5,-429"/>
<text text-anchor="start" x="15" y="-435.8" font-family="Times,serif" font-size="14.00">Trunk function (nothing calls this)</text>
<polygon fill="#966f33" stroke="none" points="214.5,-429 214.5,-450 264.5,-450 264.5,-429 214.5,-429"/>
<polygon fill="none" stroke="black" points="214.5,-429 214.5,-450 264.5,-450 264.5,-429 214.5,-429"/>
<polygon fill="none" stroke="black" points="3.5,-408 3.5,-429 214.5,-429 214.5,-408 3.5,-408"/>
<text text-anchor="start" x="6.5" y="-414.8" font-family="Times,serif" font-size="14.00">Leaf function (this calls nothing else)</text>
<polygon fill="#6db33f" stroke="none" points="214.5,-408 214.5,-429 264.5,-429 264.5,-408 214.5,-408"/>
<polygon fill="none" stroke="black" points="214.5,-408 214.5,-429 264.5,-429 264.5,-408 214.5,-408"/>
<polygon fill="none" stroke="black" points="3.5,-387 3.5,-408 214.5,-408 214.5,-387 3.5,-387"/>
<text text-anchor="start" x="73" y="-393.8" font-family="Times,serif" font-size="14.00">Function call</text>
<polygon fill="none" stroke="black" points="214.5,-387 214.5,-408 264.5,-408 264.5,-387 214.5,-387"/>
<text text-anchor="start" x="232" y="-393.8" font-family="Times,serif" font-size="14.00">→</text>
<polygon fill="none" stroke="black" points="2.5,-386 2.5,-472 265.5,-472 265.5,-386 2.5,-386"/>
<polygon fill="none" stroke="black" points="0,-384.5 0,-491.5 267,-491.5 267,-384.5 0,-384.5"/>
</g>
<!-- node_c8cf84d3 -->
<g id="node2" class="node">
<title>node_c8cf84d3</title>
<path fill="#cccccc" stroke="black" d="M374,-769C374,-769 315,-769 315,-769 309,-769 303,-763 303,-757 303,-757 303,-745 303,-745 303,-739 309,-733 315,-733 315,-733 374,-733 374,-733 380,-733 386,-739 386,-745 386,-745 386,-757 386,-757 386,-763 380,-769 374,-769"/>
<text text-anchor="middle" x="344.5" y="-747.3" font-family="Times,serif" font-size="14.00">6: animate()</text>
</g>
<!-- node_2ec89722 -->
<g id="node15" class="node">
<title>node_2ec89722</title>
<path fill="#6db33f" stroke="black" d="M589.5,-904C589.5,-904 441.5,-904 441.5,-904 435.5,-904 429.5,-898 429.5,-892 429.5,-892 429.5,-880 429.5,-880 429.5,-874 435.5,-868 441.5,-868 441.5,-868 589.5,-868 589.5,-868 595.5,-868 601.5,-874 601.5,-880 601.5,-880 601.5,-892 601.5,-892 601.5,-898 595.5,-904 589.5,-904"/>
<text text-anchor="middle" x="515.5" y="-882.3" font-family="Times,serif" font-size="14.00">278: handleAnimateChairs()</text>
</g>
<!-- node_c8cf84d3&#45;&gt;node_2ec89722 -->
<g id="edge1" class="edge">
<title>node_c8cf84d3&#45;&gt;node_2ec89722</title>
<path fill="none" stroke="#009e73" stroke-width="2" d="M331,-769.49C331,-806.46 331,-886 331,-886 331,-886 416.17,-886 416.17,-886"/>
<polygon fill="#009e73" stroke="#009e73" stroke-width="2" points="416.17,-889.5 426.17,-886 416.17,-882.5 416.17,-889.5"/>
</g>
<!-- node_d007b539 -->
<g id="node16" class="node">
<title>node_d007b539</title>
<path fill="#6db33f" stroke="black" d="M591.5,-850C591.5,-850 439.5,-850 439.5,-850 433.5,-850 427.5,-844 427.5,-838 427.5,-838 427.5,-826 427.5,-826 427.5,-820 433.5,-814 439.5,-814 439.5,-814 591.5,-814 591.5,-814 597.5,-814 603.5,-820 603.5,-826 603.5,-826 603.5,-838 603.5,-838 603.5,-844 597.5,-850 591.5,-850"/>
<text text-anchor="middle" x="515.5" y="-828.3" font-family="Times,serif" font-size="14.00">488: handleAnimateClosets()</text>
</g>
<!-- node_c8cf84d3&#45;&gt;node_d007b539 -->
<g id="edge2" class="edge">
<title>node_c8cf84d3&#45;&gt;node_d007b539</title>
<path fill="none" stroke="#009e73" stroke-width="2" d="M359,-769.38C359,-793.28 359,-832 359,-832 359,-832 414.16,-832 414.16,-832"/>
<polygon fill="#009e73" stroke="#009e73" stroke-width="2" points="414.16,-835.5 424.16,-832 414.16,-828.5 414.16,-835.5"/>
</g>
<!-- node_535b4ede -->
<g id="node17" class="node">
<title>node_535b4ede</title>
<path fill="#6db33f" stroke="black" d="M597,-796C597,-796 434,-796 434,-796 428,-796 422,-790 422,-784 422,-784 422,-772 422,-772 422,-766 428,-760 434,-760 434,-760 597,-760 597,-760 603,-760 609,-766 609,-772 609,-772 609,-784 609,-784 609,-790 603,-796 597,-796"/>
<text text-anchor="middle" x="515.5" y="-774.3" font-family="Times,serif" font-size="14.00">591: handleBlackboardInertia()</text>
</g>
<!-- node_c8cf84d3&#45;&gt;node_535b4ede -->
<g id="edge3" class="edge">
<title>node_c8cf84d3&#45;&gt;node_535b4ede</title>
<path fill="none" stroke="#009e73" stroke-width="2" d="M386.33,-764.5C386.33,-764.5 408.74,-764.5 408.74,-764.5"/>
<polygon fill="#009e73" stroke="#009e73" stroke-width="2" points="408.74,-768 418.74,-764.5 408.74,-761 408.74,-768"/>
</g>
<!-- node_ae71cf3d -->
<g id="node18" class="node">
<title>node_ae71cf3d</title>
<path fill="#6db33f" stroke="black" d="M569.5,-742C569.5,-742 461.5,-742 461.5,-742 455.5,-742 449.5,-736 449.5,-730 449.5,-730 449.5,-718 449.5,-718 449.5,-712 455.5,-706 461.5,-706 461.5,-706 569.5,-706 569.5,-706 575.5,-706 581.5,-712 581.5,-718 581.5,-718 581.5,-730 581.5,-730 581.5,-736 575.5,-742 569.5,-742"/>
<text text-anchor="middle" x="515.5" y="-720.3" font-family="Times,serif" font-size="14.00">558: handleInfoDiv()</text>
</g>
<!-- node_c8cf84d3&#45;&gt;node_ae71cf3d -->
<g id="edge4" class="edge">
<title>node_c8cf84d3&#45;&gt;node_ae71cf3d</title>
<path fill="none" stroke="#009e73" stroke-width="2" d="M386.33,-737.5C386.33,-737.5 436.09,-737.5 436.09,-737.5"/>
<polygon fill="#009e73" stroke="#009e73" stroke-width="2" points="436.09,-741 446.09,-737.5 436.09,-734 436.09,-741"/>
</g>
<!-- node_c611ad60 -->
<g id="node31" class="node">
<title>node_c611ad60</title>
<path fill="#cccccc" stroke="black" d="M571.5,-551C571.5,-551 459.5,-551 459.5,-551 453.5,-551 447.5,-545 447.5,-539 447.5,-539 447.5,-527 447.5,-527 447.5,-521 453.5,-515 459.5,-515 459.5,-515 571.5,-515 571.5,-515 577.5,-515 583.5,-521 583.5,-527 583.5,-527 583.5,-539 583.5,-539 583.5,-545 577.5,-551 571.5,-551"/>
<text text-anchor="middle" x="515.5" y="-529.3" font-family="Times,serif" font-size="14.00">150: handleWalking()</text>
</g>
<!-- node_c8cf84d3&#45;&gt;node_c611ad60 -->
<g id="edge5" class="edge">
<title>node_c8cf84d3&#45;&gt;node_c611ad60</title>
<path fill="none" stroke="#009e73" stroke-width="2" d="M380,-732.86C380,-681.41 380,-538.25 380,-538.25 380,-538.25 434.33,-538.25 434.33,-538.25"/>
<polygon fill="#009e73" stroke="#009e73" stroke-width="2" points="434.33,-541.75 444.33,-538.25 434.33,-534.75 434.33,-541.75"/>
</g>
<!-- node_a4dde843 -->
<g id="node3" class="node">
<title>node_a4dde843</title>
<path fill="#6db33f" stroke="black" d="M1050.5,-522C1050.5,-522 946.5,-522 946.5,-522 940.5,-522 934.5,-516 934.5,-510 934.5,-510 934.5,-498 934.5,-498 934.5,-492 940.5,-486 946.5,-486 946.5,-486 1050.5,-486 1050.5,-486 1056.5,-486 1062.5,-492 1062.5,-498 1062.5,-498 1062.5,-510 1062.5,-510 1062.5,-516 1056.5,-522 1050.5,-522"/>
<text text-anchor="middle" x="998.5" y="-500.3" font-family="Times,serif" font-size="14.00">93: checkCollision()</text>
</g>
<!-- node_7e2a4052 -->
<g id="node4" class="node">
<title>node_7e2a4052</title>
<path fill="#6db33f" stroke="black" d="M1038,-414C1038,-414 959,-414 959,-414 953,-414 947,-408 947,-402 947,-402 947,-390 947,-390 947,-384 953,-378 959,-378 959,-378 1038,-378 1038,-378 1044,-378 1050,-384 1050,-390 1050,-390 1050,-402 1050,-402 1050,-408 1044,-414 1038,-414"/>
<text text-anchor="middle" x="998.5" y="-392.3" font-family="Times,serif" font-size="14.00">82: degToRad()</text>
</g>
<!-- node_2b2395fa -->
<g id="node5" class="node">
<title>node_2b2395fa</title>
<path fill="#6db33f" stroke="black" d="M1060.5,-468C1060.5,-468 936.5,-468 936.5,-468 930.5,-468 924.5,-462 924.5,-456 924.5,-456 924.5,-444 924.5,-444 924.5,-438 930.5,-432 936.5,-432 936.5,-432 1060.5,-432 1060.5,-432 1066.5,-432 1072.5,-438 1072.5,-444 1072.5,-444 1072.5,-456 1072.5,-456 1072.5,-462 1066.5,-468 1060.5,-468"/>
<text text-anchor="middle" x="998.5" y="-446.3" font-family="Times,serif" font-size="14.00">70: getCameraLookAt()</text>
</g>
<!-- node_702258dd -->
<g id="node6" class="node">
<title>node_702258dd</title>
<path fill="#6db33f" stroke="black" d="M1084.5,-360C1084.5,-360 912.5,-360 912.5,-360 906.5,-360 900.5,-354 900.5,-348 900.5,-348 900.5,-336 900.5,-336 900.5,-330 906.5,-324 912.5,-324 912.5,-324 1084.5,-324 1084.5,-324 1090.5,-324 1096.5,-330 1096.5,-336 1096.5,-336 1096.5,-348 1096.5,-348 1096.5,-354 1090.5,-360 1084.5,-360"/>
<text text-anchor="middle" x="998.5" y="-338.3" font-family="Times,serif" font-size="14.00">9: getMashFromBlenderModel()</text>
</g>
<!-- node_16343212 -->
<g id="node7" class="node">
<title>node_16343212</title>
<path fill="#6db33f" stroke="black" d="M1257,-306C1257,-306 1164,-306 1164,-306 1158,-306 1152,-300 1152,-294 1152,-294 1152,-282 1152,-282 1152,-276 1158,-270 1164,-270 1164,-270 1257,-270 1257,-270 1263,-270 1269,-276 1269,-282 1269,-282 1269,-294 1269,-294 1269,-300 1263,-306 1257,-306"/>
<text text-anchor="middle" x="1210.5" y="-284.3" font-family="Times,serif" font-size="14.00">193: showVector()</text>
</g>
<!-- node_c97ec5b2 -->
<g id="node8" class="node">
<title>node_c97ec5b2</title>
<path fill="#966f33" stroke="black" d="M1104,-306C1104,-306 893,-306 893,-306 887,-306 881,-300 881,-294 881,-294 881,-282 881,-282 881,-276 887,-270 893,-270 893,-270 1104,-270 1104,-270 1110,-270 1116,-276 1116,-282 1116,-282 1116,-294 1116,-294 1116,-300 1110,-306 1104,-306"/>
<text text-anchor="middle" x="998.5" y="-284.3" font-family="Times,serif" font-size="14.00">131: turnVectorAroundHorizontalAxis()</text>
</g>
<!-- node_c97ec5b2&#45;&gt;node_16343212 -->
<g id="edge6" class="edge">
<title>node_c97ec5b2&#45;&gt;node_16343212</title>
<path fill="none" stroke="#56b4e9" stroke-width="2" d="M1116.28,-288C1116.28,-288 1138.56,-288 1138.56,-288"/>
<polygon fill="#56b4e9" stroke="#56b4e9" stroke-width="2" points="1138.56,-291.5 1148.56,-288 1138.56,-284.5 1138.56,-291.5"/>
</g>
<!-- node_41f0aaa9 -->
<g id="node9" class="node">
<title>node_41f0aaa9</title>
<path fill="#cccccc" stroke="black" d="M361.5,-351C361.5,-351 327.5,-351 327.5,-351 321.5,-351 315.5,-345 315.5,-339 315.5,-339 315.5,-327 315.5,-327 315.5,-321 321.5,-315 327.5,-315 327.5,-315 361.5,-315 361.5,-315 367.5,-315 373.5,-321 373.5,-327 373.5,-327 373.5,-339 373.5,-339 373.5,-345 367.5,-351 361.5,-351"/>
<text text-anchor="middle" x="344.5" y="-329.3" font-family="Times,serif" font-size="14.00">3: init()</text>
</g>
<!-- node_0eb40dda -->
<g id="node10" class="node">
<title>node_0eb40dda</title>
<path fill="#6db33f" stroke="black" d="M573.5,-135C573.5,-135 457.5,-135 457.5,-135 451.5,-135 445.5,-129 445.5,-123 445.5,-123 445.5,-111 445.5,-111 445.5,-105 451.5,-99 457.5,-99 457.5,-99 573.5,-99 573.5,-99 579.5,-99 585.5,-105 585.5,-111 585.5,-111 585.5,-123 585.5,-123 585.5,-129 579.5,-135 573.5,-135"/>
<text text-anchor="middle" x="515.5" y="-113.3" font-family="Times,serif" font-size="14.00">108: initDevControls()</text>
</g>
<!-- node_41f0aaa9&#45;&gt;node_0eb40dda -->
<g id="edge9" class="edge">
<title>node_41f0aaa9&#45;&gt;node_0eb40dda</title>
<path fill="none" stroke="#e69f00" stroke-width="2" d="M339,-314.58C339,-262.35 339,-117 339,-117 339,-117 432.21,-117 432.21,-117"/>
<polygon fill="#e69f00" stroke="#e69f00" stroke-width="2" points="432.21,-120.5 442.21,-117 432.21,-113.5 432.21,-120.5"/>
</g>
<!-- node_dbc3d623 -->
<g id="node11" class="node">
<title>node_dbc3d623</title>
<path fill="#6db33f" stroke="black" d="M570.5,-189C570.5,-189 460.5,-189 460.5,-189 454.5,-189 448.5,-183 448.5,-177 448.5,-177 448.5,-165 448.5,-165 448.5,-159 454.5,-153 460.5,-153 460.5,-153 570.5,-153 570.5,-153 576.5,-153 582.5,-159 582.5,-165 582.5,-165 582.5,-177 582.5,-177 582.5,-183 576.5,-189 570.5,-189"/>
<text text-anchor="middle" x="515.5" y="-167.3" font-family="Times,serif" font-size="14.00">178: initStartScreen()</text>
</g>
<!-- node_41f0aaa9&#45;&gt;node_dbc3d623 -->
<g id="edge10" class="edge">
<title>node_41f0aaa9&#45;&gt;node_dbc3d623</title>
<path fill="none" stroke="#e69f00" stroke-width="2" d="M351,-314.73C351,-272.36 351,-171 351,-171 351,-171 435.09,-171 435.09,-171"/>
<polygon fill="#e69f00" stroke="#e69f00" stroke-width="2" points="435.09,-174.5 445.09,-171 435.09,-167.5 435.09,-174.5"/>
</g>
<!-- node_165afe32 -->
<g id="node12" class="node">
<title>node_165afe32</title>
<path fill="#6db33f" stroke="black" d="M549,-243C549,-243 482,-243 482,-243 476,-243 470,-237 470,-231 470,-231 470,-219 470,-219 470,-213 476,-207 482,-207 482,-207 549,-207 549,-207 555,-207 561,-213 561,-219 561,-219 561,-231 561,-231 561,-237 555,-243 549,-243"/>
<text text-anchor="middle" x="515.5" y="-221.3" font-family="Times,serif" font-size="14.00">91: initStats()</text>
</g>
<!-- node_41f0aaa9&#45;&gt;node_165afe32 -->
<g id="edge11" class="edge">
<title>node_41f0aaa9&#45;&gt;node_165afe32</title>
<path fill="none" stroke="#e69f00" stroke-width="2" d="M362,-314.68C362,-283.87 362,-225 362,-225 362,-225 456.83,-225 456.83,-225"/>
<polygon fill="#e69f00" stroke="#e69f00" stroke-width="2" points="456.83,-228.5 466.83,-225 456.83,-221.5 456.83,-228.5"/>
</g>
<!-- node_d7368a03 -->
<g id="node13" class="node">
<title>node_d7368a03</title>
<path fill="#6db33f" stroke="black" d="M595.5,-297C595.5,-297 435.5,-297 435.5,-297 429.5,-297 423.5,-291 423.5,-285 423.5,-285 423.5,-273 423.5,-273 423.5,-267 429.5,-261 435.5,-261 435.5,-261 595.5,-261 595.5,-261 601.5,-261 607.5,-267 607.5,-273 607.5,-273 607.5,-285 607.5,-285 607.5,-291 601.5,-297 595.5,-297"/>
<text text-anchor="middle" x="515.5" y="-275.3" font-family="Times,serif" font-size="14.00">194: putStartScreenOnReady()</text>
</g>
<!-- node_41f0aaa9&#45;&gt;node_d7368a03 -->
<g id="edge12" class="edge">
<title>node_41f0aaa9&#45;&gt;node_d7368a03</title>
<path fill="none" stroke="#e69f00" stroke-width="2" d="M373.82,-324C397.53,-324 427,-324 427,-324 427,-324 427,-310.33 427,-310.33"/>
<polygon fill="#e69f00" stroke="#e69f00" stroke-width="2" points="430.5,-310.33 427,-300.33 423.5,-310.33 430.5,-310.33"/>
</g>
<!-- node_6e222703 -->
<g id="node14" class="node">
<title>node_6e222703</title>
<path fill="#6db33f" stroke="black" d="M558,-351C558,-351 473,-351 473,-351 467,-351 461,-345 461,-339 461,-339 461,-327 461,-327 461,-321 467,-315 473,-315 473,-315 558,-315 558,-315 564,-315 570,-321 570,-327 570,-327 570,-339 570,-339 570,-345 564,-351 558,-351"/>
<text text-anchor="middle" x="515.5" y="-329.3" font-family="Times,serif" font-size="14.00">184: startScene()</text>
</g>
<!-- node_41f0aaa9&#45;&gt;node_6e222703 -->
<g id="edge13" class="edge">
<title>node_41f0aaa9&#45;&gt;node_6e222703</title>
<path fill="none" stroke="#e69f00" stroke-width="2" d="M373.9,-333C373.9,-333 447.59,-333 447.59,-333"/>
<polygon fill="#e69f00" stroke="#e69f00" stroke-width="2" points="447.59,-336.5 457.59,-333 447.59,-329.5 447.59,-336.5"/>
</g>
<!-- node_ea7bb653 -->
<g id="node21" class="node">
<title>node_ea7bb653</title>
<path fill="#cccccc" stroke="black" d="M567.5,-688C567.5,-688 463.5,-688 463.5,-688 457.5,-688 451.5,-682 451.5,-676 451.5,-676 451.5,-664 451.5,-664 451.5,-658 457.5,-652 463.5,-652 463.5,-652 567.5,-652 567.5,-652 573.5,-652 579.5,-658 579.5,-664 579.5,-664 579.5,-676 579.5,-676 579.5,-682 573.5,-688 567.5,-688"/>
<text text-anchor="middle" x="515.5" y="-666.3" font-family="Times,serif" font-size="14.00">18: initInteractions()</text>
</g>
<!-- node_41f0aaa9&#45;&gt;node_ea7bb653 -->
<g id="edge18" class="edge">
<title>node_41f0aaa9&#45;&gt;node_ea7bb653</title>
<path fill="none" stroke="#e69f00" stroke-width="2" d="M351,-351.12C351,-421.12 351,-670 351,-670 351,-670 438.4,-670 438.4,-670"/>
<polygon fill="#e69f00" stroke="#e69f00" stroke-width="2" points="438.4,-673.5 448.4,-670 438.4,-666.5 438.4,-673.5"/>
</g>
<!-- node_25d6afb1 -->
<g id="node27" class="node">
<title>node_25d6afb1</title>
<path fill="#cccccc" stroke="black" d="M555,-52C555,-52 476,-52 476,-52 470,-52 464,-46 464,-40 464,-40 464,-28 464,-28 464,-22 470,-16 476,-16 476,-16 555,-16 555,-16 561,-16 567,-22 567,-28 567,-28 567,-40 567,-40 567,-46 561,-52 555,-52"/>
<text text-anchor="middle" x="515.5" y="-30.3" font-family="Times,serif" font-size="14.00">6: placeLights()</text>
</g>
<!-- node_41f0aaa9&#45;&gt;node_25d6afb1 -->
<g id="edge19" class="edge">
<title>node_41f0aaa9&#45;&gt;node_25d6afb1</title>
<path fill="none" stroke="#e69f00" stroke-width="2" d="M328,-314.75C328,-249.83 328,-34 328,-34 328,-34 450.74,-34 450.74,-34"/>
<polygon fill="#e69f00" stroke="#e69f00" stroke-width="2" points="450.74,-37.5 460.74,-34 450.74,-30.5 450.74,-37.5"/>
</g>
<!-- node_12db6dbb -->
<g id="node28" class="node">
<title>node_12db6dbb</title>
<path fill="#cccccc" stroke="black" d="M788,-360C788,-360 702,-360 702,-360 696,-360 690,-354 690,-348 690,-348 690,-336 690,-336 690,-330 696,-324 702,-324 702,-324 788,-324 788,-324 794,-324 800,-330 800,-336 800,-336 800,-348 800,-348 800,-354 794,-360 788,-360"/>
<text text-anchor="middle" x="745" y="-338.3" font-family="Times,serif" font-size="14.00">6: placeObjects()</text>
</g>
<!-- node_41f0aaa9&#45;&gt;node_12db6dbb -->
<g id="edge20" class="edge">
<title>node_41f0aaa9&#45;&gt;node_12db6dbb</title>
<path fill="none" stroke="#e69f00" stroke-width="2" d="M328,-351.16C328,-353.72 328,-355.5 328,-355.5 328,-355.5 676.6,-355.5 676.6,-355.5"/>
<polygon fill="#e69f00" stroke="#e69f00" stroke-width="2" points="676.6,-359 686.6,-355.5 676.6,-352 676.6,-359"/>
</g>
<!-- node_abf719fb -->
<g id="node32" class="node">
<title>node_abf719fb</title>
<path fill="#6db33f" stroke="black" d="M588.5,-497C588.5,-497 442.5,-497 442.5,-497 436.5,-497 430.5,-491 430.5,-485 430.5,-485 430.5,-473 430.5,-473 430.5,-467 436.5,-461 442.5,-461 442.5,-461 588.5,-461 588.5,-461 594.5,-461 600.5,-467 600.5,-473 600.5,-473 600.5,-485 600.5,-485 600.5,-491 594.5,-497 588.5,-497"/>
<text text-anchor="middle" x="515.5" y="-475.3" font-family="Times,serif" font-size="14.00">215: initMouseClickMove()</text>
</g>
<!-- node_41f0aaa9&#45;&gt;node_abf719fb -->
<g id="edge21" class="edge">
<title>node_41f0aaa9&#45;&gt;node_abf719fb</title>
<path fill="none" stroke="#e69f00" stroke-width="2" d="M373.86,-342C403.83,-342 446,-342 446,-342 446,-342 446,-447.5 446,-447.5"/>
<polygon fill="#e69f00" stroke="#e69f00" stroke-width="2" points="442.5,-447.5 446,-457.5 449.5,-447.5 442.5,-447.5"/>
</g>
<!-- node_45716ccb -->
<g id="node33" class="node">
<title>node_45716ccb</title>
<path fill="#cccccc" stroke="black" d="M550.5,-443C550.5,-443 480.5,-443 480.5,-443 474.5,-443 468.5,-437 468.5,-431 468.5,-431 468.5,-419 468.5,-419 468.5,-413 474.5,-407 480.5,-407 480.5,-407 550.5,-407 550.5,-407 556.5,-407 562.5,-413 562.5,-419 562.5,-419 562.5,-431 562.5,-431 562.5,-437 556.5,-443 550.5,-443"/>
<text text-anchor="middle" x="515.5" y="-421.3" font-family="Times,serif" font-size="14.00">15: initWalk()</text>
</g>
<!-- node_41f0aaa9&#45;&gt;node_45716ccb -->
<g id="edge22" class="edge">
<title>node_41f0aaa9&#45;&gt;node_45716ccb</title>
<path fill="none" stroke="#e69f00" stroke-width="2" d="M362,-351.18C362,-377.99 362,-425 362,-425 362,-425 455.17,-425 455.17,-425"/>
<polygon fill="#e69f00" stroke="#e69f00" stroke-width="2" points="455.17,-428.5 465.17,-425 455.17,-421.5 455.17,-428.5"/>
</g>
<!-- node_2f49844a -->
<g id="node19" class="node">
<title>node_2f49844a</title>
<path fill="#6db33f" stroke="black" d="M833,-634C833,-634 657,-634 657,-634 651,-634 645,-628 645,-622 645,-622 645,-610 645,-610 645,-604 651,-598 657,-598 657,-598 833,-598 833,-598 839,-598 845,-604 845,-610 845,-610 845,-622 845,-622 845,-628 839,-634 833,-634"/>
<text text-anchor="middle" x="745" y="-612.3" font-family="Times,serif" font-size="14.00">98: initAdjustBlackboardHeight()</text>
</g>
<!-- node_74007183 -->
<g id="node20" class="node">
<title>node_74007183</title>
<path fill="#6db33f" stroke="black" d="M786.5,-688C786.5,-688 703.5,-688 703.5,-688 697.5,-688 691.5,-682 691.5,-676 691.5,-676 691.5,-664 691.5,-664 691.5,-658 697.5,-652 703.5,-652 703.5,-652 786.5,-652 786.5,-652 792.5,-652 798.5,-658 798.5,-664 798.5,-664 798.5,-676 798.5,-676 798.5,-682 792.5,-688 786.5,-688"/>
<text text-anchor="middle" x="745" y="-666.3" font-family="Times,serif" font-size="14.00">33: initInfoDiv()</text>
</g>
<!-- node_ea7bb653&#45;&gt;node_2f49844a -->
<g id="edge23" class="edge">
<title>node_ea7bb653&#45;&gt;node_2f49844a</title>
<path fill="none" stroke="#009e73" stroke-width="2" d="M579.66,-657.14C617.49,-657.14 658,-657.14 658,-657.14 658,-657.14 658,-647.19 658,-647.19"/>
<polygon fill="#009e73" stroke="#009e73" stroke-width="2" points="661.5,-647.19 658,-637.19 654.5,-647.19 661.5,-647.19"/>
</g>
<!-- node_ea7bb653&#45;&gt;node_74007183 -->
<g id="edge24" class="edge">
<title>node_ea7bb653&#45;&gt;node_74007183</title>
<path fill="none" stroke="#009e73" stroke-width="2" d="M579.73,-662.29C579.73,-662.29 678.23,-662.29 678.23,-662.29"/>
<polygon fill="#009e73" stroke="#009e73" stroke-width="2" points="678.23,-665.79 688.23,-662.29 678.23,-658.79 678.23,-665.79"/>
</g>
<!-- node_79659873 -->
<g id="node22" class="node">
<title>node_79659873</title>
<path fill="#6db33f" stroke="black" d="M800.5,-742C800.5,-742 689.5,-742 689.5,-742 683.5,-742 677.5,-736 677.5,-730 677.5,-730 677.5,-718 677.5,-718 677.5,-712 683.5,-706 689.5,-706 689.5,-706 800.5,-706 800.5,-706 806.5,-706 812.5,-712 812.5,-718 812.5,-718 812.5,-730 812.5,-730 812.5,-736 806.5,-742 800.5,-742"/>
<text text-anchor="middle" x="745" y="-720.3" font-family="Times,serif" font-size="14.00">246: initOpenCloset()</text>
</g>
<!-- node_ea7bb653&#45;&gt;node_79659873 -->
<g id="edge25" class="edge">
<title>node_ea7bb653&#45;&gt;node_79659873</title>
<path fill="none" stroke="#009e73" stroke-width="2" d="M579.58,-667.43C627.58,-667.43 685,-667.43 685,-667.43 685,-667.43 685,-692.76 685,-692.76"/>
<polygon fill="#009e73" stroke="#009e73" stroke-width="2" points="681.5,-692.76 685,-702.76 688.5,-692.76 681.5,-692.76"/>
</g>
<!-- node_8f3497e5 -->
<g id="node23" class="node">
<title>node_8f3497e5</title>
<path fill="#6db33f" stroke="black" d="M816.5,-796C816.5,-796 673.5,-796 673.5,-796 667.5,-796 661.5,-790 661.5,-784 661.5,-784 661.5,-772 661.5,-772 661.5,-766 667.5,-760 673.5,-760 673.5,-760 816.5,-760 816.5,-760 822.5,-760 828.5,-766 828.5,-772 828.5,-772 828.5,-784 828.5,-784 828.5,-790 822.5,-796 816.5,-796"/>
<text text-anchor="middle" x="745" y="-774.3" font-family="Times,serif" font-size="14.00">207: initPutChairOnTable()</text>
</g>
<!-- node_ea7bb653&#45;&gt;node_8f3497e5 -->
<g id="edge26" class="edge">
<title>node_ea7bb653&#45;&gt;node_8f3497e5</title>
<path fill="none" stroke="#009e73" stroke-width="2" d="M579.68,-672.57C622.13,-672.57 670,-672.57 670,-672.57 670,-672.57 670,-746.61 670,-746.61"/>
<polygon fill="#009e73" stroke="#009e73" stroke-width="2" points="666.5,-746.61 670,-756.61 673.5,-746.61 666.5,-746.61"/>
</g>
<!-- node_1d2ea77f -->
<g id="node24" class="node">
<title>node_1d2ea77f</title>
<path fill="#cccccc" stroke="black" d="M802,-850C802,-850 688,-850 688,-850 682,-850 676,-844 676,-838 676,-838 676,-826 676,-826 676,-820 682,-814 688,-814 688,-814 802,-814 802,-814 808,-814 814,-820 814,-826 814,-826 814,-838 814,-838 814,-844 808,-850 802,-850"/>
<text text-anchor="middle" x="745" y="-828.3" font-family="Times,serif" font-size="14.00">153: initSwitchLight()</text>
</g>
<!-- node_ea7bb653&#45;&gt;node_1d2ea77f -->
<g id="edge27" class="edge">
<title>node_ea7bb653&#45;&gt;node_1d2ea77f</title>
<path fill="none" stroke="#009e73" stroke-width="2" d="M579.71,-682.86C604.5,-682.86 627,-682.86 627,-682.86 627,-682.86 627,-832 627,-832 627,-832 662.65,-832 662.65,-832"/>
<polygon fill="#009e73" stroke="#009e73" stroke-width="2" points="662.65,-835.5 672.65,-832 662.65,-828.5 662.65,-835.5"/>
</g>
<!-- node_7eb047c8 -->
<g id="node25" class="node">
<title>node_7eb047c8</title>
<path fill="#6db33f" stroke="black" d="M828.5,-904C828.5,-904 661.5,-904 661.5,-904 655.5,-904 649.5,-898 649.5,-892 649.5,-892 649.5,-880 649.5,-880 649.5,-874 655.5,-868 661.5,-868 661.5,-868 828.5,-868 828.5,-868 834.5,-868 840.5,-874 840.5,-880 840.5,-880 840.5,-892 840.5,-892 840.5,-898 834.5,-904 828.5,-904"/>
<text text-anchor="middle" x="745" y="-882.3" font-family="Times,serif" font-size="14.00">85: initTriggerFlightSimulator()</text>
</g>
<!-- node_ea7bb653&#45;&gt;node_7eb047c8 -->
<g id="edge28" class="edge">
<title>node_ea7bb653&#45;&gt;node_7eb047c8</title>
<path fill="none" stroke="#009e73" stroke-width="2" d="M579.88,-677.71C616.05,-677.71 654,-677.71 654,-677.71 654,-677.71 654,-854.49 654,-854.49"/>
<polygon fill="#009e73" stroke="#009e73" stroke-width="2" points="650.5,-854.49 654,-864.49 657.5,-854.49 650.5,-854.49"/>
</g>
<!-- node_1d2ea77f&#45;&gt;node_7e2a4052 -->
<g id="edge29" class="edge">
<title>node_1d2ea77f&#45;&gt;node_7e2a4052</title>
<path fill="none" stroke="#cc79a7" stroke-width="2" d="M814.25,-832C842.65,-832 869,-832 869,-832 869,-832 869,-411.67 869,-411.67 869,-411.67 933.55,-411.67 933.55,-411.67"/>
<polygon fill="#cc79a7" stroke="#cc79a7" stroke-width="2" points="933.55,-415.17 943.55,-411.67 933.55,-408.17 933.55,-415.17"/>
</g>
<!-- node_fbce99ba -->
<g id="node26" class="node">
<title>node_fbce99ba</title>
<path fill="#966f33" stroke="black" d="M163,-546C163,-546 104,-546 104,-546 98,-546 92,-540 92,-534 92,-534 92,-522 92,-522 92,-516 98,-510 104,-510 104,-510 163,-510 163,-510 169,-510 175,-516 175,-522 175,-522 175,-534 175,-534 175,-540 169,-546 163,-546"/>
<text text-anchor="middle" x="133.5" y="-524.3" font-family="Times,serif" font-size="14.00">0: (global)()</text>
</g>
<!-- node_fbce99ba&#45;&gt;node_c8cf84d3 -->
<g id="edge35" class="edge">
<title>node_fbce99ba&#45;&gt;node_c8cf84d3</title>
<path fill="none" stroke="#56b4e9" stroke-width="2" d="M175.33,-530.5C227.52,-530.5 310,-530.5 310,-530.5 310,-530.5 310,-719.55 310,-719.55"/>
<polygon fill="#56b4e9" stroke="#56b4e9" stroke-width="2" points="306.5,-719.55 310,-729.55 313.5,-719.55 306.5,-719.55"/>
</g>
<!-- node_fbce99ba&#45;&gt;node_41f0aaa9 -->
<g id="edge36" class="edge">
<title>node_fbce99ba&#45;&gt;node_41f0aaa9</title>
<path fill="none" stroke="#56b4e9" stroke-width="2" d="M175.09,-522.75C235.13,-522.75 339,-522.75 339,-522.75 339,-522.75 339,-364.22 339,-364.22"/>
<polygon fill="#56b4e9" stroke="#56b4e9" stroke-width="2" points="342.5,-364.22 339,-354.22 335.5,-364.22 342.5,-364.22"/>
</g>
<!-- node_25d6afb1&#45;&gt;node_702258dd -->
<g id="edge37" class="edge">
<title>node_25d6afb1&#45;&gt;node_702258dd</title>
<path fill="none" stroke="#e69f00" stroke-width="2" d="M567.27,-34C656.31,-34 829,-34 829,-34 829,-34 829,-336 829,-336 829,-336 887.36,-336 887.36,-336"/>
<polygon fill="#e69f00" stroke="#e69f00" stroke-width="2" points="887.36,-339.5 897.36,-336 887.36,-332.5 887.36,-339.5"/>
</g>
<!-- node_12db6dbb&#45;&gt;node_7e2a4052 -->
<g id="edge38" class="edge">
<title>node_12db6dbb&#45;&gt;node_7e2a4052</title>
<path fill="none" stroke="#009e73" stroke-width="2" d="M745,-360.5C745,-376.05 745,-395.75 745,-395.75 745,-395.75 933.56,-395.75 933.56,-395.75"/>
<polygon fill="#009e73" stroke="#009e73" stroke-width="2" points="933.56,-399.25 943.56,-395.75 933.56,-392.25 933.56,-399.25"/>
</g>
<!-- node_12db6dbb&#45;&gt;node_702258dd -->
<g id="edge50" class="edge">
<title>node_12db6dbb&#45;&gt;node_702258dd</title>
<path fill="none" stroke="#009e73" stroke-width="2" d="M800.32,-348C800.32,-348 887.1,-348 887.1,-348"/>
<polygon fill="#009e73" stroke="#009e73" stroke-width="2" points="887.1,-351.5 897.1,-348 887.1,-344.5 887.1,-351.5"/>
</g>
<!-- node_e177c017 -->
<g id="node29" class="node">
<title>node_e177c017</title>
<path fill="#6db33f" stroke="black" d="M793,-443C793,-443 697,-443 697,-443 691,-443 685,-437 685,-431 685,-431 685,-419 685,-419 685,-413 691,-407 697,-407 697,-407 793,-407 793,-407 799,-407 805,-413 805,-419 805,-419 805,-431 805,-431 805,-437 799,-443 793,-443"/>
<text text-anchor="middle" x="745" y="-421.3" font-family="Times,serif" font-size="14.00">131: createPlayer()</text>
</g>
<!-- node_4e22091f -->
<g id="node30" class="node">
<title>node_4e22091f</title>
<path fill="#cccccc" stroke="black" d="M799.5,-497C799.5,-497 690.5,-497 690.5,-497 684.5,-497 678.5,-491 678.5,-485 678.5,-485 678.5,-473 678.5,-473 678.5,-467 684.5,-461 690.5,-461 690.5,-461 799.5,-461 799.5,-461 805.5,-461 811.5,-467 811.5,-473 811.5,-473 811.5,-485 811.5,-485 811.5,-491 805.5,-497 799.5,-497"/>
<text text-anchor="middle" x="745" y="-475.3" font-family="Times,serif" font-size="14.00">89: getNewPosition()</text>
</g>
<!-- node_4e22091f&#45;&gt;node_7e2a4052 -->
<g id="edge59" class="edge">
<title>node_4e22091f&#45;&gt;node_7e2a4052</title>
<path fill="none" stroke="#cc79a7" stroke-width="2" d="M811.77,-464.5C835.75,-464.5 857,-464.5 857,-464.5 857,-464.5 857,-409.33 857,-409.33 857,-409.33 933.59,-409.33 933.59,-409.33"/>
<polygon fill="#cc79a7" stroke="#cc79a7" stroke-width="2" points="933.59,-412.83 943.59,-409.33 933.59,-405.83 933.59,-412.83"/>
</g>
<!-- node_c611ad60&#45;&gt;node_a4dde843 -->
<g id="edge61" class="edge">
<title>node_c611ad60&#45;&gt;node_a4dde843</title>
<path fill="none" stroke="#000000" stroke-width="2" d="M583.93,-520.25C583.93,-520.25 921.19,-520.25 921.19,-520.25"/>
<polygon fill="#000000" stroke="#000000" stroke-width="2" points="921.19,-523.75 931.19,-520.25 921.19,-516.75 921.19,-523.75"/>
</g>
<!-- node_c611ad60&#45;&gt;node_2b2395fa -->
<g id="edge62" class="edge">
<title>node_c611ad60&#45;&gt;node_2b2395fa</title>
<path fill="none" stroke="#000000" stroke-width="2" d="M583.95,-518.5C701.68,-518.5 930,-518.5 930,-518.5 930,-518.5 930,-481.38 930,-481.38"/>
<polygon fill="#000000" stroke="#000000" stroke-width="2" points="933.5,-481.38 930,-471.38 926.5,-481.38 933.5,-481.38"/>
</g>
<!-- node_c611ad60&#45;&gt;node_4e22091f -->
<g id="edge63" class="edge">
<title>node_c611ad60&#45;&gt;node_4e22091f</title>
<path fill="none" stroke="#000000" stroke-width="2" d="M583.74,-516.75C651.39,-516.75 745,-516.75 745,-516.75 745,-516.75 745,-510.46 745,-510.46"/>
<polygon fill="#000000" stroke="#000000" stroke-width="2" points="748.5,-510.46 745,-500.46 741.5,-510.46 748.5,-510.46"/>
</g>
<!-- node_45716ccb&#45;&gt;node_e177c017 -->
<g id="edge64" class="edge">
<title>node_45716ccb&#45;&gt;node_e177c017</title>
<path fill="none" stroke="#009e73" stroke-width="2" d="M562.77,-425C562.77,-425 671.65,-425 671.65,-425"/>
<polygon fill="#009e73" stroke="#009e73" stroke-width="2" points="671.65,-428.5 681.65,-425 671.65,-421.5 671.65,-428.5"/>
</g>
</g>
</svg>
