<?xml version="1.0" encoding="UTF-8" standalone="no"?>
<!DOCTYPE svg PUBLIC "-//W3C//DTD SVG 1.1//EN"
 "http://www.w3.org/Graphics/SVG/1.1/DTD/svg11.dtd">
<!-- Generated by graphviz version 7.0.1 (20221109.1506)
 -->
<!-- Title: G Pages: 1 -->
<svg width="1293pt" height="897pt"
 viewBox="0.00 0.00 1293.00 897.00" xmlns="http://www.w3.org/2000/svg" xmlns:xlink="http://www.w3.org/1999/xlink">
<g id="graph0" class="graph" transform="scale(1 1) rotate(0) translate(4 893)">
<title>G</title>
<polygon fill="white" stroke="none" points="-4,4 -4,-893 1289,-893 1289,4 -4,4"/>
<g id="clust2" class="cluster">
<title>cluster_4ab36908</title>
<polygon fill="none" stroke="black" stroke-dasharray="1,5" points="295,-671 295,-746 394,-746 394,-671 295,-671"/>
<text text-anchor="middle" x="344.5" y="-730.8" font-family="Times,serif" font-size="14.00">File: animate</text>
</g>
<g id="clust3" class="cluster">
<title>cluster_488d4cef</title>
<polygon fill="none" stroke="black" stroke-dasharray="1,5" points="873,-208 873,-499 1277,-499 1277,-208 873,-208"/>
<text text-anchor="middle" x="1075" y="-483.8" font-family="Times,serif" font-size="14.00">File: helpers</text>
</g>
<g id="clust4" class="cluster">
<title>cluster_cd7fbcdd</title>
<polygon fill="none" stroke="black" stroke-dasharray="1,5" points="307.5,-91 307.5,-328 615.5,-328 615.5,-91 307.5,-91"/>
<text text-anchor="middle" x="461.5" y="-312.8" font-family="Times,serif" font-size="14.00">File: init</text>
</g>
<g id="clust5" class="cluster">
<title>cluster_1065a056</title>
<polygon fill="none" stroke="black" stroke-dasharray="1,5" points="414,-536 414,-881 853,-881 853,-536 414,-536"/>
<text text-anchor="middle" x="633.5" y="-865.8" font-family="Times,serif" font-size="14.00">File: interactions</text>
</g>
<g id="clust6" class="cluster">
<title>cluster_149f7b2a</title>
<polygon fill="none" stroke="black" stroke-dasharray="1,5" points="84,-448 84,-523 183,-523 183,-448 84,-448"/>
<text text-anchor="middle" x="133.5" y="-507.8" font-family="Times,serif" font-size="14.00">File: main</text>
</g>
<g id="clust7" class="cluster">
<title>cluster_916f5a07</title>
<polygon fill="none" stroke="black" stroke-dasharray="1,5" points="456,-8 456,-83 575,-83 575,-8 456,-8"/>
<text text-anchor="middle" x="515.5" y="-67.8" font-family="Times,serif" font-size="14.00">File: place&#45;lights</text>
</g>
<g id="clust8" class="cluster">
<title>cluster_a923fb62</title>
<polygon fill="none" stroke="black" stroke-dasharray="1,5" points="682,-262 682,-337 808,-337 808,-262 682,-262"/>
<text text-anchor="middle" x="745" y="-321.8" font-family="Times,serif" font-size="14.00">File: place&#45;objects</text>
</g>
<g id="clust9" class="cluster">
<title>cluster_bf1fff7c</title>
<polygon fill="none" stroke="black" stroke-dasharray="1,5" points="422.5,-345 422.5,-528 819.5,-528 819.5,-345 422.5,-345"/>
<text text-anchor="middle" x="621" y="-512.8" font-family="Times,serif" font-size="14.00">File: walk</text>
</g>
<!-- Legend -->
<g id="node1" class="node">
<title>Legend</title>
<polygon fill="none" stroke="black" points="1.5,-419 1.5,-436 266.5,-436 266.5,-419 1.5,-419"/>
<text text-anchor="start" x="81.5" y="-423.8" font-family="Times,serif" font-size="14.00">Code2flow Legend</text>
<polygon fill="none" stroke="black" points="1.5,-331 1.5,-419 266.5,-419 266.5,-331 1.5,-331"/>
<polygon fill="none" stroke="black" points="3.5,-396 3.5,-417 214.5,-417 214.5,-396 3.5,-396"/>
<text text-anchor="start" x="63" y="-402.8" font-family="Times,serif" font-size="14.00">Regular function</text>
<polygon fill="#cccccc" stroke="none" points="214.5,-396 214.5,-417 264.5,-417 264.5,-396 214.5,-396"/>
<polygon fill="none" stroke="black" points="214.5,-396 214.5,-417 264.5,-417 264.5,-396 214.5,-396"/>
<polygon fill="none" stroke="black" points="3.5,-375 3.5,-396 214.5,-396 214.5,-375 3.5,-375"/>
<text text-anchor="start" x="15" y="-381.8" font-family="Times,serif" font-size="14.00">Trunk function (nothing calls this)</text>
<polygon fill="#966f33" stroke="none" points="214.5,-375 214.5,-396 264.5,-396 264.5,-375 214.5,-375"/>
<polygon fill="none" stroke="black" points="214.5,-375 214.5,-396 264.5,-396 264.5,-375 214.5,-375"/>
<polygon fill="none" stroke="black" points="3.5,-354 3.5,-375 214.5,-375 214.5,-354 3.5,-354"/>
<text text-anchor="start" x="6.5" y="-360.8" font-family="Times,serif" font-size="14.00">Leaf function (this calls nothing else)</text>
<polygon fill="#6db33f" stroke="none" points="214.5,-354 214.5,-375 264.5,-375 264.5,-354 214.5,-354"/>
<polygon fill="none" stroke="black" points="214.5,-354 214.5,-375 264.5,-375 264.5,-354 214.5,-354"/>
<polygon fill="none" stroke="black" points="3.5,-333 3.5,-354 214.5,-354 214.5,-333 3.5,-333"/>
<text text-anchor="start" x="73" y="-339.8" font-family="Times,serif" font-size="14.00">Function call</text>
<polygon fill="none" stroke="black" points="214.5,-333 214.5,-354 264.5,-354 264.5,-333 214.5,-333"/>
<text text-anchor="start" x="232" y="-339.8" font-family="Times,serif" font-size="14.00">→</text>
<polygon fill="none" stroke="black" points="2.5,-332 2.5,-418 265.5,-418 265.5,-332 2.5,-332"/>
<polygon fill="none" stroke="black" points="0,-330.5 0,-437.5 267,-437.5 267,-330.5 0,-330.5"/>
</g>
<!-- node_4fcf5f87 -->
<g id="node2" class="node">
<title>node_4fcf5f87</title>
<path fill="#cccccc" stroke="black" d="M374,-715C374,-715 315,-715 315,-715 309,-715 303,-709 303,-703 303,-703 303,-691 303,-691 303,-685 309,-679 315,-679 315,-679 374,-679 374,-679 380,-679 386,-685 386,-691 386,-691 386,-703 386,-703 386,-709 380,-715 374,-715"/>
<text text-anchor="middle" x="344.5" y="-693.3" font-family="Times,serif" font-size="14.00">4: animate()</text>
</g>
<!-- node_f73be97f -->
<g id="node14" class="node">
<title>node_f73be97f</title>
<path fill="#6db33f" stroke="black" d="M589.5,-742C589.5,-742 441.5,-742 441.5,-742 435.5,-742 429.5,-736 429.5,-730 429.5,-730 429.5,-718 429.5,-718 429.5,-712 435.5,-706 441.5,-706 441.5,-706 589.5,-706 589.5,-706 595.5,-706 601.5,-712 601.5,-718 601.5,-718 601.5,-730 601.5,-730 601.5,-736 595.5,-742 589.5,-742"/>
<text text-anchor="middle" x="515.5" y="-720.3" font-family="Times,serif" font-size="14.00">259: handleAnimateChairs()</text>
</g>
<!-- node_4fcf5f87&#45;&gt;node_f73be97f -->
<g id="edge1" class="edge">
<title>node_4fcf5f87&#45;&gt;node_f73be97f</title>
<path fill="none" stroke="#cc79a7" stroke-width="2" d="M386.33,-710.5C386.33,-710.5 416.2,-710.5 416.2,-710.5"/>
<polygon fill="#cc79a7" stroke="#cc79a7" stroke-width="2" points="416.2,-714 426.2,-710.5 416.2,-707 416.2,-714"/>
</g>
<!-- node_4d922c9b -->
<g id="node15" class="node">
<title>node_4d922c9b</title>
<path fill="#6db33f" stroke="black" d="M591.5,-688C591.5,-688 439.5,-688 439.5,-688 433.5,-688 427.5,-682 427.5,-676 427.5,-676 427.5,-664 427.5,-664 427.5,-658 433.5,-652 439.5,-652 439.5,-652 591.5,-652 591.5,-652 597.5,-652 603.5,-658 603.5,-664 603.5,-664 603.5,-676 603.5,-676 603.5,-682 597.5,-688 591.5,-688"/>
<text text-anchor="middle" x="515.5" y="-666.3" font-family="Times,serif" font-size="14.00">468: handleAnimateClosets()</text>
</g>
<!-- node_4fcf5f87&#45;&gt;node_4d922c9b -->
<g id="edge2" class="edge">
<title>node_4fcf5f87&#45;&gt;node_4d922c9b</title>
<path fill="none" stroke="#cc79a7" stroke-width="2" d="M386.33,-683.5C386.33,-683.5 414.17,-683.5 414.17,-683.5"/>
<polygon fill="#cc79a7" stroke="#cc79a7" stroke-width="2" points="414.17,-687 424.17,-683.5 414.17,-680 414.17,-687"/>
</g>
<!-- node_034c0c5e -->
<g id="node16" class="node">
<title>node_034c0c5e</title>
<path fill="#6db33f" stroke="black" d="M597,-850C597,-850 434,-850 434,-850 428,-850 422,-844 422,-838 422,-838 422,-826 422,-826 422,-820 428,-814 434,-814 434,-814 597,-814 597,-814 603,-814 609,-820 609,-826 609,-826 609,-838 609,-838 609,-844 603,-850 597,-850"/>
<text text-anchor="middle" x="515.5" y="-828.3" font-family="Times,serif" font-size="14.00">568: handleBlackboardInertia()</text>
</g>
<!-- node_4fcf5f87&#45;&gt;node_034c0c5e -->
<g id="edge3" class="edge">
<title>node_4fcf5f87&#45;&gt;node_034c0c5e</title>
<path fill="none" stroke="#cc79a7" stroke-width="2" d="M331,-715.49C331,-752.46 331,-832 331,-832 331,-832 408.6,-832 408.6,-832"/>
<polygon fill="#cc79a7" stroke="#cc79a7" stroke-width="2" points="408.6,-835.5 418.6,-832 408.6,-828.5 408.6,-835.5"/>
</g>
<!-- node_429e0f13 -->
<g id="node17" class="node">
<title>node_429e0f13</title>
<path fill="#6db33f" stroke="black" d="M569.5,-796C569.5,-796 461.5,-796 461.5,-796 455.5,-796 449.5,-790 449.5,-784 449.5,-784 449.5,-772 449.5,-772 449.5,-766 455.5,-760 461.5,-760 461.5,-760 569.5,-760 569.5,-760 575.5,-760 581.5,-766 581.5,-772 581.5,-772 581.5,-784 581.5,-784 581.5,-790 575.5,-796 569.5,-796"/>
<text text-anchor="middle" x="515.5" y="-774.3" font-family="Times,serif" font-size="14.00">535: handleInfoDiv()</text>
</g>
<!-- node_4fcf5f87&#45;&gt;node_429e0f13 -->
<g id="edge4" class="edge">
<title>node_4fcf5f87&#45;&gt;node_429e0f13</title>
<path fill="none" stroke="#cc79a7" stroke-width="2" d="M359,-715.38C359,-739.28 359,-778 359,-778 359,-778 436.1,-778 436.1,-778"/>
<polygon fill="#cc79a7" stroke="#cc79a7" stroke-width="2" points="436.1,-781.5 446.1,-778 436.1,-774.5 436.1,-781.5"/>
</g>
<!-- node_a5d6460f -->
<g id="node30" class="node">
<title>node_a5d6460f</title>
<path fill="#cccccc" stroke="black" d="M571.5,-497C571.5,-497 459.5,-497 459.5,-497 453.5,-497 447.5,-491 447.5,-485 447.5,-485 447.5,-473 447.5,-473 447.5,-467 453.5,-461 459.5,-461 459.5,-461 571.5,-461 571.5,-461 577.5,-461 583.5,-467 583.5,-473 583.5,-473 583.5,-485 583.5,-485 583.5,-491 577.5,-497 571.5,-497"/>
<text text-anchor="middle" x="515.5" y="-475.3" font-family="Times,serif" font-size="14.00">148: handleWalking()</text>
</g>
<!-- node_4fcf5f87&#45;&gt;node_a5d6460f -->
<g id="edge5" class="edge">
<title>node_4fcf5f87&#45;&gt;node_a5d6460f</title>
<path fill="none" stroke="#cc79a7" stroke-width="2" d="M380,-678.86C380,-627.41 380,-484.25 380,-484.25 380,-484.25 434.33,-484.25 434.33,-484.25"/>
<polygon fill="#cc79a7" stroke="#cc79a7" stroke-width="2" points="434.33,-487.75 444.33,-484.25 434.33,-480.75 434.33,-487.75"/>
</g>
<!-- node_0ea06f69 -->
<g id="node3" class="node">
<title>node_0ea06f69</title>
<path fill="#6db33f" stroke="black" d="M1050.5,-468C1050.5,-468 946.5,-468 946.5,-468 940.5,-468 934.5,-462 934.5,-456 934.5,-456 934.5,-444 934.5,-444 934.5,-438 940.5,-432 946.5,-432 946.5,-432 1050.5,-432 1050.5,-432 1056.5,-432 1062.5,-438 1062.5,-444 1062.5,-444 1062.5,-456 1062.5,-456 1062.5,-462 1056.5,-468 1050.5,-468"/>
<text text-anchor="middle" x="998.5" y="-446.3" font-family="Times,serif" font-size="14.00">88: checkCollision()</text>
</g>
<!-- node_d2bdccd3 -->
<g id="node4" class="node">
<title>node_d2bdccd3</title>
<path fill="#6db33f" stroke="black" d="M1038,-360C1038,-360 959,-360 959,-360 953,-360 947,-354 947,-348 947,-348 947,-336 947,-336 947,-330 953,-324 959,-324 959,-324 1038,-324 1038,-324 1044,-324 1050,-330 1050,-336 1050,-336 1050,-348 1050,-348 1050,-354 1044,-360 1038,-360"/>
<text text-anchor="middle" x="998.5" y="-338.3" font-family="Times,serif" font-size="14.00">77: degToRad()</text>
</g>
<!-- node_d3d21c3d -->
<g id="node5" class="node">
<title>node_d3d21c3d</title>
<path fill="#6db33f" stroke="black" d="M1060.5,-414C1060.5,-414 936.5,-414 936.5,-414 930.5,-414 924.5,-408 924.5,-402 924.5,-402 924.5,-390 924.5,-390 924.5,-384 930.5,-378 936.5,-378 936.5,-378 1060.5,-378 1060.5,-378 1066.5,-378 1072.5,-384 1072.5,-390 1072.5,-390 1072.5,-402 1072.5,-402 1072.5,-408 1066.5,-414 1060.5,-414"/>
<text text-anchor="middle" x="998.5" y="-392.3" font-family="Times,serif" font-size="14.00">65: getCameraLookAt()</text>
</g>
<!-- node_c2d46242 -->
<g id="node6" class="node">
<title>node_c2d46242</title>
<path fill="#6db33f" stroke="black" d="M1084.5,-306C1084.5,-306 912.5,-306 912.5,-306 906.5,-306 900.5,-300 900.5,-294 900.5,-294 900.5,-282 900.5,-282 900.5,-276 906.5,-270 912.5,-270 912.5,-270 1084.5,-270 1084.5,-270 1090.5,-270 1096.5,-276 1096.5,-282 1096.5,-282 1096.5,-294 1096.5,-294 1096.5,-300 1090.5,-306 1084.5,-306"/>
<text text-anchor="middle" x="998.5" y="-284.3" font-family="Times,serif" font-size="14.00">7: getMashFromBlenderModel()</text>
</g>
<!-- node_b9b4c630 -->
<g id="node7" class="node">
<title>node_b9b4c630</title>
<path fill="#6db33f" stroke="black" d="M1257,-252C1257,-252 1164,-252 1164,-252 1158,-252 1152,-246 1152,-240 1152,-240 1152,-228 1152,-228 1152,-222 1158,-216 1164,-216 1164,-216 1257,-216 1257,-216 1263,-216 1269,-222 1269,-228 1269,-228 1269,-240 1269,-240 1269,-246 1263,-252 1257,-252"/>
<text text-anchor="middle" x="1210.5" y="-230.3" font-family="Times,serif" font-size="14.00">189: showVector()</text>
</g>
<!-- node_289e549e -->
<g id="node8" class="node">
<title>node_289e549e</title>
<path fill="#966f33" stroke="black" d="M1104,-252C1104,-252 893,-252 893,-252 887,-252 881,-246 881,-240 881,-240 881,-228 881,-228 881,-222 887,-216 893,-216 893,-216 1104,-216 1104,-216 1110,-216 1116,-222 1116,-228 1116,-228 1116,-240 1116,-240 1116,-246 1110,-252 1104,-252"/>
<text text-anchor="middle" x="998.5" y="-230.3" font-family="Times,serif" font-size="14.00">127: turnVectorAroundHorizontalAxis()</text>
</g>
<!-- node_289e549e&#45;&gt;node_b9b4c630 -->
<g id="edge6" class="edge">
<title>node_289e549e&#45;&gt;node_b9b4c630</title>
<path fill="none" stroke="#d55e00" stroke-width="2" d="M1116.28,-234C1116.28,-234 1138.56,-234 1138.56,-234"/>
<polygon fill="#d55e00" stroke="#d55e00" stroke-width="2" points="1138.56,-237.5 1148.56,-234 1138.56,-230.5 1138.56,-237.5"/>
</g>
<!-- node_5b6a93f6 -->
<g id="node9" class="node">
<title>node_5b6a93f6</title>
<path fill="#cccccc" stroke="black" d="M361.5,-297C361.5,-297 327.5,-297 327.5,-297 321.5,-297 315.5,-291 315.5,-285 315.5,-285 315.5,-273 315.5,-273 315.5,-267 321.5,-261 327.5,-261 327.5,-261 361.5,-261 361.5,-261 367.5,-261 373.5,-267 373.5,-273 373.5,-273 373.5,-285 373.5,-285 373.5,-291 367.5,-297 361.5,-297"/>
<text text-anchor="middle" x="344.5" y="-275.3" font-family="Times,serif" font-size="14.00">4: init()</text>
</g>
<!-- node_3a2c213c -->
<g id="node10" class="node">
<title>node_3a2c213c</title>
<path fill="#6db33f" stroke="black" d="M573.5,-135C573.5,-135 457.5,-135 457.5,-135 451.5,-135 445.5,-129 445.5,-123 445.5,-123 445.5,-111 445.5,-111 445.5,-105 451.5,-99 457.5,-99 457.5,-99 573.5,-99 573.5,-99 579.5,-99 585.5,-105 585.5,-111 585.5,-111 585.5,-123 585.5,-123 585.5,-129 579.5,-135 573.5,-135"/>
<text text-anchor="middle" x="515.5" y="-113.3" font-family="Times,serif" font-size="14.00">108: initDevControls()</text>
</g>
<!-- node_5b6a93f6&#45;&gt;node_3a2c213c -->
<g id="edge9" class="edge">
<title>node_5b6a93f6&#45;&gt;node_3a2c213c</title>
<path fill="none" stroke="#d55e00" stroke-width="2" d="M345,-260.73C345,-218.36 345,-117 345,-117 345,-117 432.14,-117 432.14,-117"/>
<polygon fill="#d55e00" stroke="#d55e00" stroke-width="2" points="432.14,-120.5 442.14,-117 432.14,-113.5 432.14,-120.5"/>
</g>
<!-- node_e15f7cbc -->
<g id="node11" class="node">
<title>node_e15f7cbc</title>
<path fill="#6db33f" stroke="black" d="M549,-189C549,-189 482,-189 482,-189 476,-189 470,-183 470,-177 470,-177 470,-165 470,-165 470,-159 476,-153 482,-153 482,-153 549,-153 549,-153 555,-153 561,-159 561,-165 561,-165 561,-177 561,-177 561,-183 555,-189 549,-189"/>
<text text-anchor="middle" x="515.5" y="-167.3" font-family="Times,serif" font-size="14.00">91: initStats()</text>
</g>
<!-- node_5b6a93f6&#45;&gt;node_e15f7cbc -->
<g id="edge10" class="edge">
<title>node_5b6a93f6&#45;&gt;node_e15f7cbc</title>
<path fill="none" stroke="#d55e00" stroke-width="2" d="M359,-260.68C359,-229.87 359,-171 359,-171 359,-171 456.79,-171 456.79,-171"/>
<polygon fill="#d55e00" stroke="#d55e00" stroke-width="2" points="456.79,-174.5 466.79,-171 456.79,-167.5 456.79,-174.5"/>
</g>
<!-- node_9455b84f -->
<g id="node12" class="node">
<title>node_9455b84f</title>
<path fill="#6db33f" stroke="black" d="M595.5,-243C595.5,-243 435.5,-243 435.5,-243 429.5,-243 423.5,-237 423.5,-231 423.5,-231 423.5,-219 423.5,-219 423.5,-213 429.5,-207 435.5,-207 435.5,-207 595.5,-207 595.5,-207 601.5,-207 607.5,-213 607.5,-219 607.5,-219 607.5,-231 607.5,-231 607.5,-237 601.5,-243 595.5,-243"/>
<text text-anchor="middle" x="515.5" y="-221.3" font-family="Times,serif" font-size="14.00">188: putStartScreenOnReady()</text>
</g>
<!-- node_5b6a93f6&#45;&gt;node_9455b84f -->
<g id="edge11" class="edge">
<title>node_5b6a93f6&#45;&gt;node_9455b84f</title>
<path fill="none" stroke="#d55e00" stroke-width="2" d="M373.88,-270C405.41,-270 451,-270 451,-270 451,-270 451,-256.33 451,-256.33"/>
<polygon fill="#d55e00" stroke="#d55e00" stroke-width="2" points="454.5,-256.33 451,-246.33 447.5,-256.33 454.5,-256.33"/>
</g>
<!-- node_14ea8319 -->
<g id="node13" class="node">
<title>node_14ea8319</title>
<path fill="#6db33f" stroke="black" d="M558,-297C558,-297 473,-297 473,-297 467,-297 461,-291 461,-285 461,-285 461,-273 461,-273 461,-267 467,-261 473,-261 473,-261 558,-261 558,-261 564,-261 570,-267 570,-273 570,-273 570,-285 570,-285 570,-291 564,-297 558,-297"/>
<text text-anchor="middle" x="515.5" y="-275.3" font-family="Times,serif" font-size="14.00">178: startScene()</text>
</g>
<!-- node_5b6a93f6&#45;&gt;node_14ea8319 -->
<g id="edge12" class="edge">
<title>node_5b6a93f6&#45;&gt;node_14ea8319</title>
<path fill="none" stroke="#d55e00" stroke-width="2" d="M373.9,-279C373.9,-279 447.59,-279 447.59,-279"/>
<polygon fill="#d55e00" stroke="#d55e00" stroke-width="2" points="447.59,-282.5 457.59,-279 447.59,-275.5 447.59,-282.5"/>
</g>
<!-- node_0d75dda9 -->
<g id="node20" class="node">
<title>node_0d75dda9</title>
<path fill="#cccccc" stroke="black" d="M564.5,-634C564.5,-634 466.5,-634 466.5,-634 460.5,-634 454.5,-628 454.5,-622 454.5,-622 454.5,-610 454.5,-610 454.5,-604 460.5,-598 466.5,-598 466.5,-598 564.5,-598 564.5,-598 570.5,-598 576.5,-604 576.5,-610 576.5,-610 576.5,-622 576.5,-622 576.5,-628 570.5,-634 564.5,-634"/>
<text text-anchor="middle" x="515.5" y="-612.3" font-family="Times,serif" font-size="14.00">4: initInteractions()</text>
</g>
<!-- node_5b6a93f6&#45;&gt;node_0d75dda9 -->
<g id="edge17" class="edge">
<title>node_5b6a93f6&#45;&gt;node_0d75dda9</title>
<path fill="none" stroke="#d55e00" stroke-width="2" d="M351,-297.12C351,-367.12 351,-616 351,-616 351,-616 441.22,-616 441.22,-616"/>
<polygon fill="#d55e00" stroke="#d55e00" stroke-width="2" points="441.22,-619.5 451.22,-616 441.22,-612.5 441.22,-619.5"/>
</g>
<!-- node_87f93f2c -->
<g id="node26" class="node">
<title>node_87f93f2c</title>
<path fill="#cccccc" stroke="black" d="M555,-52C555,-52 476,-52 476,-52 470,-52 464,-46 464,-40 464,-40 464,-28 464,-28 464,-22 470,-16 476,-16 476,-16 555,-16 555,-16 561,-16 567,-22 567,-28 567,-28 567,-40 567,-40 567,-46 561,-52 555,-52"/>
<text text-anchor="middle" x="515.5" y="-30.3" font-family="Times,serif" font-size="14.00">4: placeLights()</text>
</g>
<!-- node_5b6a93f6&#45;&gt;node_87f93f2c -->
<g id="edge18" class="edge">
<title>node_5b6a93f6&#45;&gt;node_87f93f2c</title>
<path fill="none" stroke="#d55e00" stroke-width="2" d="M330,-260.59C330,-203.61 330,-34 330,-34 330,-34 450.8,-34 450.8,-34"/>
<polygon fill="#d55e00" stroke="#d55e00" stroke-width="2" points="450.8,-37.5 460.8,-34 450.8,-30.5 450.8,-37.5"/>
</g>
<!-- node_4e437482 -->
<g id="node27" class="node">
<title>node_4e437482</title>
<path fill="#cccccc" stroke="black" d="M788,-306C788,-306 702,-306 702,-306 696,-306 690,-300 690,-294 690,-294 690,-282 690,-282 690,-276 696,-270 702,-270 702,-270 788,-270 788,-270 794,-270 800,-276 800,-282 800,-282 800,-294 800,-294 800,-300 794,-306 788,-306"/>
<text text-anchor="middle" x="745" y="-284.3" font-family="Times,serif" font-size="14.00">4: placeObjects()</text>
</g>
<!-- node_5b6a93f6&#45;&gt;node_4e437482 -->
<g id="edge19" class="edge">
<title>node_5b6a93f6&#45;&gt;node_4e437482</title>
<path fill="none" stroke="#d55e00" stroke-width="2" d="M328,-297.16C328,-299.72 328,-301.5 328,-301.5 328,-301.5 676.6,-301.5 676.6,-301.5"/>
<polygon fill="#d55e00" stroke="#d55e00" stroke-width="2" points="676.6,-305 686.6,-301.5 676.6,-298 676.6,-305"/>
</g>
<!-- node_20e18f37 -->
<g id="node31" class="node">
<title>node_20e18f37</title>
<path fill="#6db33f" stroke="black" d="M588.5,-443C588.5,-443 442.5,-443 442.5,-443 436.5,-443 430.5,-437 430.5,-431 430.5,-431 430.5,-419 430.5,-419 430.5,-413 436.5,-407 442.5,-407 442.5,-407 588.5,-407 588.5,-407 594.5,-407 600.5,-413 600.5,-419 600.5,-419 600.5,-431 600.5,-431 600.5,-437 594.5,-443 588.5,-443"/>
<text text-anchor="middle" x="515.5" y="-421.3" font-family="Times,serif" font-size="14.00">211: initMouseClickMove()</text>
</g>
<!-- node_5b6a93f6&#45;&gt;node_20e18f37 -->
<g id="edge20" class="edge">
<title>node_5b6a93f6&#45;&gt;node_20e18f37</title>
<path fill="none" stroke="#d55e00" stroke-width="2" d="M373.98,-288C402.36,-288 441,-288 441,-288 441,-288 441,-393.5 441,-393.5"/>
<polygon fill="#d55e00" stroke="#d55e00" stroke-width="2" points="437.5,-393.5 441,-403.5 444.5,-393.5 437.5,-393.5"/>
</g>
<!-- node_b6ceaf08 -->
<g id="node32" class="node">
<title>node_b6ceaf08</title>
<path fill="#cccccc" stroke="black" d="M550.5,-389C550.5,-389 480.5,-389 480.5,-389 474.5,-389 468.5,-383 468.5,-377 468.5,-377 468.5,-365 468.5,-365 468.5,-359 474.5,-353 480.5,-353 480.5,-353 550.5,-353 550.5,-353 556.5,-353 562.5,-359 562.5,-365 562.5,-365 562.5,-377 562.5,-377 562.5,-383 556.5,-389 550.5,-389"/>
<text text-anchor="middle" x="515.5" y="-367.3" font-family="Times,serif" font-size="14.00">13: initWalk()</text>
</g>
<!-- node_5b6a93f6&#45;&gt;node_b6ceaf08 -->
<g id="edge21" class="edge">
<title>node_5b6a93f6&#45;&gt;node_b6ceaf08</title>
<path fill="none" stroke="#d55e00" stroke-width="2" d="M362,-297.18C362,-323.99 362,-371 362,-371 362,-371 455.17,-371 455.17,-371"/>
<polygon fill="#d55e00" stroke="#d55e00" stroke-width="2" points="455.17,-374.5 465.17,-371 455.17,-367.5 455.17,-374.5"/>
</g>
<!-- node_24dd0e89 -->
<g id="node18" class="node">
<title>node_24dd0e89</title>
<path fill="#6db33f" stroke="black" d="M833,-580C833,-580 657,-580 657,-580 651,-580 645,-574 645,-568 645,-568 645,-556 645,-556 645,-550 651,-544 657,-544 657,-544 833,-544 833,-544 839,-544 845,-550 845,-556 845,-556 845,-568 845,-568 845,-574 839,-580 833,-580"/>
<text text-anchor="middle" x="745" y="-558.3" font-family="Times,serif" font-size="14.00">83: initAdjustBlackboardHeight()</text>
</g>
<!-- node_0fdcd5a4 -->
<g id="node19" class="node">
<title>node_0fdcd5a4</title>
<path fill="#6db33f" stroke="black" d="M786.5,-634C786.5,-634 703.5,-634 703.5,-634 697.5,-634 691.5,-628 691.5,-622 691.5,-622 691.5,-610 691.5,-610 691.5,-604 697.5,-598 703.5,-598 703.5,-598 786.5,-598 786.5,-598 792.5,-598 798.5,-604 798.5,-610 798.5,-610 798.5,-622 798.5,-622 798.5,-628 792.5,-634 786.5,-634"/>
<text text-anchor="middle" x="745" y="-612.3" font-family="Times,serif" font-size="14.00">19: initInfoDiv()</text>
</g>
<!-- node_0d75dda9&#45;&gt;node_24dd0e89 -->
<g id="edge22" class="edge">
<title>node_0d75dda9&#45;&gt;node_24dd0e89</title>
<path fill="none" stroke="#e69f00" stroke-width="2" d="M576.76,-603.14C615.38,-603.14 658,-603.14 658,-603.14 658,-603.14 658,-593.19 658,-593.19"/>
<polygon fill="#e69f00" stroke="#e69f00" stroke-width="2" points="661.5,-593.19 658,-583.19 654.5,-593.19 661.5,-593.19"/>
</g>
<!-- node_0d75dda9&#45;&gt;node_0fdcd5a4 -->
<g id="edge23" class="edge">
<title>node_0d75dda9&#45;&gt;node_0fdcd5a4</title>
<path fill="none" stroke="#e69f00" stroke-width="2" d="M576.7,-608.29C576.7,-608.29 677.98,-608.29 677.98,-608.29"/>
<polygon fill="#e69f00" stroke="#e69f00" stroke-width="2" points="677.98,-611.79 687.98,-608.29 677.98,-604.79 677.98,-611.79"/>
</g>
<!-- node_70e55a3b -->
<g id="node21" class="node">
<title>node_70e55a3b</title>
<path fill="#6db33f" stroke="black" d="M800.5,-688C800.5,-688 689.5,-688 689.5,-688 683.5,-688 677.5,-682 677.5,-676 677.5,-676 677.5,-664 677.5,-664 677.5,-658 683.5,-652 689.5,-652 689.5,-652 800.5,-652 800.5,-652 806.5,-652 812.5,-658 812.5,-664 812.5,-664 812.5,-676 812.5,-676 812.5,-682 806.5,-688 800.5,-688"/>
<text text-anchor="middle" x="745" y="-666.3" font-family="Times,serif" font-size="14.00">230: initOpenCloset()</text>
</g>
<!-- node_0d75dda9&#45;&gt;node_70e55a3b -->
<g id="edge24" class="edge">
<title>node_0d75dda9&#45;&gt;node_70e55a3b</title>
<path fill="none" stroke="#e69f00" stroke-width="2" d="M576.69,-613.43C625.24,-613.43 685,-613.43 685,-613.43 685,-613.43 685,-638.76 685,-638.76"/>
<polygon fill="#e69f00" stroke="#e69f00" stroke-width="2" points="681.5,-638.76 685,-648.76 688.5,-638.76 681.5,-638.76"/>
</g>
<!-- node_a4ba443d -->
<g id="node22" class="node">
<title>node_a4ba443d</title>
<path fill="#6db33f" stroke="black" d="M816.5,-742C816.5,-742 673.5,-742 673.5,-742 667.5,-742 661.5,-736 661.5,-730 661.5,-730 661.5,-718 661.5,-718 661.5,-712 667.5,-706 673.5,-706 673.5,-706 816.5,-706 816.5,-706 822.5,-706 828.5,-712 828.5,-718 828.5,-718 828.5,-730 828.5,-730 828.5,-736 822.5,-742 816.5,-742"/>
<text text-anchor="middle" x="745" y="-720.3" font-family="Times,serif" font-size="14.00">192: initPutChairOnTable()</text>
</g>
<!-- node_0d75dda9&#45;&gt;node_a4ba443d -->
<g id="edge25" class="edge">
<title>node_0d75dda9&#45;&gt;node_a4ba443d</title>
<path fill="none" stroke="#e69f00" stroke-width="2" d="M576.56,-618.57C619.75,-618.57 670,-618.57 670,-618.57 670,-618.57 670,-692.61 670,-692.61"/>
<polygon fill="#e69f00" stroke="#e69f00" stroke-width="2" points="666.5,-692.61 670,-702.61 673.5,-692.61 666.5,-692.61"/>
</g>
<!-- node_4a483e4f -->
<g id="node23" class="node">
<title>node_4a483e4f</title>
<path fill="#cccccc" stroke="black" d="M802,-796C802,-796 688,-796 688,-796 682,-796 676,-790 676,-784 676,-784 676,-772 676,-772 676,-766 682,-760 688,-760 688,-760 802,-760 802,-760 808,-760 814,-766 814,-772 814,-772 814,-784 814,-784 814,-790 808,-796 802,-796"/>
<text text-anchor="middle" x="745" y="-774.3" font-family="Times,serif" font-size="14.00">141: initSwitchLight()</text>
</g>
<!-- node_0d75dda9&#45;&gt;node_4a483e4f -->
<g id="edge26" class="edge">
<title>node_0d75dda9&#45;&gt;node_4a483e4f</title>
<path fill="none" stroke="#e69f00" stroke-width="2" d="M576.8,-628.86C602.7,-628.86 627,-628.86 627,-628.86 627,-628.86 627,-778 627,-778 627,-778 662.65,-778 662.65,-778"/>
<polygon fill="#e69f00" stroke="#e69f00" stroke-width="2" points="662.65,-781.5 672.65,-778 662.65,-774.5 662.65,-781.5"/>
</g>
<!-- node_739ab424 -->
<g id="node24" class="node">
<title>node_739ab424</title>
<path fill="#6db33f" stroke="black" d="M828.5,-850C828.5,-850 661.5,-850 661.5,-850 655.5,-850 649.5,-844 649.5,-838 649.5,-838 649.5,-826 649.5,-826 649.5,-820 655.5,-814 661.5,-814 661.5,-814 828.5,-814 828.5,-814 834.5,-814 840.5,-820 840.5,-826 840.5,-826 840.5,-838 840.5,-838 840.5,-844 834.5,-850 828.5,-850"/>
<text text-anchor="middle" x="745" y="-828.3" font-family="Times,serif" font-size="14.00">71: initTriggerFlightSimulator()</text>
</g>
<!-- node_0d75dda9&#45;&gt;node_739ab424 -->
<g id="edge27" class="edge">
<title>node_0d75dda9&#45;&gt;node_739ab424</title>
<path fill="none" stroke="#e69f00" stroke-width="2" d="M576.65,-623.71C613.75,-623.71 654,-623.71 654,-623.71 654,-623.71 654,-800.49 654,-800.49"/>
<polygon fill="#e69f00" stroke="#e69f00" stroke-width="2" points="650.5,-800.49 654,-810.49 657.5,-800.49 650.5,-800.49"/>
</g>
<!-- node_4a483e4f&#45;&gt;node_d2bdccd3 -->
<g id="edge28" class="edge">
<title>node_4a483e4f&#45;&gt;node_d2bdccd3</title>
<path fill="none" stroke="#cc79a7" stroke-width="2" d="M814.25,-778C842.65,-778 869,-778 869,-778 869,-778 869,-357.67 869,-357.67 869,-357.67 933.55,-357.67 933.55,-357.67"/>
<polygon fill="#cc79a7" stroke="#cc79a7" stroke-width="2" points="933.55,-361.17 943.55,-357.67 933.55,-354.17 933.55,-361.17"/>
</g>
<!-- node_82ca8ba9 -->
<g id="node25" class="node">
<title>node_82ca8ba9</title>
<path fill="#966f33" stroke="black" d="M163,-492C163,-492 104,-492 104,-492 98,-492 92,-486 92,-480 92,-480 92,-468 92,-468 92,-462 98,-456 104,-456 104,-456 163,-456 163,-456 169,-456 175,-462 175,-468 175,-468 175,-480 175,-480 175,-486 169,-492 163,-492"/>
<text text-anchor="middle" x="133.5" y="-470.3" font-family="Times,serif" font-size="14.00">0: (global)()</text>
</g>
<!-- node_82ca8ba9&#45;&gt;node_4fcf5f87 -->
<g id="edge34" class="edge">
<title>node_82ca8ba9&#45;&gt;node_4fcf5f87</title>
<path fill="none" stroke="#e69f00" stroke-width="2" d="M175.33,-476.5C227.52,-476.5 310,-476.5 310,-476.5 310,-476.5 310,-665.55 310,-665.55"/>
<polygon fill="#e69f00" stroke="#e69f00" stroke-width="2" points="306.5,-665.55 310,-675.55 313.5,-665.55 306.5,-665.55"/>
</g>
<!-- node_82ca8ba9&#45;&gt;node_5b6a93f6 -->
<g id="edge35" class="edge">
<title>node_82ca8ba9&#45;&gt;node_5b6a93f6</title>
<path fill="none" stroke="#e69f00" stroke-width="2" d="M175.09,-468.75C235.13,-468.75 339,-468.75 339,-468.75 339,-468.75 339,-310.22 339,-310.22"/>
<polygon fill="#e69f00" stroke="#e69f00" stroke-width="2" points="342.5,-310.22 339,-300.22 335.5,-310.22 342.5,-310.22"/>
</g>
<!-- node_87f93f2c&#45;&gt;node_c2d46242 -->
<g id="edge36" class="edge">
<title>node_87f93f2c&#45;&gt;node_c2d46242</title>
<path fill="none" stroke="#f0e442" stroke-width="2" d="M567.27,-34C656.31,-34 829,-34 829,-34 829,-34 829,-282 829,-282 829,-282 887.36,-282 887.36,-282"/>
<polygon fill="#f0e442" stroke="#f0e442" stroke-width="2" points="887.36,-285.5 897.36,-282 887.36,-278.5 887.36,-285.5"/>
</g>
<!-- node_4e437482&#45;&gt;node_d2bdccd3 -->
<g id="edge37" class="edge">
<title>node_4e437482&#45;&gt;node_d2bdccd3</title>
<path fill="none" stroke="#56b4e9" stroke-width="2" d="M745,-306.5C745,-322.05 745,-341.75 745,-341.75 745,-341.75 933.56,-341.75 933.56,-341.75"/>
<polygon fill="#56b4e9" stroke="#56b4e9" stroke-width="2" points="933.56,-345.25 943.56,-341.75 933.56,-338.25 933.56,-345.25"/>
</g>
<!-- node_4e437482&#45;&gt;node_c2d46242 -->
<g id="edge49" class="edge">
<title>node_4e437482&#45;&gt;node_c2d46242</title>
<path fill="none" stroke="#56b4e9" stroke-width="2" d="M800.32,-294C800.32,-294 887.1,-294 887.1,-294"/>
<polygon fill="#56b4e9" stroke="#56b4e9" stroke-width="2" points="887.1,-297.5 897.1,-294 887.1,-290.5 887.1,-297.5"/>
</g>
<!-- node_861b4e4b -->
<g id="node28" class="node">
<title>node_861b4e4b</title>
<path fill="#6db33f" stroke="black" d="M793,-389C793,-389 697,-389 697,-389 691,-389 685,-383 685,-377 685,-377 685,-365 685,-365 685,-359 691,-353 697,-353 697,-353 793,-353 793,-353 799,-353 805,-359 805,-365 805,-365 805,-377 805,-377 805,-383 799,-389 793,-389"/>
<text text-anchor="middle" x="745" y="-367.3" font-family="Times,serif" font-size="14.00">129: createPlayer()</text>
</g>
<!-- node_b0444c73 -->
<g id="node29" class="node">
<title>node_b0444c73</title>
<path fill="#cccccc" stroke="black" d="M799.5,-443C799.5,-443 690.5,-443 690.5,-443 684.5,-443 678.5,-437 678.5,-431 678.5,-431 678.5,-419 678.5,-419 678.5,-413 684.5,-407 690.5,-407 690.5,-407 799.5,-407 799.5,-407 805.5,-407 811.5,-413 811.5,-419 811.5,-419 811.5,-431 811.5,-431 811.5,-437 805.5,-443 799.5,-443"/>
<text text-anchor="middle" x="745" y="-421.3" font-family="Times,serif" font-size="14.00">87: getNewPosition()</text>
</g>
<!-- node_b0444c73&#45;&gt;node_d2bdccd3 -->
<g id="edge58" class="edge">
<title>node_b0444c73&#45;&gt;node_d2bdccd3</title>
<path fill="none" stroke="#009e73" stroke-width="2" d="M811.77,-410.5C835.75,-410.5 857,-410.5 857,-410.5 857,-410.5 857,-355.33 857,-355.33 857,-355.33 933.59,-355.33 933.59,-355.33"/>
<polygon fill="#009e73" stroke="#009e73" stroke-width="2" points="933.59,-358.83 943.59,-355.33 933.59,-351.83 933.59,-358.83"/>
</g>
<!-- node_a5d6460f&#45;&gt;node_0ea06f69 -->
<g id="edge60" class="edge">
<title>node_a5d6460f&#45;&gt;node_0ea06f69</title>
<path fill="none" stroke="#cc79a7" stroke-width="2" d="M583.93,-466.25C583.93,-466.25 921.19,-466.25 921.19,-466.25"/>
<polygon fill="#cc79a7" stroke="#cc79a7" stroke-width="2" points="921.19,-469.75 931.19,-466.25 921.19,-462.75 921.19,-469.75"/>
</g>
<!-- node_a5d6460f&#45;&gt;node_d3d21c3d -->
<g id="edge61" class="edge">
<title>node_a5d6460f&#45;&gt;node_d3d21c3d</title>
<path fill="none" stroke="#cc79a7" stroke-width="2" d="M583.95,-464.5C701.68,-464.5 930,-464.5 930,-464.5 930,-464.5 930,-427.38 930,-427.38"/>
<polygon fill="#cc79a7" stroke="#cc79a7" stroke-width="2" points="933.5,-427.38 930,-417.38 926.5,-427.38 933.5,-427.38"/>
</g>
<!-- node_a5d6460f&#45;&gt;node_b0444c73 -->
<g id="edge62" class="edge">
<title>node_a5d6460f&#45;&gt;node_b0444c73</title>
<path fill="none" stroke="#cc79a7" stroke-width="2" d="M583.74,-462.75C651.39,-462.75 745,-462.75 745,-462.75 745,-462.75 745,-456.46 745,-456.46"/>
<polygon fill="#cc79a7" stroke="#cc79a7" stroke-width="2" points="748.5,-456.46 745,-446.46 741.5,-456.46 748.5,-456.46"/>
</g>
<!-- node_b6ceaf08&#45;&gt;node_861b4e4b -->
<g id="edge63" class="edge">
<title>node_b6ceaf08&#45;&gt;node_861b4e4b</title>
<path fill="none" stroke="#000000" stroke-width="2" d="M562.77,-371C562.77,-371 671.65,-371 671.65,-371"/>
<polygon fill="#000000" stroke="#000000" stroke-width="2" points="671.65,-374.5 681.65,-371 671.65,-367.5 671.65,-374.5"/>
</g>
</g>
</svg>
