<?xml version="1.0" encoding="UTF-8" standalone="no"?>
<!DOCTYPE svg PUBLIC "-//W3C//DTD SVG 1.1//EN"
 "http://www.w3.org/Graphics/SVG/1.1/DTD/svg11.dtd">
<!-- Generated by graphviz version 7.0.1 (20221109.1506)
 -->
<!-- Title: G Pages: 1 -->
<svg width="1290pt" height="951pt"
 viewBox="0.00 0.00 1290.00 951.00" xmlns="http://www.w3.org/2000/svg" xmlns:xlink="http://www.w3.org/1999/xlink">
<g id="graph0" class="graph" transform="scale(1 1) rotate(0) translate(4 947)">
<title>G</title>
<polygon fill="white" stroke="none" points="-4,4 -4,-947 1286,-947 1286,4 -4,4"/>
<g id="clust2" class="cluster">
<title>cluster_e969a950</title>
<polygon fill="none" stroke="black" stroke-dasharray="1,5" points="295,-698 295,-773 394,-773 394,-698 295,-698"/>
<text text-anchor="middle" x="344.5" y="-757.8" font-family="Times,serif" font-size="14.00">File: animate</text>
</g>
<g id="clust3" class="cluster">
<title>cluster_fa1cc2b4</title>
<polygon fill="none" stroke="black" stroke-dasharray="1,5" points="870,-262 870,-553 1274,-553 1274,-262 870,-262"/>
<text text-anchor="middle" x="1072" y="-537.8" font-family="Times,serif" font-size="14.00">File: helpers</text>
</g>
<g id="clust4" class="cluster">
<title>cluster_496eb14c</title>
<polygon fill="none" stroke="black" stroke-dasharray="1,5" points="307.5,-91 307.5,-382 614,-382 614,-91 307.5,-91"/>
<text text-anchor="middle" x="460.75" y="-366.8" font-family="Times,serif" font-size="14.00">File: init</text>
</g>
<g id="clust5" class="cluster">
<title>cluster_48b03510</title>
<polygon fill="none" stroke="black" stroke-dasharray="1,5" points="418,-590 418,-935 850,-935 850,-590 418,-590"/>
<text text-anchor="middle" x="634" y="-919.8" font-family="Times,serif" font-size="14.00">File: interactions</text>
</g>
<g id="clust6" class="cluster">
<title>cluster_94d32946</title>
<polygon fill="none" stroke="black" stroke-dasharray="1,5" points="84,-502 84,-577 183,-577 183,-502 84,-502"/>
<text text-anchor="middle" x="133.5" y="-561.8" font-family="Times,serif" font-size="14.00">File: main</text>
</g>
<g id="clust7" class="cluster">
<title>cluster_d3e62722</title>
<polygon fill="none" stroke="black" stroke-dasharray="1,5" points="454.5,-8 454.5,-83 573.5,-83 573.5,-8 454.5,-8"/>
<text text-anchor="middle" x="514" y="-67.8" font-family="Times,serif" font-size="14.00">File: place&#45;lights</text>
</g>
<g id="clust8" class="cluster">
<title>cluster_c391d878</title>
<polygon fill="none" stroke="black" stroke-dasharray="1,5" points="679,-316 679,-391 805,-391 805,-316 679,-316"/>
<text text-anchor="middle" x="742" y="-375.8" font-family="Times,serif" font-size="14.00">File: place&#45;objects</text>
</g>
<g id="clust9" class="cluster">
<title>cluster_3b8a04bb</title>
<polygon fill="none" stroke="black" stroke-dasharray="1,5" points="421,-399 421,-582 816.5,-582 816.5,-399 421,-399"/>
<text text-anchor="middle" x="618.75" y="-566.8" font-family="Times,serif" font-size="14.00">File: walk</text>
</g>
<!-- Legend -->
<g id="node1" class="node">
<title>Legend</title>
<polygon fill="none" stroke="black" points="1.5,-473 1.5,-490 266.5,-490 266.5,-473 1.5,-473"/>
<text text-anchor="start" x="81.5" y="-477.8" font-family="Times,serif" font-size="14.00">Code2flow Legend</text>
<polygon fill="none" stroke="black" points="1.5,-385 1.5,-473 266.5,-473 266.5,-385 1.5,-385"/>
<polygon fill="none" stroke="black" points="3.5,-450 3.5,-471 214.5,-471 214.5,-450 3.5,-450"/>
<text text-anchor="start" x="63" y="-456.8" font-family="Times,serif" font-size="14.00">Regular function</text>
<polygon fill="#cccccc" stroke="none" points="214.5,-450 214.5,-471 264.5,-471 264.5,-450 214.5,-450"/>
<polygon fill="none" stroke="black" points="214.5,-450 214.5,-471 264.5,-471 264.5,-450 214.5,-450"/>
<polygon fill="none" stroke="black" points="3.5,-429 3.5,-450 214.5,-450 214.5,-429 3.5,-429"/>
<text text-anchor="start" x="15" y="-435.8" font-family="Times,serif" font-size="14.00">Trunk function (nothing calls this)</text>
<polygon fill="#966f33" stroke="none" points="214.5,-429 214.5,-450 264.5,-450 264.5,-429 214.5,-429"/>
<polygon fill="none" stroke="black" points="214.5,-429 214.5,-450 264.5,-450 264.5,-429 214.5,-429"/>
<polygon fill="none" stroke="black" points="3.5,-408 3.5,-429 214.5,-429 214.5,-408 3.5,-408"/>
<text text-anchor="start" x="6.5" y="-414.8" font-family="Times,serif" font-size="14.00">Leaf function (this calls nothing else)</text>
<polygon fill="#6db33f" stroke="none" points="214.5,-408 214.5,-429 264.5,-429 264.5,-408 214.5,-408"/>
<polygon fill="none" stroke="black" points="214.5,-408 214.5,-429 264.5,-429 264.5,-408 214.5,-408"/>
<polygon fill="none" stroke="black" points="3.5,-387 3.5,-408 214.5,-408 214.5,-387 3.5,-387"/>
<text text-anchor="start" x="73" y="-393.8" font-family="Times,serif" font-size="14.00">Function call</text>
<polygon fill="none" stroke="black" points="214.5,-387 214.5,-408 264.5,-408 264.5,-387 214.5,-387"/>
<text text-anchor="start" x="232" y="-393.8" font-family="Times,serif" font-size="14.00">→</text>
<polygon fill="none" stroke="black" points="2.5,-386 2.5,-472 265.5,-472 265.5,-386 2.5,-386"/>
<polygon fill="none" stroke="black" points="0,-384.5 0,-491.5 267,-491.5 267,-384.5 0,-384.5"/>
</g>
<!-- node_7d19ad0e -->
<g id="node2" class="node">
<title>node_7d19ad0e</title>
<path fill="#cccccc" stroke="black" d="M374,-742C374,-742 315,-742 315,-742 309,-742 303,-736 303,-730 303,-730 303,-718 303,-718 303,-712 309,-706 315,-706 315,-706 374,-706 374,-706 380,-706 386,-712 386,-718 386,-718 386,-730 386,-730 386,-736 380,-742 374,-742"/>
<text text-anchor="middle" x="344.5" y="-720.3" font-family="Times,serif" font-size="14.00">6: animate()</text>
</g>
<!-- node_c9fa3639 -->
<g id="node15" class="node">
<title>node_c9fa3639</title>
<path fill="#6db33f" stroke="black" d="M588,-850C588,-850 440,-850 440,-850 434,-850 428,-844 428,-838 428,-838 428,-826 428,-826 428,-820 434,-814 440,-814 440,-814 588,-814 588,-814 594,-814 600,-820 600,-826 600,-826 600,-838 600,-838 600,-844 594,-850 588,-850"/>
<text text-anchor="middle" x="514" y="-828.3" font-family="Times,serif" font-size="14.00">273: handleAnimateChairs()</text>
</g>
<!-- node_7d19ad0e&#45;&gt;node_c9fa3639 -->
<g id="edge1" class="edge">
<title>node_7d19ad0e&#45;&gt;node_c9fa3639</title>
<path fill="none" stroke="#d55e00" stroke-width="2" d="M345,-742.32C345,-773.13 345,-832 345,-832 345,-832 414.49,-832 414.49,-832"/>
<polygon fill="#d55e00" stroke="#d55e00" stroke-width="2" points="414.49,-835.5 424.49,-832 414.49,-828.5 414.49,-835.5"/>
</g>
<!-- node_8c714749 -->
<g id="node16" class="node">
<title>node_8c714749</title>
<path fill="#6db33f" stroke="black" d="M590,-796C590,-796 438,-796 438,-796 432,-796 426,-790 426,-784 426,-784 426,-772 426,-772 426,-766 432,-760 438,-760 438,-760 590,-760 590,-760 596,-760 602,-766 602,-772 602,-772 602,-784 602,-784 602,-790 596,-796 590,-796"/>
<text text-anchor="middle" x="514" y="-774.3" font-family="Times,serif" font-size="14.00">483: handleAnimateClosets()</text>
</g>
<!-- node_7d19ad0e&#45;&gt;node_8c714749 -->
<g id="edge2" class="edge">
<title>node_7d19ad0e&#45;&gt;node_8c714749</title>
<path fill="none" stroke="#d55e00" stroke-width="2" d="M386.33,-730C411.22,-730 438,-730 438,-730 438,-730 438,-746.55 438,-746.55"/>
<polygon fill="#d55e00" stroke="#d55e00" stroke-width="2" points="434.5,-746.55 438,-756.55 441.5,-746.55 434.5,-746.55"/>
</g>
<!-- node_ad60852d -->
<g id="node17" class="node">
<title>node_ad60852d</title>
<path fill="#6db33f" stroke="black" d="M568,-742C568,-742 460,-742 460,-742 454,-742 448,-736 448,-730 448,-730 448,-718 448,-718 448,-712 454,-706 460,-706 460,-706 568,-706 568,-706 574,-706 580,-712 580,-718 580,-718 580,-730 580,-730 580,-736 574,-742 568,-742"/>
<text text-anchor="middle" x="514" y="-720.3" font-family="Times,serif" font-size="14.00">553: handleInfoDiv()</text>
</g>
<!-- node_7d19ad0e&#45;&gt;node_ad60852d -->
<g id="edge3" class="edge">
<title>node_7d19ad0e&#45;&gt;node_ad60852d</title>
<path fill="none" stroke="#d55e00" stroke-width="2" d="M386.4,-718C386.4,-718 434.49,-718 434.49,-718"/>
<polygon fill="#d55e00" stroke="#d55e00" stroke-width="2" points="434.49,-721.5 444.49,-718 434.49,-714.5 434.49,-721.5"/>
</g>
<!-- node_dc076ce1 -->
<g id="node30" class="node">
<title>node_dc076ce1</title>
<path fill="#cccccc" stroke="black" d="M570,-551C570,-551 458,-551 458,-551 452,-551 446,-545 446,-539 446,-539 446,-527 446,-527 446,-521 452,-515 458,-515 458,-515 570,-515 570,-515 576,-515 582,-521 582,-527 582,-527 582,-539 582,-539 582,-545 576,-551 570,-551"/>
<text text-anchor="middle" x="514" y="-529.3" font-family="Times,serif" font-size="14.00">150: handleWalking()</text>
</g>
<!-- node_7d19ad0e&#45;&gt;node_dc076ce1 -->
<g id="edge4" class="edge">
<title>node_7d19ad0e&#45;&gt;node_dc076ce1</title>
<path fill="none" stroke="#d55e00" stroke-width="2" d="M380,-705.51C380,-658.53 380,-538.25 380,-538.25 380,-538.25 432.8,-538.25 432.8,-538.25"/>
<polygon fill="#d55e00" stroke="#d55e00" stroke-width="2" points="432.8,-541.75 442.8,-538.25 432.8,-534.75 432.8,-541.75"/>
</g>
<!-- node_9a729e02 -->
<g id="node3" class="node">
<title>node_9a729e02</title>
<path fill="#6db33f" stroke="black" d="M1047.5,-522C1047.5,-522 943.5,-522 943.5,-522 937.5,-522 931.5,-516 931.5,-510 931.5,-510 931.5,-498 931.5,-498 931.5,-492 937.5,-486 943.5,-486 943.5,-486 1047.5,-486 1047.5,-486 1053.5,-486 1059.5,-492 1059.5,-498 1059.5,-498 1059.5,-510 1059.5,-510 1059.5,-516 1053.5,-522 1047.5,-522"/>
<text text-anchor="middle" x="995.5" y="-500.3" font-family="Times,serif" font-size="14.00">93: checkCollision()</text>
</g>
<!-- node_f202c2ba -->
<g id="node4" class="node">
<title>node_f202c2ba</title>
<path fill="#6db33f" stroke="black" d="M1035,-414C1035,-414 956,-414 956,-414 950,-414 944,-408 944,-402 944,-402 944,-390 944,-390 944,-384 950,-378 956,-378 956,-378 1035,-378 1035,-378 1041,-378 1047,-384 1047,-390 1047,-390 1047,-402 1047,-402 1047,-408 1041,-414 1035,-414"/>
<text text-anchor="middle" x="995.5" y="-392.3" font-family="Times,serif" font-size="14.00">82: degToRad()</text>
</g>
<!-- node_2ccb8a22 -->
<g id="node5" class="node">
<title>node_2ccb8a22</title>
<path fill="#6db33f" stroke="black" d="M1057.5,-468C1057.5,-468 933.5,-468 933.5,-468 927.5,-468 921.5,-462 921.5,-456 921.5,-456 921.5,-444 921.5,-444 921.5,-438 927.5,-432 933.5,-432 933.5,-432 1057.5,-432 1057.5,-432 1063.5,-432 1069.5,-438 1069.5,-444 1069.5,-444 1069.5,-456 1069.5,-456 1069.5,-462 1063.5,-468 1057.5,-468"/>
<text text-anchor="middle" x="995.5" y="-446.3" font-family="Times,serif" font-size="14.00">70: getCameraLookAt()</text>
</g>
<!-- node_ac3282bf -->
<g id="node6" class="node">
<title>node_ac3282bf</title>
<path fill="#6db33f" stroke="black" d="M1081.5,-360C1081.5,-360 909.5,-360 909.5,-360 903.5,-360 897.5,-354 897.5,-348 897.5,-348 897.5,-336 897.5,-336 897.5,-330 903.5,-324 909.5,-324 909.5,-324 1081.5,-324 1081.5,-324 1087.5,-324 1093.5,-330 1093.5,-336 1093.5,-336 1093.5,-348 1093.5,-348 1093.5,-354 1087.5,-360 1081.5,-360"/>
<text text-anchor="middle" x="995.5" y="-338.3" font-family="Times,serif" font-size="14.00">9: getMashFromBlenderModel()</text>
</g>
<!-- node_6fe8f12a -->
<g id="node7" class="node">
<title>node_6fe8f12a</title>
<path fill="#6db33f" stroke="black" d="M1254,-306C1254,-306 1161,-306 1161,-306 1155,-306 1149,-300 1149,-294 1149,-294 1149,-282 1149,-282 1149,-276 1155,-270 1161,-270 1161,-270 1254,-270 1254,-270 1260,-270 1266,-276 1266,-282 1266,-282 1266,-294 1266,-294 1266,-300 1260,-306 1254,-306"/>
<text text-anchor="middle" x="1207.5" y="-284.3" font-family="Times,serif" font-size="14.00">193: showVector()</text>
</g>
<!-- node_97be4d0a -->
<g id="node8" class="node">
<title>node_97be4d0a</title>
<path fill="#966f33" stroke="black" d="M1101,-306C1101,-306 890,-306 890,-306 884,-306 878,-300 878,-294 878,-294 878,-282 878,-282 878,-276 884,-270 890,-270 890,-270 1101,-270 1101,-270 1107,-270 1113,-276 1113,-282 1113,-282 1113,-294 1113,-294 1113,-300 1107,-306 1101,-306"/>
<text text-anchor="middle" x="995.5" y="-284.3" font-family="Times,serif" font-size="14.00">131: turnVectorAroundHorizontalAxis()</text>
</g>
<!-- node_97be4d0a&#45;&gt;node_6fe8f12a -->
<g id="edge5" class="edge">
<title>node_97be4d0a&#45;&gt;node_6fe8f12a</title>
<path fill="none" stroke="#56b4e9" stroke-width="2" d="M1113.28,-288C1113.28,-288 1135.56,-288 1135.56,-288"/>
<polygon fill="#56b4e9" stroke="#56b4e9" stroke-width="2" points="1135.56,-291.5 1145.56,-288 1135.56,-284.5 1135.56,-291.5"/>
</g>
<!-- node_50979436 -->
<g id="node9" class="node">
<title>node_50979436</title>
<path fill="#cccccc" stroke="black" d="M361.5,-351C361.5,-351 327.5,-351 327.5,-351 321.5,-351 315.5,-345 315.5,-339 315.5,-339 315.5,-327 315.5,-327 315.5,-321 321.5,-315 327.5,-315 327.5,-315 361.5,-315 361.5,-315 367.5,-315 373.5,-321 373.5,-327 373.5,-327 373.5,-339 373.5,-339 373.5,-345 367.5,-351 361.5,-351"/>
<text text-anchor="middle" x="344.5" y="-329.3" font-family="Times,serif" font-size="14.00">3: init()</text>
</g>
<!-- node_0d26c43b -->
<g id="node10" class="node">
<title>node_0d26c43b</title>
<path fill="#6db33f" stroke="black" d="M572,-243C572,-243 456,-243 456,-243 450,-243 444,-237 444,-231 444,-231 444,-219 444,-219 444,-213 450,-207 456,-207 456,-207 572,-207 572,-207 578,-207 584,-213 584,-219 584,-219 584,-231 584,-231 584,-237 578,-243 572,-243"/>
<text text-anchor="middle" x="514" y="-221.3" font-family="Times,serif" font-size="14.00">108: initDevControls()</text>
</g>
<!-- node_50979436&#45;&gt;node_0d26c43b -->
<g id="edge8" class="edge">
<title>node_50979436&#45;&gt;node_0d26c43b</title>
<path fill="none" stroke="#d55e00" stroke-width="2" d="M359,-314.68C359,-283.87 359,-225 359,-225 359,-225 430.73,-225 430.73,-225"/>
<polygon fill="#d55e00" stroke="#d55e00" stroke-width="2" points="430.73,-228.5 440.73,-225 430.73,-221.5 430.73,-228.5"/>
</g>
<!-- node_42136337 -->
<g id="node11" class="node">
<title>node_42136337</title>
<path fill="#6db33f" stroke="black" d="M569,-297C569,-297 459,-297 459,-297 453,-297 447,-291 447,-285 447,-285 447,-273 447,-273 447,-267 453,-261 459,-261 459,-261 569,-261 569,-261 575,-261 581,-267 581,-273 581,-273 581,-285 581,-285 581,-291 575,-297 569,-297"/>
<text text-anchor="middle" x="514" y="-275.3" font-family="Times,serif" font-size="14.00">178: initStartScreen()</text>
</g>
<!-- node_50979436&#45;&gt;node_42136337 -->
<g id="edge9" class="edge">
<title>node_50979436&#45;&gt;node_42136337</title>
<path fill="none" stroke="#d55e00" stroke-width="2" d="M373.76,-329.4C407.1,-329.4 457,-329.4 457,-329.4 457,-329.4 457,-310.51 457,-310.51"/>
<polygon fill="#d55e00" stroke="#d55e00" stroke-width="2" points="460.5,-310.51 457,-300.51 453.5,-310.51 460.5,-310.51"/>
</g>
<!-- node_18d71043 -->
<g id="node12" class="node">
<title>node_18d71043</title>
<path fill="#6db33f" stroke="black" d="M547.5,-351C547.5,-351 480.5,-351 480.5,-351 474.5,-351 468.5,-345 468.5,-339 468.5,-339 468.5,-327 468.5,-327 468.5,-321 474.5,-315 480.5,-315 480.5,-315 547.5,-315 547.5,-315 553.5,-315 559.5,-321 559.5,-327 559.5,-327 559.5,-339 559.5,-339 559.5,-345 553.5,-351 547.5,-351"/>
<text text-anchor="middle" x="514" y="-329.3" font-family="Times,serif" font-size="14.00">91: initStats()</text>
</g>
<!-- node_50979436&#45;&gt;node_18d71043 -->
<g id="edge10" class="edge">
<title>node_50979436&#45;&gt;node_18d71043</title>
<path fill="none" stroke="#d55e00" stroke-width="2" d="M373.64,-336.6C373.64,-336.6 454.99,-336.6 454.99,-336.6"/>
<polygon fill="#d55e00" stroke="#d55e00" stroke-width="2" points="454.99,-340.1 464.99,-336.6 454.99,-333.1 454.99,-340.1"/>
</g>
<!-- node_6af50e42 -->
<g id="node13" class="node">
<title>node_6af50e42</title>
<path fill="#6db33f" stroke="black" d="M594,-135C594,-135 434,-135 434,-135 428,-135 422,-129 422,-123 422,-123 422,-111 422,-111 422,-105 428,-99 434,-99 434,-99 594,-99 594,-99 600,-99 606,-105 606,-111 606,-111 606,-123 606,-123 606,-129 600,-135 594,-135"/>
<text text-anchor="middle" x="514" y="-113.3" font-family="Times,serif" font-size="14.00">194: putStartScreenOnReady()</text>
</g>
<!-- node_50979436&#45;&gt;node_6af50e42 -->
<g id="edge11" class="edge">
<title>node_50979436&#45;&gt;node_6af50e42</title>
<path fill="none" stroke="#d55e00" stroke-width="2" d="M373.81,-322.2C399.91,-322.2 434,-322.2 434,-322.2 434,-322.2 434,-148.24 434,-148.24"/>
<polygon fill="#d55e00" stroke="#d55e00" stroke-width="2" points="437.5,-148.24 434,-138.24 430.5,-148.24 437.5,-148.24"/>
</g>
<!-- node_9ec149ac -->
<g id="node14" class="node">
<title>node_9ec149ac</title>
<path fill="#6db33f" stroke="black" d="M556.5,-189C556.5,-189 471.5,-189 471.5,-189 465.5,-189 459.5,-183 459.5,-177 459.5,-177 459.5,-165 459.5,-165 459.5,-159 465.5,-153 471.5,-153 471.5,-153 556.5,-153 556.5,-153 562.5,-153 568.5,-159 568.5,-165 568.5,-165 568.5,-177 568.5,-177 568.5,-183 562.5,-189 556.5,-189"/>
<text text-anchor="middle" x="514" y="-167.3" font-family="Times,serif" font-size="14.00">184: startScene()</text>
</g>
<!-- node_50979436&#45;&gt;node_9ec149ac -->
<g id="edge12" class="edge">
<title>node_50979436&#45;&gt;node_9ec149ac</title>
<path fill="none" stroke="#d55e00" stroke-width="2" d="M345,-314.73C345,-272.36 345,-171 345,-171 345,-171 446.1,-171 446.1,-171"/>
<polygon fill="#d55e00" stroke="#d55e00" stroke-width="2" points="446.1,-174.5 456.1,-171 446.1,-167.5 446.1,-174.5"/>
</g>
<!-- node_a35f06cc -->
<g id="node20" class="node">
<title>node_a35f06cc</title>
<path fill="#cccccc" stroke="black" d="M566,-688C566,-688 462,-688 462,-688 456,-688 450,-682 450,-676 450,-676 450,-664 450,-664 450,-658 456,-652 462,-652 462,-652 566,-652 566,-652 572,-652 578,-658 578,-664 578,-664 578,-676 578,-676 578,-682 572,-688 566,-688"/>
<text text-anchor="middle" x="514" y="-666.3" font-family="Times,serif" font-size="14.00">18: initInteractions()</text>
</g>
<!-- node_50979436&#45;&gt;node_a35f06cc -->
<g id="edge17" class="edge">
<title>node_50979436&#45;&gt;node_a35f06cc</title>
<path fill="none" stroke="#d55e00" stroke-width="2" d="M351,-351.12C351,-421.12 351,-670 351,-670 351,-670 436.55,-670 436.55,-670"/>
<polygon fill="#d55e00" stroke="#d55e00" stroke-width="2" points="436.55,-673.5 446.55,-670 436.55,-666.5 436.55,-673.5"/>
</g>
<!-- node_1f88d373 -->
<g id="node26" class="node">
<title>node_1f88d373</title>
<path fill="#cccccc" stroke="black" d="M553.5,-52C553.5,-52 474.5,-52 474.5,-52 468.5,-52 462.5,-46 462.5,-40 462.5,-40 462.5,-28 462.5,-28 462.5,-22 468.5,-16 474.5,-16 474.5,-16 553.5,-16 553.5,-16 559.5,-16 565.5,-22 565.5,-28 565.5,-28 565.5,-40 565.5,-40 565.5,-46 559.5,-52 553.5,-52"/>
<text text-anchor="middle" x="514" y="-30.3" font-family="Times,serif" font-size="14.00">6: placeLights()</text>
</g>
<!-- node_50979436&#45;&gt;node_1f88d373 -->
<g id="edge18" class="edge">
<title>node_50979436&#45;&gt;node_1f88d373</title>
<path fill="none" stroke="#d55e00" stroke-width="2" d="M330,-314.75C330,-249.83 330,-34 330,-34 330,-34 449.23,-34 449.23,-34"/>
<polygon fill="#d55e00" stroke="#d55e00" stroke-width="2" points="449.23,-37.5 459.23,-34 449.23,-30.5 449.23,-37.5"/>
</g>
<!-- node_3c80447e -->
<g id="node27" class="node">
<title>node_3c80447e</title>
<path fill="#cccccc" stroke="black" d="M785,-360C785,-360 699,-360 699,-360 693,-360 687,-354 687,-348 687,-348 687,-336 687,-336 687,-330 693,-324 699,-324 699,-324 785,-324 785,-324 791,-324 797,-330 797,-336 797,-336 797,-348 797,-348 797,-354 791,-360 785,-360"/>
<text text-anchor="middle" x="742" y="-338.3" font-family="Times,serif" font-size="14.00">6: placeObjects()</text>
</g>
<!-- node_50979436&#45;&gt;node_3c80447e -->
<g id="edge19" class="edge">
<title>node_50979436&#45;&gt;node_3c80447e</title>
<path fill="none" stroke="#d55e00" stroke-width="2" d="M328,-351.16C328,-353.72 328,-355.5 328,-355.5 328,-355.5 673.57,-355.5 673.57,-355.5"/>
<polygon fill="#d55e00" stroke="#d55e00" stroke-width="2" points="673.57,-359 683.57,-355.5 673.57,-352 673.57,-359"/>
</g>
<!-- node_a92997bd -->
<g id="node31" class="node">
<title>node_a92997bd</title>
<path fill="#6db33f" stroke="black" d="M587,-497C587,-497 441,-497 441,-497 435,-497 429,-491 429,-485 429,-485 429,-473 429,-473 429,-467 435,-461 441,-461 441,-461 587,-461 587,-461 593,-461 599,-467 599,-473 599,-473 599,-485 599,-485 599,-491 593,-497 587,-497"/>
<text text-anchor="middle" x="514" y="-475.3" font-family="Times,serif" font-size="14.00">215: initMouseClickMove()</text>
</g>
<!-- node_50979436&#45;&gt;node_a92997bd -->
<g id="edge20" class="edge">
<title>node_50979436&#45;&gt;node_a92997bd</title>
<path fill="none" stroke="#d55e00" stroke-width="2" d="M373.88,-343.8C401.62,-343.8 439,-343.8 439,-343.8 439,-343.8 439,-447.74 439,-447.74"/>
<polygon fill="#d55e00" stroke="#d55e00" stroke-width="2" points="435.5,-447.74 439,-457.74 442.5,-447.74 435.5,-447.74"/>
</g>
<!-- node_28dbe452 -->
<g id="node32" class="node">
<title>node_28dbe452</title>
<path fill="#cccccc" stroke="black" d="M549,-443C549,-443 479,-443 479,-443 473,-443 467,-437 467,-431 467,-431 467,-419 467,-419 467,-413 473,-407 479,-407 479,-407 549,-407 549,-407 555,-407 561,-413 561,-419 561,-419 561,-431 561,-431 561,-437 555,-443 549,-443"/>
<text text-anchor="middle" x="514" y="-421.3" font-family="Times,serif" font-size="14.00">15: initWalk()</text>
</g>
<!-- node_50979436&#45;&gt;node_28dbe452 -->
<g id="edge21" class="edge">
<title>node_50979436&#45;&gt;node_28dbe452</title>
<path fill="none" stroke="#d55e00" stroke-width="2" d="M362,-351.18C362,-377.99 362,-425 362,-425 362,-425 453.71,-425 453.71,-425"/>
<polygon fill="#d55e00" stroke="#d55e00" stroke-width="2" points="453.71,-428.5 463.71,-425 453.71,-421.5 453.71,-428.5"/>
</g>
<!-- node_6f55a2b1 -->
<g id="node18" class="node">
<title>node_6f55a2b1</title>
<path fill="#6db33f" stroke="black" d="M830,-634C830,-634 654,-634 654,-634 648,-634 642,-628 642,-622 642,-622 642,-610 642,-610 642,-604 648,-598 654,-598 654,-598 830,-598 830,-598 836,-598 842,-604 842,-610 842,-610 842,-622 842,-622 842,-628 836,-634 830,-634"/>
<text text-anchor="middle" x="742" y="-612.3" font-family="Times,serif" font-size="14.00">98: initAdjustBlackboardHeight()</text>
</g>
<!-- node_e6ce39c9 -->
<g id="node19" class="node">
<title>node_e6ce39c9</title>
<path fill="#6db33f" stroke="black" d="M783.5,-688C783.5,-688 700.5,-688 700.5,-688 694.5,-688 688.5,-682 688.5,-676 688.5,-676 688.5,-664 688.5,-664 688.5,-658 694.5,-652 700.5,-652 700.5,-652 783.5,-652 783.5,-652 789.5,-652 795.5,-658 795.5,-664 795.5,-664 795.5,-676 795.5,-676 795.5,-682 789.5,-688 783.5,-688"/>
<text text-anchor="middle" x="742" y="-666.3" font-family="Times,serif" font-size="14.00">33: initInfoDiv()</text>
</g>
<!-- node_a35f06cc&#45;&gt;node_6f55a2b1 -->
<g id="edge22" class="edge">
<title>node_a35f06cc&#45;&gt;node_6f55a2b1</title>
<path fill="none" stroke="#f0e442" stroke-width="2" d="M578.31,-657.14C615.5,-657.14 655,-657.14 655,-657.14 655,-657.14 655,-647.19 655,-647.19"/>
<polygon fill="#f0e442" stroke="#f0e442" stroke-width="2" points="658.5,-647.19 655,-637.19 651.5,-647.19 658.5,-647.19"/>
</g>
<!-- node_a35f06cc&#45;&gt;node_e6ce39c9 -->
<g id="edge23" class="edge">
<title>node_a35f06cc&#45;&gt;node_e6ce39c9</title>
<path fill="none" stroke="#f0e442" stroke-width="2" d="M578.42,-662.29C578.42,-662.29 675.11,-662.29 675.11,-662.29"/>
<polygon fill="#f0e442" stroke="#f0e442" stroke-width="2" points="675.11,-665.79 685.11,-662.29 675.11,-658.79 675.11,-665.79"/>
</g>
<!-- node_7d6abff3 -->
<g id="node21" class="node">
<title>node_7d6abff3</title>
<path fill="#6db33f" stroke="black" d="M797.5,-742C797.5,-742 686.5,-742 686.5,-742 680.5,-742 674.5,-736 674.5,-730 674.5,-730 674.5,-718 674.5,-718 674.5,-712 680.5,-706 686.5,-706 686.5,-706 797.5,-706 797.5,-706 803.5,-706 809.5,-712 809.5,-718 809.5,-718 809.5,-730 809.5,-730 809.5,-736 803.5,-742 797.5,-742"/>
<text text-anchor="middle" x="742" y="-720.3" font-family="Times,serif" font-size="14.00">241: initOpenCloset()</text>
</g>
<!-- node_a35f06cc&#45;&gt;node_7d6abff3 -->
<g id="edge24" class="edge">
<title>node_a35f06cc&#45;&gt;node_7d6abff3</title>
<path fill="none" stroke="#f0e442" stroke-width="2" d="M578.47,-667.43C625.85,-667.43 682,-667.43 682,-667.43 682,-667.43 682,-692.76 682,-692.76"/>
<polygon fill="#f0e442" stroke="#f0e442" stroke-width="2" points="678.5,-692.76 682,-702.76 685.5,-692.76 678.5,-692.76"/>
</g>
<!-- node_750bde68 -->
<g id="node22" class="node">
<title>node_750bde68</title>
<path fill="#6db33f" stroke="black" d="M813.5,-796C813.5,-796 670.5,-796 670.5,-796 664.5,-796 658.5,-790 658.5,-784 658.5,-784 658.5,-772 658.5,-772 658.5,-766 664.5,-760 670.5,-760 670.5,-760 813.5,-760 813.5,-760 819.5,-760 825.5,-766 825.5,-772 825.5,-772 825.5,-784 825.5,-784 825.5,-790 819.5,-796 813.5,-796"/>
<text text-anchor="middle" x="742" y="-774.3" font-family="Times,serif" font-size="14.00">202: initPutChairOnTable()</text>
</g>
<!-- node_a35f06cc&#45;&gt;node_750bde68 -->
<g id="edge25" class="edge">
<title>node_a35f06cc&#45;&gt;node_750bde68</title>
<path fill="none" stroke="#f0e442" stroke-width="2" d="M578.44,-672.57C620.26,-672.57 667,-672.57 667,-672.57 667,-672.57 667,-746.61 667,-746.61"/>
<polygon fill="#f0e442" stroke="#f0e442" stroke-width="2" points="663.5,-746.61 667,-756.61 670.5,-746.61 663.5,-746.61"/>
</g>
<!-- node_a3893fce -->
<g id="node23" class="node">
<title>node_a3893fce</title>
<path fill="#cccccc" stroke="black" d="M799,-850C799,-850 685,-850 685,-850 679,-850 673,-844 673,-838 673,-838 673,-826 673,-826 673,-820 679,-814 685,-814 685,-814 799,-814 799,-814 805,-814 811,-820 811,-826 811,-826 811,-838 811,-838 811,-844 805,-850 799,-850"/>
<text text-anchor="middle" x="742" y="-828.3" font-family="Times,serif" font-size="14.00">148: initSwitchLight()</text>
</g>
<!-- node_a35f06cc&#45;&gt;node_a3893fce -->
<g id="edge26" class="edge">
<title>node_a35f06cc&#45;&gt;node_a3893fce</title>
<path fill="none" stroke="#f0e442" stroke-width="2" d="M578.31,-682.86C602.38,-682.86 624,-682.86 624,-682.86 624,-682.86 624,-832 624,-832 624,-832 659.65,-832 659.65,-832"/>
<polygon fill="#f0e442" stroke="#f0e442" stroke-width="2" points="659.65,-835.5 669.65,-832 659.65,-828.5 659.65,-835.5"/>
</g>
<!-- node_bf1b582b -->
<g id="node24" class="node">
<title>node_bf1b582b</title>
<path fill="#6db33f" stroke="black" d="M825.5,-904C825.5,-904 658.5,-904 658.5,-904 652.5,-904 646.5,-898 646.5,-892 646.5,-892 646.5,-880 646.5,-880 646.5,-874 652.5,-868 658.5,-868 658.5,-868 825.5,-868 825.5,-868 831.5,-868 837.5,-874 837.5,-880 837.5,-880 837.5,-892 837.5,-892 837.5,-898 831.5,-904 825.5,-904"/>
<text text-anchor="middle" x="742" y="-882.3" font-family="Times,serif" font-size="14.00">85: initTriggerFlightSimulator()</text>
</g>
<!-- node_a35f06cc&#45;&gt;node_bf1b582b -->
<g id="edge27" class="edge">
<title>node_a35f06cc&#45;&gt;node_bf1b582b</title>
<path fill="none" stroke="#f0e442" stroke-width="2" d="M578.49,-677.71C614.02,-677.71 651,-677.71 651,-677.71 651,-677.71 651,-854.49 651,-854.49"/>
<polygon fill="#f0e442" stroke="#f0e442" stroke-width="2" points="647.5,-854.49 651,-864.49 654.5,-854.49 647.5,-854.49"/>
</g>
<!-- node_a3893fce&#45;&gt;node_f202c2ba -->
<g id="edge28" class="edge">
<title>node_a3893fce&#45;&gt;node_f202c2ba</title>
<path fill="none" stroke="#d55e00" stroke-width="2" d="M811.25,-832C839.65,-832 866,-832 866,-832 866,-832 866,-411.67 866,-411.67 866,-411.67 930.55,-411.67 930.55,-411.67"/>
<polygon fill="#d55e00" stroke="#d55e00" stroke-width="2" points="930.55,-415.17 940.55,-411.67 930.55,-408.17 930.55,-415.17"/>
</g>
<!-- node_6494a37a -->
<g id="node25" class="node">
<title>node_6494a37a</title>
<path fill="#966f33" stroke="black" d="M163,-546C163,-546 104,-546 104,-546 98,-546 92,-540 92,-534 92,-534 92,-522 92,-522 92,-516 98,-510 104,-510 104,-510 163,-510 163,-510 169,-510 175,-516 175,-522 175,-522 175,-534 175,-534 175,-540 169,-546 163,-546"/>
<text text-anchor="middle" x="133.5" y="-524.3" font-family="Times,serif" font-size="14.00">0: (global)()</text>
</g>
<!-- node_6494a37a&#45;&gt;node_7d19ad0e -->
<g id="edge34" class="edge">
<title>node_6494a37a&#45;&gt;node_7d19ad0e</title>
<path fill="none" stroke="#56b4e9" stroke-width="2" d="M175.33,-530.5C227.52,-530.5 310,-530.5 310,-530.5 310,-530.5 310,-692.77 310,-692.77"/>
<polygon fill="#56b4e9" stroke="#56b4e9" stroke-width="2" points="306.5,-692.77 310,-702.77 313.5,-692.77 306.5,-692.77"/>
</g>
<!-- node_6494a37a&#45;&gt;node_50979436 -->
<g id="edge35" class="edge">
<title>node_6494a37a&#45;&gt;node_50979436</title>
<path fill="none" stroke="#56b4e9" stroke-width="2" d="M175.09,-522.75C235.13,-522.75 339,-522.75 339,-522.75 339,-522.75 339,-364.22 339,-364.22"/>
<polygon fill="#56b4e9" stroke="#56b4e9" stroke-width="2" points="342.5,-364.22 339,-354.22 335.5,-364.22 342.5,-364.22"/>
</g>
<!-- node_1f88d373&#45;&gt;node_ac3282bf -->
<g id="edge36" class="edge">
<title>node_1f88d373&#45;&gt;node_ac3282bf</title>
<path fill="none" stroke="#009e73" stroke-width="2" d="M565.87,-34C654.59,-34 826,-34 826,-34 826,-34 826,-336 826,-336 826,-336 884.36,-336 884.36,-336"/>
<polygon fill="#009e73" stroke="#009e73" stroke-width="2" points="884.36,-339.5 894.36,-336 884.36,-332.5 884.36,-339.5"/>
</g>
<!-- node_3c80447e&#45;&gt;node_f202c2ba -->
<g id="edge37" class="edge">
<title>node_3c80447e&#45;&gt;node_f202c2ba</title>
<path fill="none" stroke="#d55e00" stroke-width="2" d="M742,-360.5C742,-376.05 742,-395.75 742,-395.75 742,-395.75 930.56,-395.75 930.56,-395.75"/>
<polygon fill="#d55e00" stroke="#d55e00" stroke-width="2" points="930.56,-399.25 940.56,-395.75 930.56,-392.25 930.56,-399.25"/>
</g>
<!-- node_3c80447e&#45;&gt;node_ac3282bf -->
<g id="edge49" class="edge">
<title>node_3c80447e&#45;&gt;node_ac3282bf</title>
<path fill="none" stroke="#d55e00" stroke-width="2" d="M797.32,-348C797.32,-348 884.1,-348 884.1,-348"/>
<polygon fill="#d55e00" stroke="#d55e00" stroke-width="2" points="884.1,-351.5 894.1,-348 884.1,-344.5 884.1,-351.5"/>
</g>
<!-- node_dbfe4958 -->
<g id="node28" class="node">
<title>node_dbfe4958</title>
<path fill="#6db33f" stroke="black" d="M790,-443C790,-443 694,-443 694,-443 688,-443 682,-437 682,-431 682,-431 682,-419 682,-419 682,-413 688,-407 694,-407 694,-407 790,-407 790,-407 796,-407 802,-413 802,-419 802,-419 802,-431 802,-431 802,-437 796,-443 790,-443"/>
<text text-anchor="middle" x="742" y="-421.3" font-family="Times,serif" font-size="14.00">131: createPlayer()</text>
</g>
<!-- node_3f1bbd7f -->
<g id="node29" class="node">
<title>node_3f1bbd7f</title>
<path fill="#cccccc" stroke="black" d="M796.5,-497C796.5,-497 687.5,-497 687.5,-497 681.5,-497 675.5,-491 675.5,-485 675.5,-485 675.5,-473 675.5,-473 675.5,-467 681.5,-461 687.5,-461 687.5,-461 796.5,-461 796.5,-461 802.5,-461 808.5,-467 808.5,-473 808.5,-473 808.5,-485 808.5,-485 808.5,-491 802.5,-497 796.5,-497"/>
<text text-anchor="middle" x="742" y="-475.3" font-family="Times,serif" font-size="14.00">89: getNewPosition()</text>
</g>
<!-- node_3f1bbd7f&#45;&gt;node_f202c2ba -->
<g id="edge58" class="edge">
<title>node_3f1bbd7f&#45;&gt;node_f202c2ba</title>
<path fill="none" stroke="#cc79a7" stroke-width="2" d="M808.77,-464.5C832.75,-464.5 854,-464.5 854,-464.5 854,-464.5 854,-409.33 854,-409.33 854,-409.33 930.59,-409.33 930.59,-409.33"/>
<polygon fill="#cc79a7" stroke="#cc79a7" stroke-width="2" points="930.59,-412.83 940.59,-409.33 930.59,-405.83 930.59,-412.83"/>
</g>
<!-- node_dc076ce1&#45;&gt;node_9a729e02 -->
<g id="edge60" class="edge">
<title>node_dc076ce1&#45;&gt;node_9a729e02</title>
<path fill="none" stroke="#e69f00" stroke-width="2" d="M582.48,-520.25C582.48,-520.25 918.08,-520.25 918.08,-520.25"/>
<polygon fill="#e69f00" stroke="#e69f00" stroke-width="2" points="918.08,-523.75 928.08,-520.25 918.08,-516.75 918.08,-523.75"/>
</g>
<!-- node_dc076ce1&#45;&gt;node_2ccb8a22 -->
<g id="edge61" class="edge">
<title>node_dc076ce1&#45;&gt;node_2ccb8a22</title>
<path fill="none" stroke="#e69f00" stroke-width="2" d="M582.2,-518.5C699.5,-518.5 927,-518.5 927,-518.5 927,-518.5 927,-481.38 927,-481.38"/>
<polygon fill="#e69f00" stroke="#e69f00" stroke-width="2" points="930.5,-481.38 927,-471.38 923.5,-481.38 930.5,-481.38"/>
</g>
<!-- node_dc076ce1&#45;&gt;node_3f1bbd7f -->
<g id="edge62" class="edge">
<title>node_dc076ce1&#45;&gt;node_3f1bbd7f</title>
<path fill="none" stroke="#e69f00" stroke-width="2" d="M582.41,-516.75C649.57,-516.75 742,-516.75 742,-516.75 742,-516.75 742,-510.46 742,-510.46"/>
<polygon fill="#e69f00" stroke="#e69f00" stroke-width="2" points="745.5,-510.46 742,-500.46 738.5,-510.46 745.5,-510.46"/>
</g>
<!-- node_28dbe452&#45;&gt;node_dbfe4958 -->
<g id="edge63" class="edge">
<title>node_28dbe452&#45;&gt;node_dbfe4958</title>
<path fill="none" stroke="#56b4e9" stroke-width="2" d="M561.24,-425C561.24,-425 668.76,-425 668.76,-425"/>
<polygon fill="#56b4e9" stroke="#56b4e9" stroke-width="2" points="668.76,-428.5 678.76,-425 668.76,-421.5 668.76,-428.5"/>
</g>
</g>
</svg>
