<?xml version="1.0" encoding="UTF-8" standalone="no"?>
<!DOCTYPE svg PUBLIC "-//W3C//DTD SVG 1.1//EN"
 "http://www.w3.org/Graphics/SVG/1.1/DTD/svg11.dtd">
<!-- Generated by graphviz version 7.0.1 (20221109.1506)
 -->
<!-- Title: G Pages: 1 -->
<svg width="1296pt" height="951pt"
 viewBox="0.00 0.00 1296.00 951.00" xmlns="http://www.w3.org/2000/svg" xmlns:xlink="http://www.w3.org/1999/xlink">
<g id="graph0" class="graph" transform="scale(1 1) rotate(0) translate(4 947)">
<title>G</title>
<polygon fill="white" stroke="none" points="-4,4 -4,-947 1292,-947 1292,4 -4,4"/>
<g id="clust2" class="cluster">
<title>cluster_72a3948b</title>
<polygon fill="none" stroke="black" stroke-dasharray="1,5" points="295,-698 295,-773 394,-773 394,-698 295,-698"/>
<text text-anchor="middle" x="344.5" y="-757.8" font-family="Times,serif" font-size="14.00">File: animate</text>
</g>
<g id="clust3" class="cluster">
<title>cluster_6aa36366</title>
<polygon fill="none" stroke="black" stroke-dasharray="1,5" points="876,-262 876,-553 1280,-553 1280,-262 876,-262"/>
<text text-anchor="middle" x="1078" y="-537.8" font-family="Times,serif" font-size="14.00">File: helpers</text>
</g>
<g id="clust4" class="cluster">
<title>cluster_3d58af79</title>
<polygon fill="none" stroke="black" stroke-dasharray="1,5" points="307.5,-91 307.5,-382 614,-382 614,-91 307.5,-91"/>
<text text-anchor="middle" x="460.75" y="-366.8" font-family="Times,serif" font-size="14.00">File: init</text>
</g>
<g id="clust5" class="cluster">
<title>cluster_f5fb00bd</title>
<polygon fill="none" stroke="black" stroke-dasharray="1,5" points="418,-590 418,-935 856,-935 856,-590 418,-590"/>
<text text-anchor="middle" x="637" y="-919.8" font-family="Times,serif" font-size="14.00">File: interactions</text>
</g>
<g id="clust6" class="cluster">
<title>cluster_51bde921</title>
<polygon fill="none" stroke="black" stroke-dasharray="1,5" points="84,-502 84,-577 183,-577 183,-502 84,-502"/>
<text text-anchor="middle" x="133.5" y="-561.8" font-family="Times,serif" font-size="14.00">File: main</text>
</g>
<g id="clust7" class="cluster">
<title>cluster_1362eb82</title>
<polygon fill="none" stroke="black" stroke-dasharray="1,5" points="454.5,-8 454.5,-83 573.5,-83 573.5,-8 454.5,-8"/>
<text text-anchor="middle" x="514" y="-67.8" font-family="Times,serif" font-size="14.00">File: place&#45;lights</text>
</g>
<g id="clust8" class="cluster">
<title>cluster_1b118454</title>
<polygon fill="none" stroke="black" stroke-dasharray="1,5" points="682,-316 682,-391 808,-391 808,-316 682,-316"/>
<text text-anchor="middle" x="745" y="-375.8" font-family="Times,serif" font-size="14.00">File: place&#45;objects</text>
</g>
<g id="clust9" class="cluster">
<title>cluster_fb0dc945</title>
<polygon fill="none" stroke="black" stroke-dasharray="1,5" points="421,-399 421,-582 819.5,-582 819.5,-399 421,-399"/>
<text text-anchor="middle" x="620.25" y="-566.8" font-family="Times,serif" font-size="14.00">File: walk</text>
</g>
<!-- Legend -->
<g id="node1" class="node">
<title>Legend</title>
<polygon fill="none" stroke="black" points="1.5,-473 1.5,-490 266.5,-490 266.5,-473 1.5,-473"/>
<text text-anchor="start" x="81.5" y="-477.8" font-family="Times,serif" font-size="14.00">Code2flow Legend</text>
<polygon fill="none" stroke="black" points="1.5,-385 1.5,-473 266.5,-473 266.5,-385 1.5,-385"/>
<polygon fill="none" stroke="black" points="3.5,-450 3.5,-471 214.5,-471 214.5,-450 3.5,-450"/>
<text text-anchor="start" x="63" y="-456.8" font-family="Times,serif" font-size="14.00">Regular function</text>
<polygon fill="#cccccc" stroke="none" points="214.5,-450 214.5,-471 264.5,-471 264.5,-450 214.5,-450"/>
<polygon fill="none" stroke="black" points="214.5,-450 214.5,-471 264.5,-471 264.5,-450 214.5,-450"/>
<polygon fill="none" stroke="black" points="3.5,-429 3.5,-450 214.5,-450 214.5,-429 3.5,-429"/>
<text text-anchor="start" x="15" y="-435.8" font-family="Times,serif" font-size="14.00">Trunk function (nothing calls this)</text>
<polygon fill="#966f33" stroke="none" points="214.5,-429 214.5,-450 264.5,-450 264.5,-429 214.5,-429"/>
<polygon fill="none" stroke="black" points="214.5,-429 214.5,-450 264.5,-450 264.5,-429 214.5,-429"/>
<polygon fill="none" stroke="black" points="3.5,-408 3.5,-429 214.5,-429 214.5,-408 3.5,-408"/>
<text text-anchor="start" x="6.5" y="-414.8" font-family="Times,serif" font-size="14.00">Leaf function (this calls nothing else)</text>
<polygon fill="#6db33f" stroke="none" points="214.5,-408 214.5,-429 264.5,-429 264.5,-408 214.5,-408"/>
<polygon fill="none" stroke="black" points="214.5,-408 214.5,-429 264.5,-429 264.5,-408 214.5,-408"/>
<polygon fill="none" stroke="black" points="3.5,-387 3.5,-408 214.5,-408 214.5,-387 3.5,-387"/>
<text text-anchor="start" x="73" y="-393.8" font-family="Times,serif" font-size="14.00">Function call</text>
<polygon fill="none" stroke="black" points="214.5,-387 214.5,-408 264.5,-408 264.5,-387 214.5,-387"/>
<text text-anchor="start" x="232" y="-393.8" font-family="Times,serif" font-size="14.00">→</text>
<polygon fill="none" stroke="black" points="2.5,-386 2.5,-472 265.5,-472 265.5,-386 2.5,-386"/>
<polygon fill="none" stroke="black" points="0,-384.5 0,-491.5 267,-491.5 267,-384.5 0,-384.5"/>
</g>
<!-- node_7d94072f -->
<g id="node2" class="node">
<title>node_7d94072f</title>
<path fill="#cccccc" stroke="black" d="M374,-742C374,-742 315,-742 315,-742 309,-742 303,-736 303,-730 303,-730 303,-718 303,-718 303,-712 309,-706 315,-706 315,-706 374,-706 374,-706 380,-706 386,-712 386,-718 386,-718 386,-730 386,-730 386,-736 380,-742 374,-742"/>
<text text-anchor="middle" x="344.5" y="-720.3" font-family="Times,serif" font-size="14.00">6: animate()</text>
</g>
<!-- node_4cf3d35e -->
<g id="node15" class="node">
<title>node_4cf3d35e</title>
<path fill="#6db33f" stroke="black" d="M588,-850C588,-850 440,-850 440,-850 434,-850 428,-844 428,-838 428,-838 428,-826 428,-826 428,-820 434,-814 440,-814 440,-814 588,-814 588,-814 594,-814 600,-820 600,-826 600,-826 600,-838 600,-838 600,-844 594,-850 588,-850"/>
<text text-anchor="middle" x="514" y="-828.3" font-family="Times,serif" font-size="14.00">280: handleAnimateChairs()</text>
</g>
<!-- node_7d94072f&#45;&gt;node_4cf3d35e -->
<g id="edge1" class="edge">
<title>node_7d94072f&#45;&gt;node_4cf3d35e</title>
<path fill="none" stroke="#cc79a7" stroke-width="2" d="M345,-742.32C345,-773.13 345,-832 345,-832 345,-832 414.49,-832 414.49,-832"/>
<polygon fill="#cc79a7" stroke="#cc79a7" stroke-width="2" points="414.49,-835.5 424.49,-832 414.49,-828.5 414.49,-835.5"/>
</g>
<!-- node_01f398c8 -->
<g id="node16" class="node">
<title>node_01f398c8</title>
<path fill="#6db33f" stroke="black" d="M590,-796C590,-796 438,-796 438,-796 432,-796 426,-790 426,-784 426,-784 426,-772 426,-772 426,-766 432,-760 438,-760 438,-760 590,-760 590,-760 596,-760 602,-766 602,-772 602,-772 602,-784 602,-784 602,-790 596,-796 590,-796"/>
<text text-anchor="middle" x="514" y="-774.3" font-family="Times,serif" font-size="14.00">490: handleAnimateClosets()</text>
</g>
<!-- node_7d94072f&#45;&gt;node_01f398c8 -->
<g id="edge2" class="edge">
<title>node_7d94072f&#45;&gt;node_01f398c8</title>
<path fill="none" stroke="#cc79a7" stroke-width="2" d="M386.33,-730C411.22,-730 438,-730 438,-730 438,-730 438,-746.55 438,-746.55"/>
<polygon fill="#cc79a7" stroke="#cc79a7" stroke-width="2" points="434.5,-746.55 438,-756.55 441.5,-746.55 434.5,-746.55"/>
</g>
<!-- node_3a3a108d -->
<g id="node17" class="node">
<title>node_3a3a108d</title>
<path fill="#6db33f" stroke="black" d="M568,-742C568,-742 460,-742 460,-742 454,-742 448,-736 448,-730 448,-730 448,-718 448,-718 448,-712 454,-706 460,-706 460,-706 568,-706 568,-706 574,-706 580,-712 580,-718 580,-718 580,-730 580,-730 580,-736 574,-742 568,-742"/>
<text text-anchor="middle" x="514" y="-720.3" font-family="Times,serif" font-size="14.00">560: handleInfoDiv()</text>
</g>
<!-- node_7d94072f&#45;&gt;node_3a3a108d -->
<g id="edge3" class="edge">
<title>node_7d94072f&#45;&gt;node_3a3a108d</title>
<path fill="none" stroke="#cc79a7" stroke-width="2" d="M386.4,-718C386.4,-718 434.49,-718 434.49,-718"/>
<polygon fill="#cc79a7" stroke="#cc79a7" stroke-width="2" points="434.49,-721.5 444.49,-718 434.49,-714.5 434.49,-721.5"/>
</g>
<!-- node_6b056bdc -->
<g id="node30" class="node">
<title>node_6b056bdc</title>
<path fill="#cccccc" stroke="black" d="M569.5,-551C569.5,-551 458.5,-551 458.5,-551 452.5,-551 446.5,-545 446.5,-539 446.5,-539 446.5,-527 446.5,-527 446.5,-521 452.5,-515 458.5,-515 458.5,-515 569.5,-515 569.5,-515 575.5,-515 581.5,-521 581.5,-527 581.5,-527 581.5,-539 581.5,-539 581.5,-545 575.5,-551 569.5,-551"/>
<text text-anchor="middle" x="514" y="-529.3" font-family="Times,serif" font-size="14.00">149: handleWalking()</text>
</g>
<!-- node_7d94072f&#45;&gt;node_6b056bdc -->
<g id="edge4" class="edge">
<title>node_7d94072f&#45;&gt;node_6b056bdc</title>
<path fill="none" stroke="#cc79a7" stroke-width="2" d="M380,-705.51C380,-658.53 380,-538.25 380,-538.25 380,-538.25 433.19,-538.25 433.19,-538.25"/>
<polygon fill="#cc79a7" stroke="#cc79a7" stroke-width="2" points="433.19,-541.75 443.19,-538.25 433.19,-534.75 433.19,-541.75"/>
</g>
<!-- node_c8653220 -->
<g id="node3" class="node">
<title>node_c8653220</title>
<path fill="#6db33f" stroke="black" d="M1053.5,-522C1053.5,-522 949.5,-522 949.5,-522 943.5,-522 937.5,-516 937.5,-510 937.5,-510 937.5,-498 937.5,-498 937.5,-492 943.5,-486 949.5,-486 949.5,-486 1053.5,-486 1053.5,-486 1059.5,-486 1065.5,-492 1065.5,-498 1065.5,-498 1065.5,-510 1065.5,-510 1065.5,-516 1059.5,-522 1053.5,-522"/>
<text text-anchor="middle" x="1001.5" y="-500.3" font-family="Times,serif" font-size="14.00">93: checkCollision()</text>
</g>
<!-- node_637e2a06 -->
<g id="node4" class="node">
<title>node_637e2a06</title>
<path fill="#6db33f" stroke="black" d="M1040.5,-414C1040.5,-414 962.5,-414 962.5,-414 956.5,-414 950.5,-408 950.5,-402 950.5,-402 950.5,-390 950.5,-390 950.5,-384 956.5,-378 962.5,-378 962.5,-378 1040.5,-378 1040.5,-378 1046.5,-378 1052.5,-384 1052.5,-390 1052.5,-390 1052.5,-402 1052.5,-402 1052.5,-408 1046.5,-414 1040.5,-414"/>
<text text-anchor="middle" x="1001.5" y="-392.3" font-family="Times,serif" font-size="14.00">82: degToRad()</text>
</g>
<!-- node_bb479819 -->
<g id="node5" class="node">
<title>node_bb479819</title>
<path fill="#6db33f" stroke="black" d="M1063.5,-468C1063.5,-468 939.5,-468 939.5,-468 933.5,-468 927.5,-462 927.5,-456 927.5,-456 927.5,-444 927.5,-444 927.5,-438 933.5,-432 939.5,-432 939.5,-432 1063.5,-432 1063.5,-432 1069.5,-432 1075.5,-438 1075.5,-444 1075.5,-444 1075.5,-456 1075.5,-456 1075.5,-462 1069.5,-468 1063.5,-468"/>
<text text-anchor="middle" x="1001.5" y="-446.3" font-family="Times,serif" font-size="14.00">70: getCameraLookAt()</text>
</g>
<!-- node_56ae4763 -->
<g id="node6" class="node">
<title>node_56ae4763</title>
<path fill="#6db33f" stroke="black" d="M1087.5,-360C1087.5,-360 915.5,-360 915.5,-360 909.5,-360 903.5,-354 903.5,-348 903.5,-348 903.5,-336 903.5,-336 903.5,-330 909.5,-324 915.5,-324 915.5,-324 1087.5,-324 1087.5,-324 1093.5,-324 1099.5,-330 1099.5,-336 1099.5,-336 1099.5,-348 1099.5,-348 1099.5,-354 1093.5,-360 1087.5,-360"/>
<text text-anchor="middle" x="1001.5" y="-338.3" font-family="Times,serif" font-size="14.00">9: getMashFromBlenderModel()</text>
</g>
<!-- node_d5582722 -->
<g id="node7" class="node">
<title>node_d5582722</title>
<path fill="#6db33f" stroke="black" d="M1260,-306C1260,-306 1167,-306 1167,-306 1161,-306 1155,-300 1155,-294 1155,-294 1155,-282 1155,-282 1155,-276 1161,-270 1167,-270 1167,-270 1260,-270 1260,-270 1266,-270 1272,-276 1272,-282 1272,-282 1272,-294 1272,-294 1272,-300 1266,-306 1260,-306"/>
<text text-anchor="middle" x="1213.5" y="-284.3" font-family="Times,serif" font-size="14.00">193: showVector()</text>
</g>
<!-- node_d435f905 -->
<g id="node8" class="node">
<title>node_d435f905</title>
<path fill="#966f33" stroke="black" d="M1107,-306C1107,-306 896,-306 896,-306 890,-306 884,-300 884,-294 884,-294 884,-282 884,-282 884,-276 890,-270 896,-270 896,-270 1107,-270 1107,-270 1113,-270 1119,-276 1119,-282 1119,-282 1119,-294 1119,-294 1119,-300 1113,-306 1107,-306"/>
<text text-anchor="middle" x="1001.5" y="-284.3" font-family="Times,serif" font-size="14.00">131: turnVectorAroundHorizontalAxis()</text>
</g>
<!-- node_d435f905&#45;&gt;node_d5582722 -->
<g id="edge5" class="edge">
<title>node_d435f905&#45;&gt;node_d5582722</title>
<path fill="none" stroke="#0072b2" stroke-width="2" d="M1119.28,-288C1119.28,-288 1141.56,-288 1141.56,-288"/>
<polygon fill="#0072b2" stroke="#0072b2" stroke-width="2" points="1141.56,-291.5 1151.56,-288 1141.56,-284.5 1141.56,-291.5"/>
</g>
<!-- node_5735ef59 -->
<g id="node9" class="node">
<title>node_5735ef59</title>
<path fill="#cccccc" stroke="black" d="M361.5,-351C361.5,-351 327.5,-351 327.5,-351 321.5,-351 315.5,-345 315.5,-339 315.5,-339 315.5,-327 315.5,-327 315.5,-321 321.5,-315 327.5,-315 327.5,-315 361.5,-315 361.5,-315 367.5,-315 373.5,-321 373.5,-327 373.5,-327 373.5,-339 373.5,-339 373.5,-345 367.5,-351 361.5,-351"/>
<text text-anchor="middle" x="344.5" y="-329.3" font-family="Times,serif" font-size="14.00">3: init()</text>
</g>
<!-- node_168f0dc9 -->
<g id="node10" class="node">
<title>node_168f0dc9</title>
<path fill="#6db33f" stroke="black" d="M572,-243C572,-243 456,-243 456,-243 450,-243 444,-237 444,-231 444,-231 444,-219 444,-219 444,-213 450,-207 456,-207 456,-207 572,-207 572,-207 578,-207 584,-213 584,-219 584,-219 584,-231 584,-231 584,-237 578,-243 572,-243"/>
<text text-anchor="middle" x="514" y="-221.3" font-family="Times,serif" font-size="14.00">107: initDevControls()</text>
</g>
<!-- node_5735ef59&#45;&gt;node_168f0dc9 -->
<g id="edge8" class="edge">
<title>node_5735ef59&#45;&gt;node_168f0dc9</title>
<path fill="none" stroke="#e69f00" stroke-width="2" d="M359,-314.68C359,-283.87 359,-225 359,-225 359,-225 430.73,-225 430.73,-225"/>
<polygon fill="#e69f00" stroke="#e69f00" stroke-width="2" points="430.73,-228.5 440.73,-225 430.73,-221.5 430.73,-228.5"/>
</g>
<!-- node_cd2e538c -->
<g id="node11" class="node">
<title>node_cd2e538c</title>
<path fill="#6db33f" stroke="black" d="M569,-297C569,-297 459,-297 459,-297 453,-297 447,-291 447,-285 447,-285 447,-273 447,-273 447,-267 453,-261 459,-261 459,-261 569,-261 569,-261 575,-261 581,-267 581,-273 581,-273 581,-285 581,-285 581,-291 575,-297 569,-297"/>
<text text-anchor="middle" x="514" y="-275.3" font-family="Times,serif" font-size="14.00">169: initStartScreen()</text>
</g>
<!-- node_5735ef59&#45;&gt;node_cd2e538c -->
<g id="edge9" class="edge">
<title>node_5735ef59&#45;&gt;node_cd2e538c</title>
<path fill="none" stroke="#e69f00" stroke-width="2" d="M373.73,-329.4C407.36,-329.4 458,-329.4 458,-329.4 458,-329.4 458,-310.51 458,-310.51"/>
<polygon fill="#e69f00" stroke="#e69f00" stroke-width="2" points="461.5,-310.51 458,-300.51 454.5,-310.51 461.5,-310.51"/>
</g>
<!-- node_ebe68fe1 -->
<g id="node12" class="node">
<title>node_ebe68fe1</title>
<path fill="#6db33f" stroke="black" d="M547.5,-351C547.5,-351 480.5,-351 480.5,-351 474.5,-351 468.5,-345 468.5,-339 468.5,-339 468.5,-327 468.5,-327 468.5,-321 474.5,-315 480.5,-315 480.5,-315 547.5,-315 547.5,-315 553.5,-315 559.5,-321 559.5,-327 559.5,-327 559.5,-339 559.5,-339 559.5,-345 553.5,-351 547.5,-351"/>
<text text-anchor="middle" x="514" y="-329.3" font-family="Times,serif" font-size="14.00">90: initStats()</text>
</g>
<!-- node_5735ef59&#45;&gt;node_ebe68fe1 -->
<g id="edge10" class="edge">
<title>node_5735ef59&#45;&gt;node_ebe68fe1</title>
<path fill="none" stroke="#e69f00" stroke-width="2" d="M373.64,-336.6C373.64,-336.6 454.99,-336.6 454.99,-336.6"/>
<polygon fill="#e69f00" stroke="#e69f00" stroke-width="2" points="454.99,-340.1 464.99,-336.6 454.99,-333.1 454.99,-340.1"/>
</g>
<!-- node_be73b36a -->
<g id="node13" class="node">
<title>node_be73b36a</title>
<path fill="#6db33f" stroke="black" d="M594,-135C594,-135 434,-135 434,-135 428,-135 422,-129 422,-123 422,-123 422,-111 422,-111 422,-105 428,-99 434,-99 434,-99 594,-99 594,-99 600,-99 606,-105 606,-111 606,-111 606,-123 606,-123 606,-129 600,-135 594,-135"/>
<text text-anchor="middle" x="514" y="-113.3" font-family="Times,serif" font-size="14.00">186: putStartScreenOnReady()</text>
</g>
<!-- node_5735ef59&#45;&gt;node_be73b36a -->
<g id="edge11" class="edge">
<title>node_5735ef59&#45;&gt;node_be73b36a</title>
<path fill="none" stroke="#e69f00" stroke-width="2" d="M373.81,-322.2C399.91,-322.2 434,-322.2 434,-322.2 434,-322.2 434,-148.24 434,-148.24"/>
<polygon fill="#e69f00" stroke="#e69f00" stroke-width="2" points="437.5,-148.24 434,-138.24 430.5,-148.24 437.5,-148.24"/>
</g>
<!-- node_43e9543b -->
<g id="node14" class="node">
<title>node_43e9543b</title>
<path fill="#6db33f" stroke="black" d="M556.5,-189C556.5,-189 471.5,-189 471.5,-189 465.5,-189 459.5,-183 459.5,-177 459.5,-177 459.5,-165 459.5,-165 459.5,-159 465.5,-153 471.5,-153 471.5,-153 556.5,-153 556.5,-153 562.5,-153 568.5,-159 568.5,-165 568.5,-165 568.5,-177 568.5,-177 568.5,-183 562.5,-189 556.5,-189"/>
<text text-anchor="middle" x="514" y="-167.3" font-family="Times,serif" font-size="14.00">175: startScene()</text>
</g>
<!-- node_5735ef59&#45;&gt;node_43e9543b -->
<g id="edge12" class="edge">
<title>node_5735ef59&#45;&gt;node_43e9543b</title>
<path fill="none" stroke="#e69f00" stroke-width="2" d="M345,-314.73C345,-272.36 345,-171 345,-171 345,-171 446.1,-171 446.1,-171"/>
<polygon fill="#e69f00" stroke="#e69f00" stroke-width="2" points="446.1,-174.5 456.1,-171 446.1,-167.5 446.1,-174.5"/>
</g>
<!-- node_e859dc03 -->
<g id="node20" class="node">
<title>node_e859dc03</title>
<path fill="#cccccc" stroke="black" d="M566,-688C566,-688 462,-688 462,-688 456,-688 450,-682 450,-676 450,-676 450,-664 450,-664 450,-658 456,-652 462,-652 462,-652 566,-652 566,-652 572,-652 578,-658 578,-664 578,-664 578,-676 578,-676 578,-682 572,-688 566,-688"/>
<text text-anchor="middle" x="514" y="-666.3" font-family="Times,serif" font-size="14.00">18: initInteractions()</text>
</g>
<!-- node_5735ef59&#45;&gt;node_e859dc03 -->
<g id="edge15" class="edge">
<title>node_5735ef59&#45;&gt;node_e859dc03</title>
<path fill="none" stroke="#e69f00" stroke-width="2" d="M351,-351.12C351,-421.12 351,-670 351,-670 351,-670 436.55,-670 436.55,-670"/>
<polygon fill="#e69f00" stroke="#e69f00" stroke-width="2" points="436.55,-673.5 446.55,-670 436.55,-666.5 436.55,-673.5"/>
</g>
<!-- node_de775bfc -->
<g id="node26" class="node">
<title>node_de775bfc</title>
<path fill="#cccccc" stroke="black" d="M553.5,-52C553.5,-52 474.5,-52 474.5,-52 468.5,-52 462.5,-46 462.5,-40 462.5,-40 462.5,-28 462.5,-28 462.5,-22 468.5,-16 474.5,-16 474.5,-16 553.5,-16 553.5,-16 559.5,-16 565.5,-22 565.5,-28 565.5,-28 565.5,-40 565.5,-40 565.5,-46 559.5,-52 553.5,-52"/>
<text text-anchor="middle" x="514" y="-30.3" font-family="Times,serif" font-size="14.00">6: placeLights()</text>
</g>
<!-- node_5735ef59&#45;&gt;node_de775bfc -->
<g id="edge16" class="edge">
<title>node_5735ef59&#45;&gt;node_de775bfc</title>
<path fill="none" stroke="#e69f00" stroke-width="2" d="M330,-314.75C330,-249.83 330,-34 330,-34 330,-34 449.23,-34 449.23,-34"/>
<polygon fill="#e69f00" stroke="#e69f00" stroke-width="2" points="449.23,-37.5 459.23,-34 449.23,-30.5 449.23,-37.5"/>
</g>
<!-- node_2710ba87 -->
<g id="node27" class="node">
<title>node_2710ba87</title>
<path fill="#cccccc" stroke="black" d="M788,-360C788,-360 702,-360 702,-360 696,-360 690,-354 690,-348 690,-348 690,-336 690,-336 690,-330 696,-324 702,-324 702,-324 788,-324 788,-324 794,-324 800,-330 800,-336 800,-336 800,-348 800,-348 800,-354 794,-360 788,-360"/>
<text text-anchor="middle" x="745" y="-338.3" font-family="Times,serif" font-size="14.00">6: placeObjects()</text>
</g>
<!-- node_5735ef59&#45;&gt;node_2710ba87 -->
<g id="edge17" class="edge">
<title>node_5735ef59&#45;&gt;node_2710ba87</title>
<path fill="none" stroke="#e69f00" stroke-width="2" d="M328,-351.16C328,-353.72 328,-355.5 328,-355.5 328,-355.5 676.6,-355.5 676.6,-355.5"/>
<polygon fill="#e69f00" stroke="#e69f00" stroke-width="2" points="676.6,-359 686.6,-355.5 676.6,-352 676.6,-359"/>
</g>
<!-- node_9c63af60 -->
<g id="node31" class="node">
<title>node_9c63af60</title>
<path fill="#6db33f" stroke="black" d="M587,-497C587,-497 441,-497 441,-497 435,-497 429,-491 429,-485 429,-485 429,-473 429,-473 429,-467 435,-461 441,-461 441,-461 587,-461 587,-461 593,-461 599,-467 599,-473 599,-473 599,-485 599,-485 599,-491 593,-497 587,-497"/>
<text text-anchor="middle" x="514" y="-475.3" font-family="Times,serif" font-size="14.00">215: initMouseClickMove()</text>
</g>
<!-- node_5735ef59&#45;&gt;node_9c63af60 -->
<g id="edge18" class="edge">
<title>node_5735ef59&#45;&gt;node_9c63af60</title>
<path fill="none" stroke="#e69f00" stroke-width="2" d="M373.88,-343.8C401.62,-343.8 439,-343.8 439,-343.8 439,-343.8 439,-447.74 439,-447.74"/>
<polygon fill="#e69f00" stroke="#e69f00" stroke-width="2" points="435.5,-447.74 439,-457.74 442.5,-447.74 435.5,-447.74"/>
</g>
<!-- node_2d1cec76 -->
<g id="node32" class="node">
<title>node_2d1cec76</title>
<path fill="#cccccc" stroke="black" d="M548.5,-443C548.5,-443 479.5,-443 479.5,-443 473.5,-443 467.5,-437 467.5,-431 467.5,-431 467.5,-419 467.5,-419 467.5,-413 473.5,-407 479.5,-407 479.5,-407 548.5,-407 548.5,-407 554.5,-407 560.5,-413 560.5,-419 560.5,-419 560.5,-431 560.5,-431 560.5,-437 554.5,-443 548.5,-443"/>
<text text-anchor="middle" x="514" y="-421.3" font-family="Times,serif" font-size="14.00">15: initWalk()</text>
</g>
<!-- node_5735ef59&#45;&gt;node_2d1cec76 -->
<g id="edge19" class="edge">
<title>node_5735ef59&#45;&gt;node_2d1cec76</title>
<path fill="none" stroke="#e69f00" stroke-width="2" d="M362,-351.18C362,-377.99 362,-425 362,-425 362,-425 454.13,-425 454.13,-425"/>
<polygon fill="#e69f00" stroke="#e69f00" stroke-width="2" points="454.13,-428.5 464.13,-425 454.13,-421.5 454.13,-428.5"/>
</g>
<!-- node_2fae7e1d -->
<g id="node18" class="node">
<title>node_2fae7e1d</title>
<path fill="#6db33f" stroke="black" d="M836,-634C836,-634 654,-634 654,-634 648,-634 642,-628 642,-622 642,-622 642,-610 642,-610 642,-604 648,-598 654,-598 654,-598 836,-598 836,-598 842,-598 848,-604 848,-610 848,-610 848,-622 848,-622 848,-628 842,-634 836,-634"/>
<text text-anchor="middle" x="745" y="-612.3" font-family="Times,serif" font-size="14.00">105: initAdjustBlackboardHeight()</text>
</g>
<!-- node_4d2c747c -->
<g id="node19" class="node">
<title>node_4d2c747c</title>
<path fill="#6db33f" stroke="black" d="M786.5,-688C786.5,-688 703.5,-688 703.5,-688 697.5,-688 691.5,-682 691.5,-676 691.5,-676 691.5,-664 691.5,-664 691.5,-658 697.5,-652 703.5,-652 703.5,-652 786.5,-652 786.5,-652 792.5,-652 798.5,-658 798.5,-664 798.5,-664 798.5,-676 798.5,-676 798.5,-682 792.5,-688 786.5,-688"/>
<text text-anchor="middle" x="745" y="-666.3" font-family="Times,serif" font-size="14.00">33: initInfoDiv()</text>
</g>
<!-- node_e859dc03&#45;&gt;node_2fae7e1d -->
<g id="edge20" class="edge">
<title>node_e859dc03&#45;&gt;node_2fae7e1d</title>
<path fill="none" stroke="#009e73" stroke-width="2" d="M578.45,-657.14C611.96,-657.14 646,-657.14 646,-657.14 646,-657.14 646,-647.19 646,-647.19"/>
<polygon fill="#009e73" stroke="#009e73" stroke-width="2" points="649.5,-647.19 646,-637.19 642.5,-647.19 649.5,-647.19"/>
</g>
<!-- node_e859dc03&#45;&gt;node_4d2c747c -->
<g id="edge21" class="edge">
<title>node_e859dc03&#45;&gt;node_4d2c747c</title>
<path fill="none" stroke="#009e73" stroke-width="2" d="M578.35,-662.29C578.35,-662.29 678.12,-662.29 678.12,-662.29"/>
<polygon fill="#009e73" stroke="#009e73" stroke-width="2" points="678.12,-665.79 688.12,-662.29 678.12,-658.79 678.12,-665.79"/>
</g>
<!-- node_a9739ad3 -->
<g id="node21" class="node">
<title>node_a9739ad3</title>
<path fill="#6db33f" stroke="black" d="M800.5,-742C800.5,-742 689.5,-742 689.5,-742 683.5,-742 677.5,-736 677.5,-730 677.5,-730 677.5,-718 677.5,-718 677.5,-712 683.5,-706 689.5,-706 689.5,-706 800.5,-706 800.5,-706 806.5,-706 812.5,-712 812.5,-718 812.5,-718 812.5,-730 812.5,-730 812.5,-736 806.5,-742 800.5,-742"/>
<text text-anchor="middle" x="745" y="-720.3" font-family="Times,serif" font-size="14.00">248: initOpenCloset()</text>
</g>
<!-- node_e859dc03&#45;&gt;node_a9739ad3 -->
<g id="edge22" class="edge">
<title>node_e859dc03&#45;&gt;node_a9739ad3</title>
<path fill="none" stroke="#009e73" stroke-width="2" d="M578.16,-667.43C626.68,-667.43 685,-667.43 685,-667.43 685,-667.43 685,-692.76 685,-692.76"/>
<polygon fill="#009e73" stroke="#009e73" stroke-width="2" points="681.5,-692.76 685,-702.76 688.5,-692.76 681.5,-692.76"/>
</g>
<!-- node_8462e23c -->
<g id="node22" class="node">
<title>node_8462e23c</title>
<path fill="#6db33f" stroke="black" d="M816,-796C816,-796 674,-796 674,-796 668,-796 662,-790 662,-784 662,-784 662,-772 662,-772 662,-766 668,-760 674,-760 674,-760 816,-760 816,-760 822,-760 828,-766 828,-772 828,-772 828,-784 828,-784 828,-790 822,-796 816,-796"/>
<text text-anchor="middle" x="745" y="-774.3" font-family="Times,serif" font-size="14.00">209: initPutChairOnTable()</text>
</g>
<!-- node_e859dc03&#45;&gt;node_8462e23c -->
<g id="edge23" class="edge">
<title>node_e859dc03&#45;&gt;node_8462e23c</title>
<path fill="none" stroke="#009e73" stroke-width="2" d="M578.35,-672.57C621.32,-672.57 670,-672.57 670,-672.57 670,-672.57 670,-746.61 670,-746.61"/>
<polygon fill="#009e73" stroke="#009e73" stroke-width="2" points="666.5,-746.61 670,-756.61 673.5,-746.61 666.5,-746.61"/>
</g>
<!-- node_7ef93130 -->
<g id="node23" class="node">
<title>node_7ef93130</title>
<path fill="#cccccc" stroke="black" d="M802,-850C802,-850 688,-850 688,-850 682,-850 676,-844 676,-838 676,-838 676,-826 676,-826 676,-820 682,-814 688,-814 688,-814 802,-814 802,-814 808,-814 814,-820 814,-826 814,-826 814,-838 814,-838 814,-844 808,-850 802,-850"/>
<text text-anchor="middle" x="745" y="-828.3" font-family="Times,serif" font-size="14.00">155: initSwitchLight()</text>
</g>
<!-- node_e859dc03&#45;&gt;node_7ef93130 -->
<g id="edge24" class="edge">
<title>node_e859dc03&#45;&gt;node_7ef93130</title>
<path fill="none" stroke="#009e73" stroke-width="2" d="M578.31,-682.86C602.38,-682.86 624,-682.86 624,-682.86 624,-682.86 624,-832 624,-832 624,-832 662.64,-832 662.64,-832"/>
<polygon fill="#009e73" stroke="#009e73" stroke-width="2" points="662.64,-835.5 672.64,-832 662.64,-828.5 662.64,-835.5"/>
</g>
<!-- node_4da3bb02 -->
<g id="node24" class="node">
<title>node_4da3bb02</title>
<path fill="#6db33f" stroke="black" d="M828.5,-904C828.5,-904 661.5,-904 661.5,-904 655.5,-904 649.5,-898 649.5,-892 649.5,-892 649.5,-880 649.5,-880 649.5,-874 655.5,-868 661.5,-868 661.5,-868 828.5,-868 828.5,-868 834.5,-868 840.5,-874 840.5,-880 840.5,-880 840.5,-892 840.5,-892 840.5,-898 834.5,-904 828.5,-904"/>
<text text-anchor="middle" x="745" y="-882.3" font-family="Times,serif" font-size="14.00">92: initTriggerFlightSimulator()</text>
</g>
<!-- node_e859dc03&#45;&gt;node_4da3bb02 -->
<g id="edge25" class="edge">
<title>node_e859dc03&#45;&gt;node_4da3bb02</title>
<path fill="none" stroke="#009e73" stroke-width="2" d="M578.35,-677.71C615.92,-677.71 656,-677.71 656,-677.71 656,-677.71 656,-854.49 656,-854.49"/>
<polygon fill="#009e73" stroke="#009e73" stroke-width="2" points="652.5,-854.49 656,-864.49 659.5,-854.49 652.5,-854.49"/>
</g>
<!-- node_7ef93130&#45;&gt;node_637e2a06 -->
<g id="edge26" class="edge">
<title>node_7ef93130&#45;&gt;node_637e2a06</title>
<path fill="none" stroke="#000000" stroke-width="2" d="M814.33,-832C841.37,-832 866,-832 866,-832 866,-832 866,-411.67 866,-411.67 866,-411.67 937.25,-411.67 937.25,-411.67"/>
<polygon fill="#000000" stroke="#000000" stroke-width="2" points="937.25,-415.17 947.25,-411.67 937.25,-408.17 937.25,-415.17"/>
</g>
<!-- node_9d72cd71 -->
<g id="node25" class="node">
<title>node_9d72cd71</title>
<path fill="#966f33" stroke="black" d="M163,-546C163,-546 104,-546 104,-546 98,-546 92,-540 92,-534 92,-534 92,-522 92,-522 92,-516 98,-510 104,-510 104,-510 163,-510 163,-510 169,-510 175,-516 175,-522 175,-522 175,-534 175,-534 175,-540 169,-546 163,-546"/>
<text text-anchor="middle" x="133.5" y="-524.3" font-family="Times,serif" font-size="14.00">0: (global)()</text>
</g>
<!-- node_9d72cd71&#45;&gt;node_7d94072f -->
<g id="edge32" class="edge">
<title>node_9d72cd71&#45;&gt;node_7d94072f</title>
<path fill="none" stroke="#e69f00" stroke-width="2" d="M175.33,-530.5C227.52,-530.5 310,-530.5 310,-530.5 310,-530.5 310,-692.77 310,-692.77"/>
<polygon fill="#e69f00" stroke="#e69f00" stroke-width="2" points="306.5,-692.77 310,-702.77 313.5,-692.77 306.5,-692.77"/>
</g>
<!-- node_9d72cd71&#45;&gt;node_5735ef59 -->
<g id="edge33" class="edge">
<title>node_9d72cd71&#45;&gt;node_5735ef59</title>
<path fill="none" stroke="#e69f00" stroke-width="2" d="M175.09,-522.75C235.13,-522.75 339,-522.75 339,-522.75 339,-522.75 339,-364.22 339,-364.22"/>
<polygon fill="#e69f00" stroke="#e69f00" stroke-width="2" points="342.5,-364.22 339,-354.22 335.5,-364.22 342.5,-364.22"/>
</g>
<!-- node_de775bfc&#45;&gt;node_56ae4763 -->
<g id="edge34" class="edge">
<title>node_de775bfc&#45;&gt;node_56ae4763</title>
<path fill="none" stroke="#f0e442" stroke-width="2" d="M565.89,-34C654.14,-34 824,-34 824,-34 824,-34 824,-336 824,-336 824,-336 890.12,-336 890.12,-336"/>
<polygon fill="#f0e442" stroke="#f0e442" stroke-width="2" points="890.12,-339.5 900.12,-336 890.12,-332.5 890.12,-339.5"/>
</g>
<!-- node_2710ba87&#45;&gt;node_637e2a06 -->
<g id="edge35" class="edge">
<title>node_2710ba87&#45;&gt;node_637e2a06</title>
<path fill="none" stroke="#cc79a7" stroke-width="2" d="M745,-360.5C745,-376.05 745,-395.75 745,-395.75 745,-395.75 937.18,-395.75 937.18,-395.75"/>
<polygon fill="#cc79a7" stroke="#cc79a7" stroke-width="2" points="937.18,-399.25 947.18,-395.75 937.18,-392.25 937.18,-399.25"/>
</g>
<!-- node_2710ba87&#45;&gt;node_56ae4763 -->
<g id="edge43" class="edge">
<title>node_2710ba87&#45;&gt;node_56ae4763</title>
<path fill="none" stroke="#cc79a7" stroke-width="2" d="M800.34,-348C800.34,-348 890.03,-348 890.03,-348"/>
<polygon fill="#cc79a7" stroke="#cc79a7" stroke-width="2" points="890.03,-351.5 900.03,-348 890.03,-344.5 890.03,-351.5"/>
</g>
<!-- node_04ff7dad -->
<g id="node28" class="node">
<title>node_04ff7dad</title>
<path fill="#6db33f" stroke="black" d="M793,-443C793,-443 697,-443 697,-443 691,-443 685,-437 685,-431 685,-431 685,-419 685,-419 685,-413 691,-407 697,-407 697,-407 793,-407 793,-407 799,-407 805,-413 805,-419 805,-419 805,-431 805,-431 805,-437 799,-443 793,-443"/>
<text text-anchor="middle" x="745" y="-421.3" font-family="Times,serif" font-size="14.00">135: createPlayer()</text>
</g>
<!-- node_541d9bc3 -->
<g id="node29" class="node">
<title>node_541d9bc3</title>
<path fill="#cccccc" stroke="black" d="M799.5,-497C799.5,-497 690.5,-497 690.5,-497 684.5,-497 678.5,-491 678.5,-485 678.5,-485 678.5,-473 678.5,-473 678.5,-467 684.5,-461 690.5,-461 690.5,-461 799.5,-461 799.5,-461 805.5,-461 811.5,-467 811.5,-473 811.5,-473 811.5,-485 811.5,-485 811.5,-491 805.5,-497 799.5,-497"/>
<text text-anchor="middle" x="745" y="-475.3" font-family="Times,serif" font-size="14.00">93: getNewPosition()</text>
</g>
<!-- node_541d9bc3&#45;&gt;node_637e2a06 -->
<g id="edge52" class="edge">
<title>node_541d9bc3&#45;&gt;node_637e2a06</title>
<path fill="none" stroke="#009e73" stroke-width="2" d="M811.61,-464.5C825.49,-464.5 836,-464.5 836,-464.5 836,-464.5 836,-409.33 836,-409.33 836,-409.33 937.01,-409.33 937.01,-409.33"/>
<polygon fill="#009e73" stroke="#009e73" stroke-width="2" points="937.01,-412.83 947.01,-409.33 937.01,-405.83 937.01,-412.83"/>
</g>
<!-- node_6b056bdc&#45;&gt;node_c8653220 -->
<g id="edge54" class="edge">
<title>node_6b056bdc&#45;&gt;node_c8653220</title>
<path fill="none" stroke="#f0e442" stroke-width="2" d="M581.78,-520.25C581.78,-520.25 923.98,-520.25 923.98,-520.25"/>
<polygon fill="#f0e442" stroke="#f0e442" stroke-width="2" points="923.98,-523.75 933.98,-520.25 923.98,-516.75 923.98,-523.75"/>
</g>
<!-- node_6b056bdc&#45;&gt;node_bb479819 -->
<g id="edge55" class="edge">
<title>node_6b056bdc&#45;&gt;node_bb479819</title>
<path fill="none" stroke="#f0e442" stroke-width="2" d="M581.79,-518.5C700.37,-518.5 933,-518.5 933,-518.5 933,-518.5 933,-481.38 933,-481.38"/>
<polygon fill="#f0e442" stroke="#f0e442" stroke-width="2" points="936.5,-481.38 933,-471.38 929.5,-481.38 936.5,-481.38"/>
</g>
<!-- node_6b056bdc&#45;&gt;node_541d9bc3 -->
<g id="edge56" class="edge">
<title>node_6b056bdc&#45;&gt;node_541d9bc3</title>
<path fill="none" stroke="#f0e442" stroke-width="2" d="M581.75,-516.75C649.91,-516.75 745,-516.75 745,-516.75 745,-516.75 745,-510.46 745,-510.46"/>
<polygon fill="#f0e442" stroke="#f0e442" stroke-width="2" points="748.5,-510.46 745,-500.46 741.5,-510.46 748.5,-510.46"/>
</g>
<!-- node_2d1cec76&#45;&gt;node_04ff7dad -->
<g id="edge57" class="edge">
<title>node_2d1cec76&#45;&gt;node_04ff7dad</title>
<path fill="none" stroke="#d55e00" stroke-width="2" d="M560.75,-425C560.75,-425 671.68,-425 671.68,-425"/>
<polygon fill="#d55e00" stroke="#d55e00" stroke-width="2" points="671.68,-428.5 681.68,-425 671.68,-421.5 671.68,-428.5"/>
</g>
</g>
</svg>
