<?xml version="1.0" encoding="UTF-8" standalone="no"?>
<!DOCTYPE svg PUBLIC "-//W3C//DTD SVG 1.1//EN"
 "http://www.w3.org/Graphics/SVG/1.1/DTD/svg11.dtd">
<!-- Generated by graphviz version 7.0.1 (20221109.1506)
 -->
<!-- Title: G Pages: 1 -->
<svg width="1548pt" height="1511pt"
 viewBox="0.00 0.00 1548.00 1511.00" xmlns="http://www.w3.org/2000/svg" xmlns:xlink="http://www.w3.org/1999/xlink">
<g id="graph0" class="graph" transform="scale(1 1) rotate(0) translate(4 1507)">
<title>G</title>
<polygon fill="white" stroke="none" points="-4,4 -4,-1507 1544,-1507 1544,4 -4,4"/>
<g id="clust2" class="cluster">
<title>cluster_c58411b7</title>
<polygon fill="none" stroke="black" stroke-dasharray="1,5" points="539.5,-743 539.5,-818 638.5,-818 638.5,-743 539.5,-743"/>
<text text-anchor="middle" x="589" y="-802.8" font-family="Times,serif" font-size="14.00">File: animate</text>
</g>
<g id="clust3" class="cluster">
<title>cluster_782c25da</title>
<polygon fill="none" stroke="black" stroke-dasharray="1,5" points="84,-1184 84,-1421 506,-1421 506,-1184 84,-1184"/>
<text text-anchor="middle" x="295" y="-1405.8" font-family="Times,serif" font-size="14.00">File: fs&#45;animate</text>
</g>
<g id="clust4" class="cluster">
<title>cluster_b7057b09</title>
<polygon fill="none" stroke="black" stroke-dasharray="1,5" points="705,-1018 705,-1147 1084,-1147 1084,-1018 705,-1018"/>
<text text-anchor="middle" x="894.5" y="-1131.8" font-family="Times,serif" font-size="14.00">File: fs&#45;fly</text>
</g>
<g id="clust5" class="cluster">
<title>cluster_da91cda1</title>
<polygon fill="none" stroke="black" stroke-dasharray="1,5" points="526,-1292 526,-1495 1358.5,-1495 1358.5,-1292 526,-1292"/>
<text text-anchor="middle" x="942.25" y="-1479.8" font-family="Times,serif" font-size="14.00">File: fs&#45;init</text>
</g>
<g id="clust6" class="cluster">
<title>cluster_e7d3241f</title>
<polygon fill="none" stroke="black" stroke-dasharray="1,5" points="679.5,-1155 679.5,-1284 864.5,-1284 864.5,-1155 679.5,-1155"/>
<text text-anchor="middle" x="772" y="-1268.8" font-family="Times,serif" font-size="14.00">File: fs&#45;place&#45;objects</text>
</g>
<g id="clust7" class="cluster">
<title>cluster_ca6a2131</title>
<polygon fill="none" stroke="black" stroke-dasharray="1,5" points="1128,-279 1128,-624 1532,-624 1532,-279 1128,-279"/>
<text text-anchor="middle" x="1330" y="-608.8" font-family="Times,serif" font-size="14.00">File: helpers</text>
</g>
<g id="clust8" class="cluster">
<title>cluster_824bc5a0</title>
<polygon fill="none" stroke="black" stroke-dasharray="1,5" points="552,-91 552,-382 872,-382 872,-91 552,-91"/>
<text text-anchor="middle" x="712" y="-366.8" font-family="Times,serif" font-size="14.00">File: init</text>
</g>
<g id="clust9" class="cluster">
<title>cluster_3e88c378</title>
<polygon fill="none" stroke="black" stroke-dasharray="1,5" points="676,-581 676,-926 1108,-926 1108,-581 676,-581"/>
<text text-anchor="middle" x="892" y="-910.8" font-family="Times,serif" font-size="14.00">File: interactions</text>
</g>
<g id="clust10" class="cluster">
<title>cluster_add6abfe</title>
<polygon fill="none" stroke="black" stroke-dasharray="1,5" points="712.5,-8 712.5,-83 831.5,-83 831.5,-8 712.5,-8"/>
<text text-anchor="middle" x="772" y="-67.8" font-family="Times,serif" font-size="14.00">File: place&#45;lights</text>
</g>
<g id="clust11" class="cluster">
<title>cluster_ab1bc64f</title>
<polygon fill="none" stroke="black" stroke-dasharray="1,5" points="937,-279 937,-354 1063,-354 1063,-279 937,-279"/>
<text text-anchor="middle" x="1000" y="-338.8" font-family="Times,serif" font-size="14.00">File: place&#45;objects</text>
</g>
<g id="clust12" class="cluster">
<title>cluster_d597918f</title>
<polygon fill="none" stroke="black" stroke-dasharray="1,5" points="679,-390 679,-573 1074.5,-573 1074.5,-390 679,-390"/>
<text text-anchor="middle" x="876.75" y="-557.8" font-family="Times,serif" font-size="14.00">File: walk</text>
</g>
<!-- Legend -->
<g id="node1" class="node">
<title>Legend</title>
<polygon fill="none" stroke="black" points="1.5,-1157 1.5,-1174 266.5,-1174 266.5,-1157 1.5,-1157"/>
<text text-anchor="start" x="81.5" y="-1161.8" font-family="Times,serif" font-size="14.00">Code2flow Legend</text>
<polygon fill="none" stroke="black" points="1.5,-1069 1.5,-1157 266.5,-1157 266.5,-1069 1.5,-1069"/>
<polygon fill="none" stroke="black" points="3.5,-1134 3.5,-1155 214.5,-1155 214.5,-1134 3.5,-1134"/>
<text text-anchor="start" x="63" y="-1140.8" font-family="Times,serif" font-size="14.00">Regular function</text>
<polygon fill="#cccccc" stroke="none" points="214.5,-1134 214.5,-1155 264.5,-1155 264.5,-1134 214.5,-1134"/>
<polygon fill="none" stroke="black" points="214.5,-1134 214.5,-1155 264.5,-1155 264.5,-1134 214.5,-1134"/>
<polygon fill="none" stroke="black" points="3.5,-1113 3.5,-1134 214.5,-1134 214.5,-1113 3.5,-1113"/>
<text text-anchor="start" x="15" y="-1119.8" font-family="Times,serif" font-size="14.00">Trunk function (nothing calls this)</text>
<polygon fill="#966f33" stroke="none" points="214.5,-1113 214.5,-1134 264.5,-1134 264.5,-1113 214.5,-1113"/>
<polygon fill="none" stroke="black" points="214.5,-1113 214.5,-1134 264.5,-1134 264.5,-1113 214.5,-1113"/>
<polygon fill="none" stroke="black" points="3.5,-1092 3.5,-1113 214.5,-1113 214.5,-1092 3.5,-1092"/>
<text text-anchor="start" x="6.5" y="-1098.8" font-family="Times,serif" font-size="14.00">Leaf function (this calls nothing else)</text>
<polygon fill="#6db33f" stroke="none" points="214.5,-1092 214.5,-1113 264.5,-1113 264.5,-1092 214.5,-1092"/>
<polygon fill="none" stroke="black" points="214.5,-1092 214.5,-1113 264.5,-1113 264.5,-1092 214.5,-1092"/>
<polygon fill="none" stroke="black" points="3.5,-1071 3.5,-1092 214.5,-1092 214.5,-1071 3.5,-1071"/>
<text text-anchor="start" x="73" y="-1077.8" font-family="Times,serif" font-size="14.00">Function call</text>
<polygon fill="none" stroke="black" points="214.5,-1071 214.5,-1092 264.5,-1092 264.5,-1071 214.5,-1071"/>
<text text-anchor="start" x="232" y="-1077.8" font-family="Times,serif" font-size="14.00">→</text>
<polygon fill="none" stroke="black" points="2.5,-1070 2.5,-1156 265.5,-1156 265.5,-1070 2.5,-1070"/>
<polygon fill="none" stroke="black" points="0,-1068.5 0,-1175.5 267,-1175.5 267,-1068.5 0,-1068.5"/>
</g>
<!-- node_8b967b39 -->
<g id="node2" class="node">
<title>node_8b967b39</title>
<path fill="#966f33" stroke="black" d="M618.5,-787C618.5,-787 559.5,-787 559.5,-787 553.5,-787 547.5,-781 547.5,-775 547.5,-775 547.5,-763 547.5,-763 547.5,-757 553.5,-751 559.5,-751 559.5,-751 618.5,-751 618.5,-751 624.5,-751 630.5,-757 630.5,-763 630.5,-763 630.5,-775 630.5,-775 630.5,-781 624.5,-787 618.5,-787"/>
<text text-anchor="middle" x="589" y="-765.3" font-family="Times,serif" font-size="14.00">6: animate()</text>
</g>
<!-- node_f3aa0b9c -->
<g id="node34" class="node">
<title>node_f3aa0b9c</title>
<path fill="#6db33f" stroke="black" d="M846,-760C846,-760 698,-760 698,-760 692,-760 686,-754 686,-748 686,-748 686,-736 686,-736 686,-730 692,-724 698,-724 698,-724 846,-724 846,-724 852,-724 858,-730 858,-736 858,-736 858,-748 858,-748 858,-754 852,-760 846,-760"/>
<text text-anchor="middle" x="772" y="-738.3" font-family="Times,serif" font-size="14.00">273: handleAnimateChairs()</text>
</g>
<!-- node_8b967b39&#45;&gt;node_f3aa0b9c -->
<g id="edge1" class="edge">
<title>node_8b967b39&#45;&gt;node_f3aa0b9c</title>
<path fill="none" stroke="#e69f00" stroke-width="2" d="M630.98,-755.5C630.98,-755.5 672.76,-755.5 672.76,-755.5"/>
<polygon fill="#e69f00" stroke="#e69f00" stroke-width="2" points="672.76,-759 682.76,-755.5 672.76,-752 672.76,-759"/>
</g>
<!-- node_a86ecf47 -->
<g id="node35" class="node">
<title>node_a86ecf47</title>
<path fill="#6db33f" stroke="black" d="M848,-868C848,-868 696,-868 696,-868 690,-868 684,-862 684,-856 684,-856 684,-844 684,-844 684,-838 690,-832 696,-832 696,-832 848,-832 848,-832 854,-832 860,-838 860,-844 860,-844 860,-856 860,-856 860,-862 854,-868 848,-868"/>
<text text-anchor="middle" x="772" y="-846.3" font-family="Times,serif" font-size="14.00">483: handleAnimateClosets()</text>
</g>
<!-- node_8b967b39&#45;&gt;node_a86ecf47 -->
<g id="edge2" class="edge">
<title>node_8b967b39&#45;&gt;node_a86ecf47</title>
<path fill="none" stroke="#e69f00" stroke-width="2" d="M630.98,-784C660.96,-784 696,-784 696,-784 696,-784 696,-818.59 696,-818.59"/>
<polygon fill="#e69f00" stroke="#e69f00" stroke-width="2" points="692.5,-818.59 696,-828.59 699.5,-818.59 692.5,-818.59"/>
</g>
<!-- node_face7ec0 -->
<g id="node36" class="node">
<title>node_face7ec0</title>
<path fill="#6db33f" stroke="black" d="M826,-814C826,-814 718,-814 718,-814 712,-814 706,-808 706,-802 706,-802 706,-790 706,-790 706,-784 712,-778 718,-778 718,-778 826,-778 826,-778 832,-778 838,-784 838,-790 838,-790 838,-802 838,-802 838,-808 832,-814 826,-814"/>
<text text-anchor="middle" x="772" y="-792.3" font-family="Times,serif" font-size="14.00">553: handleInfoDiv()</text>
</g>
<!-- node_8b967b39&#45;&gt;node_face7ec0 -->
<g id="edge3" class="edge">
<title>node_8b967b39&#45;&gt;node_face7ec0</title>
<path fill="none" stroke="#e69f00" stroke-width="2" d="M630.98,-781C630.98,-781 692.79,-781 692.79,-781"/>
<polygon fill="#e69f00" stroke="#e69f00" stroke-width="2" points="692.79,-784.5 702.79,-781 692.79,-777.5 692.79,-784.5"/>
</g>
<!-- node_c112998b -->
<g id="node48" class="node">
<title>node_c112998b</title>
<path fill="#cccccc" stroke="black" d="M828,-542C828,-542 716,-542 716,-542 710,-542 704,-536 704,-530 704,-530 704,-518 704,-518 704,-512 710,-506 716,-506 716,-506 828,-506 828,-506 834,-506 840,-512 840,-518 840,-518 840,-530 840,-530 840,-536 834,-542 828,-542"/>
<text text-anchor="middle" x="772" y="-520.3" font-family="Times,serif" font-size="14.00">150: handleWalking()</text>
</g>
<!-- node_8b967b39&#45;&gt;node_c112998b -->
<g id="edge4" class="edge">
<title>node_8b967b39&#45;&gt;node_c112998b</title>
<path fill="none" stroke="#e69f00" stroke-width="2" d="M625,-750.59C625,-693.61 625,-524 625,-524 625,-524 690.64,-524 690.64,-524"/>
<polygon fill="#e69f00" stroke="#e69f00" stroke-width="2" points="690.64,-527.5 700.64,-524 690.64,-520.5 690.64,-527.5"/>
</g>
<!-- node_82720efd -->
<g id="node3" class="node">
<title>node_82720efd</title>
<path fill="#966f33" stroke="black" d="M163,-1282C163,-1282 104,-1282 104,-1282 98,-1282 92,-1276 92,-1270 92,-1270 92,-1258 92,-1258 92,-1252 98,-1246 104,-1246 104,-1246 163,-1246 163,-1246 169,-1246 175,-1252 175,-1258 175,-1258 175,-1270 175,-1270 175,-1276 169,-1282 163,-1282"/>
<text text-anchor="middle" x="133.5" y="-1260.3" font-family="Times,serif" font-size="14.00">4: animate()</text>
</g>
<!-- node_d872cecd -->
<g id="node4" class="node">
<title>node_d872cecd</title>
<path fill="#cccccc" stroke="black" d="M481.5,-1282C481.5,-1282 319.5,-1282 319.5,-1282 313.5,-1282 307.5,-1276 307.5,-1270 307.5,-1270 307.5,-1258 307.5,-1258 307.5,-1252 313.5,-1246 319.5,-1246 319.5,-1246 481.5,-1246 481.5,-1246 487.5,-1246 493.5,-1252 493.5,-1258 493.5,-1258 493.5,-1270 493.5,-1270 493.5,-1276 487.5,-1282 481.5,-1282"/>
<text text-anchor="middle" x="400.5" y="-1260.3" font-family="Times,serif" font-size="14.00">110: handleObstacleCollision()</text>
</g>
<!-- node_82720efd&#45;&gt;node_d872cecd -->
<g id="edge5" class="edge">
<title>node_82720efd&#45;&gt;node_d872cecd</title>
<path fill="none" stroke="#0072b2" stroke-width="2" d="M175.22,-1270C175.22,-1270 294.09,-1270 294.09,-1270"/>
<polygon fill="#0072b2" stroke="#0072b2" stroke-width="2" points="294.09,-1273.5 304.09,-1270 294.09,-1266.5 294.09,-1273.5"/>
</g>
<!-- node_2c246d2a -->
<g id="node5" class="node">
<title>node_2c246d2a</title>
<path fill="#6db33f" stroke="black" d="M486,-1336C486,-1336 315,-1336 315,-1336 309,-1336 303,-1330 303,-1324 303,-1324 303,-1312 303,-1312 303,-1306 309,-1300 315,-1300 315,-1300 486,-1300 486,-1300 492,-1300 498,-1306 498,-1312 498,-1312 498,-1324 498,-1324 498,-1330 492,-1336 486,-1336"/>
<text text-anchor="middle" x="400.5" y="-1314.3" font-family="Times,serif" font-size="14.00">124: handlePlaneOutOfBounds()</text>
</g>
<!-- node_82720efd&#45;&gt;node_2c246d2a -->
<g id="edge6" class="edge">
<title>node_82720efd&#45;&gt;node_2c246d2a</title>
<path fill="none" stroke="#0072b2" stroke-width="2" d="M148,-1282.28C148,-1297.95 148,-1318 148,-1318 148,-1318 289.49,-1318 289.49,-1318"/>
<polygon fill="#0072b2" stroke="#0072b2" stroke-width="2" points="289.49,-1321.5 299.49,-1318 289.49,-1314.5 289.49,-1321.5"/>
</g>
<!-- node_8bbb6c85 -->
<g id="node6" class="node">
<title>node_8bbb6c85</title>
<path fill="#cccccc" stroke="black" d="M445,-1390C445,-1390 356,-1390 356,-1390 350,-1390 344,-1384 344,-1378 344,-1378 344,-1366 344,-1366 344,-1360 350,-1354 356,-1354 356,-1354 445,-1354 445,-1354 451,-1354 457,-1360 457,-1366 457,-1366 457,-1378 457,-1378 457,-1384 451,-1390 445,-1390"/>
<text text-anchor="middle" x="400.5" y="-1368.3" font-family="Times,serif" font-size="14.00">28: handleScore()</text>
</g>
<!-- node_82720efd&#45;&gt;node_8bbb6c85 -->
<g id="edge7" class="edge">
<title>node_82720efd&#45;&gt;node_8bbb6c85</title>
<path fill="none" stroke="#0072b2" stroke-width="2" d="M120,-1282.32C120,-1313.13 120,-1372 120,-1372 120,-1372 330.71,-1372 330.71,-1372"/>
<polygon fill="#0072b2" stroke="#0072b2" stroke-width="2" points="330.71,-1375.5 340.71,-1372 330.71,-1368.5 330.71,-1375.5"/>
</g>
<!-- node_550520dd -->
<g id="node7" class="node">
<title>node_550520dd</title>
<path fill="#cccccc" stroke="black" d="M444.5,-1228C444.5,-1228 356.5,-1228 356.5,-1228 350.5,-1228 344.5,-1222 344.5,-1216 344.5,-1216 344.5,-1204 344.5,-1204 344.5,-1198 350.5,-1192 356.5,-1192 356.5,-1192 444.5,-1192 444.5,-1192 450.5,-1192 456.5,-1198 456.5,-1204 456.5,-1204 456.5,-1216 456.5,-1216 456.5,-1222 450.5,-1228 444.5,-1228"/>
<text text-anchor="middle" x="400.5" y="-1206.3" font-family="Times,serif" font-size="14.00">90: handleTime()</text>
</g>
<!-- node_82720efd&#45;&gt;node_550520dd -->
<g id="edge8" class="edge">
<title>node_82720efd&#45;&gt;node_550520dd</title>
<path fill="none" stroke="#0072b2" stroke-width="2" d="M134,-1245.72C134,-1230.05 134,-1210 134,-1210 134,-1210 331.28,-1210 331.28,-1210"/>
<polygon fill="#0072b2" stroke="#0072b2" stroke-width="2" points="331.28,-1213.5 341.28,-1210 331.28,-1206.5 331.28,-1213.5"/>
</g>
<!-- node_7aec59b8 -->
<g id="node10" class="node">
<title>node_7aec59b8</title>
<path fill="#cccccc" stroke="black" d="M819,-1062C819,-1062 725,-1062 725,-1062 719,-1062 713,-1056 713,-1050 713,-1050 713,-1038 713,-1038 713,-1032 719,-1026 725,-1026 725,-1026 819,-1026 819,-1026 825,-1026 831,-1032 831,-1038 831,-1038 831,-1050 831,-1050 831,-1056 825,-1062 819,-1062"/>
<text text-anchor="middle" x="772" y="-1040.3" font-family="Times,serif" font-size="14.00">62: handleFlying()</text>
</g>
<!-- node_82720efd&#45;&gt;node_7aec59b8 -->
<g id="edge9" class="edge">
<title>node_82720efd&#45;&gt;node_7aec59b8</title>
<path fill="none" stroke="#0072b2" stroke-width="2" d="M175.3,-1258C220.14,-1258 285,-1258 285,-1258 285,-1258 285,-1044 285,-1044 285,-1044 699.74,-1044 699.74,-1044"/>
<polygon fill="#0072b2" stroke="#0072b2" stroke-width="2" points="699.74,-1047.5 709.74,-1044 699.74,-1040.5 699.74,-1047.5"/>
</g>
<!-- node_2e43255e -->
<g id="node12" class="node">
<title>node_2e43255e</title>
<path fill="#6db33f" stroke="black" d="M632,-1390C632,-1390 546,-1390 546,-1390 540,-1390 534,-1384 534,-1378 534,-1378 534,-1366 534,-1366 534,-1360 540,-1354 546,-1354 546,-1354 632,-1354 632,-1354 638,-1354 644,-1360 644,-1366 644,-1366 644,-1378 644,-1378 644,-1384 638,-1390 632,-1390"/>
<text text-anchor="middle" x="589" y="-1368.3" font-family="Times,serif" font-size="14.00">166: gameOver()</text>
</g>
<!-- node_d872cecd&#45;&gt;node_2e43255e -->
<g id="edge10" class="edge">
<title>node_d872cecd&#45;&gt;node_2e43255e</title>
<path fill="none" stroke="#0072b2" stroke-width="2" d="M493.65,-1267.5C518.7,-1267.5 539,-1267.5 539,-1267.5 539,-1267.5 539,-1340.77 539,-1340.77"/>
<polygon fill="#0072b2" stroke="#0072b2" stroke-width="2" points="535.5,-1340.77 539,-1350.77 542.5,-1340.77 535.5,-1340.77"/>
</g>
<!-- node_8bbb6c85&#45;&gt;node_2e43255e -->
<g id="edge11" class="edge">
<title>node_8bbb6c85&#45;&gt;node_2e43255e</title>
<path fill="none" stroke="#0072b2" stroke-width="2" d="M457.31,-1372C457.31,-1372 520.57,-1372 520.57,-1372"/>
<polygon fill="#0072b2" stroke="#0072b2" stroke-width="2" points="520.57,-1375.5 530.57,-1372 520.57,-1368.5 520.57,-1375.5"/>
</g>
<!-- node_550520dd&#45;&gt;node_2e43255e -->
<g id="edge13" class="edge">
<title>node_550520dd&#45;&gt;node_2e43255e</title>
<path fill="none" stroke="#0072b2" stroke-width="2" d="M456.82,-1222.5C496.65,-1222.5 543,-1222.5 543,-1222.5 543,-1222.5 543,-1340.64 543,-1340.64"/>
<polygon fill="#0072b2" stroke="#0072b2" stroke-width="2" points="539.5,-1340.64 543,-1350.64 546.5,-1340.64 539.5,-1340.64"/>
</g>
<!-- node_e5942d2d -->
<g id="node8" class="node">
<title>node_e5942d2d</title>
<path fill="#6db33f" stroke="black" d="M1042,-1062C1042,-1062 958,-1062 958,-1062 952,-1062 946,-1056 946,-1050 946,-1050 946,-1038 946,-1038 946,-1032 952,-1026 958,-1026 958,-1026 1042,-1026 1042,-1026 1048,-1026 1054,-1032 1054,-1038 1054,-1038 1054,-1050 1054,-1050 1054,-1056 1048,-1062 1042,-1062"/>
<text text-anchor="middle" x="1000" y="-1040.3" font-family="Times,serif" font-size="14.00">145: calcSpeed()</text>
</g>
<!-- node_875836cb -->
<g id="node9" class="node">
<title>node_875836cb</title>
<path fill="#cccccc" stroke="black" d="M1064,-1116C1064,-1116 936,-1116 936,-1116 930,-1116 924,-1110 924,-1104 924,-1104 924,-1092 924,-1092 924,-1086 930,-1080 936,-1080 936,-1080 1064,-1080 1064,-1080 1070,-1080 1076,-1086 1076,-1092 1076,-1092 1076,-1104 1076,-1104 1076,-1110 1070,-1116 1064,-1116"/>
<text text-anchor="middle" x="1000" y="-1094.3" font-family="Times,serif" font-size="14.00">122: createModelPlane()</text>
</g>
<!-- node_a1e61d49 -->
<g id="node24" class="node">
<title>node_a1e61d49</title>
<path fill="#6db33f" stroke="black" d="M1339.5,-323C1339.5,-323 1167.5,-323 1167.5,-323 1161.5,-323 1155.5,-317 1155.5,-311 1155.5,-311 1155.5,-299 1155.5,-299 1155.5,-293 1161.5,-287 1167.5,-287 1167.5,-287 1339.5,-287 1339.5,-287 1345.5,-287 1351.5,-293 1351.5,-299 1351.5,-299 1351.5,-311 1351.5,-311 1351.5,-317 1345.5,-323 1339.5,-323"/>
<text text-anchor="middle" x="1253.5" y="-301.3" font-family="Times,serif" font-size="14.00">9: getMashFromBlenderModel()</text>
</g>
<!-- node_875836cb&#45;&gt;node_a1e61d49 -->
<g id="edge14" class="edge">
<title>node_875836cb&#45;&gt;node_a1e61d49</title>
<path fill="none" stroke="#009e73" stroke-width="2" d="M1076.3,-1098C1094.61,-1098 1109,-1098 1109,-1098 1109,-1098 1109,-305 1109,-305 1109,-305 1142.09,-305 1142.09,-305"/>
<polygon fill="#009e73" stroke="#009e73" stroke-width="2" points="1142.09,-308.5 1152.09,-305 1142.09,-301.5 1142.09,-308.5"/>
</g>
<!-- node_7aec59b8&#45;&gt;node_e5942d2d -->
<g id="edge15" class="edge">
<title>node_7aec59b8&#45;&gt;node_e5942d2d</title>
<path fill="none" stroke="#000000" stroke-width="2" d="M831.31,-1054.8C831.31,-1054.8 932.65,-1054.8 932.65,-1054.8"/>
<polygon fill="#000000" stroke="#000000" stroke-width="2" points="932.65,-1058.3 942.65,-1054.8 932.65,-1051.3 932.65,-1058.3"/>
</g>
<!-- node_2ac36da5 -->
<g id="node22" class="node">
<title>node_2ac36da5</title>
<path fill="#6db33f" stroke="black" d="M1293,-485C1293,-485 1214,-485 1214,-485 1208,-485 1202,-479 1202,-473 1202,-473 1202,-461 1202,-461 1202,-455 1208,-449 1214,-449 1214,-449 1293,-449 1293,-449 1299,-449 1305,-455 1305,-461 1305,-461 1305,-473 1305,-473 1305,-479 1299,-485 1293,-485"/>
<text text-anchor="middle" x="1253.5" y="-463.3" font-family="Times,serif" font-size="14.00">82: degToRad()</text>
</g>
<!-- node_7aec59b8&#45;&gt;node_2ac36da5 -->
<g id="edge16" class="edge">
<title>node_7aec59b8&#45;&gt;node_2ac36da5</title>
<path fill="none" stroke="#000000" stroke-width="2" d="M831.37,-1033.2C856.47,-1033.2 880,-1033.2 880,-1033.2 880,-1033.2 880,-477.5 880,-477.5 880,-477.5 1188.54,-477.5 1188.54,-477.5"/>
<polygon fill="#000000" stroke="#000000" stroke-width="2" points="1188.54,-481 1198.54,-477.5 1188.54,-474 1188.54,-481"/>
</g>
<!-- node_d1393352 -->
<g id="node26" class="node">
<title>node_d1393352</title>
<path fill="#cccccc" stroke="black" d="M1359,-593C1359,-593 1148,-593 1148,-593 1142,-593 1136,-587 1136,-581 1136,-581 1136,-569 1136,-569 1136,-563 1142,-557 1148,-557 1148,-557 1359,-557 1359,-557 1365,-557 1371,-563 1371,-569 1371,-569 1371,-581 1371,-581 1371,-587 1365,-593 1359,-593"/>
<text text-anchor="middle" x="1253.5" y="-571.3" font-family="Times,serif" font-size="14.00">131: turnVectorAroundHorizontalAxis()</text>
</g>
<!-- node_7aec59b8&#45;&gt;node_d1393352 -->
<g id="edge20" class="edge">
<title>node_7aec59b8&#45;&gt;node_d1393352</title>
<path fill="none" stroke="#000000" stroke-width="2" d="M831.35,-1047.6C860.73,-1047.6 890,-1047.6 890,-1047.6 890,-1047.6 890,-573 890,-573 890,-573 1122.71,-573 1122.71,-573"/>
<polygon fill="#000000" stroke="#000000" stroke-width="2" points="1122.71,-576.5 1132.71,-573 1122.71,-569.5 1122.71,-576.5"/>
</g>
<!-- node_10c1b5a0 -->
<g id="node27" class="node">
<title>node_10c1b5a0</title>
<path fill="#6db33f" stroke="black" d="M1351,-539C1351,-539 1156,-539 1156,-539 1150,-539 1144,-533 1144,-527 1144,-527 1144,-515 1144,-515 1144,-509 1150,-503 1156,-503 1156,-503 1351,-503 1351,-503 1357,-503 1363,-509 1363,-515 1363,-515 1363,-527 1363,-527 1363,-533 1357,-539 1351,-539"/>
<text text-anchor="middle" x="1253.5" y="-517.3" font-family="Times,serif" font-size="14.00">118: turnVectorAroundVerticalAxis()</text>
</g>
<!-- node_7aec59b8&#45;&gt;node_10c1b5a0 -->
<g id="edge21" class="edge">
<title>node_7aec59b8&#45;&gt;node_10c1b5a0</title>
<path fill="none" stroke="#000000" stroke-width="2" d="M831.48,-1040.4C858.7,-1040.4 885,-1040.4 885,-1040.4 885,-1040.4 885,-534 885,-534 885,-534 1130.91,-534 1130.91,-534"/>
<polygon fill="#000000" stroke="#000000" stroke-width="2" points="1130.91,-537.5 1140.91,-534 1130.91,-530.5 1130.91,-537.5"/>
</g>
<!-- node_fdc99bdb -->
<g id="node11" class="node">
<title>node_fdc99bdb</title>
<path fill="#cccccc" stroke="black" d="M810,-1116C810,-1116 734,-1116 734,-1116 728,-1116 722,-1110 722,-1104 722,-1104 722,-1092 722,-1092 722,-1086 728,-1080 734,-1080 734,-1080 810,-1080 810,-1080 816,-1080 822,-1086 822,-1092 822,-1092 822,-1104 822,-1104 822,-1110 816,-1116 810,-1116"/>
<text text-anchor="middle" x="772" y="-1094.3" font-family="Times,serif" font-size="14.00">15: initFlying()</text>
</g>
<!-- node_fdc99bdb&#45;&gt;node_875836cb -->
<g id="edge22" class="edge">
<title>node_fdc99bdb&#45;&gt;node_875836cb</title>
<path fill="none" stroke="#009e73" stroke-width="2" d="M822.32,-1098C822.32,-1098 910.77,-1098 910.77,-1098"/>
<polygon fill="#009e73" stroke="#009e73" stroke-width="2" points="910.77,-1101.5 920.77,-1098 910.77,-1094.5 910.77,-1101.5"/>
</g>
<!-- node_759daa0c -->
<g id="node13" class="node">
<title>node_759daa0c</title>
<path fill="#966f33" stroke="black" d="M606,-1336C606,-1336 572,-1336 572,-1336 566,-1336 560,-1330 560,-1324 560,-1324 560,-1312 560,-1312 560,-1306 566,-1300 572,-1300 572,-1300 606,-1300 606,-1300 612,-1300 618,-1306 618,-1312 618,-1312 618,-1324 618,-1324 618,-1330 612,-1336 606,-1336"/>
<text text-anchor="middle" x="589" y="-1314.3" font-family="Times,serif" font-size="14.00">4: init()</text>
</g>
<!-- node_759daa0c&#45;&gt;node_fdc99bdb -->
<g id="edge23" class="edge">
<title>node_759daa0c&#45;&gt;node_fdc99bdb</title>
<path fill="none" stroke="#f0e442" stroke-width="2" d="M580,-1299.62C580,-1246.75 580,-1098 580,-1098 580,-1098 708.53,-1098 708.53,-1098"/>
<polygon fill="#f0e442" stroke="#f0e442" stroke-width="2" points="708.53,-1101.5 718.53,-1098 708.53,-1094.5 708.53,-1101.5"/>
</g>
<!-- node_2310ce53 -->
<g id="node14" class="node">
<title>node_2310ce53</title>
<path fill="#cccccc" stroke="black" d="M830,-1464C830,-1464 714,-1464 714,-1464 708,-1464 702,-1458 702,-1452 702,-1452 702,-1440 702,-1440 702,-1434 708,-1428 714,-1428 714,-1428 830,-1428 830,-1428 836,-1428 842,-1434 842,-1440 842,-1440 842,-1452 842,-1452 842,-1458 836,-1464 830,-1464"/>
<text text-anchor="middle" x="772" y="-1442.3" font-family="Times,serif" font-size="14.00">246: initDevControls()</text>
</g>
<!-- node_759daa0c&#45;&gt;node_2310ce53 -->
<g id="edge24" class="edge">
<title>node_759daa0c&#45;&gt;node_2310ce53</title>
<path fill="none" stroke="#f0e442" stroke-width="2" d="M618.23,-1324C648.37,-1324 691,-1324 691,-1324 691,-1324 691,-1446 691,-1446 691,-1446 692.06,-1446 692.06,-1446"/>
<polygon fill="#f0e442" stroke="#f0e442" stroke-width="2" points="688.56,-1449.5 698.56,-1446 688.56,-1442.5 688.56,-1449.5"/>
</g>
<!-- node_433e71a0 -->
<g id="node15" class="node">
<title>node_433e71a0</title>
<path fill="#cccccc" stroke="black" d="M835,-1390C835,-1390 709,-1390 709,-1390 703,-1390 697,-1384 697,-1378 697,-1378 697,-1366 697,-1366 697,-1360 703,-1354 709,-1354 709,-1354 835,-1354 835,-1354 841,-1354 847,-1360 847,-1366 847,-1366 847,-1378 847,-1378 847,-1384 841,-1390 835,-1390"/>
<text text-anchor="middle" x="772" y="-1368.3" font-family="Times,serif" font-size="14.00">104: initOceanAndSky()</text>
</g>
<!-- node_759daa0c&#45;&gt;node_433e71a0 -->
<g id="edge25" class="edge">
<title>node_759daa0c&#45;&gt;node_433e71a0</title>
<path fill="none" stroke="#f0e442" stroke-width="2" d="M618.29,-1318C654.1,-1318 710,-1318 710,-1318 710,-1318 710,-1340.69 710,-1340.69"/>
<polygon fill="#f0e442" stroke="#f0e442" stroke-width="2" points="706.5,-1340.69 710,-1350.69 713.5,-1340.69 706.5,-1340.69"/>
</g>
<!-- node_2f027785 -->
<g id="node16" class="node">
<title>node_2f027785</title>
<path fill="#6db33f" stroke="black" d="M809,-1336C809,-1336 735,-1336 735,-1336 729,-1336 723,-1330 723,-1324 723,-1324 723,-1312 723,-1312 723,-1306 729,-1300 735,-1300 735,-1300 809,-1300 809,-1300 815,-1300 821,-1306 821,-1312 821,-1312 821,-1324 821,-1324 821,-1330 815,-1336 809,-1336"/>
<text text-anchor="middle" x="772" y="-1314.3" font-family="Times,serif" font-size="14.00">151: initStats()</text>
</g>
<!-- node_759daa0c&#45;&gt;node_2f027785 -->
<g id="edge26" class="edge">
<title>node_759daa0c&#45;&gt;node_2f027785</title>
<path fill="none" stroke="#f0e442" stroke-width="2" d="M618.4,-1312C618.4,-1312 709.65,-1312 709.65,-1312"/>
<polygon fill="#f0e442" stroke="#f0e442" stroke-width="2" points="709.65,-1315.5 719.65,-1312 709.65,-1308.5 709.65,-1315.5"/>
</g>
<!-- node_c87734b2 -->
<g id="node18" class="node">
<title>node_c87734b2</title>
<path fill="#6db33f" stroke="black" d="M1338.5,-1445C1338.5,-1445 1168.5,-1445 1168.5,-1445 1162.5,-1445 1156.5,-1439 1156.5,-1433 1156.5,-1433 1156.5,-1421 1156.5,-1421 1156.5,-1415 1162.5,-1409 1168.5,-1409 1168.5,-1409 1338.5,-1409 1338.5,-1409 1344.5,-1409 1350.5,-1415 1350.5,-1421 1350.5,-1421 1350.5,-1433 1350.5,-1433 1350.5,-1439 1344.5,-1445 1338.5,-1445"/>
<text text-anchor="middle" x="1253.5" y="-1423.3" font-family="Times,serif" font-size="14.00">228: showInvertedControlsDiv()</text>
</g>
<!-- node_759daa0c&#45;&gt;node_c87734b2 -->
<g id="edge27" class="edge">
<title>node_759daa0c&#45;&gt;node_c87734b2</title>
<path fill="none" stroke="#f0e442" stroke-width="2" d="M618.27,-1330C638.58,-1330 662,-1330 662,-1330 662,-1330 662,-1418.5 662,-1418.5 662,-1418.5 1143.13,-1418.5 1143.13,-1418.5"/>
<polygon fill="#f0e442" stroke="#f0e442" stroke-width="2" points="1143.13,-1422 1153.13,-1418.5 1143.13,-1415 1143.13,-1422"/>
</g>
<!-- node_1f2636d3 -->
<g id="node19" class="node">
<title>node_1f2636d3</title>
<path fill="#6db33f" stroke="black" d="M844.5,-1253C844.5,-1253 699.5,-1253 699.5,-1253 693.5,-1253 687.5,-1247 687.5,-1241 687.5,-1241 687.5,-1229 687.5,-1229 687.5,-1223 693.5,-1217 699.5,-1217 699.5,-1217 844.5,-1217 844.5,-1217 850.5,-1217 856.5,-1223 856.5,-1229 856.5,-1229 856.5,-1241 856.5,-1241 856.5,-1247 850.5,-1253 844.5,-1253"/>
<text text-anchor="middle" x="772" y="-1231.3" font-family="Times,serif" font-size="14.00">57: placeObstaclesObjects()</text>
</g>
<!-- node_759daa0c&#45;&gt;node_1f2636d3 -->
<g id="edge28" class="edge">
<title>node_759daa0c&#45;&gt;node_1f2636d3</title>
<path fill="none" stroke="#f0e442" stroke-width="2" d="M618.25,-1306C649.32,-1306 694,-1306 694,-1306 694,-1306 694,-1266.31 694,-1266.31"/>
<polygon fill="#f0e442" stroke="#f0e442" stroke-width="2" points="697.5,-1266.31 694,-1256.31 690.5,-1266.31 697.5,-1266.31"/>
</g>
<!-- node_c8944c44 -->
<g id="node20" class="node">
<title>node_c8944c44</title>
<path fill="#6db33f" stroke="black" d="M830.5,-1199C830.5,-1199 713.5,-1199 713.5,-1199 707.5,-1199 701.5,-1193 701.5,-1187 701.5,-1187 701.5,-1175 701.5,-1175 701.5,-1169 707.5,-1163 713.5,-1163 713.5,-1163 830.5,-1163 830.5,-1163 836.5,-1163 842.5,-1169 842.5,-1175 842.5,-1175 842.5,-1187 842.5,-1187 842.5,-1193 836.5,-1199 830.5,-1199"/>
<text text-anchor="middle" x="772" y="-1177.3" font-family="Times,serif" font-size="14.00">4: placeTorusObjects()</text>
</g>
<!-- node_759daa0c&#45;&gt;node_c8944c44 -->
<g id="edge29" class="edge">
<title>node_759daa0c&#45;&gt;node_c8944c44</title>
<path fill="none" stroke="#f0e442" stroke-width="2" d="M599,-1299.66C599,-1265.49 599,-1195.5 599,-1195.5 599,-1195.5 688.11,-1195.5 688.11,-1195.5"/>
<polygon fill="#f0e442" stroke="#f0e442" stroke-width="2" points="688.11,-1199 698.11,-1195.5 688.11,-1192 688.11,-1199"/>
</g>
<!-- node_7375c54c -->
<g id="node17" class="node">
<title>node_7375c54c</title>
<path fill="#cccccc" stroke="black" d="M1053.5,-1464C1053.5,-1464 946.5,-1464 946.5,-1464 940.5,-1464 934.5,-1458 934.5,-1452 934.5,-1452 934.5,-1440 934.5,-1440 934.5,-1434 940.5,-1428 946.5,-1428 946.5,-1428 1053.5,-1428 1053.5,-1428 1059.5,-1428 1065.5,-1434 1065.5,-1440 1065.5,-1440 1065.5,-1452 1065.5,-1452 1065.5,-1458 1059.5,-1464 1053.5,-1464"/>
<text text-anchor="middle" x="1000" y="-1442.3" font-family="Times,serif" font-size="14.00">218: invertControls()</text>
</g>
<!-- node_2310ce53&#45;&gt;node_7375c54c -->
<g id="edge30" class="edge">
<title>node_2310ce53&#45;&gt;node_7375c54c</title>
<path fill="none" stroke="#009e73" stroke-width="2" d="M842.27,-1446C842.27,-1446 921.22,-1446 921.22,-1446"/>
<polygon fill="#009e73" stroke="#009e73" stroke-width="2" points="921.22,-1449.5 931.22,-1446 921.22,-1442.5 921.22,-1449.5"/>
</g>
<!-- node_433e71a0&#45;&gt;node_2ac36da5 -->
<g id="edge31" class="edge">
<title>node_433e71a0&#45;&gt;node_2ac36da5</title>
<path fill="none" stroke="#000000" stroke-width="2" d="M847.29,-1372C951.49,-1372 1127,-1372 1127,-1372 1127,-1372 1127,-482.5 1127,-482.5 1127,-482.5 1188.66,-482.5 1188.66,-482.5"/>
<polygon fill="#000000" stroke="#000000" stroke-width="2" points="1188.66,-486 1198.66,-482.5 1188.66,-479 1188.66,-486"/>
</g>
<!-- node_7375c54c&#45;&gt;node_c87734b2 -->
<g id="edge33" class="edge">
<title>node_7375c54c&#45;&gt;node_c87734b2</title>
<path fill="none" stroke="#f0e442" stroke-width="2" d="M1065.94,-1436.5C1065.94,-1436.5 1143.34,-1436.5 1143.34,-1436.5"/>
<polygon fill="#f0e442" stroke="#f0e442" stroke-width="2" points="1143.34,-1440 1153.34,-1436.5 1143.34,-1433 1143.34,-1440"/>
</g>
<!-- node_74f5359b -->
<g id="node21" class="node">
<title>node_74f5359b</title>
<path fill="#6db33f" stroke="black" d="M1305.5,-431C1305.5,-431 1201.5,-431 1201.5,-431 1195.5,-431 1189.5,-425 1189.5,-419 1189.5,-419 1189.5,-407 1189.5,-407 1189.5,-401 1195.5,-395 1201.5,-395 1201.5,-395 1305.5,-395 1305.5,-395 1311.5,-395 1317.5,-401 1317.5,-407 1317.5,-407 1317.5,-419 1317.5,-419 1317.5,-425 1311.5,-431 1305.5,-431"/>
<text text-anchor="middle" x="1253.5" y="-409.3" font-family="Times,serif" font-size="14.00">93: checkCollision()</text>
</g>
<!-- node_79fa3154 -->
<g id="node23" class="node">
<title>node_79fa3154</title>
<path fill="#6db33f" stroke="black" d="M1315.5,-377C1315.5,-377 1191.5,-377 1191.5,-377 1185.5,-377 1179.5,-371 1179.5,-365 1179.5,-365 1179.5,-353 1179.5,-353 1179.5,-347 1185.5,-341 1191.5,-341 1191.5,-341 1315.5,-341 1315.5,-341 1321.5,-341 1327.5,-347 1327.5,-353 1327.5,-353 1327.5,-365 1327.5,-365 1327.5,-371 1321.5,-377 1315.5,-377"/>
<text text-anchor="middle" x="1253.5" y="-355.3" font-family="Times,serif" font-size="14.00">70: getCameraLookAt()</text>
</g>
<!-- node_db909f05 -->
<g id="node25" class="node">
<title>node_db909f05</title>
<path fill="#6db33f" stroke="black" d="M1512,-593C1512,-593 1419,-593 1419,-593 1413,-593 1407,-587 1407,-581 1407,-581 1407,-569 1407,-569 1407,-563 1413,-557 1419,-557 1419,-557 1512,-557 1512,-557 1518,-557 1524,-563 1524,-569 1524,-569 1524,-581 1524,-581 1524,-587 1518,-593 1512,-593"/>
<text text-anchor="middle" x="1465.5" y="-571.3" font-family="Times,serif" font-size="14.00">193: showVector()</text>
</g>
<!-- node_d1393352&#45;&gt;node_db909f05 -->
<g id="edge34" class="edge">
<title>node_d1393352&#45;&gt;node_db909f05</title>
<path fill="none" stroke="#56b4e9" stroke-width="2" d="M1371.28,-575C1371.28,-575 1393.56,-575 1393.56,-575"/>
<polygon fill="#56b4e9" stroke="#56b4e9" stroke-width="2" points="1393.56,-578.5 1403.56,-575 1393.56,-571.5 1393.56,-578.5"/>
</g>
<!-- node_e3d8df1c -->
<g id="node28" class="node">
<title>node_e3d8df1c</title>
<path fill="#966f33" stroke="black" d="M606,-270C606,-270 572,-270 572,-270 566,-270 560,-264 560,-258 560,-258 560,-246 560,-246 560,-240 566,-234 572,-234 572,-234 606,-234 606,-234 612,-234 618,-240 618,-246 618,-246 618,-258 618,-258 618,-264 612,-270 606,-270"/>
<text text-anchor="middle" x="589" y="-248.3" font-family="Times,serif" font-size="14.00">3: init()</text>
</g>
<!-- node_c344a295 -->
<g id="node29" class="node">
<title>node_c344a295</title>
<path fill="#6db33f" stroke="black" d="M830,-351C830,-351 714,-351 714,-351 708,-351 702,-345 702,-339 702,-339 702,-327 702,-327 702,-321 708,-315 714,-315 714,-315 830,-315 830,-315 836,-315 842,-321 842,-327 842,-327 842,-339 842,-339 842,-345 836,-351 830,-351"/>
<text text-anchor="middle" x="772" y="-329.3" font-family="Times,serif" font-size="14.00">108: initDevControls()</text>
</g>
<!-- node_e3d8df1c&#45;&gt;node_c344a295 -->
<g id="edge37" class="edge">
<title>node_e3d8df1c&#45;&gt;node_c344a295</title>
<path fill="none" stroke="#f0e442" stroke-width="2" d="M618.29,-265.5C654.1,-265.5 710,-265.5 710,-265.5 710,-265.5 710,-301.53 710,-301.53"/>
<polygon fill="#f0e442" stroke="#f0e442" stroke-width="2" points="706.5,-301.53 710,-311.53 713.5,-301.53 706.5,-301.53"/>
</g>
<!-- node_239bb5a3 -->
<g id="node30" class="node">
<title>node_239bb5a3</title>
<path fill="#6db33f" stroke="black" d="M827,-135C827,-135 717,-135 717,-135 711,-135 705,-129 705,-123 705,-123 705,-111 705,-111 705,-105 711,-99 717,-99 717,-99 827,-99 827,-99 833,-99 839,-105 839,-111 839,-111 839,-123 839,-123 839,-129 833,-135 827,-135"/>
<text text-anchor="middle" x="772" y="-113.3" font-family="Times,serif" font-size="14.00">178: initStartScreen()</text>
</g>
<!-- node_e3d8df1c&#45;&gt;node_239bb5a3 -->
<g id="edge38" class="edge">
<title>node_e3d8df1c&#45;&gt;node_239bb5a3</title>
<path fill="none" stroke="#f0e442" stroke-width="2" d="M589,-233.51C589,-196.54 589,-117 589,-117 589,-117 691.61,-117 691.61,-117"/>
<polygon fill="#f0e442" stroke="#f0e442" stroke-width="2" points="691.61,-120.5 701.61,-117 691.61,-113.5 691.61,-120.5"/>
</g>
<!-- node_5c290601 -->
<g id="node31" class="node">
<title>node_5c290601</title>
<path fill="#6db33f" stroke="black" d="M805.5,-189C805.5,-189 738.5,-189 738.5,-189 732.5,-189 726.5,-183 726.5,-177 726.5,-177 726.5,-165 726.5,-165 726.5,-159 732.5,-153 738.5,-153 738.5,-153 805.5,-153 805.5,-153 811.5,-153 817.5,-159 817.5,-165 817.5,-165 817.5,-177 817.5,-177 817.5,-183 811.5,-189 805.5,-189"/>
<text text-anchor="middle" x="772" y="-167.3" font-family="Times,serif" font-size="14.00">91: initStats()</text>
</g>
<!-- node_e3d8df1c&#45;&gt;node_5c290601 -->
<g id="edge39" class="edge">
<title>node_e3d8df1c&#45;&gt;node_5c290601</title>
<path fill="none" stroke="#f0e442" stroke-width="2" d="M604,-233.62C604,-209.72 604,-171 604,-171 604,-171 713.07,-171 713.07,-171"/>
<polygon fill="#f0e442" stroke="#f0e442" stroke-width="2" points="713.07,-174.5 723.07,-171 713.07,-167.5 713.07,-174.5"/>
</g>
<!-- node_35bc84e3 -->
<g id="node32" class="node">
<title>node_35bc84e3</title>
<path fill="#6db33f" stroke="black" d="M852,-243C852,-243 692,-243 692,-243 686,-243 680,-237 680,-231 680,-231 680,-219 680,-219 680,-213 686,-207 692,-207 692,-207 852,-207 852,-207 858,-207 864,-213 864,-219 864,-219 864,-231 864,-231 864,-237 858,-243 852,-243"/>
<text text-anchor="middle" x="772" y="-221.3" font-family="Times,serif" font-size="14.00">194: putStartScreenOnReady()</text>
</g>
<!-- node_e3d8df1c&#45;&gt;node_35bc84e3 -->
<g id="edge40" class="edge">
<title>node_e3d8df1c&#45;&gt;node_35bc84e3</title>
<path fill="none" stroke="#f0e442" stroke-width="2" d="M618.4,-238.5C618.4,-238.5 666.72,-238.5 666.72,-238.5"/>
<polygon fill="#f0e442" stroke="#f0e442" stroke-width="2" points="666.72,-242 676.72,-238.5 666.72,-235 666.72,-242"/>
</g>
<!-- node_2338cfc9 -->
<g id="node33" class="node">
<title>node_2338cfc9</title>
<path fill="#6db33f" stroke="black" d="M814.5,-297C814.5,-297 729.5,-297 729.5,-297 723.5,-297 717.5,-291 717.5,-285 717.5,-285 717.5,-273 717.5,-273 717.5,-267 723.5,-261 729.5,-261 729.5,-261 814.5,-261 814.5,-261 820.5,-261 826.5,-267 826.5,-273 826.5,-273 826.5,-285 826.5,-285 826.5,-291 820.5,-297 814.5,-297"/>
<text text-anchor="middle" x="772" y="-275.3" font-family="Times,serif" font-size="14.00">184: startScene()</text>
</g>
<!-- node_e3d8df1c&#45;&gt;node_2338cfc9 -->
<g id="edge41" class="edge">
<title>node_e3d8df1c&#45;&gt;node_2338cfc9</title>
<path fill="none" stroke="#f0e442" stroke-width="2" d="M618.4,-263.25C618.4,-263.25 704.18,-263.25 704.18,-263.25"/>
<polygon fill="#f0e442" stroke="#f0e442" stroke-width="2" points="704.18,-266.75 714.18,-263.25 704.18,-259.75 704.18,-266.75"/>
</g>
<!-- node_f799ac07 -->
<g id="node39" class="node">
<title>node_f799ac07</title>
<path fill="#cccccc" stroke="black" d="M824,-706C824,-706 720,-706 720,-706 714,-706 708,-700 708,-694 708,-694 708,-682 708,-682 708,-676 714,-670 720,-670 720,-670 824,-670 824,-670 830,-670 836,-676 836,-682 836,-682 836,-694 836,-694 836,-700 830,-706 824,-706"/>
<text text-anchor="middle" x="772" y="-684.3" font-family="Times,serif" font-size="14.00">18: initInteractions()</text>
</g>
<!-- node_e3d8df1c&#45;&gt;node_f799ac07 -->
<g id="edge46" class="edge">
<title>node_e3d8df1c&#45;&gt;node_f799ac07</title>
<path fill="none" stroke="#f0e442" stroke-width="2" d="M575,-270.46C575,-353.44 575,-688 575,-688 575,-688 694.74,-688 694.74,-688"/>
<polygon fill="#f0e442" stroke="#f0e442" stroke-width="2" points="694.74,-691.5 704.74,-688 694.74,-684.5 694.74,-691.5"/>
</g>
<!-- node_885569e6 -->
<g id="node44" class="node">
<title>node_885569e6</title>
<path fill="#cccccc" stroke="black" d="M811.5,-52C811.5,-52 732.5,-52 732.5,-52 726.5,-52 720.5,-46 720.5,-40 720.5,-40 720.5,-28 720.5,-28 720.5,-22 726.5,-16 732.5,-16 732.5,-16 811.5,-16 811.5,-16 817.5,-16 823.5,-22 823.5,-28 823.5,-28 823.5,-40 823.5,-40 823.5,-46 817.5,-52 811.5,-52"/>
<text text-anchor="middle" x="772" y="-30.3" font-family="Times,serif" font-size="14.00">6: placeLights()</text>
</g>
<!-- node_e3d8df1c&#45;&gt;node_885569e6 -->
<g id="edge47" class="edge">
<title>node_e3d8df1c&#45;&gt;node_885569e6</title>
<path fill="none" stroke="#f0e442" stroke-width="2" d="M575,-233.79C575,-181.39 575,-34 575,-34 575,-34 707.21,-34 707.21,-34"/>
<polygon fill="#f0e442" stroke="#f0e442" stroke-width="2" points="707.21,-37.5 717.21,-34 707.21,-30.5 707.21,-37.5"/>
</g>
<!-- node_6cd49c5e -->
<g id="node45" class="node">
<title>node_6cd49c5e</title>
<path fill="#cccccc" stroke="black" d="M1043,-323C1043,-323 957,-323 957,-323 951,-323 945,-317 945,-311 945,-311 945,-299 945,-299 945,-293 951,-287 957,-287 957,-287 1043,-287 1043,-287 1049,-287 1055,-293 1055,-299 1055,-299 1055,-311 1055,-311 1055,-317 1049,-323 1043,-323"/>
<text text-anchor="middle" x="1000" y="-301.3" font-family="Times,serif" font-size="14.00">6: placeObjects()</text>
</g>
<!-- node_e3d8df1c&#45;&gt;node_6cd49c5e -->
<g id="edge48" class="edge">
<title>node_e3d8df1c&#45;&gt;node_6cd49c5e</title>
<path fill="none" stroke="#f0e442" stroke-width="2" d="M604,-270.28C604,-285.95 604,-306 604,-306 604,-306 931.49,-306 931.49,-306"/>
<polygon fill="#f0e442" stroke="#f0e442" stroke-width="2" points="931.49,-309.5 941.49,-306 931.49,-302.5 931.49,-309.5"/>
</g>
<!-- node_71c6a240 -->
<g id="node49" class="node">
<title>node_71c6a240</title>
<path fill="#6db33f" stroke="black" d="M845,-488C845,-488 699,-488 699,-488 693,-488 687,-482 687,-476 687,-476 687,-464 687,-464 687,-458 693,-452 699,-452 699,-452 845,-452 845,-452 851,-452 857,-458 857,-464 857,-464 857,-476 857,-476 857,-482 851,-488 845,-488"/>
<text text-anchor="middle" x="772" y="-466.3" font-family="Times,serif" font-size="14.00">215: initMouseClickMove()</text>
</g>
<!-- node_e3d8df1c&#45;&gt;node_71c6a240 -->
<g id="edge49" class="edge">
<title>node_e3d8df1c&#45;&gt;node_71c6a240</title>
<path fill="none" stroke="#f0e442" stroke-width="2" d="M618.25,-267.75C649.62,-267.75 695,-267.75 695,-267.75 695,-267.75 695,-438.67 695,-438.67"/>
<polygon fill="#f0e442" stroke="#f0e442" stroke-width="2" points="691.5,-438.67 695,-448.67 698.5,-438.67 691.5,-438.67"/>
</g>
<!-- node_ece0d9e4 -->
<g id="node50" class="node">
<title>node_ece0d9e4</title>
<path fill="#cccccc" stroke="black" d="M807,-434C807,-434 737,-434 737,-434 731,-434 725,-428 725,-422 725,-422 725,-410 725,-410 725,-404 731,-398 737,-398 737,-398 807,-398 807,-398 813,-398 819,-404 819,-410 819,-410 819,-422 819,-422 819,-428 813,-434 807,-434"/>
<text text-anchor="middle" x="772" y="-412.3" font-family="Times,serif" font-size="14.00">15: initWalk()</text>
</g>
<!-- node_e3d8df1c&#45;&gt;node_ece0d9e4 -->
<g id="edge50" class="edge">
<title>node_e3d8df1c&#45;&gt;node_ece0d9e4</title>
<path fill="none" stroke="#f0e442" stroke-width="2" d="M589,-270.49C589,-313.38 589,-416 589,-416 589,-416 711.85,-416 711.85,-416"/>
<polygon fill="#f0e442" stroke="#f0e442" stroke-width="2" points="711.85,-419.5 721.85,-416 711.85,-412.5 711.85,-419.5"/>
</g>
<!-- node_8345cbb6 -->
<g id="node37" class="node">
<title>node_8345cbb6</title>
<path fill="#6db33f" stroke="black" d="M1088,-625C1088,-625 912,-625 912,-625 906,-625 900,-619 900,-613 900,-613 900,-601 900,-601 900,-595 906,-589 912,-589 912,-589 1088,-589 1088,-589 1094,-589 1100,-595 1100,-601 1100,-601 1100,-613 1100,-613 1100,-619 1094,-625 1088,-625"/>
<text text-anchor="middle" x="1000" y="-603.3" font-family="Times,serif" font-size="14.00">98: initAdjustBlackboardHeight()</text>
</g>
<!-- node_be8f0a1a -->
<g id="node38" class="node">
<title>node_be8f0a1a</title>
<path fill="#6db33f" stroke="black" d="M1041.5,-679C1041.5,-679 958.5,-679 958.5,-679 952.5,-679 946.5,-673 946.5,-667 946.5,-667 946.5,-655 946.5,-655 946.5,-649 952.5,-643 958.5,-643 958.5,-643 1041.5,-643 1041.5,-643 1047.5,-643 1053.5,-649 1053.5,-655 1053.5,-655 1053.5,-667 1053.5,-667 1053.5,-673 1047.5,-679 1041.5,-679"/>
<text text-anchor="middle" x="1000" y="-657.3" font-family="Times,serif" font-size="14.00">33: initInfoDiv()</text>
</g>
<!-- node_f799ac07&#45;&gt;node_8345cbb6 -->
<g id="edge51" class="edge">
<title>node_f799ac07&#45;&gt;node_8345cbb6</title>
<path fill="none" stroke="#cc79a7" stroke-width="2" d="M836.31,-673C873.5,-673 913,-673 913,-673 913,-673 913,-638.41 913,-638.41"/>
<polygon fill="#cc79a7" stroke="#cc79a7" stroke-width="2" points="916.5,-638.41 913,-628.41 909.5,-638.41 916.5,-638.41"/>
</g>
<!-- node_f799ac07&#45;&gt;node_be8f0a1a -->
<g id="edge52" class="edge">
<title>node_f799ac07&#45;&gt;node_be8f0a1a</title>
<path fill="none" stroke="#cc79a7" stroke-width="2" d="M836.42,-676C836.42,-676 933.11,-676 933.11,-676"/>
<polygon fill="#cc79a7" stroke="#cc79a7" stroke-width="2" points="933.11,-679.5 943.11,-676 933.11,-672.5 933.11,-679.5"/>
</g>
<!-- node_ec692a10 -->
<g id="node40" class="node">
<title>node_ec692a10</title>
<path fill="#6db33f" stroke="black" d="M1055.5,-733C1055.5,-733 944.5,-733 944.5,-733 938.5,-733 932.5,-727 932.5,-721 932.5,-721 932.5,-709 932.5,-709 932.5,-703 938.5,-697 944.5,-697 944.5,-697 1055.5,-697 1055.5,-697 1061.5,-697 1067.5,-703 1067.5,-709 1067.5,-709 1067.5,-721 1067.5,-721 1067.5,-727 1061.5,-733 1055.5,-733"/>
<text text-anchor="middle" x="1000" y="-711.3" font-family="Times,serif" font-size="14.00">241: initOpenCloset()</text>
</g>
<!-- node_f799ac07&#45;&gt;node_ec692a10 -->
<g id="edge53" class="edge">
<title>node_f799ac07&#45;&gt;node_ec692a10</title>
<path fill="none" stroke="#cc79a7" stroke-width="2" d="M836.42,-698.8C836.42,-698.8 919.13,-698.8 919.13,-698.8"/>
<polygon fill="#cc79a7" stroke="#cc79a7" stroke-width="2" points="919.13,-702.3 929.13,-698.8 919.13,-695.3 919.13,-702.3"/>
</g>
<!-- node_f2336f1d -->
<g id="node41" class="node">
<title>node_f2336f1d</title>
<path fill="#6db33f" stroke="black" d="M1071.5,-787C1071.5,-787 928.5,-787 928.5,-787 922.5,-787 916.5,-781 916.5,-775 916.5,-775 916.5,-763 916.5,-763 916.5,-757 922.5,-751 928.5,-751 928.5,-751 1071.5,-751 1071.5,-751 1077.5,-751 1083.5,-757 1083.5,-763 1083.5,-763 1083.5,-775 1083.5,-775 1083.5,-781 1077.5,-787 1071.5,-787"/>
<text text-anchor="middle" x="1000" y="-765.3" font-family="Times,serif" font-size="14.00">202: initPutChairOnTable()</text>
</g>
<!-- node_f799ac07&#45;&gt;node_f2336f1d -->
<g id="edge54" class="edge">
<title>node_f799ac07&#45;&gt;node_f2336f1d</title>
<path fill="none" stroke="#cc79a7" stroke-width="2" d="M836.44,-700.6C878.26,-700.6 925,-700.6 925,-700.6 925,-700.6 925,-737.64 925,-737.64"/>
<polygon fill="#cc79a7" stroke="#cc79a7" stroke-width="2" points="921.5,-737.64 925,-747.64 928.5,-737.64 921.5,-737.64"/>
</g>
<!-- node_da2a745f -->
<g id="node42" class="node">
<title>node_da2a745f</title>
<path fill="#cccccc" stroke="black" d="M1057,-841C1057,-841 943,-841 943,-841 937,-841 931,-835 931,-829 931,-829 931,-817 931,-817 931,-811 937,-805 943,-805 943,-805 1057,-805 1057,-805 1063,-805 1069,-811 1069,-817 1069,-817 1069,-829 1069,-829 1069,-835 1063,-841 1057,-841"/>
<text text-anchor="middle" x="1000" y="-819.3" font-family="Times,serif" font-size="14.00">148: initSwitchLight()</text>
</g>
<!-- node_f799ac07&#45;&gt;node_da2a745f -->
<g id="edge55" class="edge">
<title>node_f799ac07&#45;&gt;node_da2a745f</title>
<path fill="none" stroke="#cc79a7" stroke-width="2" d="M836.38,-704.2C866.14,-704.2 895,-704.2 895,-704.2 895,-704.2 895,-809.5 895,-809.5 895,-809.5 917.52,-809.5 917.52,-809.5"/>
<polygon fill="#cc79a7" stroke="#cc79a7" stroke-width="2" points="917.52,-813 927.52,-809.5 917.52,-806 917.52,-813"/>
</g>
<!-- node_104c4c74 -->
<g id="node43" class="node">
<title>node_104c4c74</title>
<path fill="#6db33f" stroke="black" d="M1083.5,-895C1083.5,-895 916.5,-895 916.5,-895 910.5,-895 904.5,-889 904.5,-883 904.5,-883 904.5,-871 904.5,-871 904.5,-865 910.5,-859 916.5,-859 916.5,-859 1083.5,-859 1083.5,-859 1089.5,-859 1095.5,-865 1095.5,-871 1095.5,-871 1095.5,-883 1095.5,-883 1095.5,-889 1089.5,-895 1083.5,-895"/>
<text text-anchor="middle" x="1000" y="-873.3" font-family="Times,serif" font-size="14.00">85: initTriggerFlightSimulator()</text>
</g>
<!-- node_f799ac07&#45;&gt;node_104c4c74 -->
<g id="edge56" class="edge">
<title>node_f799ac07&#45;&gt;node_104c4c74</title>
<path fill="none" stroke="#cc79a7" stroke-width="2" d="M836.49,-702.4C872.02,-702.4 909,-702.4 909,-702.4 909,-702.4 909,-845.62 909,-845.62"/>
<polygon fill="#cc79a7" stroke="#cc79a7" stroke-width="2" points="905.5,-845.62 909,-855.62 912.5,-845.62 905.5,-845.62"/>
</g>
<!-- node_da2a745f&#45;&gt;node_2ac36da5 -->
<g id="edge57" class="edge">
<title>node_da2a745f&#45;&gt;node_2ac36da5</title>
<path fill="none" stroke="#cc79a7" stroke-width="2" d="M1069.32,-823C1095.01,-823 1118,-823 1118,-823 1118,-823 1118,-480 1118,-480 1118,-480 1188.86,-480 1188.86,-480"/>
<polygon fill="#cc79a7" stroke="#cc79a7" stroke-width="2" points="1188.86,-483.5 1198.86,-480 1188.86,-476.5 1188.86,-483.5"/>
</g>
<!-- node_885569e6&#45;&gt;node_a1e61d49 -->
<g id="edge63" class="edge">
<title>node_885569e6&#45;&gt;node_a1e61d49</title>
<path fill="none" stroke="#d55e00" stroke-width="2" d="M823.58,-34C947.93,-34 1254,-34 1254,-34 1254,-34 1254,-273.77 1254,-273.77"/>
<polygon fill="#d55e00" stroke="#d55e00" stroke-width="2" points="1250.5,-273.77 1254,-283.77 1257.5,-273.77 1250.5,-273.77"/>
</g>
<!-- node_6cd49c5e&#45;&gt;node_2ac36da5 -->
<g id="edge64" class="edge">
<title>node_6cd49c5e&#45;&gt;node_2ac36da5</title>
<path fill="none" stroke="#d55e00" stroke-width="2" d="M1055.09,-314C1070.92,-314 1084,-314 1084,-314 1084,-314 1084,-462 1084,-462 1084,-462 1188.7,-462 1188.7,-462"/>
<polygon fill="#d55e00" stroke="#d55e00" stroke-width="2" points="1188.7,-465.5 1198.7,-462 1188.7,-458.5 1188.7,-465.5"/>
</g>
<!-- node_6cd49c5e&#45;&gt;node_a1e61d49 -->
<g id="edge76" class="edge">
<title>node_6cd49c5e&#45;&gt;node_a1e61d49</title>
<path fill="none" stroke="#d55e00" stroke-width="2" d="M1055.32,-296C1055.32,-296 1142.1,-296 1142.1,-296"/>
<polygon fill="#d55e00" stroke="#d55e00" stroke-width="2" points="1142.1,-299.5 1152.1,-296 1142.1,-292.5 1142.1,-299.5"/>
</g>
<!-- node_7475677d -->
<g id="node46" class="node">
<title>node_7475677d</title>
<path fill="#6db33f" stroke="black" d="M1048,-475C1048,-475 952,-475 952,-475 946,-475 940,-469 940,-463 940,-463 940,-451 940,-451 940,-445 946,-439 952,-439 952,-439 1048,-439 1048,-439 1054,-439 1060,-445 1060,-451 1060,-451 1060,-463 1060,-463 1060,-469 1054,-475 1048,-475"/>
<text text-anchor="middle" x="1000" y="-453.3" font-family="Times,serif" font-size="14.00">131: createPlayer()</text>
</g>
<!-- node_0183b2b3 -->
<g id="node47" class="node">
<title>node_0183b2b3</title>
<path fill="#cccccc" stroke="black" d="M1054.5,-529C1054.5,-529 945.5,-529 945.5,-529 939.5,-529 933.5,-523 933.5,-517 933.5,-517 933.5,-505 933.5,-505 933.5,-499 939.5,-493 945.5,-493 945.5,-493 1054.5,-493 1054.5,-493 1060.5,-493 1066.5,-499 1066.5,-505 1066.5,-505 1066.5,-517 1066.5,-517 1066.5,-523 1060.5,-529 1054.5,-529"/>
<text text-anchor="middle" x="1000" y="-507.3" font-family="Times,serif" font-size="14.00">89: getNewPosition()</text>
</g>
<!-- node_0183b2b3&#45;&gt;node_2ac36da5 -->
<g id="edge85" class="edge">
<title>node_0183b2b3&#45;&gt;node_2ac36da5</title>
<path fill="none" stroke="#009e73" stroke-width="2" d="M1066.74,-498C1141.99,-498 1254,-498 1254,-498 1254,-498 1254,-496.74 1254,-496.74"/>
<polygon fill="#009e73" stroke="#009e73" stroke-width="2" points="1257.5,-498.42 1254,-488.42 1250.5,-498.42 1257.5,-498.42"/>
</g>
<!-- node_c112998b&#45;&gt;node_74f5359b -->
<g id="edge87" class="edge">
<title>node_c112998b&#45;&gt;node_74f5359b</title>
<path fill="none" stroke="#009e73" stroke-width="2" d="M840.42,-517.5C859.44,-517.5 875,-517.5 875,-517.5 875,-517.5 875,-414.5 875,-414.5 875,-414.5 1176.27,-414.5 1176.27,-414.5"/>
<polygon fill="#009e73" stroke="#009e73" stroke-width="2" points="1176.27,-418 1186.27,-414.5 1176.27,-411 1176.27,-418"/>
</g>
<!-- node_c112998b&#45;&gt;node_79fa3154 -->
<g id="edge88" class="edge">
<title>node_c112998b&#45;&gt;node_79fa3154</title>
<path fill="none" stroke="#009e73" stroke-width="2" d="M840.33,-511.75C856.93,-511.75 870,-511.75 870,-511.75 870,-511.75 870,-364 870,-364 870,-364 1166.08,-364 1166.08,-364"/>
<polygon fill="#009e73" stroke="#009e73" stroke-width="2" points="1166.08,-367.5 1176.08,-364 1166.08,-360.5 1166.08,-367.5"/>
</g>
<!-- node_c112998b&#45;&gt;node_0183b2b3 -->
<g id="edge89" class="edge">
<title>node_c112998b&#45;&gt;node_0183b2b3</title>
<path fill="none" stroke="#009e73" stroke-width="2" d="M840.41,-523.25C840.41,-523.25 920.18,-523.25 920.18,-523.25"/>
<polygon fill="#009e73" stroke="#009e73" stroke-width="2" points="920.18,-526.75 930.18,-523.25 920.18,-519.75 920.18,-526.75"/>
</g>
<!-- node_ece0d9e4&#45;&gt;node_7475677d -->
<g id="edge90" class="edge">
<title>node_ece0d9e4&#45;&gt;node_7475677d</title>
<path fill="none" stroke="#f0e442" stroke-width="2" d="M772,-434.18C772,-440.25 772,-445.5 772,-445.5 772,-445.5 926.77,-445.5 926.77,-445.5"/>
<polygon fill="#f0e442" stroke="#f0e442" stroke-width="2" points="926.77,-449 936.77,-445.5 926.77,-442 926.77,-449"/>
</g>
</g>
</svg>
